<?xml version="1.0" encoding="utf-8"?>
<!-- Generator: Adobe Illustrator 19.2.1, SVG Export Plug-In . SVG Version: 6.00 Build 0)  -->
<svg version="1.1" id="layer" xmlns="http://www.w3.org/2000/svg" xmlns:xlink="http://www.w3.org/1999/xlink" x="0px" y="0px"
	 viewBox="0 0 652 652" style="enable-background:new 0 0 652 652;" xml:space="preserve">
<style type="text/css">
	.st0{fill:#FFE100;}
	.st1{fill:#009E41;}
	.st2{fill:#FFFFFF;}
</style>
<g>
	<path class="st0" d="M591.9,279.1l-185.2,0c-6.2-42.1-42.4-74.5-86.3-74.5c-43.9,0-80,32.4-86.3,74.5l-185.2,0
		c-15.7,0-28.5,12.8-28.5,28.6v101.6c0,15.7,12.8,28.6,28.5,28.6h542.9c15.7,0,28.6-12.8,28.6-28.6V307.6
		C620.4,291.9,607.6,279.1,591.9,279.1"/>
	<path class="st1" d="M590.2,297H50.7c-6.8,0-12.3,5.5-12.3,12.3v98.3c0,6.8,5.5,12.2,12.3,12.2h539.5c6.8,0,12.3-5.5,12.3-12.2
		v-98.3C602.4,302.5,596.9,297,590.2,297"/>
	<path class="st2" d="M77.7,401.5c-11.9,0-17.3-8.3-18.5-22.5l12.8-2.3c0.9,10.1,2.8,12.6,5.7,12.6c3.3,0,4.8-2.2,4.8-7.5
		c0-8-2.5-11.7-10-20.1c-8.5-8.6-12.6-16.4-12.6-26c0-11.7,5.7-20.4,17.2-20.4c11.7,0,16.3,7.9,17.9,20.2l-12.5,2.6
		c-1-8.2-2.4-10.7-5.4-10.7c-2.9,0-4.3,2-4.3,7.2c0,5.9,2,9.3,8.6,16.4c9.6,9.8,14.2,18.1,14.2,29.6C95.4,392.9,89,401.5,77.7,401.5
		"/>
	<polygon class="st2" points="102.7,400.2 102.7,316.7 133.9,316.7 133.9,329.1 116,329.1 116,350 129.8,350 129.8,362.4 116,362.4 
		116,387.8 135,387.8 135,400.2 	"/>
	<path class="st2" d="M158,401.5c-11.9,0-17.3-8.3-18.5-22.5l12.8-2.3c1,10.1,2.8,12.6,5.7,12.6c3.3,0,4.8-2.2,4.8-7.5
		c0-8-2.5-11.7-10-20.1c-8.5-8.6-12.7-16.4-12.7-26c0-11.7,5.7-20.4,17.2-20.4c11.7,0,16.4,7.9,17.9,20.2l-12.5,2.6
		c-1-8.2-2.4-10.7-5.4-10.7c-2.9,0-4.3,2-4.3,7.2c0,5.9,2,9.3,8.6,16.4c9.7,9.8,14.2,18.1,14.2,29.6
		C175.8,392.9,169.3,401.5,158,401.5"/>
	<path class="st2" d="M203.1,369.8h-7.4l1.8-15.2c0.7-6,1.5-12.9,1.8-19.4c0.4,6.6,1.2,13.3,1.9,19.3L203.1,369.8z M220,400.2
		l-13.2-83.5h-14.3l-13.2,83.5h13.2l2.2-18.4h9.8l2.3,18.4H220z"/>
	<path class="st2" d="M261.6,400.2v-21.8c0-10.1,0.3-19.8,0.6-28.4c-1.2,6.6-3.8,19-6,27.4l-6,25.3l-5.9-25.3
		c-2-8.1-4.6-21.1-5.8-27.4c0.1,7.9,0.6,18.6,0.6,28.4v21.8h-11.9v-83.5h13.1l5.5,25.4c1.8,7.5,3.7,17.2,4.4,24
		c0.7-6.8,2.7-16.5,4.5-24.1l5.6-25.3h13.1v83.5H261.6z"/>
	<polygon class="st2" points="284.3,400.2 284.3,316.7 315.6,316.7 315.6,329.1 297.7,329.1 297.7,350 311.4,350 311.4,362.4 
		297.7,362.4 297.7,387.8 316.6,387.8 316.6,400.2 	"/>
	<path class="st2" d="M362,401.5c-11.9,0-17.3-8.3-18.5-22.5l12.7-2.3c1,10.1,2.8,12.6,5.7,12.6c3.3,0,4.8-2.2,4.8-7.5
		c0-8-2.5-11.7-10-20.1c-8.5-8.6-12.7-16.4-12.7-26c0-11.7,5.7-20.4,17.2-20.4c11.7,0,16.3,7.9,17.9,20.2l-12.5,2.6
		c-1-8.2-2.4-10.7-5.3-10.7c-2.9,0-4.3,2-4.3,7.2c0,5.9,2,9.3,8.6,16.4c9.6,9.8,14.2,18.1,14.2,29.6
		C379.7,392.9,373.3,401.5,362,401.5"/>
	<polygon class="st2" points="406.6,329.1 406.6,400.2 393.2,400.2 393.2,329.1 382,329.1 382,316.7 417.9,316.7 417.9,329.1 	"/>
	<path class="st2" d="M447.2,340.3c0,8.8-2.3,12.2-6.8,12.2h-2.7V328h3.1C445.5,328,447.2,331.1,447.2,340.3 M461.5,400.2l-8.2-40.5
		c4.7-3.7,7.4-10.3,7.4-19.9c0-17.4-8.5-23.1-18.8-23.1h-17.4v83.5h13.2v-36.7h3.3l6.9,36.7H461.5z"/>
	<polygon class="st2" points="470.4,400.2 470.4,316.7 501.6,316.7 501.6,329.1 483.7,329.1 483.7,350 497.4,350 497.4,362.4 
		483.7,362.4 483.7,387.8 502.7,387.8 502.7,400.2 	"/>
	<polygon class="st2" points="511.3,400.2 511.3,316.7 542.5,316.7 542.5,329.1 524.6,329.1 524.6,350 538.3,350 538.3,362.4 
		524.6,362.4 524.6,387.8 543.6,387.8 543.6,400.2 	"/>
	<polygon class="st2" points="572.2,329.1 572.2,400.2 558.9,400.2 558.9,329.1 547.6,329.1 547.6,316.7 583.6,316.7 583.6,329.1 	
		"/>
	<path class="st2" d="M595.8,407.6c0,3.2-2.4,5.7-5.7,5.7c-3.2,0-5.7-2.5-5.7-5.7c0-3.3,2.5-5.7,5.7-5.7
		C593.4,401.8,595.8,404.3,595.8,407.6 M597,407.6c0-3.9-3-7-6.9-7c-3.9,0-6.9,3-6.9,7c0,3.9,3,6.9,6.9,6.9
		C594.1,414.5,597,411.5,597,407.6 M593.4,406c0-1.6-1.1-2.4-2.6-2.4h-3.5v7.6h1.6v-2.8h1.3l1.3,2.8h1.8l-1.5-3
		C592.7,407.9,593.4,407.3,593.4,406 M591.8,406c0,0.6-0.4,1-1.1,1h-1.8v-1.9h1.8C591.4,405.1,591.8,405.4,591.8,406"/>
	<path class="st1" d="M385,273.9c-5.4-28.8-33.8-51.3-64.6-51.3c-30.8,0-59.2,22.5-64.6,51.3c0,4.3,3.3,5.2,4.6,5.2h120
		c1.3,0,4.7-0.9,4.7-5L385,273.9L385,273.9z"/>
	<path class="st2" d="M295,239.8c-0.6,2.1-1.7,3.6-4.4,4l-0.2,0v3.5h3.8l0,21.1h0.2h5.3v-28.7h-4.6L295,239.8z"/>
	<path class="st2" d="M321,255.6c2.7-2.1,4.7-4.5,4.7-8.5c0-5-3.4-7.8-8.4-7.8c-3.5,0-6.1,1.6-8,4l-0.1,0.1l3.4,4l0.1-0.1
		c1.3-1.5,2.7-2.5,4.4-2.5c2,0,3,0.9,3.1,3.1c0,1.7-0.7,2.8-2.6,4.2c-5.4,3.8-8.2,7.6-8.5,16.3v0.2h0.2h16.4v-5.3h-10.5
		C315.5,260.3,317.2,258.4,321,255.6"/>
	<path class="st2" d="M345.8,253c2.2-0.9,3.7-2.8,3.7-5.9c0-4.8-3.3-7.9-8.3-7.9c-3.8,0-5.9,1.4-8,3.8l-0.1,0.1l3.6,3.7l0.1-0.1
		c1.5-1.5,2.5-2,4-2c2.4,0,3.1,1.3,3.2,3.1c0,1.9-1.2,2.9-3.5,2.9h-2h-0.2v5.3h2.1c2.6,0,4.3,1.1,4.3,3.9c0,2.2-1.3,3.7-3.6,3.7
		c-1.8,0-3.2-0.8-4.7-3l-0.1-0.1l-4.3,3l0.1,0.1c2.2,3.6,5,5.3,8.8,5.3h0c5.8,0,9.3-3.5,9.3-9.1C350.3,256,348.1,253.8,345.8,253"/>
</g>
</svg>
