<?xml version="1.0" encoding="utf-8"?>
<!-- Generator: Adobe Illustrator 17.0.0, SVG Export Plug-In . SVG Version: 6.00 Build 0)  -->
<!DOCTYPE svg PUBLIC "-//W3C//DTD SVG 1.1//EN" "http://www.w3.org/Graphics/SVG/1.1/DTD/svg11.dtd">
<svg version="1.1" id="Calque_1" xmlns="http://www.w3.org/2000/svg" xmlns:xlink="http://www.w3.org/1999/xlink" x="0px" y="0px"
	 width="349px" height="90.2px" viewBox="0 0 349 90.2" enable-background="new 0 0 349 90.2" xml:space="preserve">
<g>
	<path fill="#297AA9" stroke="#000102" stroke-width="2" stroke-miterlimit="10" d="M220.3,64.3h31h88.3c4.7,0,8.5-3.8,8.5-8.5V9.5
		c0-4.7-3.8-8.5-8.5-8.5H9.5C4.8,1,1,4.8,1,9.5v46.3c0,4.7,3.8,8.5,8.5,8.5h115.3c0,0,12.8,26.6,51.8,24.8
		C211,87.5,220.3,64.3,220.3,64.3z"/>
	<path fill="#0F3B51" stroke="#000102" stroke-width="2" stroke-miterlimit="10" d="M339,58.9c2,0,3.6-1.6,3.7-3.7V10
		c0-2-1.6-3.6-3.7-3.6H10C8,6.4,6.4,8,6.4,10v45.2c0,2,1.6,3.7,3.7,3.7h240.6H339z"/>
</g>
<path fill="#0F3B51" stroke="#000102" stroke-width="2" stroke-miterlimit="10" d="M129.6,64.1c3.6-0.6,85.1-1.2,86.5,0.6
	c1.4,1.8-17.5,21.5-43.4,21.4C146.9,85.9,126,64.7,129.6,64.1z"/>
<g>
	<path fill="#FFFFFF" d="M159.8,68.2c0,0.5-0.1,1-0.2,1.6s-0.4,1-0.7,1.5c0.3,0.5,0.5,1.1,0.7,1.6c0.2,0.6,0.3,1.2,0.3,1.8
		c0,0.8-0.2,1.4-0.5,2.1s-0.7,1.2-1.3,1.6v0c-0.7,0.5-1.4,0.9-2.2,1.1c-0.8,0.2-1.5,0.3-2.2,0.3c-0.4,0-0.8,0-1.2-0.1
		c-0.4-0.1-0.8-0.1-1.2-0.2c-0.1,0-0.3-0.1-0.4-0.3s-0.1-0.3-0.1-0.5v0c0-1.6,0.1-3.1,0.2-4.6c0.1-1.5,0.2-3.1,0.4-4.6
		c0-0.4,0.1-0.7,0.3-1.1c0.2-0.4,0.4-0.7,0.7-1c0.3-0.2,0.5-0.4,0.8-0.6c0.3-0.1,0.6-0.3,0.8-0.4l0.2-0.1c0.2-0.1,0.5-0.2,0.8-0.3
		c0.3-0.1,0.5-0.2,0.8-0.3c0.3-0.1,0.6-0.2,0.8-0.2c0.3-0.1,0.5-0.1,0.8-0.1c0.3,0,0.5,0.1,0.8,0.2c0.2,0.1,0.4,0.2,0.6,0.4
		c0.2,0.2,0.4,0.4,0.5,0.6c0.1,0.2,0.3,0.5,0.4,0.7C159.7,67.6,159.8,67.9,159.8,68.2z M155.8,74.2c-0.3-0.1-0.6-0.2-0.9-0.2
		c-0.4,0-0.7,0-1,0.1c-0.3,0.1-0.5,0.1-0.6,0.3c-0.2,0.1-0.3,0.3-0.3,0.5c-0.1,0.2-0.1,0.4-0.1,0.7v0c0,0.1,0,0.1,0,0.2
		c0,0.1,0,0.1,0,0.2c0,0.3,0.1,0.5,0.2,0.7c0.1,0.2,0.3,0.3,0.6,0.3c0.1,0,0.1,0,0.2,0c0.2,0,0.5-0.1,0.8-0.2
		c0.3-0.1,0.5-0.1,0.8-0.3s0.5-0.3,0.7-0.5s0.4-0.5,0.5-0.8c0,0,0,0,0-0.1c0-0.1,0-0.2-0.1-0.3C156.3,74.6,156.1,74.3,155.8,74.2z
		 M156.4,69.3c0-0.1,0-0.1,0-0.2c-0.3-0.1-0.5-0.1-0.8-0.2c-0.3-0.1-0.5-0.1-0.8-0.1c-0.4,0-0.8,0.1-1,0.3c-0.2,0.2-0.4,0.4-0.5,0.6
		s-0.2,0.5-0.2,0.8c0,0.3-0.1,0.6-0.1,0.9v0c0,0.1,0.1,0.1,0.2,0.1c0,0,0.1,0,0.1,0s0.1,0,0.1,0c0.3-0.1,0.6-0.2,0.9-0.3
		c0.3-0.1,0.6-0.2,0.9-0.2l0,0c0,0,0,0,0.1,0c0.3-0.1,0.5-0.3,0.7-0.6c0.2-0.3,0.3-0.6,0.4-0.9C156.5,69.5,156.5,69.4,156.4,69.3z"
		/>
	<path fill="#FFFFFF" d="M167.4,77.1c-0.3,0.6-0.7,1-1.1,1.4c-0.4,0.4-0.9,0.7-1.4,1c-0.5,0.2-1,0.4-1.6,0.4c-0.5,0-1-0.1-1.4-0.4
		s-0.7-0.6-0.9-1c-0.2-0.4-0.4-0.9-0.5-1.4c-0.1-0.5-0.2-1.1-0.2-1.6c0-0.5,0.1-1.1,0.2-1.7c0.1-0.6,0.2-1.1,0.4-1.7
		c0.2-0.5,0.5-1,0.8-1.5c0.3-0.5,0.7-0.9,1.1-1.2c0.4-0.4,0.9-0.6,1.4-0.8c0.5-0.2,1-0.3,1.5-0.3h0.2c0.4,0,0.8,0.1,1.2,0.3
		c0.3,0.2,0.6,0.5,0.8,0.8c0.2,0.3,0.4,0.7,0.5,1.2c0.1,0.4,0.2,0.9,0.2,1.4c0,0.6,0,1.2-0.1,1.8s-0.2,1.2-0.4,1.7
		C167.9,76,167.7,76.6,167.4,77.1z M165.1,71.6c-0.2-0.2-0.5-0.3-0.8-0.3c-0.3,0-0.6,0.1-0.8,0.2c-0.2,0.2-0.4,0.4-0.6,0.6
		c-0.2,0.3-0.3,0.5-0.3,0.8c-0.1,0.3-0.1,0.6-0.2,0.9c0,0.3-0.1,0.6-0.1,0.9c0,0.3,0,0.5,0,0.6c0,0.3,0.1,0.7,0.3,0.9
		c0.2,0.3,0.4,0.5,0.7,0.5h0.4c0.4,0,0.7-0.2,0.9-0.5s0.4-0.6,0.6-0.9c0.1-0.4,0.2-0.8,0.3-1.2c0.1-0.4,0.1-0.8,0.1-1.2
		c0-0.1,0-0.2,0-0.4c0-0.1,0-0.2,0-0.4C165.4,72,165.3,71.8,165.1,71.6z"/>
	<path fill="#FFFFFF" d="M176.9,69.6c0,0.8-0.1,1.5-0.1,2.3c0,0.8-0.1,1.5-0.2,2.3c-0.1,0.8-0.2,1.5-0.3,2.3
		c-0.2,0.8-0.3,1.5-0.6,2.2c-0.1,0.3-0.3,0.5-0.6,0.7c-0.3,0.2-0.5,0.3-0.8,0.3h0c-0.3,0-0.6-0.1-0.8-0.2c-0.2-0.1-0.4-0.3-0.5-0.5
		s-0.3-0.4-0.4-0.7c-0.1-0.3-0.2-0.6-0.3-0.9c0-0.1-0.1-0.2-0.2-0.4c-0.1-0.2-0.1-0.3-0.2-0.5c-0.1-0.2-0.1-0.3-0.2-0.4
		c-0.1-0.1-0.1-0.2-0.1-0.2v0c-0.1-0.1-0.1-0.3-0.2-0.4c-0.1-0.1-0.1-0.2-0.2-0.2c0,0,0,0.1,0,0.2c0,0.1,0,0.1,0,0.1v0.3
		c0,0.3,0,0.5,0.1,0.8c0,0.3,0.1,0.5,0.1,0.8v0.2c0,0.2,0,0.4-0.1,0.5s-0.1,0.3-0.2,0.5h0.1c-0.2,0.2-0.4,0.4-0.5,0.5
		c-0.2,0.1-0.3,0.1-0.5,0.1c-0.2,0-0.4-0.1-0.5-0.2s-0.2-0.3-0.3-0.5c-0.1-0.2-0.1-0.4-0.1-0.7c0-0.3,0-0.5,0-0.8v-0.5
		c0-0.9,0-1.8,0.1-2.7s0.2-1.8,0.3-2.8c0-0.2,0.1-0.4,0.2-0.6s0.2-0.4,0.3-0.5c0.1-0.2,0.3-0.3,0.4-0.4c0.2-0.1,0.3-0.2,0.5-0.2
		c0.3,0,0.5,0.1,0.7,0.3s0.3,0.5,0.4,0.8c0.1,0.4,0.2,0.8,0.3,1.1s0.3,0.7,0.5,1c0.1,0.1,0.1,0.2,0.2,0.3s0.1,0.2,0.1,0.3
		c0,0.1,0.1,0.2,0.2,0.3c0.1,0.1,0.2,0.1,0.3,0.2c0.1-0.1,0.1-0.3,0.2-0.4s0.1-0.3,0.1-0.5c0-0.2,0-0.3,0-0.4s0-0.2,0-0.3v0
		c0-0.3,0-0.7-0.1-1c-0.1-0.3-0.1-0.7-0.1-1.1c0-0.2,0-0.5,0.1-0.7s0.2-0.5,0.3-0.7c0.1-0.2,0.3-0.4,0.5-0.6
		c0.2-0.2,0.4-0.3,0.7-0.4l0,0c0.2-0.1,0.4-0.1,0.6-0.1c0.2,0,0.4,0.1,0.6,0.2s0.3,0.3,0.3,0.6v0L176.9,69.6z"/>
	<path fill="#FFFFFF" d="M185.2,68.6c-0.1,0.3-0.1,0.6-0.1,1c0,0.3,0,0.6-0.1,0.9v0c0,0.7,0,1.3,0,2s0,1.3-0.1,2v0
		c0,0.5-0.1,1.1-0.2,1.6s-0.3,1-0.6,1.5c-0.3,0.5-0.6,0.9-0.9,1.2c-0.4,0.4-0.8,0.6-1.3,0.7l0,0c-0.3,0.1-0.6,0.2-0.9,0.3
		s-0.6,0.1-0.9,0.1c-0.4,0-0.8-0.1-1.1-0.4c-0.3-0.2-0.6-0.5-0.8-0.9c-0.2-0.3-0.4-0.7-0.5-1.2c-0.1-0.4-0.2-0.9-0.2-1.3
		c0-0.6,0-1.2,0.2-1.8c0.1-0.6,0.2-1.2,0.2-1.8l0-0.2c0-0.1,0-0.1,0-0.2s0-0.1,0-0.2v0c0-0.2,0-0.4,0-0.6v-0.2
		c0-0.4,0.2-0.7,0.4-1.1s0.5-0.6,0.8-0.7v0c0.1-0.1,0.3-0.1,0.4-0.1c0.1,0,0.2,0,0.3,0.1c0.1,0.1,0.2,0.2,0.2,0.3
		c0.1,0.1,0.1,0.3,0.1,0.4c0,0.2,0,0.3,0,0.5c0,0.4,0,0.8-0.1,1.2c0,0.4-0.1,0.8-0.2,1.1c-0.1,0.4-0.1,0.7-0.2,1.1
		c0,0.4-0.1,0.7-0.1,1.1c0,0.2,0,0.3,0,0.5c0,0.2,0.1,0.3,0.1,0.5c0,0.2,0.1,0.3,0.2,0.4c0.1,0.1,0.2,0.2,0.3,0.3l0.1,0h0l0.2,0
		c0.2,0,0.4-0.1,0.5-0.2c0.1-0.1,0.3-0.3,0.4-0.5c0.1-0.2,0.2-0.4,0.3-0.6c0.1-0.2,0.1-0.4,0.2-0.6c0.1-0.8,0.2-1.6,0.3-2.4
		c0.1-0.8,0.1-1.6,0.1-2.4c0-0.2,0-0.5,0-0.7s0-0.5,0-0.7l0-0.1v0c0-0.2,0.1-0.4,0.2-0.6s0.3-0.4,0.4-0.5s0.4-0.3,0.6-0.3
		s0.4-0.1,0.6-0.1c0.1,0,0.2,0,0.3,0l0.1,0c0.1,0,0.2,0,0.3,0.1c0.1,0,0.2,0.1,0.3,0.1c0.1,0,0.1,0.1,0.2,0.2c0,0.1,0.1,0.2,0.1,0.3
		L185.2,68.6L185.2,68.6z"/>
	<path fill="#FFFFFF" d="M193.2,70.8c-0.1,0.2-0.2,0.3-0.3,0.5s-0.3,0.3-0.4,0.4c-0.2,0.1-0.3,0.2-0.5,0.3c-0.2,0.1-0.3,0.1-0.5,0.1
		c-0.3,0-0.5-0.1-0.7-0.3l0,0c-0.1-0.2-0.3-0.4-0.5-0.5s-0.4-0.2-0.7-0.2c-0.1,0-0.2,0-0.3,0c-0.1,0-0.2,0.1-0.4,0.1
		c-0.1,0.1-0.2,0.1-0.3,0.2c-0.1,0.1-0.1,0.2-0.2,0.4c0,0.2,0.1,0.3,0.2,0.4s0.3,0.1,0.4,0.1c0.3,0,0.5,0,0.8,0c0.3,0,0.5,0,0.8,0
		c0.4,0,0.8,0.1,1.1,0.2c0.3,0.1,0.6,0.4,0.8,0.9c0.2,0.4,0.3,0.7,0.4,1.1s0.2,0.8,0.2,1.2v0.3c-0.1,0.6-0.3,1.1-0.6,1.6
		c-0.3,0.5-0.7,0.9-1.1,1.2s-0.8,0.6-1.3,0.8c-0.5,0.2-0.9,0.3-1.4,0.3c-0.3,0-0.7-0.1-1-0.2h0c-0.2-0.1-0.5-0.2-0.7-0.3
		s-0.4-0.3-0.6-0.5c-0.2-0.2-0.3-0.4-0.5-0.6c-0.1-0.2-0.2-0.5-0.2-0.8v-0.1c0-0.1,0-0.3,0.1-0.4c0-0.2,0.1-0.3,0.2-0.4
		c0.1-0.1,0.2-0.2,0.3-0.3c0.1-0.1,0.2-0.1,0.4-0.1l0.2,0c0,0,0,0.1,0.1,0.1c0.2,0,0.4,0.1,0.5,0.2c0.2,0.1,0.3,0.3,0.5,0.4
		s0.3,0.2,0.5,0.4c0.2,0.1,0.4,0.2,0.6,0.2h0.1c0.2,0,0.4-0.1,0.5-0.2s0.3-0.4,0.3-0.6c0-0.1,0-0.3-0.1-0.4c0-0.2-0.1-0.2-0.3-0.2
		c-0.1,0-0.2,0-0.3,0s-0.2,0-0.2,0c-0.1,0-0.3,0-0.4,0c-0.1,0-0.3-0.1-0.5-0.1c-0.2-0.1-0.4-0.1-0.6-0.2s-0.4-0.2-0.6-0.3
		c-0.2-0.1-0.3-0.2-0.5-0.3c-0.1-0.1-0.2-0.3-0.2-0.4l0-0.2c0-0.1,0-0.2-0.1-0.3c0-0.1,0-0.2,0-0.4c0-0.7,0.2-1.3,0.5-2
		c0.3-0.6,0.7-1.2,1.2-1.7s1-0.9,1.7-1.2c0.6-0.3,1.2-0.4,1.8-0.4c0.3,0,0.5,0,0.8,0.1c0.3,0.1,0.5,0.2,0.7,0.3s0.4,0.4,0.5,0.6
		s0.2,0.6,0.2,0.9c0,0.1,0,0.3,0,0.5S193.3,70.7,193.2,70.8L193.2,70.8z"/>
</g>
</svg>
