<?xml version="1.0" encoding="utf-8"?>
<!-- Generator: Adobe Illustrator 17.0.0, SVG Export Plug-In . SVG Version: 6.00 Build 0)  -->
<!DOCTYPE svg PUBLIC "-//W3C//DTD SVG 1.1//EN" "http://www.w3.org/Graphics/SVG/1.1/DTD/svg11.dtd">
<svg version="1.1" id="Calque_1" xmlns="http://www.w3.org/2000/svg" xmlns:xlink="http://www.w3.org/1999/xlink" x="0px" y="0px"
	 width="327.5px" height="84.7px" viewBox="0 0 327.5 84.7" enable-background="new 0 0 327.5 84.7" xml:space="preserve">
<g>
	<path fill="#297AA9" stroke="#000102" stroke-width="2" stroke-miterlimit="10" d="M206.6,60.4h29.1h82.8c4.4,0,7.9-3.6,7.9-8V9
		c0-4.4-3.6-8-8-8H9C4.6,1,1,4.6,1,9v43.4c0,4.4,3.6,8,7.9,8h108.1c0,0,12,24.9,48.5,23.2C198,82.1,206.6,60.4,206.6,60.4z"/>
	<path fill="#0F3B51" stroke="#000102" stroke-width="2" stroke-miterlimit="10" d="M318,55.3c1.9,0,3.4-1.5,3.4-3.4V9.5
		c0-1.9-1.5-3.4-3.4-3.4H9.5c-1.9,0-3.4,1.5-3.4,3.4v42.4c0,1.9,1.5,3.4,3.4,3.4h225.6H318z"/>
</g>
<path fill="#0F3B51" stroke="#000102" stroke-width="2" stroke-miterlimit="10" d="M121.6,60.2c3.4-0.5,79.8-1.1,81.1,0.6
	s-16.4,20.2-40.7,20C137.8,80.6,118.3,60.7,121.6,60.2z"/>
<text transform="matrix(1 0 0 1 141.7142 74.7279)" fill="#FFFFFF" font-family="'Komikandy'" font-size="14">Score</text>
</svg>
