<svg xmlns="http://www.w3.org/2000/svg" viewBox="0 0 333.37 497.64"><defs><style>.a,.c{fill:#297aa9;}.b{fill:#d2f2ff;}.c{font-size:76px;font-family:DINOT-CondBlack, DIN OT;font-weight:800;}.d{letter-spacing:0em;}.e{letter-spacing:0em;}.f{fill:#79534b;}.f,.g,.h{stroke:#331e0c;stroke-miterlimit:10;stroke-width:0.5px;}.g{fill:#67463f;}.h{fill:#4c3f3d;}</style></defs><title>carteBoostFichier 4</title><path class="a" d="M333.37,434.87V25.35A25.42,25.42,0,0,0,307.91,0H25.43A25.5,25.5,0,0,0,0,25.43V472.2a25.49,25.49,0,0,0,25.45,25.44H308a25.4,25.4,0,0,0,25.37-25.35V434.87"/><path class="b" d="M317.25,98.27V27.05a10.94,10.94,0,0,0-10.93-10.94H27A10.85,10.85,0,0,0,16.11,27V470.59A10.91,10.91,0,0,0,27,481.53H306.32a11,11,0,0,0,10.93-10.94Z"/><text class="c" transform="translate(77.22 331.61)">B<tspan class="d" x="38.23" y="0">O</tspan><tspan x="75.54" y="0">O</tspan><tspan class="e" x="112.48" y="0">S</tspan><tspan x="147.67" y="0">T</tspan></text><path class="f" d="M267.44,107.64a72.32,72.32,0,0,1,3.28,11.15,101.59,101.59,0,0,1,2.43,29.55,104.65,104.65,0,0,1-27.51,64.93L244.09,215c-2.78-1-5.61-1.89-8.33-3.09-1.06-.46-2-1.24-3.22-1.36l-.66-.23c0-.45-.36-.6-.69-.77a36.42,36.42,0,0,1-7-4.53,20,20,0,0,1-6.51-8.88c-.68-2-1.14-4.11-2-6.07-.27-.62-.94-1.15-.65-2A14.1,14.1,0,0,0,228.46,190c6.3-2.23,10.64-6.78,13.49-12.74a4.91,4.91,0,0,0-1.35-6.48,5.65,5.65,0,0,0-2.5-1.35,14.92,14.92,0,0,1-3-.91c-1.84-.85-3.6-1.89-5.5-2.64-3.79-1.51-7.66-2.73-11.82-2.39a8.43,8.43,0,0,0-5.31,2.2,10.53,10.53,0,0,0-3,6.8,18.8,18.8,0,0,0,1.61,11,2.82,2.82,0,0,0-3.2,1.14,9.82,9.82,0,0,0-1.18,1.87c-3.27,6.76-7,13.29-10.78,19.74a185.05,185.05,0,0,1-11.34,17.56c-1.13,1.49-2.38,2.68-4.59,2.41s-4.42,0-6.64-.25a34.42,34.42,0,0,1-8.54-1.64,5.48,5.48,0,0,1-4-4.67c-.35-2.71-.54-5.41-.66-8.14-.16-3.47-1.78-5.93-5.72-5.8a26.17,26.17,0,0,0-6,1c-5.61,1.53-11.18,3.23-16.93,4.21-4.55.78-9.12,1.28-13.72.34-5-1-7.67-4.65-6.78-9.85.35-2.05,1.1-4,1.46-6s-.44-3.89-2.38-4.55c-3.79-1.3-7.58-1.55-11.27.42a1.89,1.89,0,0,1-.95-.26,25,25,0,0,0-7.33-2.35c-2.2-.28-5.34.7-6.19,3.53-1.23,4.12-.9,8,1.82,11.51a4.29,4.29,0,0,1-1.59,2.46,86.73,86.73,0,0,1-8.33-12.55,99.05,99.05,0,0,1-12.66-39c-3.7-37.54,8.72-68.85,37.32-93.47,13.38-11.5,29-18.68,46.32-22.2a4.94,4.94,0,0,1,1.61-.35c.05.58.51.78.94,1,1.37.65,2.71,1.37,4.11,1.92,4.61,1.81,9.1,2.15,13.26-1.21A7.74,7.74,0,0,1,172,38.78a20.92,20.92,0,0,1,10.3,2.93c1.32.72,2.56,1.58,3.83,2.38l1.34,1.55a1.78,1.78,0,0,0,.29,1c2.9,5.37,6,10.57,10.67,14.68a6.7,6.7,0,0,0,4,2c1.39.09,2.78.23,4.16.44,5.81.9,9.88,4.34,12.68,9.23,2.45,4.28,3.28,9.22,4.89,13.85,1.36,3.93,2.13,8.1,4.32,11.71,1.53,2.52,3.37,3.74,6.34,3.07a21.92,21.92,0,0,0,4.32-1.66c2.52-1.16,5-2.33,7.92-2.17-.11,4.58,1.25,8.85,2.88,13.05a35.94,35.94,0,0,0,4.28,8.34c2.23,3.08,5.4,2.83,7.2-.52a19.26,19.26,0,0,0,1-2.66,8.5,8.5,0,0,0,2.61.22,2.6,2.6,0,0,0,2.36-1.17c.43-.84-.26-1.52-.69-2.18-.22-.33-.61-.58-.47-1C266.56,110.48,267,109.06,267.44,107.64ZM144.53,74.54c0-.59.1-1.18.15-1.76.14-1.75.35-3.55-.71-5.15a13.56,13.56,0,0,0-1.88-2.31c-2.6-2.46-5.17-4.95-7.82-7.36-2.38-2.17-4-1.61-4.83,1.53,0,.07,0,.15,0,.22-.65,2.84-.38,5.73-.44,8.6-2.58-.52-5.17-1.16-7.84-.66s-5.16,1.81-6.41,4.53a17.53,17.53,0,0,0-.9,11.85,13.84,13.84,0,0,0,7.62,9.51,14.49,14.49,0,0,0,10.2.78,4.81,4.81,0,0,1-.32.82c-1.6,2.6-3.24,5.18-4.83,7.8-2.13,3.48-3.51,7.14-2.62,11.33.18.86.2,1.83,1.54,1.62.37-.06.68.23,1,.41a9.24,9.24,0,0,1,2.41,2.42,97.39,97.39,0,0,1,6.51,8.49,8.93,8.93,0,0,1,1.34,5.78,20.84,20.84,0,0,0-.08,4.53,40.56,40.56,0,0,0,4.4,13.71c.17.32.26.71.65.87a20.06,20.06,0,0,0-1.63,5.36c-.39,3.94-.12,7.69,1.91,11.23,3.66,6.41,11.09,8.43,17.55,6.06a22.79,22.79,0,0,0,10-7.47,20.57,20.57,0,0,0,3.35-5.44,5,5,0,0,0-1.24-6,10.71,10.71,0,0,0-3.91-2c.22-1.63.83-3.2.7-4.9a2.32,2.32,0,0,0-1.26-2,5.84,5.84,0,0,0-3.8-.28c-1.78.24-3.53.68-5.3,1-2.09.35-3.37-.46-3.86-2.52A15.85,15.85,0,0,1,154,139a50.93,50.93,0,0,1,3.23-11.12,127.6,127.6,0,0,1,7.95-16.44,99.11,99.11,0,0,0,5.19-9.9,17.56,17.56,0,0,0,1.5-8.29A5.59,5.59,0,0,0,169.43,89c-2.27-1.58-4.89-1.7-7.54-1.57a1.25,1.25,0,0,0-.84.48c-1,1-2,2-3.07,2.88a3.56,3.56,0,0,1-4.71.38,18.57,18.57,0,0,1-5-4.85c-.86-1.23-1.64-2.52-2.46-3.79a6,6,0,0,1,.45-1.91,7.93,7.93,0,0,0,.35-2.58C146.51,76.47,145.41,75.6,144.53,74.54Zm52.55,36.67a15.71,15.71,0,0,0,9.28-2.8,26.72,26.72,0,0,0,6.83-6.54,13,13,0,0,0,2.73-5c.34-1.52.49-3.11-.55-4.46a7.76,7.76,0,0,0-4.32-2.74A8.87,8.87,0,0,1,208.6,89a41.81,41.81,0,0,0-8-3.54c-3.23-1.08-6.51-1.94-10-1.35a8,8,0,0,0-6.36,4.45A17.64,17.64,0,0,0,183,98.27C183.68,105.35,189.51,111.59,197.08,111.21ZM72.5,117.14c-2.57-.18-4.35,1.72-4.94,4a12.83,12.83,0,0,0,.09,7.49,8.59,8.59,0,0,0,11.57,5.58,14.43,14.43,0,0,0,7.86-7.61c1.44-3,.24-5.09-3-5.91a8.13,8.13,0,0,1-1.84-.71A20.63,20.63,0,0,0,72.5,117.14Z"/><path class="g" d="M84.5,206.11a4.29,4.29,0,0,0,1.59-2.46,4.7,4.7,0,0,1,.44.34,8,8,0,0,0,7.84,2.12c4.7-1.12,7.68-4.34,9.42-8.59,1.11-2.71.1-4.13-2.68-5.17-.37-.14-.8-.14-1.18-.28s-1-.23-1.19-.85c3.69-2,7.48-1.72,11.27-.42,1.94.66,2.73,2.5,2.38,4.55s-1.11,4-1.46,6c-.89,5.2,1.77,8.82,6.78,9.85,4.6.94,9.17.44,13.72-.34,5.75-1,11.32-2.68,16.93-4.21a26.17,26.17,0,0,1,6-1c3.94-.13,5.56,2.33,5.72,5.8.12,2.73.31,5.43.66,8.14a5.48,5.48,0,0,0,4,4.67,34.42,34.42,0,0,0,8.54,1.64c2.22.24,4.45,0,6.64.25s3.46-.92,4.59-2.41a185.05,185.05,0,0,0,11.34-17.56c3.82-6.45,7.51-13,10.78-19.74a9.82,9.82,0,0,1,1.18-1.87,2.82,2.82,0,0,1,3.2-1.14,17.21,17.21,0,0,0,4,4.66c-.29.82.38,1.35.65,2,.87,2,1.33,4.05,2,6.07a20,20,0,0,0,6.51,8.88,36.42,36.42,0,0,0,7,4.53c.33.17.68.32.69.77a12.61,12.61,0,0,1-2.4-.73,28.12,28.12,0,0,0-8.65-3.21c-2.61-.46-5.44.86-6.26,3.06a12.82,12.82,0,0,0-.43,7.79,8.84,8.84,0,0,0,13.54,5.48,17.39,17.39,0,0,0,5.22-5.17c2.06-3,1.91-4.73-.36-7,1.22.12,2.16.9,3.22,1.36,2.72,1.2,5.55,2.08,8.33,3.09a102.25,102.25,0,0,1-19.73,16.25,104.38,104.38,0,0,1-36.13,14.49A90.48,90.48,0,0,1,163,247.26a11.52,11.52,0,0,1-2.42-.19c.36-.46.95-.49,1.41-.77a4.81,4.81,0,0,0,2.59-3.27c.71-4.26-.73-7.76-4.47-9.95A34.85,34.85,0,0,0,148,228.63c-4.25-.7-8.31-.4-11.86,2.34-2.76,2.12-4.51,4.74-3.83,8.44.11.61.29,1.21.44,1.81a67.36,67.36,0,0,1-10-4.08,105.94,105.94,0,0,1-32.46-24,71.14,71.14,0,0,1-5.11-6A2.6,2.6,0,0,1,84.5,206.11Z"/><path class="g" d="M247,97.88c-2.88-.16-5.4,1-7.92,2.17a21.92,21.92,0,0,1-4.32,1.66c-3,.67-4.81-.55-6.34-3.07-2.19-3.61-3-7.78-4.32-11.71-1.61-4.63-2.44-9.57-4.89-13.85-2.8-4.89-6.87-8.33-12.68-9.23-1.38-.21-2.77-.35-4.16-.44a6.7,6.7,0,0,1-4-2c-4.63-4.11-7.77-9.31-10.67-14.68a1.78,1.78,0,0,1-.29-1,57.36,57.36,0,0,0,10.29,3.91c3.82,1.06,7.65,2,11.7,1.45a5.81,5.81,0,0,0,5.4-4.92c0-.09.14-.16.21-.24A70.29,70.29,0,0,1,231,55.63,62.7,62.7,0,0,1,241.21,66c.91,1.16,1.93,2.24,2.9,3.35a1.25,1.25,0,0,0,.37,1c5.61,7.56,11.3,15.07,16.4,23,.19.29.31.71.78.71,2.23,4.39,5.15,8.48,5.78,13.55-.43,1.42-.88,2.84-1.31,4.27-.14.47.25.72.47,1,.43.66,1.12,1.34.69,2.18a2.6,2.6,0,0,1-2.36,1.17,8.5,8.5,0,0,1-2.61-.22,9,9,0,0,0-1.13-5c-1.56-3.18-3.19-6.34-4.44-9.64A9.61,9.61,0,0,0,252,96.2C249.61,94.91,247.58,94.84,247,97.88Z"/><path class="h" d="M132.76,241.22c-.15-.6-.33-1.2-.44-1.81-.68-3.7,1.07-6.32,3.83-8.44,3.55-2.74,7.61-3,11.86-2.34a34.85,34.85,0,0,1,12.05,4.45c3.74,2.19,5.18,5.69,4.47,9.95a4.81,4.81,0,0,1-2.59,3.27c-.46.28-1.05.31-1.41.77-6.17,1.12-12.21,0-18.24-1.1-1.34-.24-2.69-.46-4-.77a8.09,8.09,0,0,1-4.8-3.15C133.26,241.75,133,241.5,132.76,241.22Z"/><path class="h" d="M215,45.84c-.07.08-.19.15-.21.24a5.81,5.81,0,0,1-5.4,4.92c-4,.58-7.88-.39-11.7-1.45a57.36,57.36,0,0,1-10.29-3.91l-1.34-1.55c0-.59-.42-1.21.13-1.77A8.77,8.77,0,0,1,188,40.76c1.43-.84,3.07-1.12,4.53-1.84,1.56,0,3-.57,4.59-.74a18.85,18.85,0,0,1,14.73,4.1A22.18,22.18,0,0,1,215,45.84Z"/><path class="g" d="M192.56,38.92c-1.46.72-3.1,1-4.53,1.84a8.77,8.77,0,0,0-1.81,1.56c-.55.56-.13,1.18-.13,1.77-1.27-.8-2.51-1.66-3.83-2.38A20.92,20.92,0,0,0,172,38.78a7.74,7.74,0,0,0-4.89,1.49c-4.16,3.36-8.65,3-13.26,1.21-1.4-.55-2.74-1.27-4.11-1.92-.43-.21-.89-.41-.94-1a110.22,110.22,0,0,1,23.85-1.7,142.72,142.72,0,0,1,18.12,1.66C191.34,38.63,192,38.79,192.56,38.92Z"/><path class="f" d="M261.66,94.09c-.47,0-.59-.42-.78-.71-5.1-7.93-10.79-15.44-16.4-23a1.25,1.25,0,0,1-.37-1,92.37,92.37,0,0,1,11.14,13.73A77.6,77.6,0,0,1,261.66,94.09Z"/><path class="g" d="M141.64,152.1c-.39-.16-.48-.55-.65-.87a40.56,40.56,0,0,1-4.4-13.71,20.84,20.84,0,0,1,.08-4.53,8.93,8.93,0,0,0-1.34-5.78,97.39,97.39,0,0,0-6.51-8.49,9.24,9.24,0,0,0-2.41-2.42c-.32-.18-.63-.47-1-.41-1.34.21-1.36-.76-1.54-1.62-.89-4.19.49-7.85,2.62-11.33,1.59-2.62,3.23-5.2,4.83-7.8a4.81,4.81,0,0,0,.32-.82c5.1-1.46,8.83-4.77,12-8.86.76-1,1.2-2.16,2.22-2.93.82,1.27,1.6,2.56,2.46,3.79a18.57,18.57,0,0,0,5,4.85,3.56,3.56,0,0,0,4.71-.38c1.07-.92,2.07-1.9,3.07-2.88a1.25,1.25,0,0,1,.84-.48c2.65-.13,5.27,0,7.54,1.57a5.59,5.59,0,0,1,2.43,4.29,17.56,17.56,0,0,1-1.5,8.29,99.11,99.11,0,0,1-5.19,9.9,127.6,127.6,0,0,0-7.95,16.44A50.93,50.93,0,0,0,154,139a15.85,15.85,0,0,0,.13,6.06c.49,2.06,1.77,2.87,3.86,2.52,1.77-.29,3.52-.73,5.3-1a5.84,5.84,0,0,1,3.8.28,2.32,2.32,0,0,1,1.26,2c.13,1.7-.48,3.27-.7,4.9a7.55,7.55,0,0,1-2-.51c-3.9-2-7.85-3.92-12.23-4.71a13.66,13.66,0,0,0-8.24.53A10,10,0,0,0,141.64,152.1Z"/><path class="h" d="M141.64,152.1a10,10,0,0,1,3.53-2.92,13.66,13.66,0,0,1,8.24-.53c4.38.79,8.33,2.68,12.23,4.71a7.55,7.55,0,0,0,2,.51,10.71,10.71,0,0,1,3.91,2,5,5,0,0,1,1.24,6,20.57,20.57,0,0,1-3.35,5.44,22.79,22.79,0,0,1-10,7.47c-6.46,2.37-13.89.35-17.55-6.06-2-3.54-2.3-7.29-1.91-11.23A20.06,20.06,0,0,1,141.64,152.1Z"/><path class="h" d="M215,188.09a17.21,17.21,0,0,1-4-4.66,18.8,18.8,0,0,1-1.61-11,10.53,10.53,0,0,1,3-6.8,8.43,8.43,0,0,1,5.31-2.2c4.16-.34,8,.88,11.82,2.39,1.9.75,3.66,1.79,5.5,2.64a14.92,14.92,0,0,0,3,.91,5.65,5.65,0,0,1,2.5,1.35,4.91,4.91,0,0,1,1.35,6.48c-2.85,6-7.19,10.51-13.49,12.74A14.1,14.1,0,0,1,215,188.09Z"/><path class="h" d="M145.86,82.53c-1,.77-1.46,2-2.22,2.93-3.17,4.09-6.9,7.4-12,8.86a14.49,14.49,0,0,1-10.2-.78A13.84,13.84,0,0,1,113.82,84a17.53,17.53,0,0,1,.9-11.85c1.25-2.72,3.59-4,6.41-4.53s5.26.14,7.84.66c2.2.72,4.35,1.54,6.5,2.4,1.6.64,2.92,1.86,4.66,2.18a12.16,12.16,0,0,1,4.4,1.65c.88,1.06,2,1.93,2.13,3.5a7.93,7.93,0,0,1-.35,2.58A6,6,0,0,0,145.86,82.53Z"/><path class="h" d="M197.08,111.21c-7.57.38-13.4-5.86-14.13-12.94a17.64,17.64,0,0,1,1.35-9.71,8,8,0,0,1,6.36-4.45c3.45-.59,6.73.27,10,1.35a41.81,41.81,0,0,1,8,3.54,8.87,8.87,0,0,0,2.45.65,7.76,7.76,0,0,1,4.32,2.74c1,1.35.89,2.94.55,4.46a13,13,0,0,1-2.73,5,26.72,26.72,0,0,1-6.83,6.54A15.71,15.71,0,0,1,197.08,111.21Z"/><path class="h" d="M232.54,210.54c2.27,2.26,2.42,4,.36,7a17.39,17.39,0,0,1-5.22,5.17,8.84,8.84,0,0,1-13.54-5.48,12.82,12.82,0,0,1,.43-7.79c.82-2.2,3.65-3.52,6.26-3.06a28.12,28.12,0,0,1,8.65,3.21,12.61,12.61,0,0,0,2.4.73Z"/><path class="h" d="M98.74,191.22c.15.62.73.67,1.19.85s.81.14,1.18.28c2.78,1,3.79,2.46,2.68,5.17-1.74,4.25-4.72,7.47-9.42,8.59A8,8,0,0,1,86.53,204a4.7,4.7,0,0,0-.44-.34c-2.72-3.5-3-7.39-1.82-11.51.85-2.83,4-3.81,6.19-3.53A25,25,0,0,1,97.79,191,1.89,1.89,0,0,0,98.74,191.22Z"/><path class="h" d="M72.5,117.14A20.63,20.63,0,0,1,82.28,120a8.13,8.13,0,0,0,1.84.71c3.2.82,4.4,3,3,5.91a14.43,14.43,0,0,1-7.86,7.61,8.59,8.59,0,0,1-11.57-5.58,12.83,12.83,0,0,1-.09-7.49C68.15,118.86,69.93,117,72.5,117.14Z"/><path class="h" d="M247,97.88c.6-3,2.63-3,5.05-1.68a9.61,9.61,0,0,1,4.72,5.27c1.25,3.3,2.88,6.46,4.44,9.64a9,9,0,0,1,1.13,5,19.26,19.26,0,0,1-1,2.66c-1.8,3.35-5,3.6-7.2.52a35.94,35.94,0,0,1-4.28-8.34C248.23,106.73,246.87,102.46,247,97.88Z"/><path class="g" d="M144.53,74.54a12.16,12.16,0,0,0-4.4-1.65c-1.74-.32-3.06-1.54-4.66-2.18-2.15-.86-4.3-1.68-6.5-2.4.06-2.87-.21-5.76.44-8.6,0-.07,0-.15,0-.22.8-3.14,2.45-3.7,4.83-1.53,2.65,2.41,5.22,4.9,7.82,7.36A13.56,13.56,0,0,1,144,67.63c1.06,1.6.85,3.4.71,5.15C144.63,73.36,144.56,74,144.53,74.54Z"/></svg>