<svg xmlns="http://www.w3.org/2000/svg" viewBox="0 0 333.37 497.64"><defs><style>.a,.c{fill:#297aa9;}.b{fill:#d2f2ff;}.c{font-size:76px;font-family:DINOT-CondBlack, DIN OT;font-weight:800;}.d{fill:#f5cba0;}.e{fill:#e7b895;}.f{fill:#e7b896;}.g{fill:#89bf6f;}.h{fill:#d7595d;}.i{fill:#f5cca4;}.j{fill:#398ac7;}.k{fill:#f9de55;}</style></defs><title>carteBonusFichier 2</title><path class="a" d="M333.37,434.87V25.35A25.42,25.42,0,0,0,307.91,0H25.43A25.5,25.5,0,0,0,0,25.43V472.2a25.49,25.49,0,0,0,25.45,25.44H308a25.4,25.4,0,0,0,25.37-25.35V434.87"/><path class="b" d="M317.25,98.27V27.05a10.94,10.94,0,0,0-10.93-10.94H27A10.85,10.85,0,0,0,16.11,27V470.59A10.91,10.91,0,0,0,27,481.53H306.32a11,11,0,0,0,10.93-10.94Z"/><text class="c" transform="translate(71.74 336.81)">BONUS</text><path class="d" d="M61,120a63.52,63.52,0,0,1,2.72-9,104,104,0,0,1,11.77-23.2,110.38,110.38,0,0,1,11-13.7,106.33,106.33,0,0,1,28.38-21.38A107.5,107.5,0,0,1,141,43.31a1.28,1.28,0,0,1,.34,0,56.34,56.34,0,0,1,6.1,8.45c.22.35.26.9.83,1l.91,1.8a2.27,2.27,0,0,0,.46,1.35,35.86,35.86,0,0,1,2.83,6.81,21.3,21.3,0,0,1,.37,11.66c-.5,1.9-1.05,3.79-1.6,5.69-.26.91,0,2-.71,2.75a13.39,13.39,0,0,0-3.59-5.86,16.24,16.24,0,0,0-11.61-4.43A28.15,28.15,0,0,0,123.68,75a8.5,8.5,0,0,0-4.23,3.36c-1.11,1.94-.61,4.57,1.15,6.75a23.47,23.47,0,0,1,2.79,3.74,33.72,33.72,0,0,0,9,11.33c2.34,1.82,5,3,8,2.32a10.75,10.75,0,0,0,6.11-4.07,18.18,18.18,0,0,0,4.55-10c1.9,1.59,3.77,1,5.65,0s3.94-2.28,6-3.31c7.51-3.83,15.06-7.61,22.8-11a102.59,102.59,0,0,1,11.78-4.54,3.58,3.58,0,0,1,3.27.19c4.53,3,8.91,6.13,12.3,10.43,1.22,1.55,2.17,3.33,1.35,5.37a32.63,32.63,0,0,1-2,4.15,47.23,47.23,0,0,0-3.36,5.92c-.89,2.24-.53,4.17,1.23,5.53a17.88,17.88,0,0,0,4.32,2.55c6.16,2.45,12.64,4,18.67,6.88,4.41,2.07,8.66,4.3,12.07,7.92a8.12,8.12,0,0,1,0,11.38c-1.56,1.55-3.2,3-4.77,4.56-1.85,1.82-2,3.34-.52,5.46a13.77,13.77,0,0,0,10.07,6c.24.42.49.83.74,1.25a17.34,17.34,0,0,0,5.3,5.93,5,5,0,0,0,6.06-.09c3.57-2.72,5.53-6.25,5-10.9,1-.32,2.15-.45,2.68-1.58a.71.71,0,0,1,.21.61,101.17,101.17,0,0,1,0,12.19,107.23,107.23,0,0,1-8,34.68,104.09,104.09,0,0,1-16,26.6,106.1,106.1,0,0,1-62,37,115.34,115.34,0,0,1-15.51,1.83,106.63,106.63,0,0,1-45.84-8.15,10.77,10.77,0,0,0-1.26-.38,1.75,1.75,0,0,0-.22-1,24.7,24.7,0,0,0-2.71-4.6c-2.79-4-6.31-6.6-11.5-6.16a7.24,7.24,0,0,1-4.35-1.17,21.32,21.32,0,0,1-8.14-9.69,23.42,23.42,0,0,0-1.51-3.49l-.06-1.11c.21-.14.21-.37.24-.59.29-2,.33-4,.5-6a39.19,39.19,0,0,0-.81-13,7.86,7.86,0,0,0-3.21-5.18c-6.41-4.1-8.74-12.34-7.34-19.06.75-3.57,2.08-7,3-10.5,1.19-4.37,2.94-8.6,3.48-13.13.24-2.09,0-4.1-1.73-5.62a8.85,8.85,0,0,0-4.46-1.89c-2.44-.46-4.94-.63-7.28-1.56a4,4,0,0,1-2.39-1.83c.46-.76,1-1.5,1.38-2.28a34.56,34.56,0,0,0,2.68-7.1,40.85,40.85,0,0,0,1.82-12.77c-.09-2.39-2.58-4.94-5.27-3.75A22.23,22.23,0,0,0,70,115.55a6.62,6.62,0,0,0-3.42-2.16,1.13,1.13,0,0,0-1.48.82,2.74,2.74,0,0,0-.21,1.85.57.57,0,0,1-.1.71A32.26,32.26,0,0,1,61,120Zm93.38,111a25.84,25.84,0,0,0,4.38,4c4.4,2.89,6.65,2.75,10.89.21a15.12,15.12,0,0,0,3.81-3.92c3.86-4.9,4.41-12.09,1.61-17a14.81,14.81,0,0,0-8.43-6.64,4.76,4.76,0,0,1,.57-.34c3.55-1.64,7.17-3.1,10.67-4.87a14.28,14.28,0,0,0,7.17-7.77c.18-.48.28-.84-.26-1.13a2.88,2.88,0,0,1-1.31-2.12,34.48,34.48,0,0,1-.69-5.74c-.11-1.52-.13-3.05-.31-4.56a10.65,10.65,0,0,1,1.91-8.12,26.17,26.17,0,0,0,4.26-7.29,58.75,58.75,0,0,0,2-7.09,16.83,16.83,0,0,0,.66-4.84,16.1,16.1,0,0,0,2-1.19A18.74,18.74,0,0,0,200.1,142a13.56,13.56,0,0,0-1.27-9.93c-3.26-5.87-8.68-7.86-15-7.78A24.7,24.7,0,0,0,177,125.4c-2.69.81-5.37,1.67-7.36,3.81a4.44,4.44,0,0,0-1.26,4.49,11.73,11.73,0,0,0,2.1,3.78c0,.39-.3.54-.56.77a10.09,10.09,0,0,0-2.76,3.19,2.54,2.54,0,0,0,.47,3,8.75,8.75,0,0,0,2.91,1.83,30.66,30.66,0,0,1,5.35,2.5c.57.4,1.21.8,1.3,1.59a6,6,0,0,1-.86,3.85,29.64,29.64,0,0,1-7.9,8.27,102.09,102.09,0,0,1-14.3,9.11c-4.51,2.4-9.12,4.61-13.6,7.07a19,19,0,0,0-7.28,6.29,6.36,6.36,0,0,0-.94,5.32c.82,3,3.16,4.58,5.58,6.1.21.13.42,0,.64,0,1.53-.3,3.06-.56,4.59-.87a2.92,2.92,0,0,1,3.38,1.32,13.88,13.88,0,0,1,2,7.12,28.89,28.89,0,0,1-.2,6c-.21.16-.41.32-.63.47-2.75,1.87-3.42,3.64-2.55,6.73-.57.54-1.16,1.06-1.69,1.63a6.39,6.39,0,0,0-1.87,4.52,27.26,27.26,0,0,0,1.14,6.78c.65,2.48,1,5,1.82,7.46.58,1.69,2,2.24,3.42,1.3a10.39,10.39,0,0,0,2.84-2.65ZM111.6,153.85a17.1,17.1,0,0,0-4.64.5c-3.18.68-6.33,1.5-8.95,3.58-1.54,1.22-2.59,2.77-2.17,4.82a8.52,8.52,0,0,0,1.81,3.69,25.84,25.84,0,0,1,3.06,4.24,32.6,32.6,0,0,0,8.78,10.91c3.82,2.87,8,3.54,11.87.18,4.58-4,7.23-8.94,6.64-15.17a13,13,0,0,0-4.1-8.37C120.55,155.06,116.49,153.77,111.6,153.85Zm117.33,50.06a15.23,15.23,0,0,0-6.85,2.3c-2.28,1.49-2.68,3.58-1,5.72a45.75,45.75,0,0,1,2.79,4.3,16.68,16.68,0,0,0,5.34,5.92,5.29,5.29,0,0,0,6.35-.41,13.44,13.44,0,0,0,3.16-3.73,9.37,9.37,0,0,0-.35-10.8C236.15,204.43,233.11,203.62,228.93,203.91Z"/><path class="e" d="M148.23,52.71c-.57-.06-.61-.61-.83-1a56.34,56.34,0,0,0-6.1-8.45,65.36,65.36,0,0,1,8.56-1.55,109.36,109.36,0,0,1,16.28-.91,110.58,110.58,0,0,1,29.54,4.81,103.15,103.15,0,0,1,33.43,17.76c.2.16.47.25.5.55a19.71,19.71,0,0,0-3.18-.35c-4,.22-6.78,7.18-5.32,10.64a33.86,33.86,0,0,0,8.49,12.32c3,2.72,6.4,4.64,10.72,4.53,3.27-.08,7.5-2.08,8.47-5.88.4,0,.52.35.72.62a104.13,104.13,0,0,1,10.87,19.09A108.36,108.36,0,0,1,267.87,128c.17.85,0,1.85.79,2.54,0,.22,0,.44,0,.66a2.12,2.12,0,0,0,.36,2c0,.15,0,.29.05.44s-.07.05-.07.07a1.09,1.09,0,0,0,.08.15c0,.15,0,.3,0,.46-.28.23-.14.36.12.46,0,.22,0,.43.07.65,0,0-.07.06-.06.07a.46.46,0,0,0,.07.16l.21,2s-.07.05-.06.07a1.09,1.09,0,0,0,.08.15c0,.82,0,1.64,0,2.46-.53,1.13-1.66,1.26-2.68,1.58a8.54,8.54,0,0,0-3.92-5.84c-2.4-1.51-5.05-1.57-7.69-1.27A14.31,14.31,0,0,0,249,137c-2.36,1.55-2.72,3.47-1.13,5.81a12,12,0,0,1,2,3,13.77,13.77,0,0,1-10.07-6c-1.52-2.12-1.33-3.64.52-5.46,1.57-1.54,3.21-3,4.77-4.56a8.12,8.12,0,0,0,0-11.38c-3.41-3.62-7.66-5.85-12.07-7.92-6-2.83-12.51-4.43-18.67-6.88A17.88,17.88,0,0,1,210,101.1c-1.76-1.36-2.12-3.29-1.23-5.53a47.23,47.23,0,0,1,3.36-5.92,32.63,32.63,0,0,0,2-4.15c.82-2-.13-3.82-1.35-5.37-3.39-4.3-7.77-7.45-12.3-10.43a3.58,3.58,0,0,0-3.27-.19,102.59,102.59,0,0,0-11.78,4.54c-7.74,3.36-15.29,7.14-22.8,11-2,1-4,2.2-6,3.31s-3.75,1.64-5.65,0a13.63,13.63,0,0,0-.5-5.61c.7-.8.45-1.84.71-2.75.55-1.9,1.1-3.79,1.6-5.69a21.3,21.3,0,0,0-.37-11.66,35.86,35.86,0,0,0-2.83-6.81,2.27,2.27,0,0,1-.46-1.35,8.61,8.61,0,0,1,1.69,2.18,24.37,24.37,0,0,0,4.91,6.75c2.44,2.24,5.28,2.64,7.52,1a12.63,12.63,0,0,0,4.12-5.2c2.45-5.55-.1-11.22-5.76-12.7-3.64-.94-7.1,0-10.42,1.46C149.2,48.9,147.9,50.31,148.23,52.71Z"/><path class="f" d="M61,120a32.26,32.26,0,0,0,3.76-3.24.57.57,0,0,0,.1-.71,2.74,2.74,0,0,1,.21-1.85,1.13,1.13,0,0,1,1.48-.82A6.62,6.62,0,0,1,70,115.55c-.42,1-1.21,1.72-1.43,2.85-.84,4.25-1.47,8.53-2.17,12.81a9.47,9.47,0,0,0-.36,2.95,11.85,11.85,0,0,0,1.62,4.25c1.67,2.69,2.83,2.88,5.22.86a4,4,0,0,0,2.39,1.83c2.34.93,4.84,1.1,7.28,1.56A8.85,8.85,0,0,1,87,144.55c1.71,1.52,2,3.53,1.73,5.62-.54,4.53-2.29,8.76-3.48,13.13-1,3.52-2.28,6.93-3,10.5-1.4,6.72.93,15,7.34,19.06A7.86,7.86,0,0,1,92.75,198a39.19,39.19,0,0,1,.81,13c-.17,2-.21,4-.5,6,0,.22,0,.45-.24.59a25.8,25.8,0,0,0-1.31-2.82,54,54,0,0,0-10.16-12.28A17,17,0,0,0,77,199.7a6,6,0,0,0-6.72,1,2.8,2.8,0,0,1-.46.3,34.53,34.53,0,0,1-3.78-6.7A70.58,70.58,0,0,1,60.44,177a71.42,71.42,0,0,1-1-8.62c-.06-1-.25-2.07-.39-3.1.31-.35.19-.79.17-1.18q-.2-5.91-.44-11.82c-.08-2.16-.09-4.32-.15-6.48a88.41,88.41,0,0,1,.12-12,3.82,3.82,0,0,0-.14-2.19c.28-2.24.55-4.48.84-6.71A20.11,20.11,0,0,1,61,120Z"/><path class="g" d="M248.79,85.22c-1,3.8-5.2,5.8-8.47,5.88-4.32.11-7.7-1.81-10.72-4.53a33.86,33.86,0,0,1-8.49-12.32c-1.46-3.46,1.33-10.42,5.32-10.64a19.71,19.71,0,0,1,3.18.35c4.59,1.9,8.12,5.22,11.64,8.55,1.51,1.44,2.93,3,4.47,4.39a9.34,9.34,0,0,1,3.31,7Z"/><path class="h" d="M69.86,201a2.8,2.8,0,0,0,.46-.3,6,6,0,0,1,6.72-1,17,17,0,0,1,4.31,2.79,54,54,0,0,1,10.16,12.28,25.8,25.8,0,0,1,1.31,2.82l.06,1.11c-.36,1.45-1.28,2-2.89,1.89-1.8-.08-3.44-.83-5.21-1h0l-.26-.18c-1.6-.7-3.23-1.32-4.76-2.18a19.1,19.1,0,0,1-9.49-11.9A8.87,8.87,0,0,1,69.86,201Z"/><path class="f" d="M84.78,219.58c1.77.18,3.41.93,5.21,1,1.61.07,2.53-.44,2.89-1.89a23.42,23.42,0,0,1,1.51,3.49,21.32,21.32,0,0,0,8.14,9.69,7.24,7.24,0,0,0,4.35,1.17c5.19-.44,8.71,2.16,11.5,6.16a24.7,24.7,0,0,1,2.71,4.6,1.75,1.75,0,0,1,.22,1,82.25,82.25,0,0,1-11.23-5.8,129.26,129.26,0,0,1-24.61-18.55C85.21,220.18,84.86,220,84.78,219.58Z"/><path class="i" d="M248.79,85.22l.24-1.36a72.43,72.43,0,0,1,6,8.88,105.7,105.7,0,0,1,12.17,30.16,62.29,62.29,0,0,1,1.45,7.66c-.76-.69-.62-1.69-.79-2.54a108.36,108.36,0,0,0-7.49-23.09,104.13,104.13,0,0,0-10.87-19.09C249.31,85.57,249.19,85.25,248.79,85.22Z"/><path class="i" d="M58.56,131.68a3.82,3.82,0,0,1,.14,2.19,88.41,88.41,0,0,0-.12,12c.06,2.16.07,4.32.15,6.48q.24,5.91.44,11.82c0,.39.14.83-.17,1.18a57.31,57.31,0,0,1-1.13-7.71A103.18,103.18,0,0,1,57.4,144,86,86,0,0,1,58.56,131.68Z"/><path class="i" d="M269.06,133.25a2.12,2.12,0,0,1-.36-2C269.08,131.85,268.92,132.58,269.06,133.25Z"/><path class="i" d="M269.26,134.83c-.26-.1-.4-.23-.12-.46A.32.32,0,0,1,269.26,134.83Z"/><path class="i" d="M269.12,133.91a1.09,1.09,0,0,1-.08-.15s0,0,.07-.07A1.62,1.62,0,0,0,269.12,133.91Z"/><path class="i" d="M269.34,135.71a.46.46,0,0,1-.07-.16s0,0,.06-.07S269.34,135.63,269.34,135.71Z"/><path class="i" d="M269.57,138a1.09,1.09,0,0,1-.08-.15s0-.05.06-.07A1.64,1.64,0,0,0,269.57,138Z"/><path class="f" d="M84.51,219.4l.26.18Z"/><path class="e" d="M191.29,153.81a16.83,16.83,0,0,1-.66,4.84,58.75,58.75,0,0,1-2,7.09,26.17,26.17,0,0,1-4.26,7.29,10.65,10.65,0,0,0-1.91,8.12c.18,1.51.2,3,.31,4.56a34.48,34.48,0,0,0,.69,5.74,2.88,2.88,0,0,0,1.31,2.12c.54.29.44.65.26,1.13a14.28,14.28,0,0,1-7.17,7.77c-3.5,1.77-7.12,3.23-10.67,4.87a4.76,4.76,0,0,0-.57.34,21.87,21.87,0,0,0-7.48-.68,29.75,29.75,0,0,0-10.92,2.94,28.89,28.89,0,0,0,.2-6,13.88,13.88,0,0,0-2-7.12,2.92,2.92,0,0,0-3.38-1.32c-1.53.31-3.06.57-4.59.87-.22,0-.43.13-.64,0-2.42-1.52-4.76-3.12-5.58-6.1a6.36,6.36,0,0,1,.94-5.32,19,19,0,0,1,7.28-6.29c4.48-2.46,9.09-4.67,13.6-7.07a102.09,102.09,0,0,0,14.3-9.11,29.64,29.64,0,0,0,7.9-8.27,6,6,0,0,0,.86-3.85c-.09-.79-.73-1.19-1.3-1.59a30.66,30.66,0,0,0-5.35-2.5,8.75,8.75,0,0,1-2.91-1.83,2.54,2.54,0,0,1-.47-3,10.09,10.09,0,0,1,2.76-3.19c.26-.23.55-.38.56-.77a8.69,8.69,0,0,1,1.84,2.2,39.51,39.51,0,0,0,7.86,10.93C183.31,153.57,186.81,155.41,191.29,153.81Z"/><path class="h" d="M111.6,153.85c4.89-.08,9,1.21,12.3,4.38a13,13,0,0,1,4.1,8.37c.59,6.23-2.06,11.22-6.64,15.17-3.89,3.36-8,2.69-11.87-.18a32.6,32.6,0,0,1-8.78-10.91,25.84,25.84,0,0,0-3.06-4.24,8.52,8.52,0,0,1-1.81-3.69c-.42-2.05.63-3.6,2.17-4.82,2.62-2.08,5.77-2.9,8.95-3.58A17.1,17.1,0,0,1,111.6,153.85Z"/><path class="g" d="M150.49,82.77a13.63,13.63,0,0,1,.5,5.61,18.18,18.18,0,0,1-4.55,10,10.75,10.75,0,0,1-6.11,4.07c-3,.65-5.64-.5-8-2.32a33.72,33.72,0,0,1-9-11.33,23.47,23.47,0,0,0-2.79-3.74c-1.76-2.18-2.26-4.81-1.15-6.75A8.5,8.5,0,0,1,123.68,75a28.15,28.15,0,0,1,11.61-2.49,16.24,16.24,0,0,1,11.61,4.43A13.39,13.39,0,0,1,150.49,82.77Z"/><path class="j" d="M191.29,153.81c-4.48,1.6-8-.24-11.13-3.2a39.51,39.51,0,0,1-7.86-10.93,8.69,8.69,0,0,0-1.84-2.2,11.73,11.73,0,0,1-2.1-3.78,4.44,4.44,0,0,1,1.26-4.49c2-2.14,4.67-3,7.36-3.81a24.7,24.7,0,0,1,6.81-1.08c6.36-.08,11.78,1.91,15,7.78A13.56,13.56,0,0,1,200.1,142a18.74,18.74,0,0,1-6.8,10.59A16.1,16.1,0,0,1,191.29,153.81Z"/><path class="j" d="M148.24,209.94A29.75,29.75,0,0,1,159.16,207a21.87,21.87,0,0,1,7.48.68,14.81,14.81,0,0,1,8.43,6.64c2.8,4.86,2.25,12.05-1.61,17a15.12,15.12,0,0,1-3.81,3.92c-4.24,2.54-6.49,2.68-10.89-.21a25.84,25.84,0,0,1-4.38-4,51.75,51.75,0,0,1-6-9.29,1.76,1.76,0,0,0-.41-.53,13.5,13.5,0,0,1-2.94-4c-.87-3.09-.2-4.86,2.55-6.73C147.83,210.26,148,210.1,148.24,209.94Z"/><path class="h" d="M228.93,203.91c4.18-.29,7.22.52,9.44,3.3a9.37,9.37,0,0,1,.35,10.8,13.44,13.44,0,0,1-3.16,3.73,5.29,5.29,0,0,1-6.35.41,16.68,16.68,0,0,1-5.34-5.92,45.75,45.75,0,0,0-2.79-4.3c-1.68-2.14-1.28-4.23,1-5.72A15.23,15.23,0,0,1,228.93,203.91Z"/><path class="h" d="M148.23,52.71c-.33-2.4,1-3.81,3-4.71,3.32-1.5,6.78-2.4,10.42-1.46,5.66,1.48,8.21,7.15,5.76,12.7a12.63,12.63,0,0,1-4.12,5.2c-2.24,1.64-5.08,1.24-7.52-1a24.37,24.37,0,0,1-4.91-6.75,8.61,8.61,0,0,0-1.69-2.18C148.83,53.91,148.53,53.31,148.23,52.71Z"/><path class="k" d="M249.86,145.8a12,12,0,0,0-2-3c-1.59-2.34-1.23-4.26,1.13-5.81a14.31,14.31,0,0,1,6.29-2.15c2.64-.3,5.29-.24,7.69,1.27a8.54,8.54,0,0,1,3.92,5.84c.56,4.65-1.4,8.18-5,10.9a5,5,0,0,1-6.06.09,17.34,17.34,0,0,1-5.3-5.93C250.35,146.63,250.1,146.22,249.86,145.8Z"/><path class="k" d="M72.85,139.27c-2.39,2-3.55,1.83-5.22-.86A11.85,11.85,0,0,1,66,134.16a9.47,9.47,0,0,1,.36-2.95c.7-4.28,1.33-8.56,2.17-12.81.22-1.13,1-1.88,1.43-2.85a22.23,22.23,0,0,1,3.49-2.18c2.69-1.19,5.18,1.36,5.27,3.75a40.85,40.85,0,0,1-1.82,12.77,34.56,34.56,0,0,1-2.68,7.1C73.8,137.77,73.31,138.51,72.85,139.27Z"/><path class="f" d="M145.06,217.14a13.5,13.5,0,0,0,2.94,4,1.76,1.76,0,0,1,.41.53,51.75,51.75,0,0,0,6,9.29l-3.66,5.18a10.39,10.39,0,0,1-2.84,2.65c-1.41.94-2.84.39-3.42-1.3-.84-2.42-1.17-5-1.82-7.46a27.26,27.26,0,0,1-1.14-6.78,6.39,6.39,0,0,1,1.87-4.52C143.9,218.2,144.49,217.68,145.06,217.14Z"/></svg>