<svg xmlns="http://www.w3.org/2000/svg" viewBox="0 0 333.37 497.64"><defs><style>.a,.e{fill:#297aa9;}.b{fill:#d2f2ff;}.c{fill:#f5cba0;}.d{fill:#93665c;}.e{font-size:76px;font-family:DINOT-CondBlack, DIN OT;font-weight:800;}.f{letter-spacing:-0.01em;}.g{letter-spacing:0em;}</style></defs><title>carteAutoFichier 3</title><path class="a" d="M333.37,434.87V25.35A25.42,25.42,0,0,0,307.91,0H25.43A25.5,25.5,0,0,0,0,25.43V472.2a25.49,25.49,0,0,0,25.45,25.44H308a25.4,25.4,0,0,0,25.37-25.35V434.87"/><path class="b" d="M317.25,98.27V27.05a10.94,10.94,0,0,0-10.93-10.94H27A10.85,10.85,0,0,0,16.11,27V470.59A10.91,10.91,0,0,0,27,481.53H306.32a11,11,0,0,0,10.93-10.94Z"/><path class="c" d="M75.11,87.37a70.37,70.37,0,0,1,8-11A64.18,64.18,0,0,1,95.78,65.12c7.88-5.26,15.33-11.18,24-15.28,5.2-2.48,10.63-4.34,15.94-6.51,3.74-1.53,7.7-1.78,11.55-2.62a84.91,84.91,0,0,1,14.46-1.78,108.87,108.87,0,0,1,12.25.09c3.61.25,7.2.62,10.78,1.2a106.45,106.45,0,0,1,24.11,6.88,108.12,108.12,0,0,1,19,10.29A105.92,105.92,0,0,1,246,72.91a108.94,108.94,0,0,1,23.39,39,113.14,113.14,0,0,1,4.94,21,98.45,98.45,0,0,1,.65,18.56,107.3,107.3,0,0,1-1.89,15.13c-.07.37-.12.74-.17,1.11a7.66,7.66,0,0,0-1.6-4.14c-2.27-2.43-8.21-2.49-10.73,0a30.79,30.79,0,0,0-8.44,15.78,13.34,13.34,0,0,0,2.65,11.95,8.67,8.67,0,0,0,5.34,3.17,12,12,0,0,0,3.58-.4,34.75,34.75,0,0,1-3.36,6.53,105.17,105.17,0,0,1-19.08,24.09,106.85,106.85,0,0,1-20.82,15.4,108.21,108.21,0,0,1-28.06,11,113.79,113.79,0,0,1-14.92,2.47,102.5,102.5,0,0,1-15.86.34,107.58,107.58,0,0,1-99-82.95,111.35,111.35,0,0,1-2.26-13.47,94,94,0,0,1-.59-14.13,133.7,133.7,0,0,1,1.83-17.3,145,145,0,0,1,3.36-15,6.36,6.36,0,0,1,.65-1.8c.08.37.17.74.25,1.11a14.83,14.83,0,0,0,1.52,4.72c.91,1.54,2.24,1.75,3.58.55a10.6,10.6,0,0,0,1.69-2,48.73,48.73,0,0,0,4.07-8c1.78-4.1,3.25-8.3,3-12.9A5.51,5.51,0,0,0,75.11,87.37Zm39.54,92.56a12.09,12.09,0,0,0-.42-3.57c-1.52-6.22-5.38-10.8-10.39-14.52a6.79,6.79,0,0,0-3.78-1.41c-2.76-.1-4.36,1.6-5.51,3.84-.49,1-.7,2.1-1.28,3C92,169.17,90.71,171,89.65,173c-2.05,3.87-3.8,7.83-3.59,12.35A7.9,7.9,0,0,0,90,192.12a18,18,0,0,0,11.08,2.38A14.41,14.41,0,0,0,114.65,179.93Zm25-68.46a16.05,16.05,0,0,0,0-1.7,13.34,13.34,0,0,0-.33-1.89c-1.54-6.22-5.35-10.83-10.35-14.58a7,7,0,0,0-3.88-1.45c-2.38-.09-3.94,1.24-5.1,3.19-1,1.65-1.46,3.53-2.59,5.14-3,4.27-5.39,8.83-6.21,14.09-.68,4.31.95,7.85,4.84,9.82a18.37,18.37,0,0,0,10.34,1.81A14.26,14.26,0,0,0,139.62,111.47Zm68.45-2.6a23.81,23.81,0,0,0,3.05-.24c6.5-.65,12.19-6.82,12.39-13.33A18.45,18.45,0,0,0,221,85.23a25.1,25.1,0,0,0-9.52-9.79,5.11,5.11,0,0,0-6.46.87A7.19,7.19,0,0,0,203.25,79c-.69,2.38-2.29,4.22-3.51,6.29-2.34,4-4.43,8-4.78,12.72-.23,3.1.51,5.87,3.1,7.86C201,108.07,204.47,108.73,208.07,108.87Zm-23.65,68.59a17.27,17.27,0,0,0,3.05-.24,13.84,13.84,0,0,0,8.66-4.53c3.89-4.36,4.64-9.47,2.92-14.94a25.24,25.24,0,0,0-9.68-12.8c-4-2.95-7.51-2-9.73,2.47A10.69,10.69,0,0,0,179,149a6.21,6.21,0,0,1-.85,1.71c-3.3,4.92-6.37,10-6.8,16.07-.21,2.88.48,5.49,2.82,7.42C177.14,176.64,180.71,177.28,184.42,177.46Zm-54.09,62.82c0,3,1.16,4.77,3.44,5.73a12.29,12.29,0,0,0,8.09.67c4.59-1.2,7.16-4.91,7-8.78-.26-5.26-3.33-8.88-7.71-11.42a3.4,3.4,0,0,0-5.12,1.64,49.92,49.92,0,0,1-2.93,4.95C131.66,235.46,130.43,237.93,130.33,240.28ZM213.74,239a8.69,8.69,0,0,0,1.84-.25c4.78-.67,8.42-5,7.84-9.63-.63-5-3.62-8.55-8-10.89-2.06-1.12-4.11-.11-5.14,2.2a15.19,15.19,0,0,1-1.37,2.58,21.27,21.27,0,0,0-4,8.68,5.49,5.49,0,0,0,3.19,6.13A14.55,14.55,0,0,0,213.74,239Zm43.34-139c0-.38,0-.76,0-1.13a3.69,3.69,0,0,0-.11-.56A15.21,15.21,0,0,0,250.4,89c-2.89-2-5.39-1.26-6.65,2a10.53,10.53,0,0,1-1.32,2.34,21.83,21.83,0,0,0-3.64,7.51c-.83,3.54.62,6.39,3.88,7.41a14.22,14.22,0,0,0,6.92.56A9.06,9.06,0,0,0,257.08,100ZM134.89,61.34a50.67,50.67,0,0,0,10.39-1.57,38.51,38.51,0,0,0,9.4-3.59c3-1.72,3.26-5.07.43-7.11A7.56,7.56,0,0,0,148,47.78c-4.15,1.4-8.32,2.75-12.48,4.1-2.94,1-4.44,3.14-5.65,5.63-.75,1.54,0,2.86,1.6,3.39A9.45,9.45,0,0,0,134.89,61.34Z"/><path class="d" d="M263.72,194a12,12,0,0,1-3.58.4,8.67,8.67,0,0,1-5.34-3.17,13.34,13.34,0,0,1-2.65-11.95,30.79,30.79,0,0,1,8.44-15.78c2.52-2.48,8.46-2.42,10.73,0a7.66,7.66,0,0,1,1.6,4.14c.25,4.6-.93,9-2.17,13.32-.68,2.35-1.39,4.69-2,7.05A9.49,9.49,0,0,1,263.72,194Z"/><path class="d" d="M75.11,87.37a5.51,5.51,0,0,1,4.59,5.42c.23,4.6-1.24,8.8-3,12.9a48.73,48.73,0,0,1-4.07,8,10.6,10.6,0,0,1-1.69,2c-1.34,1.2-2.67,1-3.58-.55a14.83,14.83,0,0,1-1.52-4.72c-.08-.37-.17-.74-.25-1.11a25.68,25.68,0,0,1,.25-9.92A17.58,17.58,0,0,1,75.11,87.37Z"/><path class="d" d="M114.65,179.93a14.41,14.41,0,0,1-13.57,14.57A18,18,0,0,1,90,192.12a7.9,7.9,0,0,1-3.94-6.75c-.21-4.52,1.54-8.48,3.59-12.35,1.06-2,2.38-3.85,3.62-5.75.58-.9.79-2,1.28-3,1.15-2.24,2.75-3.94,5.51-3.84a6.79,6.79,0,0,1,3.78,1.41c5,3.72,8.87,8.3,10.39,14.52A12.09,12.09,0,0,1,114.65,179.93Z"/><path class="d" d="M139.62,111.47a14.26,14.26,0,0,1-13.29,14.43A18.37,18.37,0,0,1,116,124.09c-3.89-2-5.52-5.51-4.84-9.82.82-5.26,3.23-9.82,6.21-14.09,1.13-1.61,1.6-3.49,2.59-5.14,1.16-2,2.72-3.28,5.1-3.19a7,7,0,0,1,3.88,1.45c5,3.75,8.81,8.36,10.35,14.58a13.34,13.34,0,0,1,.33,1.89A16.05,16.05,0,0,1,139.62,111.47Z"/><path class="d" d="M208.07,108.87c-3.6-.14-7.06-.8-10-3.05-2.59-2-3.33-4.76-3.1-7.86.35-4.7,2.44-8.76,4.78-12.72,1.22-2.07,2.82-3.91,3.51-6.29A7.19,7.19,0,0,1,205,76.31a5.11,5.11,0,0,1,6.46-.87A25.1,25.1,0,0,1,221,85.23a18.45,18.45,0,0,1,2.54,10.07c-.2,6.51-5.89,12.68-12.39,13.33A23.81,23.81,0,0,1,208.07,108.87Z"/><path class="d" d="M184.42,177.46c-3.71-.18-7.28-.82-10.26-3.28-2.34-1.93-3-4.54-2.82-7.42.43-6.11,3.5-11.15,6.8-16.07A6.21,6.21,0,0,0,179,149a10.69,10.69,0,0,1,.65-1.56c2.22-4.46,5.7-5.42,9.73-2.47a25.24,25.24,0,0,1,9.68,12.8c1.72,5.47,1,10.58-2.92,14.94a13.84,13.84,0,0,1-8.66,4.53A17.27,17.27,0,0,1,184.42,177.46Z"/><path class="d" d="M130.33,240.28c.1-2.35,1.33-4.82,2.74-7.21a49.92,49.92,0,0,0,2.93-4.95,3.4,3.4,0,0,1,5.12-1.64c4.38,2.54,7.45,6.16,7.71,11.42.19,3.87-2.38,7.58-7,8.78a12.29,12.29,0,0,1-8.09-.67C131.49,245.05,130.3,243.31,130.33,240.28Z"/><path class="d" d="M213.74,239a14.55,14.55,0,0,1-5.57-1.18,5.49,5.49,0,0,1-3.19-6.13,21.27,21.27,0,0,1,4-8.68,15.19,15.19,0,0,0,1.37-2.58c1-2.31,3.08-3.32,5.14-2.2,4.35,2.34,7.34,5.86,8,10.89.58,4.65-3.06,9-7.84,9.63A8.69,8.69,0,0,1,213.74,239Z"/><path class="d" d="M257.08,100a9.06,9.06,0,0,1-7.49,8.84,14.22,14.22,0,0,1-6.92-.56c-3.26-1-4.71-3.87-3.88-7.41a21.83,21.83,0,0,1,3.64-7.51A10.53,10.53,0,0,0,243.75,91c1.26-3.29,3.76-4.07,6.65-2A15.21,15.21,0,0,1,257,98.31a3.69,3.69,0,0,1,.11.56C257.09,99.24,257.08,99.62,257.08,100Z"/><path class="d" d="M134.89,61.34a9.45,9.45,0,0,1-3.47-.44c-1.63-.53-2.35-1.85-1.6-3.39,1.21-2.49,2.71-4.67,5.65-5.63,4.16-1.35,8.33-2.7,12.48-4.1a7.56,7.56,0,0,1,7.16,1.29c2.83,2,2.62,5.39-.43,7.11a38.51,38.51,0,0,1-9.4,3.59A50.67,50.67,0,0,1,134.89,61.34Z"/><text class="e" transform="translate(88.94 333.61)">AU<tspan class="f" x="77.52" y="0">T</tspan><tspan class="g" x="108.45" y="0">O </tspan></text></svg>