<?xml version="1.0" encoding="utf-8"?>
<!-- Generator: Adobe Illustrator 17.0.0, SVG Export Plug-In . SVG Version: 6.00 Build 0)  -->
<!DOCTYPE svg PUBLIC "-//W3C//DTD SVG 1.1//EN" "http://www.w3.org/Graphics/SVG/1.1/DTD/svg11.dtd">
<svg version="1.1" id="Calque_1" xmlns="http://www.w3.org/2000/svg" xmlns:xlink="http://www.w3.org/1999/xlink" x="0px" y="0px"
	 width="199.2px" height="228.2px" viewBox="0 0 199.2 228.2" enable-background="new 0 0 199.2 228.2" xml:space="preserve">
<g>
	<path fill="#F5CBA0" d="M3.1,116.3c0.5-2.6,1.4-5.1,2.3-7.5c2.5-6.9,5.8-13.4,9.9-19.5c2.8-4.1,5.8-7.9,9.2-11.5
		c6.9-7.3,14.9-13.3,23.8-17.9c7-3.6,14.3-6.2,21.9-7.9c0.1,0,0.2,0,0.3,0c2,2.1,3.5,4.6,5.1,7.1c0.2,0.3,0.2,0.8,0.7,0.8
		c0.3,0.5,0.5,1,0.8,1.5c0,0.4,0.2,0.8,0.4,1.1c1,1.8,1.8,3.7,2.4,5.7c1,3.2,1.2,6.5,0.3,9.8c-0.4,1.6-0.9,3.2-1.3,4.8
		c-0.2,0.8,0,1.6-0.6,2.3c-0.6-1.9-1.6-3.6-3-4.9c-2.7-2.6-6-3.7-9.7-3.7c-3.4,0-6.6,0.7-9.7,2.1c-1.4,0.6-2.8,1.4-3.5,2.8
		c-0.9,1.6-0.5,3.8,1,5.7c0.8,1,1.7,1.9,2.3,3.1c1.9,3.6,4.2,7,7.5,9.5c2,1.5,4.2,2.5,6.7,1.9c2.1-0.5,3.7-1.7,5.1-3.4
		c2-2.5,3.5-5.2,3.8-8.4c1.6,1.3,3.2,0.8,4.7,0c1.7-0.9,3.3-1.9,5-2.8c6.3-3.2,12.6-6.4,19.1-9.2c3.2-1.4,6.5-2.8,9.9-3.8
		c0.9-0.3,1.8-0.5,2.7,0.2c3.8,2.5,7.5,5.1,10.3,8.7c1,1.3,1.8,2.8,1.1,4.5c-0.5,1.2-1,2.4-1.6,3.5c-1,1.6-2.1,3.2-2.8,5
		c-0.8,1.9-0.4,3.5,1,4.6c1.1,0.9,2.3,1.6,3.6,2.1c5.2,2.1,10.6,3.4,15.7,5.8c3.7,1.7,7.3,3.6,10.1,6.6c2.6,2.7,2.6,6.9,0,9.5
		c-1.3,1.3-2.7,2.5-4,3.8c-1.6,1.5-1.7,2.8-0.4,4.6c2.1,2.9,4.9,4.6,8.4,5c0.2,0.3,0.4,0.7,0.6,1c1.2,1.9,2.5,3.7,4.4,5
		c1.7,1.1,3.5,1.1,5.1-0.1c3-2.3,4.6-5.2,4.2-9.1c0.9-0.3,1.8-0.4,2.2-1.3c0.2,0.1,0.2,0.3,0.2,0.5c0.2,3.4,0.2,6.8,0,10.2
		c-0.6,10.1-2.8,19.8-6.7,29.1c-3.4,8.1-7.8,15.5-13.4,22.3c-6,7.2-12.8,13.4-20.7,18.5c-9.6,6.2-20,10.4-31.3,12.5
		c-4.3,0.8-8.6,1.3-13,1.5c-6.7,0.4-13.2-0.2-19.8-1.3c-6.4-1.1-12.7-3-18.7-5.5c-0.3-0.1-0.7-0.2-1.1-0.3c0-0.3-0.1-0.5-0.2-0.8
		c-0.6-1.4-1.4-2.6-2.3-3.9c-2.3-3.4-5.3-5.5-9.6-5.2c-1.3,0.1-2.5-0.3-3.7-1c-3.2-1.9-5.3-4.8-6.8-8.1c-0.5-1-0.7-2-1.3-2.9
		c0-0.3,0-0.6-0.1-0.9c0.2-0.1,0.2-0.3,0.2-0.5c0.2-1.7,0.3-3.4,0.4-5c0.3-3.7,0.2-7.3-0.7-10.9c-0.4-1.7-1.1-3.3-2.7-4.3
		c-5.4-3.4-7.3-10.4-6.2-16c0.6-3,1.7-5.9,2.5-8.8c1-3.7,2.5-7.2,2.9-11c0.2-1.8,0-3.4-1.4-4.7c-1.1-1-2.4-1.3-3.7-1.6
		c-2-0.4-4.1-0.5-6.1-1.3c-0.8-0.3-1.6-0.7-2-1.5c0.4-0.6,0.8-1.3,1.2-1.9c1-1.9,1.7-3.9,2.3-6c1-3.5,1.7-7,1.5-10.7
		c-0.1-2-2.2-4.1-4.4-3.1c-1.1,0.5-2,1.2-2.9,1.8c-0.7-0.9-1.8-1.5-2.9-1.8c-0.6-0.2-1.1,0.2-1.2,0.7c-0.2,0.5-0.4,1-0.2,1.5
		c0.1,0.2,0.1,0.4-0.1,0.6C5.2,114.5,4.3,115.5,3.1,116.3z M81.4,209.4c1.1,1.2,2.3,2.4,3.7,3.3c3.7,2.4,5.6,2.3,9.1,0.2
		c1.3-0.8,2.2-2.1,3.2-3.3c3.2-4.1,3.7-10.1,1.4-14.2c-1.6-2.8-4.1-4.5-7.1-5.6c0.2-0.1,0.3-0.2,0.5-0.3c3-1.4,6-2.6,9-4.1
		c2.8-1.4,4.9-3.6,6-6.5c0.2-0.4,0.2-0.7-0.2-0.9c-0.7-0.4-0.9-1.1-1.1-1.8c-0.4-1.6-0.5-3.2-0.6-4.8c-0.1-1.3-0.1-2.6-0.3-3.8
		c-0.3-2.5,0-4.8,1.6-6.8c1.5-1.9,2.8-3.8,3.6-6.1c0.7-1.9,1.2-3.9,1.7-5.9c0.3-1.3,0.7-2.7,0.6-4.1c0.6-0.3,1.2-0.6,1.7-1
		c2.9-2.3,4.9-5.2,5.7-8.9c0.7-2.9,0.4-5.7-1.1-8.3c-2.7-4.9-7.3-6.6-12.6-6.5c-1.9,0-3.9,0.3-5.7,0.9c-2.3,0.7-4.5,1.4-6.2,3.2
		c-1,1.1-1.5,2.3-1.1,3.8c0.4,1.2,1,2.2,1.8,3.2c0,0.3-0.3,0.5-0.5,0.6c-0.9,0.8-1.8,1.6-2.3,2.7c-0.4,0.9-0.3,1.8,0.4,2.5
		c0.7,0.7,1.6,1.1,2.4,1.5c1.5,0.7,3.1,1.1,4.5,2.1c0.5,0.3,1,0.7,1.1,1.3c0.1,1.2-0.1,2.2-0.7,3.2c-1.7,2.8-4.1,5-6.6,6.9
		c-3.8,2.9-7.8,5.4-12,7.6c-3.8,2-7.6,3.9-11.4,5.9c-2.4,1.3-4.6,2.9-6.1,5.3c-0.9,1.4-1.2,2.9-0.8,4.5c0.7,2.5,2.7,3.8,4.7,5.1
		c0.2,0.1,0.4,0,0.5,0c1.3-0.3,2.6-0.5,3.9-0.7c1.2-0.3,2.1,0.1,2.8,1.1c1.2,1.8,1.5,3.9,1.6,6c0.1,1.7,0.1,3.4-0.2,5.1
		c-0.2,0.1-0.3,0.3-0.5,0.4c-2.3,1.6-2.9,3.1-2.1,5.6c-0.5,0.5-1,0.9-1.4,1.4c-1,1.1-1.6,2.3-1.6,3.8c0,2,0.5,3.8,1,5.7
		c0.5,2.1,0.8,4.2,1.5,6.3c0.5,1.4,1.7,1.9,2.9,1.1c0.9-0.6,1.7-1.3,2.4-2.2C79.3,212.3,80.4,210.8,81.4,209.4z M45.5,144.7
		c-1.1-0.1-2.5,0.1-3.9,0.4c-2.7,0.6-5.3,1.3-7.5,3c-1.3,1-2.2,2.3-1.8,4c0.2,1.1,0.8,2.2,1.5,3.1c0.9,1.1,1.9,2.2,2.6,3.6
		c1.9,3.5,4.1,6.7,7.4,9.1c3.2,2.4,6.7,3,10,0.2c3.8-3.3,6.1-7.5,5.6-12.7c-0.3-2.7-1.4-5.1-3.4-7C53,145.7,49.6,144.6,45.5,144.7z
		 M143.9,186.7c-1.6,0.1-3.8,0.7-5.7,1.9c-1.9,1.2-2.2,3-0.8,4.8c0.9,1.1,1.6,2.4,2.3,3.6c1.2,1.9,2.5,3.8,4.5,5
		c1.8,1.1,3.7,0.9,5.3-0.3c1.1-0.9,1.9-1.9,2.7-3.1c1.8-3,1.7-6.5-0.3-9.1C150,187.1,147.4,186.4,143.9,186.7z"/>
	<path fill="#E7B895" d="M76.2,59.8c-0.5-0.1-0.5-0.5-0.7-0.8c-1.6-2.5-3.1-4.9-5.1-7.1c2.4-0.6,4.8-1,7.2-1.3
		c4.5-0.5,9.1-0.9,13.7-0.8c8.4,0.3,16.7,1.5,24.8,4c10.3,3.2,19.6,8.2,28,14.9c0.2,0.1,0.4,0.2,0.4,0.5c-0.9-0.1-1.7-0.3-2.7-0.3
		c-3.3,0.2-5.7,6-4.5,8.9c1.7,4,3.9,7.5,7.1,10.3c2.5,2.3,5.4,3.9,9,3.8c2.7-0.1,6.3-1.7,7.1-4.9c0.3,0,0.4,0.3,0.6,0.5
		c3.6,5,6.6,10.4,9.1,16c2.8,6.2,4.9,12.7,6.3,19.4c0.1,0.7,0,1.6,0.7,2.1c0,0.2,0,0.4,0,0.6c-0.1,0.6-0.1,1.2,0.3,1.7
		c0,0.1,0,0.2,0,0.4c0,0-0.1,0-0.1,0.1c0,0,0,0.1,0.1,0.1c0,0.1,0,0.3,0,0.4c-0.2,0.2-0.1,0.3,0.1,0.4c0,0.2,0,0.4,0.1,0.6
		c0,0-0.1,0-0.1,0.1c0,0,0,0.1,0.1,0.1c0.1,0.6,0.1,1.1,0.2,1.7c0,0-0.1,0-0.1,0.1c0,0,0,0.1,0.1,0.1c0,0.7,0,1.4,0,2.1
		c-0.4,0.9-1.4,1.1-2.2,1.3c-0.4-2.1-1.5-3.7-3.3-4.9c-2-1.3-4.2-1.3-6.4-1.1c-1.9,0.2-3.7,0.7-5.3,1.8c-2,1.3-2.3,2.9-1,4.9
		c0.6,0.8,1.3,1.5,1.6,2.5c-3.6-0.4-6.4-2.1-8.4-5c-1.3-1.8-1.1-3.1,0.4-4.6c1.3-1.3,2.7-2.5,4-3.8c2.6-2.6,2.6-6.8,0-9.5
		c-2.9-3-6.4-4.9-10.1-6.6c-5.1-2.4-10.5-3.7-15.7-5.8c-1.3-0.5-2.5-1.3-3.6-2.1c-1.5-1.1-1.8-2.8-1-4.6c0.7-1.8,1.9-3.3,2.8-5
		c0.6-1.1,1.2-2.3,1.6-3.5c0.7-1.7-0.1-3.2-1.1-4.5c-2.8-3.6-6.5-6.2-10.3-8.7c-0.9-0.6-1.8-0.4-2.7-0.2c-3.4,1-6.6,2.4-9.9,3.8
		c-6.5,2.8-12.8,6-19.1,9.2c-1.7,0.9-3.3,1.8-5,2.8c-1.6,0.9-3.1,1.4-4.7,0c0.3-1.6-0.1-3.2-0.4-4.7c0.6-0.7,0.4-1.5,0.6-2.3
		c0.5-1.6,0.9-3.2,1.3-4.8c0.9-3.3,0.6-6.5-0.3-9.8c-0.6-2-1.4-3.9-2.4-5.7c-0.2-0.4-0.4-0.7-0.4-1.1c0.6,0.5,1.1,1.1,1.4,1.8
		c1.1,2.1,2.4,4.1,4.1,5.7c2,1.9,4.4,2.2,6.3,0.8c1.5-1.1,2.7-2.6,3.5-4.4c2.1-4.7-0.1-9.4-4.8-10.6c-3.1-0.8-6,0-8.7,1.2
		C77,56.6,75.9,57.8,76.2,59.8z"/>
	<path fill="#E7B896" d="M3.1,116.3c1.2-0.7,2.1-1.8,3.2-2.7c0.2-0.2,0.2-0.4,0.1-0.6c-0.2-0.5,0-1.1,0.2-1.5
		c0.2-0.5,0.6-0.9,1.2-0.7c1.1,0.3,2.1,0.9,2.9,1.8c-0.4,0.8-1,1.4-1.2,2.4c-0.7,3.6-1.2,7.2-1.8,10.7c-0.1,0.8-0.4,1.7-0.3,2.5
		c0.2,1.2,0.7,2.5,1.4,3.6c1.4,2.3,2.4,2.4,4.4,0.7c0.4,0.9,1.2,1.2,2,1.5c2,0.8,4.1,0.9,6.1,1.3c1.4,0.3,2.7,0.6,3.7,1.6
		c1.4,1.3,1.7,3,1.4,4.7c-0.4,3.8-1.9,7.3-2.9,11c-0.8,3-1.9,5.8-2.5,8.8c-1.2,5.6,0.8,12.5,6.2,16c1.6,1,2.3,2.7,2.7,4.3
		c0.9,3.6,1,7.2,0.7,10.9c-0.1,1.7-0.2,3.4-0.4,5c0,0.2,0,0.4-0.2,0.5c-0.4-0.8-0.6-1.6-1.1-2.4c-2.3-3.9-5.2-7.3-8.5-10.3
		c-1.1-1-2.3-1.7-3.6-2.3c-2-0.9-4-0.6-5.6,0.8c-0.1,0.1-0.3,0.2-0.4,0.3c-1.3-1.7-2.3-3.7-3.2-5.6c-2.2-4.6-3.8-9.5-4.7-14.5
		c-0.4-2.4-0.7-4.8-0.9-7.2c0-0.9-0.2-1.7-0.3-2.6c0.3-0.3,0.2-0.7,0.1-1c-0.1-3.3-0.2-6.6-0.4-9.9c-0.1-1.8-0.1-3.6-0.1-5.4
		c-0.1-3.3-0.3-6.7,0.1-10c0.1-0.6,0.2-1.2-0.1-1.8c0.2-1.9,0.5-3.8,0.7-5.6C1.9,119,2.5,117.6,3.1,116.3z"/>
	<path fill="#89BF6F" d="M160.6,87.1c-0.8,3.2-4.4,4.9-7.1,4.9c-3.6,0.1-6.5-1.5-9-3.8c-3.2-2.9-5.5-6.4-7.1-10.3
		c-1.2-2.9,1.1-8.7,4.5-8.9c0.9-0.1,1.8,0.2,2.7,0.3c3.8,1.6,6.8,4.4,9.8,7.2c1.3,1.2,2.5,2.5,3.8,3.7c1.7,1.6,2.7,3.5,2.8,5.8
		C160.7,86.3,160.6,86.7,160.6,87.1z"/>
	<path fill="#D7595D" d="M10.5,184.2c0.1-0.1,0.3-0.1,0.4-0.3c1.6-1.4,3.7-1.7,5.6-0.8c1.3,0.6,2.5,1.4,3.6,2.3
		c3.3,3,6.2,6.4,8.5,10.3c0.4,0.7,0.7,1.6,1.1,2.4c0,0.3,0,0.6,0.1,0.9c-0.3,1.2-1.1,1.6-2.4,1.6c-1.5-0.1-2.9-0.7-4.4-0.8
		c0,0,0,0,0,0c-0.1-0.1-0.1-0.1-0.2-0.2c-1.3-0.6-2.7-1.1-4-1.8c-4-2.2-6.7-5.6-8-10C10.5,186.7,10.2,185.5,10.5,184.2z"/>
	<path fill="#E7B896" d="M23,199.8c1.5,0.1,2.9,0.8,4.4,0.8c1.3,0.1,2.1-0.4,2.4-1.6c0.6,0.9,0.8,2,1.3,2.9c1.6,3.3,3.6,6.2,6.8,8.1
		c1.1,0.7,2.4,1.1,3.7,1c4.4-0.4,7.3,1.8,9.6,5.2c0.9,1.2,1.7,2.5,2.3,3.9c0.1,0.3,0.2,0.5,0.2,0.8c-3.3-1.3-6.4-3.1-9.4-4.9
		c-7.5-4.4-14.4-9.5-20.6-15.6C23.4,200.3,23.1,200.1,23,199.8z"/>
	<path fill="#F5CCA4" d="M160.6,87.1c0.1-0.4,0.1-0.8,0.2-1.1c1.9,2.3,3.5,4.9,5,7.4c4.7,7.9,8.1,16.3,10.2,25.3
		c0.5,2.1,1,4.3,1.2,6.4c-0.6-0.6-0.5-1.4-0.7-2.1c-1.3-6.7-3.5-13.1-6.3-19.4c-2.5-5.6-5.5-11-9.1-16
		C161,87.4,160.9,87.1,160.6,87.1z"/>
	<path fill="#F5CCA4" d="M1,126.1c0.3,0.6,0.2,1.2,0.1,1.8c-0.4,3.3-0.2,6.7-0.1,10c0.1,1.8,0.1,3.6,0.1,5.4
		c0.1,3.3,0.3,6.6,0.4,9.9c0,0.3,0.1,0.7-0.1,1c-0.5-2.1-0.7-4.3-0.9-6.5C0,144-0.1,140.2,0,136.4C0.1,132.9,0.4,129.5,1,126.1z"/>
	<path fill="#F5CCA4" d="M177.6,127.4c-0.4-0.5-0.5-1.1-0.3-1.7C177.6,126.2,177.5,126.8,177.6,127.4z"/>
	<path fill="#F5CCA4" d="M177.7,128.7c-0.2-0.1-0.3-0.2-0.1-0.4C177.8,128.4,177.8,128.5,177.7,128.7z"/>
	<path fill="#F5CCA4" d="M177.6,127.9c0,0,0-0.1-0.1-0.1c0,0,0,0,0.1-0.1C177.6,127.8,177.6,127.9,177.6,127.9z"/>
	<path fill="#F5CCA4" d="M177.8,129.4c0,0,0-0.1-0.1-0.1c0,0,0,0,0.1-0.1C177.8,129.3,177.8,129.4,177.8,129.4z"/>
	<path fill="#F5CCA4" d="M178,131.3c0,0-0.1-0.1-0.1-0.1c0,0,0,0,0.1-0.1C178,131.2,178,131.3,178,131.3z"/>
	<path fill="#E7B896" d="M22.8,199.6c0.1,0.1,0.1,0.1,0.2,0.2C22.9,199.7,22.9,199.7,22.8,199.6z"/>
	<path fill="#E7B895" d="M112.3,144.6c0.1,1.4-0.3,2.7-0.6,4.1c-0.4,2-1,4-1.7,5.9c-0.8,2.3-2.1,4.2-3.6,6.1c-1.6,2-1.9,4.3-1.6,6.8
		c0.1,1.3,0.2,2.6,0.3,3.8c0.1,1.6,0.2,3.2,0.6,4.8c0.2,0.7,0.4,1.4,1.1,1.8c0.5,0.2,0.4,0.5,0.2,0.9c-1.2,3-3.2,5.1-6,6.5
		c-2.9,1.5-6,2.7-9,4.1c-0.2,0.1-0.3,0.2-0.5,0.3c-2.1-0.6-4.1-0.7-6.3-0.6c-3.2,0.3-6.3,1-9.2,2.5c0.3-1.7,0.3-3.4,0.2-5.1
		c-0.1-2.1-0.4-4.2-1.6-6c-0.7-1-1.6-1.4-2.8-1.1c-1.3,0.3-2.6,0.5-3.9,0.7c-0.2,0-0.4,0.1-0.5,0c-2-1.3-4-2.6-4.7-5.1
		c-0.4-1.6-0.1-3.1,0.8-4.5c1.5-2.4,3.7-4,6.1-5.3c3.8-2.1,7.6-3.9,11.4-5.9c4.2-2.2,8.2-4.7,12-7.6c2.5-2,5-4.1,6.6-6.9
		c0.6-1,0.8-2.1,0.7-3.2c-0.1-0.7-0.6-1-1.1-1.3c-1.4-1-3-1.4-4.5-2.1c-0.9-0.4-1.8-0.8-2.4-1.5c-0.7-0.7-0.8-1.6-0.4-2.5
		c0.5-1.1,1.4-1.9,2.3-2.7c0.2-0.2,0.5-0.3,0.5-0.6c0.6,0.6,1.2,1.1,1.5,1.8c1.7,3.4,3.8,6.5,6.6,9.2
		C105.7,144.4,108.6,146,112.3,144.6z"/>
	<path fill="#D7595D" d="M45.5,144.7c4.1-0.1,7.5,1,10.3,3.7c2,1.9,3.2,4.3,3.4,7c0.5,5.2-1.7,9.4-5.6,12.7c-3.3,2.8-6.8,2.3-10-0.2
		c-3.2-2.4-5.5-5.7-7.4-9.1c-0.7-1.3-1.6-2.4-2.6-3.6c-0.8-0.9-1.3-2-1.5-3.1c-0.3-1.7,0.5-3,1.8-4c2.2-1.7,4.8-2.4,7.5-3
		C43,144.8,44.4,144.6,45.5,144.7z"/>
	<path fill="#89BF6F" d="M78.1,85c0.4,1.5,0.7,3.1,0.4,4.7c-0.3,3.2-1.8,5.9-3.8,8.4c-1.4,1.7-3,3-5.1,3.4c-2.5,0.5-4.7-0.4-6.7-1.9
		c-3.3-2.5-5.6-5.9-7.5-9.5c-0.6-1.2-1.5-2.1-2.3-3.1c-1.5-1.8-1.9-4-1-5.7c0.8-1.4,2.1-2.2,3.5-2.8c3.1-1.4,6.4-2.1,9.7-2.1
		c3.7,0,7,1.1,9.7,3.7C76.5,81.5,77.5,83.1,78.1,85z"/>
	<path fill="#398AC7" d="M112.3,144.6c-3.8,1.3-6.7-0.2-9.3-2.7c-2.8-2.6-4.8-5.8-6.6-9.2c-0.4-0.8-1-1.3-1.5-1.8
		c-0.8-1-1.4-2-1.8-3.2c-0.4-1.4,0.1-2.7,1.1-3.8c1.7-1.8,3.9-2.5,6.2-3.2c1.9-0.6,3.8-0.9,5.7-0.9c5.3-0.1,9.9,1.6,12.6,6.5
		c1.4,2.6,1.8,5.4,1.1,8.3c-0.8,3.7-2.8,6.5-5.7,8.9C113.5,144,112.9,144.3,112.3,144.6z"/>
	<path fill="#398AC7" d="M76.2,191.7c2.9-1.4,5.9-2.2,9.2-2.5c2.1-0.2,4.2,0,6.3,0.6c3,1,5.5,2.8,7.1,5.6c2.3,4.1,1.9,10.1-1.4,14.2
		c-1,1.2-1.9,2.5-3.2,3.3c-3.6,2.1-5.4,2.2-9.1-0.2c-1.4-0.9-2.5-2.1-3.7-3.3c-1.9-2.4-3.6-5-5-7.8c-0.1-0.2-0.2-0.3-0.3-0.4
		c-1.1-1-1.8-2.1-2.5-3.4c-0.7-2.6-0.2-4.1,2.1-5.6C75.9,192,76.1,191.8,76.2,191.7z"/>
	<path fill="#D7595D" d="M143.9,186.7c3.5-0.2,6.1,0.4,7.9,2.8c2,2.5,2.1,6.1,0.3,9.1c-0.7,1.2-1.5,2.3-2.7,3.1
		c-1.6,1.3-3.5,1.4-5.3,0.3c-2-1.2-3.3-3-4.5-5c-0.8-1.2-1.4-2.5-2.3-3.6c-1.4-1.8-1.1-3.5,0.8-4.8
		C140.1,187.3,142.3,186.8,143.9,186.7z"/>
	<path fill="#D7595D" d="M76.2,59.8c-0.3-2,0.8-3.2,2.5-4c2.8-1.3,5.7-2,8.7-1.2c4.7,1.2,6.9,6,4.8,10.6c-0.8,1.7-1.9,3.2-3.5,4.4
		c-1.9,1.4-4.3,1-6.3-0.8c-1.8-1.6-3-3.6-4.1-5.7c-0.4-0.7-0.9-1.3-1.4-1.8C76.7,60.8,76.5,60.3,76.2,59.8z"/>
	<path fill="#F9DE55" d="M161.5,137.9c-0.3-1-1.1-1.7-1.6-2.5c-1.3-2-1-3.6,1-4.9c1.6-1.1,3.4-1.6,5.3-1.8c2.2-0.3,4.4-0.2,6.4,1.1
		c1.8,1.2,2.9,2.8,3.3,4.9c0.5,3.9-1.2,6.9-4.2,9.1c-1.6,1.2-3.4,1.1-5.1,0.1c-1.9-1.2-3.3-3-4.4-5
		C161.9,138.6,161.7,138.3,161.5,137.9z"/>
	<path fill="#F9DE55" d="M13,132.4c-2,1.7-3,1.5-4.4-0.7c-0.7-1.1-1.2-2.3-1.4-3.6c-0.1-0.8,0.2-1.7,0.3-2.5
		c0.6-3.6,1.1-7.2,1.8-10.7c0.2-0.9,0.8-1.6,1.2-2.4c0.9-0.7,1.8-1.3,2.9-1.8c2.3-1,4.3,1.1,4.4,3.1c0.1,3.7-0.5,7.2-1.5,10.7
		c-0.6,2-1.2,4.1-2.3,6C13.8,131.2,13.4,131.8,13,132.4z"/>
	<path fill="#E7B896" d="M73.6,197.8c0.6,1.3,1.4,2.4,2.5,3.4c0.1,0.1,0.3,0.3,0.3,0.4c1.4,2.8,3.1,5.4,5,7.8c-1,1.4-2,2.9-3.1,4.3
		c-0.6,0.9-1.5,1.6-2.4,2.2c-1.2,0.8-2.4,0.3-2.9-1.1c-0.7-2-1-4.2-1.5-6.3c-0.5-1.9-0.9-3.7-1-5.7c0-1.5,0.6-2.7,1.6-3.8
		C72.6,198.6,73.1,198.2,73.6,197.8z"/>
</g>
<g>
	<path fill="#FFFFFF" stroke="#000000" stroke-width="0.25" stroke-miterlimit="10" d="M44.4,14.7c0.7,1.6,1.2,3.3,1.5,5.1
		c0.2,1.8,0.2,3.7-0.1,5.6c1.6,1.1,3.1,2.4,4.4,3.9c1.3,1.5,2.5,3.2,3.4,5.1c1.1,2.3,1.6,4.6,1.6,6.9c0,2.3-0.6,4.6-1.6,6.7l0,0
		c-1.4,2.6-3,4.8-4.9,6.5c-1.9,1.7-4,3.1-6.1,4.1c-1.3,0.6-2.6,1.1-3.9,1.5c-1.3,0.4-2.6,0.7-3.9,1c-0.5,0.2-0.9,0.1-1.4-0.3
		c-0.5-0.4-0.9-0.9-1.1-1.4l-0.1-0.1c-2.1-4.8-4.1-9.5-6-14.2c-1.9-4.7-3.7-9.5-5.4-14.6c-0.4-1.1-0.7-2.4-0.8-3.8
		c-0.1-1.4,0.1-2.7,0.6-3.8c0.4-1,1-2,1.6-2.8c0.6-0.8,1.3-1.6,2-2.5l0.5-0.5c0.6-0.6,1.2-1.3,1.9-2.1s1.3-1.4,2.1-2.1
		c0.7-0.7,1.5-1.3,2.2-1.9c0.8-0.6,1.5-1.1,2.3-1.4C33.8,9.2,34.7,9,35.5,9c0.9,0,1.7,0.1,2.5,0.3c0.8,0.3,1.6,0.6,2.4,1.1
		c0.8,0.5,1.5,1.1,2.1,1.7C43.3,12.8,44,13.7,44.4,14.7z M36,22.9c-0.1-0.2-0.3-0.3-0.4-0.5c-0.9,0.2-1.8,0.3-2.6,0.4
		c-0.9,0.1-1.7,0.4-2.5,0.7c-1.3,0.6-2.2,1.3-2.6,2.2c-0.4,0.8-0.6,1.7-0.5,2.6c0.1,0.9,0.3,1.8,0.7,2.8c0.4,1,0.7,1.9,1,2.8L29,34
		c0.2,0.1,0.4,0.2,0.6,0c0.2-0.1,0.3-0.1,0.4-0.2c0.1-0.1,0.2-0.2,0.3-0.3c0.8-0.6,1.5-1.3,2.3-2.1c0.7-0.7,1.6-1.4,2.5-1.9L35,29.6
		c0.1,0,0.2-0.1,0.2,0c0.6-0.8,1.1-1.7,1.3-2.9c0.2-1.2,0.2-2.3-0.1-3.3C36.3,23.2,36.2,23,36,22.9z M41,38.6
		c-1,0.1-1.9,0.3-2.9,0.7c-1.2,0.6-2.2,1.1-2.9,1.7c-0.7,0.5-1.2,1.1-1.5,1.7c-0.3,0.6-0.4,1.2-0.3,1.9s0.3,1.4,0.7,2.3l0.1,0.1
		c0.1,0.2,0.2,0.4,0.2,0.6c0.1,0.2,0.1,0.4,0.2,0.6c0.4,0.8,0.9,1.4,1.7,1.8c0.7,0.4,1.4,0.5,2.1,0.1c0.2-0.1,0.3-0.2,0.5-0.4
		c0.6-0.5,1.3-1,2.1-1.6s1.4-1.2,2-1.9c0.6-0.7,1.1-1.5,1.4-2.5c0.3-0.9,0.4-2,0.2-3.1c0-0.1,0-0.2-0.1-0.3
		c-0.2-0.3-0.4-0.5-0.6-0.6C42.9,38.8,42,38.5,41,38.6z"/>
	<path fill="#FFFFFF" stroke="#000000" stroke-width="0.25" stroke-miterlimit="10" d="M86.3,35.7c-1,2.3-2.2,4.4-3.7,6.3
		c-1.5,1.8-3.1,3.3-5,4.5s-3.9,1.9-6.2,2.1c-2.1,0.2-3.9-0.1-5.5-1c-1.6-0.9-3-2.1-4.1-3.7c-1.1-1.6-2-3.4-2.7-5.5
		c-0.7-2.1-1.1-4.3-1.3-6.5c-0.2-2.2-0.3-4.5-0.1-6.9c0.2-2.4,0.5-4.7,1.1-7.1c0.5-2.2,1.4-4.4,2.5-6.4c1.1-2,2.4-3.9,4-5.5
		c1.6-1.6,3.3-2.9,5.2-4c1.9-1,3.9-1.7,6-1.9l0.6-0.1C78.9,0,80.4,0.3,81.8,1s2.6,1.6,3.5,2.9c1,1.3,1.8,2.7,2.4,4.5
		c0.6,1.7,1,3.5,1.2,5.5c0.2,2.2,0.3,4.5,0.2,7.1c-0.1,2.6-0.3,5.1-0.7,7.4C88,30.9,87.3,33.4,86.3,35.7z M75.4,13.5
		c-1.1-0.8-2.3-1.1-3.7-1c-0.7,0.1-1.4,0.3-2,0.6c-1,0.5-1.9,1.3-2.6,2.2c-0.7,0.9-1.2,1.9-1.6,3c-0.4,1.1-0.7,2.3-0.8,3.5
		c-0.2,1.2-0.3,2.4-0.3,3.6c0,1.2,0,2.2,0.1,3.2c0.1,1,0.1,1.8,0.2,2.4c0.1,0.8,0.3,1.6,0.6,2.3c0.3,0.7,0.7,1.4,1.1,1.9
		c0.5,0.6,1,1,1.6,1.4c0.6,0.4,1.2,0.6,1.9,0.7l1.7-0.2c0.9-0.2,1.7-0.5,2.6-1c0.9-0.5,1.6-1.3,2.1-2.2l0,0.1c1.1-2.1,1.8-4.4,2-6.8
		c0.2-2.4,0.2-4.8-0.1-7.2c-0.1-0.5-0.1-1-0.2-1.5c-0.1-0.5-0.1-1-0.2-1.5C77.2,15.5,76.5,14.3,75.4,13.5z"/>
	<path fill="#FFFFFF" stroke="#000000" stroke-width="0.25" stroke-miterlimit="10" d="M129.9,18.9c-1,3.4-2.1,6.8-3.3,10.2
		c-1.2,3.4-2.5,6.7-4,9.9c-1.5,3.2-3.2,6.4-5.1,9.4c-0.7,1-1.6,1.7-2.7,2.1c-1.1,0.5-2.2,0.5-3.3,0.3c-1-0.3-1.9-0.7-2.5-1.4
		c-0.7-0.7-1.2-1.5-1.6-2.4c-0.4-0.9-0.7-1.9-0.9-3c-0.2-1.1-0.3-2.2-0.4-3.4c-0.1-1.1-0.2-2.3-0.3-3.4c-0.1-1.1-0.2-2.1-0.4-3
		c-0.1-0.3-0.2-0.7-0.3-1.1c-0.1-0.4-0.2-0.8-0.4-1.2c-0.1-0.4-0.3-0.7-0.6-1c-0.2-0.3-0.5-0.5-0.9-0.6c-0.3,0.3-0.6,0.7-0.8,1.2
		c-0.2,0.5-0.4,1.2-0.6,1.9c-0.3,1.1-0.5,2.3-0.6,3.4c-0.1,1.1-0.4,2.4-0.7,3.8c-0.3,0.9-0.7,1.7-1.1,2.5c-0.5,0.8-1,1.4-1.7,1.9
		c-0.5,0.3-0.9,0.5-1.4,0.6c-0.5,0.1-1,0.1-1.4-0.1c-0.7-0.2-1.3-0.6-1.6-1.2c-0.3-0.6-0.5-1.3-0.5-2.1c0-0.8,0.1-1.8,0.3-2.9
		c0.2-1.1,0.5-2.3,0.8-3.6c1-3.9,2.1-7.7,3.4-11.3c1.3-3.7,2.7-7.4,4.2-11.3c0.3-0.8,0.7-1.5,1.2-2.2c0.5-0.7,1.1-1.3,1.7-1.7
		c0.6-0.5,1.3-0.8,2-1c0.7-0.2,1.4-0.2,2.1,0c1,0.2,1.7,0.8,2.2,1.7c0.5,0.9,0.7,2,0.6,3.2c-0.2,1.7-0.1,3.4,0.1,4.9
		c0.2,1.6,0.5,3.1,0.9,4.7c0.1,0.5,0.2,1,0.3,1.5c0.1,0.6,0.2,1.1,0.4,1.6c0.2,0.5,0.4,1,0.7,1.4c0.3,0.4,0.7,0.7,1.3,0.9
		c0.5-0.4,0.9-0.8,1.2-1.2c0.3-0.5,0.6-1,0.8-1.5c0.2-0.5,0.4-1.1,0.6-1.7c0.2-0.6,0.4-1.2,0.6-1.7c0.5-1.8,0.8-3.5,0.9-5.1
		c0.2-1.6,0.5-3.4,0.9-5.2c0.3-1.1,0.8-2.1,1.6-3c0.8-0.9,1.7-1.7,2.7-2.3c1-0.6,2.1-1,3.3-1.2c1.1-0.2,2.2-0.2,3.2,0
		c0.8,0.2,1.4,0.6,1.9,1.1c0.5,0.5,0.6,1.3,0.3,2.2l0,0.2C131.9,12.1,130.9,15.5,129.9,18.9z"/>
	<path fill="#FFFFFF" stroke="#000000" stroke-width="0.25" stroke-miterlimit="10" d="M171.4,30c-1.8,1.8-3.4,3.7-4.8,5.7
		c-1.4,2-2.7,4.1-4.1,6.2l-5.5,8.3c-1.2,1.8-2.6,3.5-4.2,5c-1.6,1.6-3.4,2.9-5.2,3.9c-1.9,1.1-3.8,1.8-5.8,2.2c-2,0.4-4,0.3-5.9-0.2
		c-1.2-0.3-2.4-0.6-3.5-0.9c-1.1-0.2-2.2-0.7-3.1-1.3c-1.4-1-2.4-2.2-3-3.7c-0.6-1.5-0.9-3-0.9-4.7c0-1.7,0.3-3.4,0.9-5.1
		c0.6-1.7,1.3-3.3,2.2-4.8c1.3-2.1,2.8-4.1,4.5-6c1.7-1.9,3.4-4,5-6.2c0.3-0.6,0.6-1.2,0.8-1.8c0.3-0.6,0.6-1.2,0.9-1.8
		c0.4-0.7,1-1.3,1.8-2c0.8-0.6,1.6-1.1,2.5-1.6c0.9-0.4,1.8-0.7,2.6-0.8c0.9-0.1,1.6,0,2.2,0.4c0.4,0.2,0.6,0.6,0.8,1
		c0.1,0.4,0.1,0.9,0,1.4c-0.1,0.5-0.3,1.1-0.5,1.6c-0.3,0.6-0.6,1.1-0.9,1.7c-0.8,1.3-1.8,2.6-2.8,3.8c-1,1.2-2,2.5-3.1,3.7
		c-1,1.2-2.1,2.4-3.1,3.7c-1,1.2-1.9,2.5-2.7,3.8c-0.4,0.7-0.8,1.4-1.1,2.1c-0.3,0.7-0.6,1.5-0.7,2.3c-0.1,0.8-0.1,1.6,0.1,2.5
		c0.2,0.8,0.6,1.7,1.2,2.6c0.8,0.5,1.6,0.6,2.5,0.5c0.9-0.1,1.7-0.4,2.6-0.8c0.9-0.4,1.7-1,2.5-1.7c0.8-0.7,1.5-1.3,2.1-2
		c4.4-5,8.4-10.3,12-15.9c0.5-0.8,1-1.7,1.5-2.5c0.5-0.9,1-1.7,1.6-2.7c0.5-0.7,1.2-1.2,2-1.6c0.8-0.4,1.6-0.6,2.5-0.7
		c0.9-0.1,1.7-0.1,2.5,0c0.8,0.1,1.5,0.4,2.1,0.8c0.1,0.1,0.3,0.2,0.3,0.2c0.1,0.1,0.2,0.2,0.4,0.3c0.2,0.3,0.5,0.5,0.8,0.8
		c0.3,0.3,0.5,0.6,0.7,1c0.2,0.4,0.2,0.8,0.1,1.3S172,29.2,171.4,30L171.4,30z"/>
	<path fill="#FFFFFF" stroke="#000000" stroke-width="0.25" stroke-miterlimit="10" d="M190.6,68c-0.8,0-1.5-0.1-2.2-0.2
		c-0.7-0.2-1.4-0.4-1.9-0.7c-0.6-0.3-1.1-0.7-1.5-1.2c-0.3-0.4-0.5-0.8-0.6-1.2c-0.1-0.4-0.1-0.9,0-1.3l0,0.1
		c0.3-1.2,0.4-2.3,0.2-3.4s-0.6-2.1-1.4-3c-0.3-0.3-0.6-0.6-1-1c-0.4-0.3-0.9-0.6-1.5-0.9c-0.6-0.2-1.1-0.4-1.8-0.4
		c-0.6,0-1.2,0.1-1.8,0.4l-0.1,0.1c-0.4,0.3-0.7,0.7-0.8,1c-0.2,0.3-0.2,0.7-0.2,1c0,0.3,0.1,0.6,0.3,1c0.2,0.3,0.4,0.6,0.6,0.9
		c0.6,0.8,1.4,1.5,2.2,2.3c0.8,0.8,1.6,1.6,2.3,2.5c0.5,0.6,1,1.3,1.3,1.9c0.4,0.7,0.7,1.3,0.9,2c0.2,0.7,0.2,1.4,0.2,2.2
		c-0.1,0.8-0.3,1.6-0.7,2.4c-0.7,1.4-1.5,2.9-2.3,4.2c-0.8,1.4-1.9,2.6-3.3,3.8c-0.1,0.1-0.3,0.2-0.4,0.3c-0.1,0.1-0.2,0.2-0.4,0.3
		c-2.1,1.2-4.3,1.9-6.5,2.1c-2.2,0.2-4.4,0.1-6.5-0.3s-4-1.2-5.7-2.2c-1.8-1-3.2-2.1-4.4-3.4c-0.6-0.8-1.2-1.8-1.8-3.1
		c-0.6-1.3-1-2.6-1.2-4c-0.2-1.4-0.1-2.8,0.2-4.2c0.4-1.4,1.2-2.6,2.6-3.7l0.5-0.4c0.4-0.3,0.9-0.6,1.4-0.9c0.5-0.2,1-0.4,1.6-0.5
		c0.5-0.1,1-0.1,1.5,0c0.5,0.1,0.9,0.3,1.2,0.6l0.4,0.7c0.4,0.7,0.6,1.5,0.6,2.3c0,0.8,0.1,1.7,0.1,2.5c0,0.9,0.1,1.7,0.2,2.6
		c0.1,0.9,0.5,1.7,1.1,2.4l0.2,0.3c0.3,0.4,0.7,0.7,1.1,0.9c0.5,0.2,1,0.4,1.5,0.4c0.5,0.1,1.1,0.1,1.6-0.1s1-0.4,1.5-0.7
		c0.5-0.5,1-1,1.4-1.6l0.2-0.2c0.5-0.4,0.7-0.9,0.5-1.4c-0.2-0.5-0.5-1.1-1.1-1.8c-0.5-0.7-1.1-1.4-1.8-2.3
		c-0.7-0.8-1.3-1.8-1.9-2.8c-0.5-1-0.9-2.2-1.1-3.5c-0.2-1.3-0.1-2.7,0.4-4.2c0.4-0.5,0.8-1,1.2-1.4c0.4-0.5,0.9-0.9,1.4-1.4
		c0.1-0.1,0.2-0.2,0.3-0.2c0.1-0.1,0.2-0.2,0.4-0.2c2.2-1.5,4.6-2.6,7.4-3.1c2.7-0.6,5.4-0.7,8.1-0.4c2.7,0.3,5.2,1,7.6,2.1
		c2.4,1.1,4.3,2.6,5.8,4.4c0.7,0.8,1.3,1.8,1.7,2.7c0.4,1,0.6,1.9,0.7,2.9c0,1-0.2,2-0.7,3c-0.5,1-1.2,1.9-2.4,2.8
		c-0.4,0.4-0.9,0.7-1.5,1c-0.6,0.3-1.1,0.5-1.7,0.8C192.1,67.8,191.4,67.9,190.6,68z"/>
</g>
</svg>
