<?xml version="1.0" encoding="utf-8"?>
<!-- Generator: Adobe Illustrator 17.0.0, SVG Export Plug-In . SVG Version: 6.00 Build 0)  -->
<!DOCTYPE svg PUBLIC "-//W3C//DTD SVG 1.1//EN" "http://www.w3.org/Graphics/SVG/1.1/DTD/svg11.dtd">
<svg version="1.1" id="Calque_1" xmlns="http://www.w3.org/2000/svg" xmlns:xlink="http://www.w3.org/1999/xlink" x="0px" y="0px"
	 width="203.7px" height="227.1px" viewBox="0 0 203.7 227.1" enable-background="new 0 0 203.7 227.1" xml:space="preserve">
<g>
	<path fill="#F5CBA0" d="M28.3,115.2c0.5-2.6,1.4-5.1,2.3-7.5c2.5-6.9,5.8-13.4,9.9-19.5c2.8-4.1,5.8-7.9,9.2-11.5
		c6.9-7.3,14.9-13.3,23.8-17.9c7-3.6,14.3-6.2,21.9-7.9c0.1,0,0.2,0,0.3,0c2,2.1,3.5,4.6,5.1,7.1c0.2,0.3,0.2,0.8,0.7,0.8
		c0.3,0.5,0.5,1,0.8,1.5c0,0.4,0.2,0.8,0.4,1.1c1,1.8,1.8,3.7,2.4,5.7c1,3.2,1.2,6.5,0.3,9.8c-0.4,1.6-0.9,3.2-1.3,4.8
		c-0.2,0.8,0,1.6-0.6,2.3c-0.6-1.9-1.6-3.6-3-4.9c-2.7-2.6-6-3.7-9.7-3.7c-3.4,0-6.6,0.7-9.7,2.1c-1.4,0.6-2.8,1.4-3.5,2.8
		c-0.9,1.6-0.5,3.8,1,5.7c0.8,1,1.7,1.9,2.3,3.1c1.9,3.6,4.2,7,7.5,9.5c2,1.5,4.2,2.5,6.7,1.9c2.1-0.5,3.7-1.7,5.1-3.4
		c2-2.5,3.5-5.2,3.8-8.4c1.6,1.3,3.2,0.8,4.7,0c1.7-0.9,3.3-1.9,5-2.8c6.3-3.2,12.6-6.4,19.1-9.2c3.2-1.4,6.5-2.8,9.9-3.8
		c0.9-0.3,1.8-0.5,2.7,0.2c3.8,2.5,7.5,5.1,10.3,8.7c1,1.3,1.8,2.8,1.1,4.5c-0.5,1.2-1,2.4-1.6,3.5c-1,1.6-2.1,3.2-2.8,5
		c-0.8,1.9-0.4,3.5,1,4.6c1.1,0.9,2.3,1.6,3.6,2.1c5.2,2.1,10.6,3.4,15.7,5.8c3.7,1.7,7.3,3.6,10.1,6.6c2.6,2.7,2.6,6.9,0,9.5
		c-1.3,1.3-2.7,2.5-4,3.8c-1.6,1.5-1.7,2.8-0.4,4.6c2.1,2.9,4.9,4.6,8.4,5c0.2,0.3,0.4,0.7,0.6,1c1.2,1.9,2.5,3.7,4.4,5
		c1.7,1.1,3.5,1.1,5.1-0.1c3-2.3,4.6-5.2,4.2-9.1c0.9-0.3,1.8-0.4,2.2-1.3c0.2,0.1,0.2,0.3,0.2,0.5c0.2,3.4,0.2,6.8,0,10.2
		c-0.6,10.1-2.8,19.8-6.7,29.1c-3.4,8.1-7.8,15.5-13.4,22.3c-6,7.2-12.8,13.4-20.7,18.5c-9.6,6.2-20,10.4-31.3,12.5
		c-4.3,0.8-8.6,1.3-13,1.5c-6.7,0.4-13.2-0.2-19.8-1.3c-6.4-1.1-12.7-3-18.7-5.5c-0.3-0.1-0.7-0.2-1.1-0.3c0-0.3-0.1-0.5-0.2-0.8
		c-0.6-1.4-1.4-2.6-2.3-3.9c-2.3-3.4-5.3-5.5-9.6-5.2c-1.3,0.1-2.5-0.3-3.7-1c-3.2-1.9-5.3-4.8-6.8-8.1c-0.5-1-0.7-2-1.3-2.9
		c0-0.3,0-0.6-0.1-0.9c0.2-0.1,0.2-0.3,0.2-0.5c0.2-1.7,0.3-3.4,0.4-5c0.3-3.7,0.2-7.3-0.7-10.9c-0.4-1.7-1.1-3.3-2.7-4.3
		c-5.4-3.4-7.3-10.4-6.2-16c0.6-3,1.7-5.9,2.5-8.8c1-3.7,2.5-7.2,2.9-11c0.2-1.8,0-3.4-1.4-4.7c-1.1-1-2.4-1.3-3.7-1.6
		c-2-0.4-4.1-0.5-6.1-1.3c-0.8-0.3-1.6-0.7-2-1.5c0.4-0.6,0.8-1.3,1.2-1.9c1-1.9,1.7-3.9,2.3-6c1-3.5,1.7-7,1.5-10.7
		c-0.1-2-2.2-4.1-4.4-3.1c-1.1,0.5-2,1.2-2.9,1.8c-0.7-0.9-1.8-1.5-2.9-1.8c-0.6-0.2-1.1,0.2-1.2,0.7c-0.2,0.5-0.4,1-0.2,1.5
		c0.1,0.2,0.1,0.4-0.1,0.6C30.4,113.4,29.5,114.5,28.3,115.2z M106.7,208.3c1.1,1.2,2.3,2.4,3.7,3.3c3.7,2.4,5.6,2.3,9.1,0.2
		c1.3-0.8,2.2-2.1,3.2-3.3c3.2-4.1,3.7-10.1,1.4-14.2c-1.6-2.8-4.1-4.5-7.1-5.6c0.2-0.1,0.3-0.2,0.5-0.3c3-1.4,6-2.6,9-4.1
		c2.8-1.4,4.9-3.6,6-6.5c0.2-0.4,0.2-0.7-0.2-0.9c-0.7-0.4-0.9-1.1-1.1-1.8c-0.4-1.6-0.5-3.2-0.6-4.8c-0.1-1.3-0.1-2.6-0.3-3.8
		c-0.3-2.5,0-4.8,1.6-6.8c1.5-1.9,2.8-3.8,3.6-6.1c0.7-1.9,1.2-3.9,1.7-5.9c0.3-1.3,0.7-2.7,0.6-4.1c0.6-0.3,1.2-0.6,1.7-1
		c2.9-2.3,4.9-5.2,5.7-8.9c0.7-2.9,0.4-5.7-1.1-8.3c-2.7-4.9-7.3-6.6-12.6-6.5c-1.9,0-3.9,0.3-5.7,0.9c-2.3,0.7-4.5,1.4-6.2,3.2
		c-1,1.1-1.5,2.3-1.1,3.8c0.4,1.2,1,2.2,1.8,3.2c0,0.3-0.3,0.5-0.5,0.6c-0.9,0.8-1.8,1.6-2.3,2.7c-0.4,0.9-0.3,1.8,0.4,2.5
		c0.7,0.7,1.6,1.1,2.4,1.5c1.5,0.7,3.1,1.1,4.5,2.1c0.5,0.3,1,0.7,1.1,1.3c0.1,1.2-0.1,2.2-0.7,3.2c-1.7,2.8-4.1,5-6.6,6.9
		c-3.8,2.9-7.8,5.4-12,7.6c-3.8,2-7.6,3.9-11.4,5.9c-2.4,1.3-4.6,2.9-6.1,5.3c-0.9,1.4-1.2,2.9-0.8,4.5c0.7,2.5,2.7,3.8,4.7,5.1
		c0.2,0.1,0.4,0,0.5,0c1.3-0.3,2.6-0.5,3.9-0.7c1.2-0.3,2.1,0.1,2.8,1.1c1.2,1.8,1.5,3.9,1.6,6c0.1,1.7,0.1,3.4-0.2,5.1
		c-0.2,0.1-0.3,0.3-0.5,0.4c-2.3,1.6-2.9,3.1-2.1,5.6c-0.5,0.5-1,0.9-1.4,1.4c-1,1.1-1.6,2.3-1.6,3.8c0,2,0.5,3.8,1,5.7
		c0.5,2.1,0.8,4.2,1.5,6.3c0.5,1.4,1.7,1.9,2.9,1.1c0.9-0.6,1.7-1.3,2.4-2.2C104.6,211.2,105.6,209.7,106.7,208.3z M70.8,143.6
		c-1.1-0.1-2.5,0.1-3.9,0.4c-2.7,0.6-5.3,1.3-7.5,3c-1.3,1-2.2,2.3-1.8,4c0.2,1.1,0.8,2.2,1.5,3.1c0.9,1.1,1.9,2.2,2.6,3.6
		c1.9,3.5,4.1,6.7,7.4,9.1c3.2,2.4,6.7,3,10,0.2c3.8-3.3,6.1-7.5,5.6-12.7c-0.3-2.7-1.4-5.1-3.4-7C78.3,144.6,74.9,143.5,70.8,143.6
		z M169.2,185.6c-1.6,0.1-3.8,0.7-5.7,1.9c-1.9,1.2-2.2,3-0.8,4.8c0.9,1.1,1.6,2.4,2.3,3.6c1.2,1.9,2.5,3.8,4.5,5
		c1.8,1.1,3.7,0.9,5.3-0.3c1.1-0.9,1.9-1.9,2.7-3.1c1.8-3,1.7-6.5-0.3-9.1C175.3,186,172.7,185.3,169.2,185.6z"/>
	<path fill="#E7B895" d="M101.5,58.8c-0.5-0.1-0.5-0.5-0.7-0.8c-1.6-2.5-3.1-4.9-5.1-7.1c2.4-0.6,4.8-1,7.2-1.3
		c4.5-0.5,9.1-0.9,13.7-0.8c8.4,0.3,16.7,1.5,24.8,4c10.3,3.2,19.6,8.2,28,14.9c0.2,0.1,0.4,0.2,0.4,0.5c-0.9-0.1-1.7-0.3-2.7-0.3
		c-3.3,0.2-5.7,6-4.5,8.9c1.7,4,3.9,7.5,7.1,10.3c2.5,2.3,5.4,3.9,9,3.8c2.7-0.1,6.3-1.7,7.1-4.9c0.3,0,0.4,0.3,0.6,0.5
		c3.6,5,6.6,10.4,9.1,16c2.8,6.2,4.9,12.7,6.3,19.4c0.1,0.7,0,1.6,0.7,2.1c0,0.2,0,0.4,0,0.6c-0.1,0.6-0.1,1.2,0.3,1.7
		c0,0.1,0,0.2,0,0.4c0,0-0.1,0-0.1,0.1c0,0,0,0.1,0.1,0.1c0,0.1,0,0.3,0,0.4c-0.2,0.2-0.1,0.3,0.1,0.4c0,0.2,0,0.4,0.1,0.6
		c0,0-0.1,0-0.1,0.1c0,0,0,0.1,0.1,0.1c0.1,0.6,0.1,1.1,0.2,1.7c0,0-0.1,0-0.1,0.1c0,0,0,0.1,0.1,0.1c0,0.7,0,1.4,0,2.1
		c-0.4,0.9-1.4,1.1-2.2,1.3c-0.4-2.1-1.5-3.7-3.3-4.9c-2-1.3-4.2-1.3-6.4-1.1c-1.9,0.2-3.7,0.7-5.3,1.8c-2,1.3-2.3,2.9-1,4.9
		c0.6,0.8,1.3,1.5,1.6,2.5c-3.6-0.4-6.4-2.1-8.4-5c-1.3-1.8-1.1-3.1,0.4-4.6c1.3-1.3,2.7-2.5,4-3.8c2.6-2.6,2.6-6.8,0-9.5
		c-2.9-3-6.4-4.9-10.1-6.6c-5.1-2.4-10.5-3.7-15.7-5.8c-1.3-0.5-2.5-1.3-3.6-2.1c-1.5-1.1-1.8-2.8-1-4.6c0.7-1.8,1.9-3.3,2.8-5
		c0.6-1.1,1.2-2.3,1.6-3.5c0.7-1.7-0.1-3.2-1.1-4.5c-2.8-3.6-6.5-6.2-10.3-8.7c-0.9-0.6-1.8-0.4-2.7-0.2c-3.4,1-6.6,2.4-9.9,3.8
		c-6.5,2.8-12.8,6-19.1,9.2c-1.7,0.9-3.3,1.8-5,2.8c-1.6,0.9-3.1,1.4-4.7,0c0.3-1.6-0.1-3.2-0.4-4.7c0.6-0.7,0.4-1.5,0.6-2.3
		c0.5-1.6,0.9-3.2,1.3-4.8c0.9-3.3,0.6-6.5-0.3-9.8c-0.6-2-1.4-3.9-2.4-5.7c-0.2-0.4-0.4-0.7-0.4-1.1c0.6,0.5,1.1,1.1,1.4,1.8
		c1.1,2.1,2.4,4.1,4.1,5.7c2,1.9,4.4,2.2,6.3,0.8c1.5-1.1,2.7-2.6,3.5-4.4c2.1-4.7-0.1-9.4-4.8-10.6c-3.1-0.8-6,0-8.7,1.2
		C102.3,55.6,101.2,56.7,101.5,58.8z"/>
	<path fill="#E7B896" d="M28.3,115.2c1.2-0.7,2.1-1.8,3.2-2.7c0.2-0.2,0.2-0.4,0.1-0.6c-0.2-0.5,0-1.1,0.2-1.5
		c0.2-0.5,0.6-0.9,1.2-0.7c1.1,0.3,2.1,0.9,2.9,1.8c-0.4,0.8-1,1.4-1.2,2.4c-0.7,3.6-1.2,7.2-1.8,10.7c-0.1,0.8-0.4,1.7-0.3,2.5
		c0.2,1.2,0.7,2.5,1.4,3.6c1.4,2.3,2.4,2.4,4.4,0.7c0.4,0.9,1.2,1.2,2,1.5c2,0.8,4.1,0.9,6.1,1.3c1.4,0.3,2.7,0.6,3.7,1.6
		c1.4,1.3,1.7,3,1.4,4.7c-0.4,3.8-1.9,7.3-2.9,11c-0.8,3-1.9,5.8-2.5,8.8c-1.2,5.6,0.8,12.5,6.2,16c1.6,1,2.3,2.7,2.7,4.3
		c0.9,3.6,1,7.2,0.7,10.9c-0.1,1.7-0.2,3.4-0.4,5c0,0.2,0,0.4-0.2,0.5c-0.4-0.8-0.6-1.6-1.1-2.4c-2.3-3.9-5.2-7.3-8.5-10.3
		c-1.1-1-2.3-1.7-3.6-2.3c-2-0.9-4-0.6-5.6,0.8c-0.1,0.1-0.3,0.2-0.4,0.3c-1.3-1.7-2.3-3.7-3.2-5.6c-2.2-4.6-3.8-9.5-4.7-14.5
		c-0.4-2.4-0.7-4.8-0.9-7.2c0-0.9-0.2-1.7-0.3-2.6c0.3-0.3,0.2-0.7,0.1-1c-0.1-3.3-0.2-6.6-0.4-9.9c-0.1-1.8-0.1-3.6-0.1-5.4
		c-0.1-3.3-0.3-6.7,0.1-10c0.1-0.6,0.2-1.2-0.1-1.8c0.2-1.9,0.5-3.8,0.7-5.6C27.2,117.9,27.8,116.6,28.3,115.2z"/>
	<path fill="#89BF6F" d="M185.9,86c-0.8,3.2-4.4,4.9-7.1,4.9c-3.6,0.1-6.5-1.5-9-3.8c-3.2-2.9-5.5-6.4-7.1-10.3
		c-1.2-2.9,1.1-8.7,4.5-8.9c0.9-0.1,1.8,0.2,2.7,0.3c3.8,1.6,6.8,4.4,9.8,7.2c1.3,1.2,2.5,2.5,3.8,3.7c1.7,1.6,2.7,3.5,2.8,5.8
		C186,85.3,185.9,85.6,185.9,86z"/>
	<path fill="#D7595D" d="M35.8,183.1c0.1-0.1,0.3-0.1,0.4-0.3c1.6-1.4,3.7-1.7,5.6-0.8c1.3,0.6,2.5,1.4,3.6,2.3
		c3.3,3,6.2,6.4,8.5,10.3c0.4,0.7,0.7,1.6,1.1,2.4c0,0.3,0,0.6,0.1,0.9c-0.3,1.2-1.1,1.6-2.4,1.6c-1.5-0.1-2.9-0.7-4.4-0.8
		c0,0,0,0,0,0c-0.1-0.1-0.1-0.1-0.2-0.2c-1.3-0.6-2.7-1.1-4-1.8c-4-2.2-6.7-5.6-8-10C35.8,185.6,35.5,184.4,35.8,183.1z"/>
	<path fill="#E7B896" d="M48.3,198.7c1.5,0.1,2.9,0.8,4.4,0.8c1.3,0.1,2.1-0.4,2.4-1.6c0.6,0.9,0.8,2,1.3,2.9
		c1.6,3.3,3.6,6.2,6.8,8.1c1.1,0.7,2.4,1.1,3.7,1c4.4-0.4,7.3,1.8,9.6,5.2c0.9,1.2,1.7,2.5,2.3,3.9c0.1,0.3,0.2,0.5,0.2,0.8
		c-3.3-1.3-6.4-3.1-9.4-4.9c-7.5-4.4-14.4-9.5-20.6-15.6C48.7,199.2,48.4,199.1,48.3,198.7z"/>
	<path fill="#F5CCA4" d="M185.9,86c0.1-0.4,0.1-0.8,0.2-1.1c1.9,2.3,3.5,4.9,5,7.4c4.7,7.9,8.1,16.3,10.2,25.3
		c0.5,2.1,1,4.3,1.2,6.4c-0.6-0.6-0.5-1.4-0.7-2.1c-1.3-6.7-3.5-13.1-6.3-19.4c-2.5-5.6-5.5-11-9.1-16C186.3,86.3,186.2,86,185.9,86
		z"/>
	<path fill="#F5CCA4" d="M26.3,125c0.3,0.6,0.2,1.2,0.1,1.8c-0.4,3.3-0.2,6.7-0.1,10c0.1,1.8,0.1,3.6,0.1,5.4
		c0.1,3.3,0.3,6.6,0.4,9.9c0,0.3,0.1,0.7-0.1,1c-0.5-2.1-0.7-4.3-0.9-6.5c-0.4-3.8-0.5-7.6-0.4-11.4C25.4,131.9,25.7,128.4,26.3,125
		z"/>
	<path fill="#F5CCA4" d="M202.9,126.3c-0.4-0.5-0.5-1.1-0.3-1.7C202.9,125.1,202.7,125.7,202.9,126.3z"/>
	<path fill="#F5CCA4" d="M203,127.6c-0.2-0.1-0.3-0.2-0.1-0.4C203.1,127.3,203.1,127.5,203,127.6z"/>
	<path fill="#F5CCA4" d="M202.9,126.9c0,0,0-0.1-0.1-0.1c0,0,0,0,0.1-0.1C202.9,126.7,202.9,126.8,202.9,126.9z"/>
	<path fill="#F5CCA4" d="M203.1,128.4c0,0,0-0.1-0.1-0.1c0,0,0,0,0.1-0.1C203.1,128.2,203.1,128.3,203.1,128.4z"/>
	<path fill="#F5CCA4" d="M203.3,130.3c0,0-0.1-0.1-0.1-0.1c0,0,0,0,0.1-0.1C203.3,130.1,203.3,130.2,203.3,130.3z"/>
	<path fill="#E7B896" d="M48.1,198.6c0.1,0.1,0.1,0.1,0.2,0.2C48.2,198.7,48.1,198.6,48.1,198.6z"/>
	<path fill="#E7B895" d="M137.6,143.6c0.1,1.4-0.3,2.7-0.6,4.1c-0.4,2-1,4-1.7,5.9c-0.8,2.3-2.1,4.2-3.6,6.1c-1.6,2-1.9,4.3-1.6,6.8
		c0.1,1.3,0.2,2.6,0.3,3.8c0.1,1.6,0.2,3.2,0.6,4.8c0.2,0.7,0.4,1.4,1.1,1.8c0.5,0.2,0.4,0.5,0.2,0.9c-1.2,3-3.2,5.1-6,6.5
		c-2.9,1.5-6,2.7-9,4.1c-0.2,0.1-0.3,0.2-0.5,0.3c-2.1-0.6-4.1-0.7-6.3-0.6c-3.2,0.3-6.3,1-9.2,2.5c0.3-1.7,0.3-3.4,0.2-5.1
		c-0.1-2.1-0.4-4.2-1.6-6c-0.7-1-1.6-1.4-2.8-1.1c-1.3,0.3-2.6,0.5-3.9,0.7c-0.2,0-0.4,0.1-0.5,0c-2-1.3-4-2.6-4.7-5.1
		c-0.4-1.6-0.1-3.1,0.8-4.5c1.5-2.4,3.7-4,6.1-5.3c3.8-2.1,7.6-3.9,11.4-5.9c4.2-2.2,8.2-4.7,12-7.6c2.5-2,5-4.1,6.6-6.9
		c0.6-1,0.8-2.1,0.7-3.2c-0.1-0.7-0.6-1-1.1-1.3c-1.4-1-3-1.4-4.5-2.1c-0.9-0.4-1.8-0.8-2.4-1.5c-0.7-0.7-0.8-1.6-0.4-2.5
		c0.5-1.1,1.4-1.9,2.3-2.7c0.2-0.2,0.5-0.3,0.5-0.6c0.6,0.6,1.2,1.1,1.5,1.8c1.7,3.4,3.8,6.5,6.6,9.2
		C130.9,143.4,133.9,144.9,137.6,143.6z"/>
	<path fill="#D7595D" d="M70.8,143.6c4.1-0.1,7.5,1,10.3,3.7c2,1.9,3.2,4.3,3.4,7c0.5,5.2-1.7,9.4-5.6,12.7c-3.3,2.8-6.8,2.3-10-0.2
		c-3.2-2.4-5.5-5.7-7.4-9.1c-0.7-1.3-1.6-2.4-2.6-3.6c-0.8-0.9-1.3-2-1.5-3.1c-0.3-1.7,0.5-3,1.8-4c2.2-1.7,4.8-2.4,7.5-3
		C68.3,143.7,69.7,143.5,70.8,143.6z"/>
	<path fill="#89BF6F" d="M103.4,84c0.4,1.5,0.7,3.1,0.4,4.7c-0.3,3.2-1.8,5.9-3.8,8.4c-1.4,1.7-3,3-5.1,3.4
		c-2.5,0.5-4.7-0.4-6.7-1.9c-3.3-2.5-5.6-5.9-7.5-9.5c-0.6-1.2-1.5-2.1-2.3-3.1c-1.5-1.8-1.9-4-1-5.7c0.8-1.4,2.1-2.2,3.5-2.8
		c3.1-1.4,6.4-2.1,9.7-2.1c3.7,0,7,1.1,9.7,3.7C101.8,80.4,102.8,82.1,103.4,84z"/>
	<path fill="#398AC7" d="M137.6,143.6c-3.8,1.3-6.7-0.2-9.3-2.7c-2.8-2.6-4.8-5.8-6.6-9.2c-0.4-0.8-1-1.3-1.5-1.8
		c-0.8-1-1.4-2-1.8-3.2c-0.4-1.4,0.1-2.7,1.1-3.8c1.7-1.8,3.9-2.5,6.2-3.2c1.9-0.6,3.8-0.9,5.7-0.9c5.3-0.1,9.9,1.6,12.6,6.5
		c1.4,2.6,1.8,5.4,1.1,8.3c-0.8,3.7-2.8,6.5-5.7,8.9C138.8,143,138.2,143.2,137.6,143.6z"/>
	<path fill="#398AC7" d="M101.5,190.6c2.9-1.4,5.9-2.2,9.2-2.5c2.1-0.2,4.2,0,6.3,0.6c3,1,5.5,2.8,7.1,5.6
		c2.3,4.1,1.9,10.1-1.4,14.2c-1,1.2-1.9,2.5-3.2,3.3c-3.6,2.1-5.4,2.2-9.1-0.2c-1.4-0.9-2.5-2.1-3.7-3.3c-1.9-2.4-3.6-5-5-7.8
		c-0.1-0.2-0.2-0.3-0.3-0.4c-1.1-1-1.8-2.1-2.5-3.4c-0.7-2.6-0.2-4.1,2.1-5.6C101.2,190.9,101.3,190.8,101.5,190.6z"/>
	<path fill="#D7595D" d="M169.2,185.6c3.5-0.2,6.1,0.4,7.9,2.8c2,2.5,2.1,6.1,0.3,9.1c-0.7,1.2-1.5,2.3-2.7,3.1
		c-1.6,1.3-3.5,1.4-5.3,0.3c-2-1.2-3.3-3-4.5-5c-0.8-1.2-1.4-2.5-2.3-3.6c-1.4-1.8-1.1-3.5,0.8-4.8
		C165.4,186.3,167.6,185.7,169.2,185.6z"/>
	<path fill="#D7595D" d="M101.5,58.8c-0.3-2,0.8-3.2,2.5-4c2.8-1.3,5.7-2,8.7-1.2c4.7,1.2,6.9,6,4.8,10.6c-0.8,1.7-1.9,3.2-3.5,4.4
		c-1.9,1.4-4.3,1-6.3-0.8c-1.8-1.6-3-3.6-4.1-5.7c-0.4-0.7-0.9-1.3-1.4-1.8C102,59.8,101.8,59.3,101.5,58.8z"/>
	<path fill="#F9DE55" d="M186.8,136.8c-0.3-1-1.1-1.7-1.6-2.5c-1.3-2-1-3.6,1-4.9c1.6-1.1,3.4-1.6,5.3-1.8c2.2-0.3,4.4-0.2,6.4,1.1
		c1.8,1.2,2.9,2.8,3.3,4.9c0.5,3.9-1.2,6.9-4.2,9.1c-1.6,1.2-3.4,1.1-5.1,0.1c-1.9-1.2-3.3-3-4.4-5
		C187.2,137.5,187,137.2,186.8,136.8z"/>
	<path fill="#F9DE55" d="M38.3,131.4c-2,1.7-3,1.5-4.4-0.7c-0.7-1.1-1.2-2.3-1.4-3.6c-0.1-0.8,0.2-1.7,0.3-2.5
		c0.6-3.6,1.1-7.2,1.8-10.7c0.2-0.9,0.8-1.6,1.2-2.4c0.9-0.7,1.8-1.3,2.9-1.8c2.3-1,4.3,1.1,4.4,3.1c0.1,3.7-0.5,7.2-1.5,10.7
		c-0.6,2-1.2,4.1-2.3,6C39.1,130.1,38.7,130.7,38.3,131.4z"/>
	<path fill="#E7B896" d="M98.8,196.7c0.6,1.3,1.4,2.4,2.5,3.4c0.1,0.1,0.3,0.3,0.3,0.4c1.4,2.8,3.1,5.4,5,7.8c-1,1.4-2,2.9-3.1,4.3
		c-0.6,0.9-1.5,1.6-2.4,2.2c-1.2,0.8-2.4,0.3-2.9-1.1c-0.7-2-1-4.2-1.5-6.3c-0.5-1.9-0.9-3.7-1-5.7c0-1.5,0.6-2.7,1.6-3.8
		C97.9,197.6,98.4,197.1,98.8,196.7z"/>
</g>
<g>
	<path fill="#FFFFFF" stroke="#000000" stroke-width="0.25" stroke-miterlimit="10" d="M16.2,56.2c1.5,0.9,2.8,2.1,3.9,3.5
		c1.2,1.4,2.1,3,2.9,4.8c2,0.1,3.9,0.5,5.8,1c1.9,0.6,3.8,1.4,5.6,2.6c2.1,1.4,3.8,3,5,5.1c1.2,2,1.9,4.2,2.2,6.6l0,0
		c0.2,2.9,0,5.7-0.7,8.2s-1.7,4.7-3,6.7c-0.8,1.2-1.6,2.3-2.5,3.3c-0.9,1-1.8,2-2.7,2.9c-0.3,0.4-0.8,0.6-1.4,0.5
		c-0.6-0.1-1.2-0.3-1.7-0.6l-0.1-0.1c-4.3-2.9-8.5-5.9-12.6-8.9s-8.2-6.1-12.3-9.5c-1-0.7-1.9-1.7-2.7-2.8c-0.8-1.1-1.3-2.3-1.5-3.6
		c-0.2-1.1-0.2-2.2-0.1-3.2c0.1-1,0.2-2.1,0.4-3.1l0.1-0.7c0.2-0.9,0.3-1.8,0.5-2.7S1.5,64,1.8,63c0.3-1,0.5-1.9,0.9-2.8
		c0.3-0.9,0.7-1.7,1.2-2.4c0.5-0.8,1.1-1.4,1.8-1.8c0.7-0.5,1.5-0.8,2.3-1c0.8-0.2,1.7-0.3,2.6-0.3c0.9,0,1.8,0.1,2.7,0.3
		C14.3,55.1,15.3,55.5,16.2,56.2z M13.4,67.5c-0.2-0.1-0.4-0.2-0.6-0.2c-0.7,0.6-1.3,1.2-2,1.8C10,69.6,9.5,70.2,9,71
		c-0.8,1.2-1.2,2.3-1.1,3.2c0.1,0.9,0.4,1.8,0.9,2.5c0.5,0.7,1.2,1.4,2,2c0.8,0.6,1.6,1.3,2.3,1.9l0.1,0.1c0.2,0,0.4-0.1,0.6-0.3
		c0.1-0.1,0.2-0.3,0.2-0.4c0-0.1,0.1-0.3,0.1-0.5c0.3-1,0.6-1.9,0.8-3c0.2-1,0.6-2,1.2-2.9l0,0.2c0.1-0.1,0.1-0.1,0.2-0.1
		c0.1-1,0-2-0.4-3.2c-0.4-1.1-1-2-1.8-2.8C13.8,67.7,13.6,67.6,13.4,67.5z M25.9,78.2c-0.8,0.6-1.5,1.3-2.1,2.2
		c-0.7,1.1-1.3,2.1-1.6,3c-0.3,0.8-0.4,1.6-0.4,2.2c0.1,0.6,0.3,1.2,0.8,1.8c0.4,0.5,1,1,1.8,1.6l0.1,0.1c0.2,0.1,0.3,0.2,0.5,0.4
		c0.1,0.1,0.3,0.3,0.5,0.4c0.7,0.5,1.5,0.7,2.4,0.6c0.8,0,1.5-0.4,1.9-1c0.1-0.1,0.2-0.3,0.3-0.6c0.3-0.7,0.6-1.5,0.9-2.4
		c0.3-0.9,0.6-1.8,0.7-2.7c0.1-0.9,0.1-1.9-0.1-2.8c-0.2-1-0.7-1.9-1.5-2.8c0-0.1-0.1-0.1-0.2-0.2c-0.3-0.2-0.6-0.3-0.9-0.2
		C27.7,77.4,26.7,77.6,25.9,78.2z"/>
	<path fill="#FFFFFF" stroke="#000000" stroke-width="0.25" stroke-miterlimit="10" d="M62.8,51.9c0.4,2.5,0.5,4.9,0.2,7.3
		c-0.3,2.3-0.9,4.5-1.9,6.5c-1,2-2.4,3.7-4.1,5c-1.7,1.3-3.4,2-5.2,2.1c-1.8,0.1-3.6-0.2-5.4-0.9c-1.8-0.7-3.5-1.8-5.2-3.3
		c-1.7-1.4-3.2-3-4.6-4.8C35.3,62,34,60,32.9,57.9c-1.1-2.1-2-4.3-2.8-6.6c-0.7-2.2-1.2-4.4-1.3-6.8c-0.1-2.3,0-4.6,0.5-6.8
		c0.5-2.2,1.2-4.2,2.3-6.1c1.1-1.9,2.4-3.5,4.1-4.8l0.5-0.4c1.4-1,2.9-1.6,4.4-1.7c1.5-0.2,3,0,4.5,0.6c1.5,0.5,3,1.4,4.4,2.5
		c1.4,1.1,2.7,2.5,3.9,4c1.3,1.7,2.6,3.7,3.9,5.9c1.3,2.3,2.4,4.5,3.3,6.7C61.7,46.9,62.4,49.4,62.8,51.9z M41.8,38.7
		c-1.4-0.1-2.6,0.3-3.7,1.1c-0.6,0.4-1,0.9-1.4,1.5c-0.6,1-1,2.1-1.1,3.2c-0.1,1.1,0,2.3,0.2,3.4c0.2,1.2,0.6,2.3,1.1,3.4
		c0.5,1.1,1.1,2.2,1.7,3.2c0.6,1,1.2,1.9,1.8,2.7c0.6,0.8,1.1,1.5,1.5,2c0.5,0.6,1.1,1.2,1.7,1.6c0.6,0.5,1.3,0.8,2,1.1
		s1.4,0.4,2.1,0.4c0.7,0,1.3-0.1,1.9-0.4l1.3-1c0.6-0.6,1.2-1.3,1.7-2.2c0.5-0.9,0.7-1.9,0.6-3l0.1,0.1c-0.2-2.4-0.8-4.7-1.9-6.8
		c-1.1-2.2-2.4-4.2-3.8-6c-0.3-0.4-0.6-0.8-0.9-1.2c-0.3-0.4-0.6-0.8-1-1.1C44.4,39.5,43.2,38.8,41.8,38.7z"/>
	<path fill="#FFFFFF" stroke="#000000" stroke-width="0.25" stroke-miterlimit="10" d="M95.8,39c-0.5,2.5-1.3,4.8-2.3,6.9
		c-1.1,2.1-2.4,3.9-4,5.4c-1.6,1.5-3.5,2.6-5.6,3.3c-2,0.6-3.9,0.7-5.6,0.2s-3.3-1.4-4.7-2.7c-1.4-1.3-2.7-2.9-3.7-4.8
		c-1.1-1.9-1.9-4-2.6-6.1c-0.7-2.1-1.2-4.4-1.5-6.7c-0.3-2.3-0.4-4.7-0.4-7.2c0.1-2.3,0.4-4.6,1.1-6.8c0.7-2.2,1.6-4.3,2.8-6.2
		c1.2-1.9,2.6-3.6,4.3-5c1.7-1.4,3.5-2.4,5.5-3.1L79.6,6c1.7-0.5,3.3-0.5,4.7-0.1C85.8,6.3,87.1,7,88.4,8c1.2,1,2.3,2.3,3.3,3.9
		s1.7,3.2,2.3,5.1c0.7,2.1,1.2,4.4,1.6,6.9c0.4,2.6,0.7,5,0.8,7.4C96.4,34,96.2,36.5,95.8,39z M80.6,19.5c-1.2-0.5-2.5-0.6-3.8-0.2
		c-0.7,0.2-1.3,0.5-1.8,1c-0.9,0.7-1.6,1.6-2.1,2.7c-0.5,1-0.8,2.1-1,3.3c-0.2,1.2-0.2,2.4-0.1,3.6c0.1,1.2,0.2,2.4,0.5,3.6
		c0.2,1.1,0.4,2.2,0.7,3.2c0.3,1,0.5,1.7,0.7,2.4c0.2,0.8,0.6,1.5,1,2.1c0.4,0.6,0.9,1.2,1.5,1.7s1.2,0.8,1.8,1.1
		c0.6,0.3,1.3,0.3,2,0.3l1.6-0.5c0.8-0.3,1.6-0.8,2.3-1.5c0.7-0.7,1.3-1.5,1.6-2.6l0,0.1c0.7-2.3,0.8-4.7,0.6-7.1
		c-0.3-2.4-0.8-4.7-1.5-7c-0.2-0.5-0.3-1-0.5-1.4c-0.2-0.5-0.3-0.9-0.5-1.4C82.8,21,81.8,20,80.6,19.5z"/>
	<path fill="#FFFFFF" stroke="#000000" stroke-width="0.25" stroke-miterlimit="10" d="M131.6,13.6c-0.5,0.6-1,1.1-1.6,1.5
		c-0.6,0.4-1.2,0.8-1.8,1c-0.6,0.2-1.2,0.4-1.8,0.3c-0.5,0-0.9-0.1-1.3-0.3c-0.4-0.2-0.7-0.5-1-0.9l0,0.1c-0.7-1-1.5-1.8-2.5-2.4
		c-1-0.6-2-0.9-3.2-0.9c-0.4,0-0.9,0-1.4,0.1c-0.6,0.1-1.1,0.3-1.6,0.6c-0.5,0.3-1,0.6-1.4,1.1c-0.4,0.4-0.7,1-0.9,1.7l0,0.1
		c0,0.5,0.1,1,0.2,1.3c0.2,0.3,0.4,0.6,0.6,0.8c0.3,0.2,0.6,0.3,0.9,0.4c0.4,0.1,0.7,0.1,1.1,0.1c1,0,2.1,0,3.2-0.1
		c1.1-0.1,2.2-0.2,3.4-0.1c0.8,0,1.6,0.1,2.3,0.2c0.7,0.1,1.4,0.4,2.1,0.7c0.6,0.3,1.2,0.7,1.8,1.3c0.5,0.6,1,1.3,1.4,2.1
		c0.6,1.5,1.2,3,1.7,4.5c0.5,1.5,0.7,3.2,0.7,5c0,0.2,0,0.3,0,0.4c0,0.1,0,0.3,0,0.5c-0.5,2.4-1.4,4.5-2.6,6.3
		c-1.3,1.8-2.8,3.4-4.4,4.7c-1.7,1.3-3.5,2.3-5.4,2.9c-1.9,0.7-3.7,1.1-5.4,1.1c-1-0.1-2.2-0.3-3.5-0.6c-1.3-0.4-2.6-0.9-3.8-1.6
		c-1.2-0.7-2.2-1.7-3-2.9c-0.8-1.2-1.2-2.6-1.2-4.4l0-0.6c0-0.5,0.1-1.1,0.3-1.6s0.4-1.1,0.7-1.5c0.3-0.5,0.6-0.8,1-1.1
		c0.4-0.3,0.8-0.5,1.3-0.5l0.8,0.1c0.8,0.2,1.5,0.5,2.1,1c0.7,0.5,1.3,1.1,2,1.6c0.7,0.6,1.4,1.1,2.1,1.5c0.7,0.4,1.6,0.7,2.6,0.7
		l0.3,0c0.5,0,0.9-0.1,1.4-0.3c0.5-0.2,0.9-0.5,1.3-0.8c0.4-0.4,0.7-0.8,1-1.3c0.3-0.5,0.4-1,0.5-1.6c-0.1-0.7-0.1-1.4-0.3-2.1
		l0-0.3c0-0.7-0.2-1.1-0.8-1.3c-0.5-0.2-1.2-0.3-2.1-0.4c-0.8,0-1.8-0.1-2.9-0.1c-1.1,0-2.2-0.2-3.4-0.4c-1.1-0.3-2.3-0.7-3.3-1.4
		c-1.1-0.7-2.1-1.7-2.9-3c-0.1-0.6-0.2-1.3-0.3-1.9c-0.1-0.6-0.2-1.3-0.1-1.9c0-0.1,0-0.3,0-0.3c0-0.1,0-0.3,0.1-0.4
		c0.3-2.7,1.1-5.2,2.4-7.6c1.3-2.4,3-4.6,5-6.4c2-1.8,4.1-3.3,6.5-4.4c2.4-1.1,4.8-1.6,7.1-1.5c1.1,0,2.2,0.2,3.2,0.5
		c1,0.3,1.9,0.8,2.6,1.4c0.8,0.6,1.4,1.4,1.8,2.4c0.4,1,0.7,2.2,0.6,3.6c0,0.6-0.1,1.2-0.3,1.8c-0.2,0.6-0.3,1.2-0.5,1.8
		C132.5,12.3,132.1,13,131.6,13.6z"/>
	<path fill="#FFFFFF" stroke="#000000" stroke-width="0.25" stroke-miterlimit="10" d="M179.3,12.9c0,0.4-0.1,0.9-0.2,1.4l-0.1,0.2
		c-0.3,0.8-0.8,1.6-1.3,2.3c-0.6,0.7-1.2,1.4-2,2s-1.6,1.1-2.4,1.4c-0.9,0.4-1.7,0.6-2.6,0.7c-1,0.1-1.9,0.1-2.9,0
		c-0.9-0.1-1.9-0.1-2.8,0c-0.9,0.1-1.8,0.2-2.8,0.5c-0.9,0.3-1.8,0.8-2.6,1.5c-0.7,0.7-1.3,1.5-1.7,2.4c-0.4,0.9-0.9,1.7-1.2,2.6
		c-1.2,3.2-2.3,6.4-3.3,9.5c-1,3.1-2.1,6.3-3.3,9.4c-0.3,0.8-0.6,1.6-1,2.4c-0.4,0.8-0.9,1.6-1.5,2.3c-0.6,0.7-1.2,1.2-1.9,1.5
		c-0.7,0.4-1.4,0.4-2.2,0.2c-0.1,0-0.1-0.1-0.2-0.1c-0.1,0-0.1-0.1-0.2-0.1l-0.2-0.1c-0.9-0.3-1.5-0.7-1.8-1.4
		c-0.3-0.7-0.5-1.4-0.5-2.3c0-0.8,0.1-1.7,0.3-2.6c0.2-0.9,0.4-1.7,0.7-2.5c1-3.1,2.1-6.1,3.3-9.1c1.2-2.9,2.4-5.9,3.3-9
		c0.2-0.5,0.3-1,0.4-1.5c0.1-0.5,0.1-0.9,0.1-1.3c0-0.4-0.1-0.8-0.3-1.1c-0.2-0.3-0.5-0.5-0.9-0.7c-0.6-0.2-1.2-0.3-1.8-0.3
		c-0.6,0-1.1-0.1-1.7-0.3c-0.7-0.2-1.3-0.6-1.7-1.1c-0.4-0.5-0.5-1.3-0.2-2.2c0.3-0.9,0.7-1.7,1.4-2.5c0.6-0.8,1.4-1.5,2.2-2.2
		c0.8-0.6,1.6-1.2,2.5-1.6c0.9-0.4,1.7-0.7,2.5-0.7c1-0.2,2-0.2,2.9-0.2c1,0,2,0,3-0.2c1.4-0.1,3-0.3,4.7-0.6s3.4-0.5,5.1-0.7
		c1.7-0.2,3.4-0.3,5.1-0.2c1.7,0,3.2,0.3,4.7,0.7c0.6,0.2,1.2,0.5,1.7,0.8c0.5,0.4,0.9,0.8,1.2,1.4C179.2,12,179.3,12.5,179.3,12.9z
		"/>
</g>
</svg>
