<?xml version="1.0" encoding="utf-8"?>
<!-- Generator: Adobe Illustrator 17.0.0, SVG Export Plug-In . SVG Version: 6.00 Build 0)  -->
<!DOCTYPE svg PUBLIC "-//W3C//DTD SVG 1.1//EN" "http://www.w3.org/Graphics/SVG/1.1/DTD/svg11.dtd">
<svg version="1.1" id="Calque_1" xmlns="http://www.w3.org/2000/svg" xmlns:xlink="http://www.w3.org/1999/xlink" x="0px" y="0px"
	 width="371.8px" height="445px" viewBox="0 0 371.8 445" enable-background="new 0 0 371.8 445" xml:space="preserve">
<g>
	<path fill="#F5CBA0" d="M26.6,157.4c3.9-6.8,8.6-13,13.8-18.9c6.5-7.4,13.7-14,21.9-19.5c13.6-9.1,26.5-19.3,41.3-26.4
		c9-4.3,18.3-7.5,27.5-11.2c6.4-2.6,13.3-3.1,19.9-4.5c8.2-1.8,16.6-2.7,24.9-3.1c7-0.3,14.1-0.3,21.1,0.2
		c6.2,0.4,12.4,1.1,18.6,2.1c14.3,2.3,28.2,6.3,41.6,11.9c11.5,4.8,22.5,10.7,32.8,17.8c11.4,7.8,21.9,16.6,31.3,26.8
		c18.1,19.6,31.7,41.9,40.4,67.2c4.1,11.8,6.8,23.9,8.5,36.2c1.5,10.6,1.6,21.3,1.1,32c-0.4,8.8-1.6,17.5-3.3,26.1
		c-0.1,0.6-0.2,1.3-0.3,1.9c-0.5-2.6-0.9-5.1-2.8-7.2c-3.9-4.2-14.2-4.3-18.5,0c-7.7,7.5-12.3,16.8-14.6,27.2
		c-1.6,7.5-0.5,14.5,4.6,20.6c2.4,2.9,5.4,4.8,9.2,5.5c2.1,0.4,4.1-0.4,6.2-0.7c-1.3,4.1-3.7,7.6-5.8,11.3
		c-9,15.4-19.9,29.3-32.9,41.6c-10.9,10.3-22.8,19.2-35.9,26.6c-15.3,8.6-31.4,15-48.4,19.1c-8.5,2-17.1,3.4-25.8,4.3
		c-9.1,0.9-18.3,1.1-27.4,0.6c-20.5-1.1-40.3-5.5-59.4-13.2c-17.4-7-33.4-16.4-47.9-28.2c-17.8-14.5-32.4-31.7-43.8-51.6
		C15.8,336.1,9.2,319.3,5,301.6c-1.8-7.7-3-15.4-3.9-23.3c-0.9-8.1-1.3-16.2-1-24.4c0.4-10,1.5-20,3.2-29.9
		c1.5-8.7,3.4-17.4,5.8-25.9c0.3-1.1,0.5-2.2,1.1-3.1c0.1,0.6,0.3,1.3,0.4,1.9c0.6,2.8,1.1,5.6,2.6,8.1c1.6,2.7,3.9,3,6.2,1
		c1.1-1,2.1-2.2,2.9-3.4c2.9-4.3,5-9,7-13.8c3.1-7.1,5.6-14.3,5.2-22.3C34.3,161.9,31.4,158.4,26.6,157.4z M94.9,317.1
		c0.1-1.9-0.2-4.1-0.7-6.2c-2.6-10.7-9.3-18.6-17.9-25.1c-1.9-1.4-4.1-2.3-6.5-2.4c-4.8-0.2-7.5,2.8-9.5,6.6
		c-0.9,1.7-1.2,3.6-2.2,5.2c-2.1,3.3-4.4,6.5-6.2,9.9c-3.5,6.7-6.6,13.5-6.2,21.3c0.2,5,2.5,9,6.8,11.7c5.9,3.6,12.3,4.6,19.1,4.1
		C84.8,341.3,94.9,330.7,94.9,317.1z M138,199c0-1,0.1-2,0-2.9c-0.1-1.1-0.3-2.2-0.6-3.3c-2.7-10.7-9.2-18.7-17.9-25.1
		c-2-1.5-4.2-2.4-6.7-2.5c-4.1-0.1-6.8,2.1-8.8,5.5c-1.7,2.8-2.5,6.1-4.5,8.9c-5.1,7.4-9.3,15.2-10.7,24.3c-1.2,7.4,1.6,13.5,8.4,17
		c5.6,2.8,11.5,3.7,17.8,3.1C128.4,222.6,138,212.3,138,199z M256.1,194.5c1.8,0.1,3.5-0.2,5.3-0.4c11.2-1.1,21-11.8,21.4-23
		c0.2-6.3-1.2-12-4.4-17.4c-4.1-7-9.3-13-16.4-16.9c-4.1-2.2-8.3-1.5-11.1,1.5c-1.2,1.3-2.5,2.8-3,4.5c-1.2,4.1-4,7.3-6.1,10.9
		c-4,6.8-7.6,13.8-8.2,21.9c-0.4,5.4,0.9,10.1,5.4,13.6C243.9,193.1,249.8,194.3,256.1,194.5z M215.3,312.9c1.8,0.1,3.5-0.2,5.3-0.4
		c5.9-0.8,11-3.4,14.9-7.8c6.7-7.5,8-16.4,5-25.8c-2.9-9.3-9-16.4-16.7-22.1c-6.9-5.1-12.9-3.4-16.8,4.3c-0.4,0.9-0.8,1.8-1.1,2.7
		c-0.3,1.1-0.8,2-1.5,2.9c-5.7,8.5-11,17.2-11.7,27.7c-0.4,5,0.8,9.5,4.9,12.8C202.7,311.4,208.9,312.5,215.3,312.9z M121.9,421.2
		c-0.1,5.2,2,8.2,5.9,9.9c4.5,1.9,9.1,2.4,13.9,1.2c7.9-2.1,12.4-8.5,12-15.2c-0.5-9.1-5.8-15.3-13.3-19.7c-3.5-2-7.2-0.9-8.8,2.8
		c-1.4,3.1-3.4,5.7-5,8.6C124.2,412.9,122.1,417.2,121.9,421.2z M265.8,419c0.7,0.1,2-0.3,3.2-0.4c8.2-1.1,14.5-8.6,13.5-16.6
		c-1.1-8.7-6.2-14.8-13.7-18.8c-3.6-1.9-7.1-0.2-8.9,3.8c-0.7,1.5-1.4,3-2.4,4.5c-3.2,4.6-5.9,9.3-6.8,15c-0.7,4.6,1.3,8.7,5.5,10.6
		C259.1,418.3,262.2,418.9,265.8,419z M340.6,179.2c0-0.7,0-1.3,0-2c0-0.3-0.1-0.6-0.2-1c-1.5-7-5.7-12.1-11.3-16.1
		c-5-3.5-9.3-2.2-11.5,3.5c-0.6,1.5-1.4,2.8-2.3,4c-2.8,4-5.2,8.2-6.3,12.9c-1.4,6.1,1.1,11,6.7,12.8c3.9,1.2,7.8,1.7,11.9,1
		C335.1,193.1,340.7,186.7,340.6,179.2z M129.8,112.5c6.1-0.3,12-1.2,17.9-2.7c5.6-1.5,11.1-3.3,16.2-6.2c5.3-3,5.6-8.8,0.8-12.3
		c-3.7-2.7-7.8-3.7-12.4-2.2c-7.2,2.4-14.4,4.7-21.5,7.1c-5.1,1.6-7.7,5.4-9.7,9.7c-1.3,2.6,0,4.9,2.8,5.8
		C125.7,112.4,127.7,112.6,129.8,112.5z"/>
	<path fill="#93665C" d="M352.1,341.4c-2.1,0.3-4,1.1-6.2,0.7c-3.8-0.6-6.8-2.6-9.2-5.5c-5-6.1-6.2-13.1-4.6-20.6
		c2.3-10.4,6.9-19.7,14.6-27.2c4.4-4.3,14.6-4.2,18.5,0c1.9,2,2.3,4.6,2.8,7.2c0.4,7.9-1.6,15.5-3.7,23c-1.2,4.1-2.4,8.1-3.5,12.2
		C359.4,335.9,356.3,339.2,352.1,341.4z"/>
	<path fill="#93665C" d="M26.6,157.4c4.8,1,7.7,4.5,7.9,9.4c0.4,7.9-2.1,15.2-5.2,22.3c-2.1,4.7-4.1,9.5-7,13.8
		c-0.9,1.3-1.8,2.4-2.9,3.4c-2.3,2.1-4.6,1.7-6.2-1c-1.5-2.5-2.1-5.3-2.6-8.1c-0.1-0.6-0.3-1.3-0.4-1.9c-0.8-5.7-1-11.4,0.4-17.1
		C12.9,168.8,18.1,161.8,26.6,157.4z"/>
	<path fill="#93665C" d="M94.9,317.1c0,13.6-10,24.1-23.4,25.1c-6.8,0.5-13.3-0.5-19.1-4.1c-4.3-2.6-6.6-6.6-6.8-11.7
		c-0.4-7.8,2.7-14.6,6.2-21.3c1.8-3.5,4.1-6.6,6.2-9.9c1-1.5,1.4-3.5,2.2-5.2c2-3.9,4.7-6.8,9.5-6.6c2.4,0.1,4.6,1,6.5,2.4
		c8.6,6.4,15.3,14.3,17.9,25.1C94.7,313,95,315.2,94.9,317.1z"/>
	<path fill="#93665C" d="M138,199c0.1,13.3-9.6,23.6-22.9,24.9c-6.3,0.6-12.3-0.3-17.8-3.1c-6.7-3.4-9.5-9.5-8.4-17
		c1.4-9.1,5.6-16.9,10.7-24.3c1.9-2.8,2.8-6,4.5-8.9c2-3.4,4.7-5.7,8.8-5.5c2.4,0.1,4.7,1,6.7,2.5c8.6,6.5,15.2,14.4,17.9,25.1
		c0.3,1.1,0.5,2.2,0.6,3.3C138,197,138,198,138,199z"/>
	<path fill="#93665C" d="M256.1,194.5c-6.2-0.2-12.2-1.4-17.3-5.3c-4.5-3.4-5.7-8.2-5.4-13.6c0.6-8.1,4.2-15.1,8.2-21.9
		c2.1-3.6,4.9-6.7,6.1-10.9c0.5-1.7,1.8-3.2,3-4.5c2.8-3,7.1-3.7,11.1-1.5c7.2,3.9,12.4,9.9,16.4,16.9c3.1,5.4,4.6,11.1,4.4,17.4
		c-0.3,11.2-10.2,21.9-21.4,23C259.6,194.3,257.8,194.6,256.1,194.5z"/>
	<path fill="#93665C" d="M215.3,312.9c-6.4-0.3-12.6-1.4-17.7-5.7c-4-3.3-5.2-7.8-4.9-12.8c0.8-10.6,6-19.2,11.7-27.7
		c0.6-0.9,1.1-1.9,1.5-2.9c0.3-0.9,0.7-1.8,1.1-2.7c3.8-7.7,9.8-9.4,16.8-4.3c7.7,5.7,13.8,12.8,16.7,22.1c3,9.4,1.7,18.3-5,25.8
		c-3.9,4.4-9,7-14.9,7.8C218.8,312.7,217,312.9,215.3,312.9z"/>
	<path fill="#93665C" d="M121.9,421.2c0.2-4.1,2.3-8.3,4.7-12.4c1.7-2.8,3.7-5.5,5-8.6c1.7-3.7,5.3-4.9,8.8-2.8
		c7.6,4.4,12.9,10.6,13.3,19.7c0.3,6.7-4.1,13.1-12,15.2c-4.8,1.3-9.5,0.7-13.9-1.2C123.9,429.5,121.9,426.5,121.9,421.2z"/>
	<path fill="#93665C" d="M265.8,419c-3.7-0.2-6.7-0.7-9.6-2c-4.2-1.9-6.3-6-5.5-10.6c0.9-5.6,3.7-10.4,6.8-15c1-1.4,1.7-2.9,2.4-4.5
		c1.8-4,5.3-5.7,8.9-3.8c7.5,4,12.7,10.1,13.7,18.8c1,8-5.3,15.5-13.5,16.6C267.8,418.8,266.6,419.2,265.8,419z"/>
	<path fill="#93665C" d="M340.6,179.2c0,7.5-5.5,13.9-12.9,15.3c-4.1,0.8-8.1,0.2-11.9-1c-5.6-1.8-8.1-6.7-6.7-12.8
		c1.1-4.8,3.5-9,6.3-12.9c0.9-1.3,1.7-2.5,2.3-4c2.2-5.7,6.5-7,11.5-3.5c5.7,4,9.8,9.1,11.3,16.1c0.1,0.3,0.2,0.6,0.2,1
		C340.6,177.9,340.6,178.6,340.6,179.2z"/>
	<path fill="#93665C" d="M129.8,112.5c-2,0.1-4.1-0.1-6-0.8c-2.8-0.9-4.1-3.2-2.8-5.8c2.1-4.3,4.7-8.1,9.7-9.7
		c7.2-2.3,14.4-4.7,21.5-7.1c4.6-1.5,8.6-0.5,12.4,2.2c4.9,3.5,4.5,9.3-0.8,12.3c-5.1,2.9-10.6,4.7-16.2,6.2
		C141.8,111.3,135.9,112.2,129.8,112.5z"/>
</g>
<g>
	<path fill="#FFFFFF" stroke="#000000" stroke-width="0.25" stroke-miterlimit="10" d="M74.6,96.3c0,2.4-0.2,4.7-0.6,6.8
		c-0.4,2.2-1.1,4.2-2,6s-2.1,3.4-3.7,4.7c-1.7,1.4-3.5,2.5-5.5,3.3c-2,0.8-4.1,1.3-6.2,1.5c-2.1,0.2-4.2,0-6.3-0.5
		c-2.1-0.5-4.1-1.4-6-2.7c-3.6-2.4-6.9-5.4-10-9.1c-2.4-2.8-4.5-6.1-6.4-9.7c-1.9-3.6-3.4-7.4-4.4-11.4c-0.6-2.5-1.1-5.3-1.2-8.3
		c-0.2-3-0.1-5.9,0.3-8.7c0.4-2.8,1.1-5.5,2.2-8c1.1-2.5,2.5-4.5,4.4-6c1.1-0.9,2.1-1.4,3.2-1.5c0.8-0.2,1.6-0.6,2.4-1.2
		c0.8-0.7,1.5-1.3,2.3-1.9c0.8-0.6,1.6-1,2.4-1.3c0.8-0.3,1.7-0.2,2.7,0.2c1.3,0.4,2.6,0.9,4,1.5c1.4,0.6,2.7,1.7,4,3.2
		c0.9,1.3,1.6,2.9,2,4.6c0.4,1.7,0.6,3.5,0.5,5.2c-0.1,1.7-0.4,3.4-1,4.9c-0.6,1.5-1.5,2.8-2.6,3.7c-0.9,0.8-1.9,1.1-2.9,1.1
		c-1,0-2.1-0.1-3.3-0.3c-1.1-0.2-2.2-0.3-3.3-0.3c-1.1,0-2.1,0.4-3.1,1.2c-0.6,0.5-1,1-1.2,1.5c-0.7,1.3-1.1,2.6-1.1,4
		c-0.1,1.4,0,2.8,0.4,4.3c0.3,1.4,0.8,2.9,1.4,4.3c0.6,1.4,1.3,2.7,2,4c0.7,1.2,1.5,2.4,2.2,3.4s1.4,1.8,1.9,2.5
		c0.9,1.1,2,2.3,3.1,3.3c1.1,1.1,2.3,2,3.5,2.6c1.2,0.7,2.5,1,3.7,1.1c1.2,0,2.4-0.4,3.6-1.4c0.7-0.6,1.3-1.3,1.7-2.3
		c0.4-0.9,0.7-1.9,0.9-2.9c0.2-1.1,0.3-2.1,0.2-3.2c-0.1-1.1-0.2-2.1-0.5-3.2c-0.2-0.9-0.4-1.8-0.6-2.8c-0.2-1-0.4-1.9-0.5-2.9
		c-0.1-1-0.1-1.9,0-2.9c0.2-1,0.5-1.9,1.2-2.8c1-0.8,2.1-1.4,3.3-1.7s2.4-0.4,3.6-0.2c1.2,0.1,2.4,0.5,3.5,1.2
		c1.1,0.6,2.1,1.5,3,2.5c0.8,1,1.5,2.1,2,3.5c0.5,1.3,0.7,2.7,0.8,4C74.5,91.6,74.6,94,74.6,96.3z"/>
	<path fill="#FFFFFF" stroke="#000000" stroke-width="0.25" stroke-miterlimit="10" d="M118.8,75.1c0.1,1.2,0.1,2.3-0.2,3.4
		s-0.7,2.1-1.4,3.1c-0.6,0.9-1.5,1.7-2.5,2.3c-2.2,1.4-4.3,2.6-6.4,3.8c-2.1,1.2-4.1,2.3-6.1,3.3l-1.1,0.6c-2.3,1.1-4.5,2-6.8,2.8
		c-2.2,0.8-4.5,1.3-6.8,1.3c-0.8,0-1.6-0.3-2.3-0.8c-0.7-0.6-1.3-1.3-1.7-2.2c-1-1.9-1.8-3.9-2.5-6c-0.7-2-1.5-4.1-2.4-6.1
		c-1.9-4.2-3.9-8.3-5.9-12.3c-2.1-4-4-8.1-5.8-12.4c-0.5-1.2-1-2.8-1.6-4.6c-0.6-1.8-0.9-3.7-1.1-5.5c-0.1-1.9,0-3.6,0.6-5.2
		c0.5-1.6,1.7-2.8,3.3-3.7c0.8-0.4,1.5-0.5,2.3-0.2c0.8,0.2,1.4,0.8,1.9,1.8l0.4,1.2c1.9,5.5,3.8,10.9,5.7,16.2
		c2,5.3,4.2,10.4,6.6,15.3c1.5,3,3.1,5.9,4.7,8.5c1,0,1.8-0.2,2.6-0.6c0.9-0.5,1.8-1,2.6-1.7c0.8-0.7,1.7-1.3,2.7-1.8
		c0.5-0.2,1-0.4,1.6-0.6c0.6-0.2,1.1-0.4,1.7-0.6c0.8-0.4,1.5-0.9,2.2-1.5c0.7-0.6,1.3-1.2,2-1.9c0.7-0.7,1.3-1.3,2-1.9
		c0.7-0.6,1.4-1.1,2.3-1.5c0.7-0.4,1.4-0.5,2.2-0.5c0.8,0,1.5,0.2,2.2,0.5c0.7,0.3,1.4,0.7,2,1.3c0.6,0.6,1.1,1.2,1.4,1.9
		c0.1,0.1,0.1,0.3,0.2,0.5c0.1,0.1,0.1,0.3,0.1,0.4C118.3,72.7,118.7,73.9,118.8,75.1z"/>
	<path fill="#FFFFFF" stroke="#000000" stroke-width="0.25" stroke-miterlimit="10" d="M135.3,11.4c0.4,1.5,0.3,2.8-0.3,3.8
		c-0.6,1-1.4,2-2.3,2.9c-0.9,0.9-1.8,1.8-2.6,2.7c-0.8,0.9-1.2,1.9-1.2,3.1c0.6,1.9,1,4.1,1.4,6.5c0.4,2.4,0.7,4.8,1,7.2
		c0.3,2.4,0.6,4.8,0.9,7c0.3,2.3,0.7,4.2,1.2,5.9c0.6,2.3,1.6,4.3,2.9,6c0.6,0.8,1.4,1.2,2.4,1.3c1,0.1,2.1,0.2,3.2,0.3
		c1.1,0.1,2.2,0.4,3.1,0.9c1,0.5,1.7,1.5,2.1,3c0.2,1.4,0.2,2.7-0.2,4c-0.3,1.3-0.9,2.5-1.6,3.5c-0.7,1.1-1.6,2-2.7,2.8
		c-1.1,0.8-2.2,1.4-3.5,1.8c-1.2,0.3-2.4,0.5-3.5,0.6c-1.2,0.1-2.3,0.2-3.4,0.4c-1,0.3-2,0.7-2.9,1.3c-0.9,0.6-2,1-3.2,1.4
		c-0.4,0-0.7,0-1.1,0c-0.4,0-0.7-0.2-1-0.4c-0.8-0.5-1.6-1.2-2.2-2.2c-0.6-1-1.1-2-1.4-3.1c-0.3-1.1-0.4-2-0.2-2.8
		c0.2-0.8,0.5-1.5,1-2.1c0.5-0.6,1-1.2,1.6-1.7c0.6-0.5,1.1-1.1,1.6-1.6c0.5-0.5,0.9-1.1,1.2-1.8c0.3-0.7,0.3-1.5,0.2-2.4
		c-0.3-1.1-0.7-2.3-1.1-3.4c-0.4-1.1-0.8-2.2-1.1-3.4c-0.7-3-1.3-6.1-1.8-9.3c-0.5-3.1-1.1-6.2-1.9-9.3c-0.2-0.9-0.5-1.7-0.8-2.5
		c-0.3-0.8-0.6-1.6-0.9-2.4c-0.6-0.1-1.2-0.1-1.8-0.1c-0.6,0-1.3-0.1-1.9-0.2c-0.6-0.1-1.1-0.4-1.6-0.7c-0.5-0.4-0.8-1-1.1-1.9
		c-0.2-1.4-0.2-2.8,0.1-4.4c0.3-1.6,0.7-3,1.3-4.4s1.4-2.7,2.3-3.8c0.9-1.1,1.9-2,3-2.5c0.8-0.4,1.6-1,2.4-1.6
		c0.8-0.6,1.7-1.3,2.5-1.9c0.9-0.6,1.7-1.2,2.6-1.7c0.9-0.5,1.8-0.9,2.7-1.2c0.7-0.2,1.4-0.2,2,0.1c0.6,0.2,1.2,0.6,1.7,1.1
		c0.5,0.5,1,1.1,1.4,1.8c0.4,0.7,0.7,1.4,1.1,2.2L135.3,11.4z"/>
	<path fill="#FFFFFF" stroke="#000000" stroke-width="0.25" stroke-miterlimit="10" d="M189,61c-1.4,1.9-2.9,3.6-4.5,5.1
		c-1.6,1.5-3.3,2.7-5.1,3.7s-3.7,1.5-5.8,1.6c-2.2,0.1-4.3-0.1-6.4-0.6c-2.1-0.5-4.1-1.3-5.8-2.4c-1.8-1.1-3.4-2.5-4.8-4.2
		c-1.4-1.7-2.5-3.6-3.3-5.8c-1.5-4.1-2.4-8.5-2.6-13.3c-0.2-3.7,0-7.6,0.5-11.6c0.6-4,1.6-8,3.2-11.8c1-2.4,2.3-4.9,3.9-7.4
		c1.6-2.5,3.4-4.8,5.4-6.8c2-2,4.2-3.8,6.5-5.1c2.3-1.4,4.7-2.1,7.1-2.3c1.4-0.1,2.6,0.1,3.5,0.7c0.8,0.4,1.6,0.5,2.7,0.4
		c1-0.1,2-0.1,3-0.1c1,0,1.9,0.1,2.7,0.4c0.9,0.2,1.5,0.8,2,1.7c0.8,1.1,1.6,2.3,2.3,3.6c0.7,1.3,1.2,3,1.3,4.9
		c-0.1,1.6-0.4,3.3-1.1,4.9c-0.7,1.6-1.6,3.1-2.7,4.5c-1.1,1.4-2.3,2.5-3.7,3.3c-1.4,0.9-2.8,1.4-4.3,1.4c-1.2,0.1-2.2-0.2-3-0.9
		c-0.8-0.6-1.6-1.4-2.4-2.2c-0.8-0.8-1.6-1.5-2.5-2.2c-0.9-0.6-2-0.9-3.2-0.8c-0.7,0-1.4,0.2-1.9,0.5c-1.3,0.6-2.4,1.5-3.3,2.6
		c-0.9,1.1-1.6,2.3-2.2,3.7s-1,2.8-1.4,4.3c-0.3,1.5-0.6,3-0.7,4.4c-0.1,1.4-0.2,2.8-0.2,4.1c0,1.3,0,2.3,0.1,3.1
		c0.1,1.5,0.3,3,0.5,4.5c0.3,1.5,0.7,2.9,1.3,4.2c0.6,1.3,1.4,2.3,2.4,3c1,0.8,2.2,1.1,3.7,1c0.9-0.1,1.8-0.3,2.7-0.8
		c0.9-0.5,1.7-1.1,2.5-1.8c0.8-0.7,1.5-1.6,2-2.5c0.6-0.9,1.1-1.9,1.5-2.9c0.4-0.8,0.8-1.7,1.2-2.6c0.4-0.9,0.8-1.8,1.3-2.7
		c0.5-0.9,1.1-1.6,1.8-2.3c0.7-0.7,1.6-1.2,2.6-1.6c1.3-0.1,2.5,0.1,3.6,0.6c1.1,0.5,2.2,1.1,3,1.9c0.9,0.8,1.6,1.8,2.1,3
		c0.5,1.2,0.8,2.5,0.9,3.8c0.1,1.3-0.1,2.6-0.5,4c-0.4,1.4-1,2.6-1.7,3.7C191.8,57.1,190.4,59.1,189,61z"/>
	<path fill="#FFFFFF" stroke="#000000" stroke-width="0.25" stroke-miterlimit="10" d="M237.4,61.6c0.2,0.4,0.3,0.9,0.2,1.3
		c0,0.4-0.1,0.8-0.1,1.2c-0.2,1.2-0.6,2.4-1.2,3.7c-0.6,1.2-1.3,2.3-2.1,3.4c-0.8,1-1.8,1.8-2.9,2.5c-1.1,0.6-2.3,1-3.5,1l-0.4-0.1
		c-0.6-0.1-1.2-0.3-1.6-0.7s-0.8-0.8-1.2-1.4c-0.3-0.6-0.5-1.1-0.7-1.8c-0.2-0.6-0.3-1.2-0.4-1.8c-0.4-2.4-0.8-4.8-1.3-7.2
		c-0.5-2.4-1-4.7-1.7-6.9c-0.7-2.2-1.5-4.3-2.5-6.2c-1-1.9-2.1-3.7-3.5-5.2c-0.9,0.7-1.6,1.5-2.2,2.4c-0.6,0.9-1.1,1.9-1.5,2.9
		c-0.4,1-0.7,2.1-0.9,3.2c-0.2,1.1-0.4,2.2-0.6,3.3l-0.4,2.6l-0.4,2.1c-0.1,0.9-0.4,1.8-0.7,2.8c-0.3,1-0.8,1.8-1.3,2.6
		c-0.5,0.8-1.1,1.4-1.7,1.8c-0.6,0.4-1.4,0.6-2.1,0.5l-0.4-0.1c-0.7-0.3-1.3-0.7-1.7-1.3c-0.4-0.6-0.8-1.3-1-2
		c-0.2-0.8-0.4-1.6-0.4-2.5c-0.1-0.9,0-1.7,0.1-2.6c0.6-2.8,1.1-5.5,1.6-8.2c0.5-2.7,1-5.5,1.6-8.2c0.6-2.9,1.4-5.9,2.3-8.8
		s1.5-5.9,2.1-8.9l0.3-1.6c0.1-0.8,0.3-1.7,0.4-2.5c0.1-0.9,0.3-1.7,0.6-2.5l0.1-0.4c0.2-0.9,0.5-1.9,0.9-2.9c0.4-1,1-2,1.6-2.8
		c0.6-0.9,1.3-1.6,2.1-2.3c0.8-0.6,1.7-1.1,2.5-1.3l0.5-0.1c0.6-0.3,1.2-0.3,1.8-0.2c0.9,0.2,1.5,0.7,1.8,1.7c0.3,1,0.4,2.1,0.2,3.3
		c-0.4,2.2-1,4.3-1.9,6.4c-0.9,2.1-1.6,4.1-2.3,6.3c-0.1,0.7-0.2,1.4-0.2,2.1c0,0.7,0,1.4,0.2,2c1.8-1.7,3.5-3.6,5.2-5.6
		c1.7-2,3.4-4.1,5.2-6.1c1.8-2.1,3.6-4.1,5.6-6.1c1.9-2,4.1-3.9,6.4-5.7c0.8-0.4,1.6-0.8,2.3-1.4c0.7-0.6,1.5-1.1,2.2-1.6
		c0.8-0.5,1.5-0.9,2.3-1.3c0.8-0.3,1.6-0.4,2.5-0.3c1.1,0.2,1.9,0.8,2.5,1.7c0.5,0.9,0.7,2,0.5,3.3l0,0.1c-0.3,0.9-0.5,1.8-0.8,2.6
		c-0.3,0.8-0.7,1.6-1.2,2.4c-0.8,1.6-1.7,3-2.8,4.3c-1.1,1.2-2.3,2.3-3.6,3.3c-1.3,1-2.7,1.9-4,2.8c-1.4,0.9-2.7,1.8-3.9,2.7
		c-1.3,0.9-2.4,2-3.5,3.1c-1.1,1.1-1.9,2.4-2.5,3.9c-0.1,1.8,0,3.6,0.4,5.2c0.4,1.7,0.9,3.3,1.5,4.8c0.6,1.6,1.3,3.1,2.1,4.6
		c0.8,1.5,1.6,3,2.3,4.6c0.8,1.6,1.5,3.2,2.1,4.8c0.6,1.7,1.1,3.4,1.4,5.3L237.4,61.6z"/>
	<path fill="#FFFFFF" stroke="#000000" stroke-width="0.25" stroke-miterlimit="10" d="M256.9,71.5c-0.1,0.1-0.1,0.3-0.1,0.4
		c0,0.1,0,0.2-0.1,0.3c0,0.1-0.1,0.2-0.1,0.3c-0.1,0.1-0.1,0.2-0.1,0.3l-0.1,0.1c-0.4,1.2-1,2.2-1.8,3c-0.8,0.8-1.7,1.5-2.6,2
		c-1,0.5-2,0.9-3.1,1.1c-1.1,0.2-2.1,0.3-3,0.3l0-0.1c-0.8,0.1-1.5,0.2-2.3,0.3c-0.7,0-1.5,0.2-2.3,0.5c-0.7-0.5-1.3-1.2-1.7-1.9
		c-0.4-0.8-0.8-1.6-1-2.5c-0.2-0.9-0.4-1.8-0.5-2.7c-0.1-0.9-0.2-1.8-0.3-2.7l0.4-1.2c0.3-0.9,0.8-1.6,1.4-2.1c0.6-0.5,1.3-1,2-1.5
		c0.7-0.5,1.4-1,2.1-1.5c0.6-0.5,1.2-1.2,1.6-2.1l0.2-0.5c0.4-0.5,0.9-0.9,1.5-1.2c0.6-0.2,1.1-0.4,1.8-0.4c0.6,0,1.2,0,1.7,0.1
		c0.5,0.1,1,0.2,1.4,0.4c1,0.4,1.8,0.9,2.6,1.7c0.8,0.8,1.4,1.6,1.9,2.6c0.5,1,0.8,2.1,0.8,3.3c0.1,1.2-0.1,2.5-0.5,3.7L256.9,71.5z
		 M288.1,17.5c-0.1,0.2-0.1,0.4-0.1,0.6c-2.8,3.5-5.3,7.1-7.8,10.7c-2.4,3.6-4.9,7.1-7.3,10.5c-2.5,3.4-5.1,6.6-7.8,9.6
		c-2.7,3-5.8,5.7-9.1,8c-0.5,0-0.9,0.1-1.3,0.1c-0.4,0-0.8,0-1.3-0.2c-1.1-0.4-1.7-1.2-2-2.3c-0.3-1.1-0.3-2.3-0.1-3.4
		c1.6-3.3,3.3-6.7,5-10.1c1.7-3.4,3.2-6.9,4.5-10.4c0.4-1.1,0.8-2.2,1.1-3.3c0.3-1.1,0.6-2.2,0.8-3.3l0.1-0.4
		c1.3-1.2,2.8-2.2,4.3-2.9c1.5-0.7,3.1-1.6,4.6-2.5l-0.1,0c0.9-0.5,2-1.2,3.2-1.9c1.2-0.7,2.5-1.4,3.7-2c1.3-0.6,2.5-1,3.7-1.3
		c1.2-0.3,2.3-0.3,3.3,0.1c0.8,0.3,1.4,0.8,1.8,1.5s0.8,1.5,0.9,2.3C288.2,17.1,288.1,17.3,288.1,17.5z"/>
</g>
</svg>
