<?xml version="1.0" encoding="utf-8"?>
<!-- Generator: Adobe Illustrator 17.0.0, SVG Export Plug-In . SVG Version: 6.00 Build 0)  -->
<!DOCTYPE svg PUBLIC "-//W3C//DTD SVG 1.1//EN" "http://www.w3.org/Graphics/SVG/1.1/DTD/svg11.dtd">
<svg version="1.1" id="Calque_1" xmlns="http://www.w3.org/2000/svg" xmlns:xlink="http://www.w3.org/1999/xlink" x="0px" y="0px"
	 width="320.1px" height="81.1px" viewBox="0 0 320.1 81.1" enable-background="new 0 0 320.1 81.1" xml:space="preserve">
<g>
	<path fill="#297AA9" stroke="#000102" stroke-width="3" stroke-miterlimit="10" d="M230.2,21.8h-50.3
		c-1.7-11.4-11.5-20.3-23.5-20.3s-21.7,8.8-23.5,20.3H9.2c-4.3,0-7.7,3.5-7.7,7.8v42.3c0,4.3,3.5,7.8,7.8,7.8h301.6
		c4.3,0,7.8-3.5,7.8-7.8V29.5c0-4.3-3.5-7.8-7.7-7.8H230.2z"/>
	<path fill="#0F3B51" stroke="#000102" stroke-width="2" stroke-miterlimit="10" d="M229.6,26.7H9.8c-1.8,0-3.3,1.5-3.3,3.3v41.4
		c0,1.8,1.5,3.3,3.3,3.3h300.6c1.8,0,3.3-1.5,3.3-3.3V30c0-1.8-1.5-3.3-3.3-3.3H229.6z"/>
	<path fill="#0F3B51" stroke="#000102" stroke-width="3" stroke-miterlimit="10" d="M174,20.3c-1.5-7.8-9.2-13.9-17.6-13.9
		s-16.1,6.1-17.6,13.9c0,1.2,0.9,1.4,1.2,1.4h32.6C173.1,21.8,174,21.5,174,20.3L174,20.3L174,20.3z"/>
	<path fill="#FFFFFF" d="M149.5,11.2c-0.2,0.6-0.5,1-1.2,1.1h0.1v0.9h0.9v5.7h0.1h1.5v-7.8L149.5,11.2L149.5,11.2z"/>
	<path fill="#FFFFFF" d="M156.5,15.2c0.8-0.6,1.3-1.3,1.3-2.5c0-1.1-0.8-2-1.9-2.1c-1.2-0.2-2,0.3-2.6,1.1l0,0l0.9,1.1l0,0
		c0.4-0.4,0.7-0.7,1.2-0.7c0.5,0,0.8,0.3,0.8,0.9c0,0.5-0.2,0.8-0.7,1.2c-1.5,1.1-2.2,2.2-2.3,4.7v0.1h0.1h4.5v-1.5h-2.9
		C155,16.5,155.5,16,156.5,15.2"/>
	<path fill="#FFFFFF" d="M163.4,14.7c0.6-0.3,1.1-0.8,1.1-1.7c0-1.4-0.9-2.3-2.4-2.3c-1.1,0-1.7,0.4-2.3,1.1l0,0l1,1.1l0,0
		c0.4-0.4,0.7-0.6,1.1-0.6c0.7,0,0.9,0.4,0.9,0.9c0,0.5-0.3,0.8-1,0.8h-0.6h-0.1v1.5h0.6c0.7,0,1.2,0.3,1.2,1.1c0,0.6-0.4,1.1-1,1.1
		c-0.5,0-0.9-0.2-1.3-0.9l0,0l-1.2,0.9l0,0c0.6,1,1.4,1.5,2.5,1.5l0,0c1.7,0,2.7-1,2.7-2.6C164.7,15.5,164,14.9,163.4,14.7"/>
	<g>
		<path fill="#FFFFFF" d="M47,51.9c0.1,0.7,0.2,1.5,0.2,2.2c0,1.3-0.2,2.7-0.7,3.9c-0.5,1.3-1.3,2.4-2.5,3.4
			c-0.3,0.3-0.7,0.5-1.2,0.7c-0.4,0.2-0.9,0.3-1.4,0.3c-0.5,0-1-0.1-1.4-0.2c-0.4-0.1-0.8-0.3-1.1-0.6c-0.3-0.2-0.6-0.5-0.8-0.8
			c-0.2-0.3-0.3-0.7-0.3-1c0,0,0-0.1,0-0.1c0-0.1,0-0.1,0-0.1c0.1-0.4,0.2-0.8,0.3-1.2s0.3-0.7,0.5-1.1c0.2-0.4,0.3-0.7,0.4-1.1
			c0.1-0.4,0.2-0.8,0.3-1.2c0-0.3,0-0.5-0.1-0.8c-0.1-0.3-0.2-0.5-0.5-0.7c-0.4,0.5-0.8,1.1-1.1,1.7c-0.3,0.6-0.6,1.3-0.9,1.9
			c-0.3,0.7-0.5,1.3-0.8,1.9s-0.6,1.2-1,1.7c-0.4,0.5-0.8,0.9-1.3,1.3c-0.5,0.4-1.2,0.6-1.9,0.7c-0.4,0-0.7-0.1-1-0.2
			c-0.3-0.1-0.6-0.2-0.8-0.3c-0.4-0.3-0.8-0.6-1-1c-0.2-0.4-0.4-0.8-0.4-1.2c-0.1-0.4-0.1-0.9-0.1-1.3c0-0.5,0-0.9,0-1.4
			s-0.1-0.9-0.2-1.3c-0.1-0.4-0.3-0.8-0.5-1.2c-0.4,0.4-0.7,0.8-0.8,1.4c-0.1,0.6-0.1,1.1-0.1,1.5c0,0.4,0,0.9,0.1,1.4
			c0,0.5,0.1,1.1,0.1,1.8c0,0.2,0,0.4-0.1,0.7c-0.1,0.2-0.1,0.4-0.3,0.6c-0.1,0.2-0.3,0.3-0.4,0.4c-0.2,0.1-0.4,0.2-0.6,0.2
			c-0.1,0-0.2,0-0.2,0c-0.4,0-0.8-0.1-1.2-0.3c-0.3-0.2-0.6-0.5-0.8-0.9c-0.2-0.4-0.4-0.8-0.5-1.2c-0.1-0.5-0.2-0.9-0.2-1.4
			c0.1-0.9,0.2-1.8,0.4-2.7c0.2-0.9,0.3-1.9,0.4-3c0-1.4,0.1-2.8,0.1-4.2c0-1.4,0-2.8,0.2-4.2c0-0.6,0.2-1.3,0.6-1.9
			c0.3-0.7,0.8-1.2,1.3-1.8c0.5-0.5,1.1-0.9,1.7-1.3c0.6-0.3,1.2-0.5,1.9-0.5c0.3,0,0.5,0,0.7,0.1c0.2,0.1,0.4,0.3,0.5,0.5
			c0.4,0.8,0.6,1.7,0.7,2.7s0.3,1.9,0.4,2.9c0.1,1,0.3,1.9,0.5,2.9c0.2,1,0.5,1.9,0.9,2.7c0.4-0.5,0.8-1,1-1.5
			c0.2-0.5,0.5-1.1,0.8-1.6c0.8-1.4,1.3-2.7,1.7-4.2c0.3-1.4,0.7-2.8,1-4.3c0.2-0.8,0.5-1.5,1-2.2c0.5-0.7,1.1-1.3,1.8-1.8
			c0.7-0.5,1.5-0.9,2.4-1.2c0.9-0.3,1.8-0.5,2.7-0.5c0.7,0,1.3,0.1,1.7,0.3c0.4,0.2,0.8,0.4,1,0.8c0.3,0.3,0.4,0.7,0.5,1.2
			s0.2,1,0.2,1.6c-0.1,0.9-0.2,1.8-0.4,2.7c-0.2,0.9-0.5,1.8-0.7,2.7S47,45.1,46.8,46c-0.2,0.9-0.3,1.7-0.3,2.6c0,0.2,0,0.4,0,0.6
			c0,0.2,0,0.4,0.1,0.6C46.8,50.5,46.9,51.2,47,51.9z"/>
		<path fill="#FFFFFF" d="M65.6,58.2c-0.7,1-1.5,1.9-2.4,2.6c-0.9,0.8-1.9,1.3-3.1,1.8c-1.1,0.4-2.3,0.6-3.5,0.6
			c-1.2,0-2.2-0.2-3-0.7c-0.8-0.5-1.5-1.1-2.1-1.9c-0.5-0.8-0.9-1.6-1.2-2.6c-0.3-1-0.4-2-0.4-3c0-1,0.1-2,0.3-3
			c0.2-1,0.6-2.1,1-3.1c0.4-1,1-1.9,1.7-2.8c0.7-0.9,1.6-1.6,2.5-2.3s2-1.2,3.1-1.6c1.1-0.4,2.2-0.6,3.4-0.6h0.4
			c1,0,1.8,0.2,2.6,0.6s1.4,0.9,1.8,1.5c0.5,0.6,0.9,1.3,1.1,2.1c0.2,0.8,0.4,1.7,0.4,2.5c0,1-0.1,2.1-0.3,3.3
			c-0.2,1.1-0.5,2.2-0.8,3.2C66.8,56.1,66.3,57.2,65.6,58.2z M60.5,48c-0.5-0.3-1-0.5-1.7-0.5c-0.7,0-1.4,0.1-1.9,0.4
			s-0.9,0.7-1.3,1.1c-0.3,0.5-0.6,1-0.8,1.6c-0.2,0.6-0.3,1.1-0.4,1.7c-0.1,0.6-0.1,1.1-0.2,1.6c0,0.5,0,0.9-0.1,1.1
			c0,0.6,0.2,1.2,0.6,1.7c0.4,0.5,0.9,0.8,1.5,1h0.8c0.8-0.1,1.5-0.4,2-0.8c0.5-0.5,1-1,1.3-1.7c0.3-0.7,0.6-1.4,0.7-2.2
			c0.1-0.8,0.2-1.5,0.2-2.3c0-0.2,0-0.4,0-0.6c0-0.2,0-0.4-0.1-0.6C61.2,48.9,61,48.4,60.5,48z"/>
		<path fill="#FFFFFF" d="M87,44.4c-0.1,1.4-0.1,2.8-0.2,4.2c-0.1,1.4-0.2,2.8-0.4,4.2c-0.2,1.4-0.4,2.8-0.8,4.2
			c-0.3,1.4-0.8,2.7-1.3,4.1c-0.2,0.6-0.7,1-1.2,1.3c-0.6,0.3-1.2,0.5-1.8,0.5h-0.1c-0.7,0-1.2-0.1-1.7-0.3
			c-0.4-0.2-0.8-0.5-1.1-0.9c-0.3-0.4-0.6-0.8-0.8-1.3c-0.2-0.5-0.5-1-0.8-1.6c-0.1-0.2-0.2-0.4-0.4-0.7c-0.2-0.3-0.3-0.6-0.5-0.9
			c-0.2-0.3-0.3-0.6-0.4-0.8c-0.1-0.2-0.2-0.3-0.2-0.3v0c-0.2-0.2-0.3-0.5-0.5-0.7c-0.2-0.2-0.3-0.3-0.5-0.4c0,0.1-0.1,0.2-0.1,0.3
			c0,0.1,0,0.2,0,0.3v0.6c0,0.5,0,1,0.1,1.5c0.1,0.5,0.1,1,0.1,1.5v0.4c0,0.3-0.1,0.7-0.2,1c-0.1,0.3-0.2,0.6-0.4,0.9H74
			c-0.4,0.4-0.8,0.7-1.2,0.8c-0.4,0.2-0.7,0.3-1.1,0.3c-0.5,0-0.9-0.1-1.2-0.4c-0.3-0.2-0.5-0.5-0.6-0.9c-0.1-0.4-0.2-0.8-0.3-1.2
			s-0.1-0.9-0.1-1.4v-0.9c0-1.7,0.1-3.3,0.3-5c0.2-1.7,0.4-3.4,0.7-5.1c0.1-0.4,0.2-0.8,0.4-1.1c0.2-0.4,0.4-0.7,0.7-1
			c0.3-0.3,0.6-0.5,1-0.7c0.4-0.2,0.8-0.3,1.2-0.3c0.6,0,1.2,0.2,1.6,0.6c0.5,0.4,0.7,0.9,0.9,1.5c0.1,0.7,0.4,1.4,0.7,2
			c0.3,0.6,0.7,1.2,1,1.8c0.1,0.2,0.3,0.4,0.4,0.6c0.1,0.2,0.2,0.4,0.3,0.6c0.1,0.2,0.2,0.3,0.4,0.5s0.4,0.2,0.6,0.3
			c0.2-0.2,0.3-0.5,0.4-0.8c0.1-0.3,0.2-0.6,0.2-0.9c0-0.3,0.1-0.5,0.1-0.8s0-0.4,0-0.5v-0.1c0-0.6-0.1-1.3-0.2-1.9
			c-0.2-0.6-0.2-1.3-0.2-2c0-0.4,0.1-0.9,0.3-1.3c0.2-0.5,0.4-0.9,0.8-1.3c0.3-0.4,0.7-0.8,1.2-1.1c0.5-0.3,1-0.5,1.6-0.7l0,0
			c0.5-0.2,0.9-0.2,1.4-0.2c0.5,0,1,0.1,1.4,0.4c0.4,0.2,0.6,0.6,0.6,1.2v0.1L87,44.4z"/>
		<path fill="#FFFFFF" d="M104.8,46.6c-0.2,0.3-0.4,0.6-0.7,0.9c-0.3,0.3-0.6,0.5-0.9,0.7c-0.3,0.2-0.7,0.4-1.1,0.5
			c-0.4,0.1-0.7,0.2-1.1,0.2c-0.6,0-1.1-0.2-1.5-0.6l-0.1-0.1c-0.3-0.4-0.7-0.7-1.2-0.9c-0.5-0.2-1-0.3-1.6-0.3
			c-0.2,0-0.4,0-0.7,0.1c-0.3,0-0.5,0.1-0.8,0.2c-0.3,0.1-0.5,0.2-0.7,0.4c-0.2,0.2-0.3,0.4-0.4,0.6c0,0.4,0.1,0.6,0.4,0.7
			c0.3,0.1,0.6,0.1,0.9,0.1c0.6,0,1.2,0,1.7-0.1c0.6-0.1,1.2-0.1,1.7-0.1c0.9,0,1.7,0.1,2.5,0.4c0.8,0.3,1.4,0.8,1.8,1.6
			c0.4,0.6,0.7,1.3,1,2c0.3,0.7,0.4,1.4,0.4,2.3v0.5c-0.2,1.1-0.7,2-1.4,2.9c-0.7,0.9-1.5,1.6-2.4,2.2c-0.9,0.6-1.9,1.1-3,1.4
			c-1.1,0.3-2.1,0.5-3,0.6c-0.8,0-1.5-0.1-2.2-0.3h0c-0.5-0.1-1-0.3-1.6-0.5c-0.5-0.2-1-0.5-1.4-0.8c-0.4-0.3-0.8-0.7-1-1.2
			c-0.3-0.4-0.4-1-0.4-1.6v-0.2c0-0.3,0.1-0.5,0.2-0.8c0.1-0.3,0.2-0.5,0.4-0.8c0.2-0.2,0.4-0.4,0.6-0.6c0.2-0.1,0.5-0.2,0.8-0.3
			l0.4-0.1c0.1,0.1,0.1,0.1,0.1,0.1c0.4,0.1,0.8,0.2,1.2,0.4c0.4,0.2,0.7,0.5,1.1,0.7c0.4,0.2,0.7,0.5,1.1,0.6
			c0.4,0.2,0.8,0.3,1.3,0.3h0.2c0.4,0,0.8-0.2,1.2-0.5c0.4-0.3,0.6-0.6,0.6-1.1c0-0.3-0.1-0.5-0.2-0.8c-0.1-0.3-0.3-0.4-0.7-0.4
			c-0.2,0-0.4,0-0.6,0c-0.2,0-0.4,0-0.6,0c-0.3,0-0.6,0-1-0.1c-0.3,0-0.7-0.1-1.1-0.2c-0.5-0.1-1-0.2-1.4-0.4
			c-0.5-0.2-1-0.3-1.4-0.5c-0.4-0.2-0.8-0.4-1.1-0.6c-0.3-0.2-0.5-0.5-0.5-0.7l-0.1-0.4c0-0.2-0.1-0.4-0.1-0.6
			c0-0.2-0.1-0.4-0.1-0.7c0-1.2,0.4-2.4,1.1-3.6s1.6-2.2,2.7-3.1s2.3-1.6,3.7-2.1c1.4-0.5,2.7-0.8,4-0.8c0.6,0,1.2,0.1,1.8,0.2
			s1.1,0.3,1.5,0.6c0.4,0.3,0.8,0.7,1.1,1.2c0.3,0.5,0.4,1.1,0.4,1.7c0,0.3,0,0.6-0.1,0.8C105,46.1,105,46.3,104.8,46.6L104.8,46.6z
			"/>
		<path fill="#FFFFFF" d="M125.1,40.7c0.2,0.2,0.3,0.4,0.4,0.6c0.1,0.2,0.2,0.4,0.2,0.7c0,0.6-0.2,1.2-0.5,1.7
			c-0.3,0.5-0.7,1-1.1,1.3c-0.5,0.4-1,0.7-1.6,1c-0.6,0.3-1.2,0.5-1.8,0.6c-0.3,0.1-0.7,0.2-1,0.3c-0.3,0.1-0.7,0.2-1,0.3
			c-0.3,0.1-0.6,0.3-0.9,0.4c-0.3,0.2-0.5,0.4-0.8,0.7l0,0c-0.2,0.4-0.4,0.8-0.5,1.2c-0.1,0.4-0.2,0.8-0.2,1.2
			c-0.1,1.5-0.1,3-0.2,4.4c0,1.4-0.1,2.9-0.2,4.4c0,0.4-0.1,0.8-0.2,1.2c-0.1,0.4-0.2,0.8-0.4,1.2c-0.2,0.4-0.5,0.7-0.8,0.9
			c-0.3,0.2-0.8,0.4-1.2,0.4H113c-0.6,0-1-0.1-1.4-0.4c-0.3-0.3-0.6-0.6-0.7-1c-0.2-0.4-0.3-0.8-0.3-1.3c0-0.5-0.1-0.9-0.1-1.3
			c0-1.2,0.1-2.4,0.2-3.7c0.2-1.2,0.2-2.4,0.2-3.7c0-0.4,0-0.8,0-1.2c0-0.4-0.1-0.8-0.1-1.1c-0.1-0.2-0.3-0.3-0.6-0.3
			s-0.6,0-0.9,0.1c-0.3,0.1-0.6,0.1-1,0.1c-0.5,0-0.9-0.1-1.3-0.3c-0.4-0.2-0.6-0.6-0.6-1.1c0-0.4,0.1-0.8,0.3-1.3
			c0.2-0.4,0.5-0.9,0.8-1.3c0.3-0.4,0.7-0.8,1.1-1.1c0.4-0.3,0.8-0.5,1.2-0.7c0.3-0.1,0.5-0.2,0.8-0.3c0.3-0.1,0.5-0.1,0.8-0.2
			c0.5-0.1,1.2-0.4,1.9-0.6c0.7-0.3,1.5-0.6,2.3-0.9c0.8-0.3,1.6-0.6,2.5-0.9c0.8-0.3,1.6-0.5,2.3-0.7c0.4-0.1,0.8-0.2,1.3-0.3
			c0.4-0.1,0.8-0.1,1.2-0.1c0.4,0,0.8,0,1.1,0.1C124.5,40.2,124.8,40.4,125.1,40.7L125.1,40.7z"/>
		<path fill="#FFFFFF" d="M137.5,62.3c-0.7,0.4-1.5,0.6-2.2,0.6h-1.8c-0.5,0-1,0.1-1.5,0.1c-0.5,0-0.9,0.1-1.4,0.1
			c-1,0-1.9-0.1-2.8-0.3c-0.9-0.2-1.7-0.3-2.4-0.4h-0.7c-0.4-0.1-0.8-0.3-1.1-0.6c-0.3-0.4-0.4-0.8-0.4-1.2v-0.1
			c0.1-2.2,0.2-4.5,0.4-6.7c0.2-2.2,0.5-4.5,0.9-6.9c0.1-0.5,0.3-0.9,0.5-1.4c0.2-0.5,0.6-0.8,1-1.1l0.2-0.1
			c0.4-0.1,0.9-0.2,1.3-0.3c0.4-0.1,0.8-0.3,1.2-0.4c0.8-0.3,1.6-0.7,2.5-1c0.9-0.3,1.8-0.7,2.7-1c0.9-0.3,1.9-0.6,2.8-0.8
			c1-0.2,1.9-0.4,2.9-0.5h0.1c0.6,0,1,0.2,1.2,0.5s0.4,0.7,0.4,1.2v0.2c0,0.6-0.2,1.1-0.5,1.6c-0.4,0.5-0.8,0.9-1.3,1.3
			c-0.5,0.4-1.1,0.7-1.7,0.9c-0.6,0.2-1.2,0.4-1.7,0.5l0,0c-0.6,0.1-1,0.3-1.4,0.4c-0.4,0.1-0.8,0.2-1.2,0.2
			c-0.3,0.1-0.7,0.1-1.1,0.2c-0.4,0.1-0.8,0.1-1.1,0.2c-0.4,0.1-0.7,0.2-1,0.4s-0.6,0.4-0.8,0.6l0,0c-0.2,0.4-0.4,0.9-0.4,1.3v0.1
			c0,0.1,0,0.2,0,0.3c0,0.1,0.1,0.2,0.2,0.2c0.1,0,0.2,0,0.4-0.1l0.4-0.1l0,0c0.5-0.1,1-0.3,1.6-0.5c0.5-0.2,1.1-0.3,1.7-0.5h0
			c0.4-0.1,0.8-0.2,1.2-0.2c0.6,0,1.2,0.2,1.7,0.5c0.5,0.3,0.7,0.8,0.7,1.4c0,0.2,0,0.3,0,0.4v0c-0.1,0.4-0.2,0.9-0.5,1.3
			c-0.2,0.4-0.6,0.8-0.9,1.1c-0.4,0.3-0.8,0.6-1.2,0.8c-0.4,0.2-0.9,0.3-1.4,0.3c-0.1,0-0.1,0-0.2,0c-0.1,0-0.1,0-0.2,0H132
			c-0.4,0-1,0.1-1.5,0.2c-0.6,0.2-1.1,0.3-1.6,0.4c-0.3,0.1-0.5,0.4-0.6,0.7c-0.1,0.3-0.2,0.6-0.2,0.9v0.1c0,0,0,0,0,0.1
			c0,0.1,0,0.2,0.1,0.3c0.1,0.1,0.1,0.2,0.3,0.3c0.1,0.1,0.3,0.2,0.6,0.2c0.4,0,0.9-0.1,1.4-0.2c0.5-0.1,1-0.2,1.4-0.2h0.4
			c0.3,0,0.6,0,0.9,0c0.3,0,0.6,0,0.8,0c0.4,0,0.8,0,1.1-0.1c0.3-0.1,0.6-0.1,0.9-0.2c0.3-0.1,0.5-0.1,0.8-0.2
			c0.2-0.1,0.5-0.1,0.7-0.1c0.6,0,1.1,0.2,1.6,0.5c0.5,0.3,0.7,0.7,0.7,1.3c0,0.3-0.1,0.6-0.2,0.9c-0.1,0.3-0.3,0.6-0.4,0.9
			C138.7,61.4,138.2,61.9,137.5,62.3z"/>
		<path fill="#FFFFFF" d="M159.9,43.2c0.2,0.3,0.5,0.7,0.6,1c0.2,0.4,0.3,0.9,0.3,1.4c0,0.8-0.3,1.5-0.7,2.2
			c-0.4,0.7-0.8,1.5-1.3,2.2c-0.2,0.3-0.4,0.6-0.7,0.9c-0.3,0.3-0.5,0.6-0.8,0.9c-0.3,0.3-0.5,0.6-0.8,1c-0.2,0.3-0.4,0.7-0.5,1
			c0.2,0.4,0.4,0.8,0.6,1.2c0.3,0.4,0.5,0.7,0.8,1.1c0.2,0.4,0.4,0.8,0.6,1.2c0.2,0.4,0.3,0.9,0.3,1.3c0,0.4-0.1,0.9-0.4,1.3
			c-0.2,0.4-0.5,0.8-0.9,1.1c-0.4,0.3-0.8,0.6-1.3,0.8c-0.5,0.2-1,0.3-1.5,0.3c-0.4,0-0.8-0.1-1.1-0.4c-0.3-0.3-0.6-0.6-0.8-1
			c-0.2-0.4-0.4-0.8-0.6-1.2c-0.2-0.4-0.3-0.7-0.4-1c-0.1-0.2-0.2-0.5-0.3-0.9c-0.1-0.4-0.3-0.7-0.5-1.1c-0.2-0.3-0.4-0.6-0.7-0.9
			c-0.3-0.2-0.6-0.4-1-0.4c-0.3,0-0.5,0.1-0.8,0.2c-0.2,0.1-0.4,0.3-0.5,0.5c-0.1,0.2-0.3,0.4-0.3,0.5c-0.1,0.2-0.1,0.3-0.1,0.4
			c0,0.5,0,1,0.1,1.5c0.1,0.5,0.1,1.2,0.1,1.9c0,0.6-0.3,1.1-0.8,1.5c-0.5,0.4-1.1,0.6-1.8,0.6c-0.3,0-0.6-0.1-0.8-0.2
			c-0.2-0.1-0.4-0.3-0.6-0.6c-0.2-0.2-0.3-0.5-0.4-0.9c-0.1-0.3-0.1-0.7-0.1-1c0-0.1,0-0.2,0-0.3s0-0.2,0-0.3c0-0.7,0-1.4,0-2.1
			c0-0.7,0-1.5,0-2.2c0-1.2,0.1-2.4,0.3-3.5c0.2-1.1,0.3-2.3,0.3-3.5c0-0.3,0-0.6,0.1-1c0.1-0.3,0.2-0.7,0.4-1s0.4-0.6,0.6-0.8
			s0.5-0.4,0.8-0.6c0.4-0.2,0.9-0.4,1.3-0.6c0.4-0.2,0.8-0.4,1.3-0.6s0.9-0.4,1.4-0.6c0.5-0.2,1-0.4,1.6-0.6
			c0.7-0.3,1.4-0.5,2.1-0.7c0.7-0.1,1.5-0.2,2.2-0.2c1,0,1.9,0.2,2.7,0.5C158.6,41.9,159.3,42.5,159.9,43.2L159.9,43.2z M153.5,47.7
			c0-0.3-0.1-0.5-0.2-0.6s-0.3-0.2-0.6-0.2c-0.2,0-0.3,0-0.4,0.1c-0.7,0.2-1.3,0.4-2,0.7c-0.6,0.3-1.4,0.5-2.1,0.6
			c-0.2,0.2-0.4,0.5-0.5,0.9c-0.1,0.3-0.2,0.7-0.2,1.1c0.6,0.2,1.1,0.4,1.5,0.4c0.2,0,0.6,0,1-0.1c0.5-0.1,0.9-0.2,1.4-0.4
			c0.5-0.2,0.9-0.5,1.3-0.8s0.6-0.7,0.7-1.2V47.7z"/>
		<path fill="#FFFFFF" d="M191.5,60.1c-0.6,0.6-1.2,1-1.8,1.5c-0.6,0.4-1.3,0.8-2,1c-0.7,0.3-1.4,0.4-2.2,0.4h-0.3
			c-0.8,0-1.6-0.1-2.3-0.3c-0.8-0.2-1.5-0.5-2.1-0.9s-1.2-0.8-1.7-1.4c-0.5-0.5-0.8-1.1-1.1-1.8c-0.2-0.7-0.4-1.3-0.5-2
			c-0.1-0.7-0.1-1.4-0.1-2.2v-0.7c0.1-1,0.3-2,0.6-3.1s0.7-2.1,1.3-3.1c0.4-0.7,1-1.5,1.6-2.2c0.7-0.7,1.4-1.4,2.2-2
			s1.7-1.1,2.6-1.4s1.8-0.6,2.7-0.6c0.5,0,1,0.1,1.4,0.3l0,0c0.2,0.1,0.4,0.1,0.6,0.1c0.2,0,0.4,0,0.7,0h0.4c0.4,0,0.8,0,1.2,0.1
			s0.7,0.3,0.9,0.7l0,0c0.3,0.4,0.6,0.8,0.8,1.2c0.3,0.4,0.4,0.9,0.4,1.4v0.2c-0.1,0.5-0.3,1.1-0.6,1.6c-0.3,0.5-0.7,1-1.1,1.4
			c-0.4,0.4-1,0.7-1.5,1s-1.1,0.4-1.7,0.4c-0.5,0-0.9-0.1-1.2-0.3c-0.3-0.2-0.6-0.4-0.9-0.7c-0.3-0.2-0.5-0.5-0.8-0.7
			c-0.3-0.2-0.6-0.3-1.1-0.3c-0.2,0-0.4,0-0.6,0.1l0,0c-0.6,0.3-1.2,0.6-1.6,1.2c-0.4,0.5-0.7,1.1-0.9,1.7c-0.2,0.6-0.4,1.2-0.5,1.8
			c-0.1,0.6-0.1,1.1-0.1,1.6c0,0.4,0,0.8,0.1,1.3s0.2,0.8,0.3,1.2s0.4,0.7,0.7,0.9c0.3,0.2,0.7,0.4,1.1,0.4c0.9-0.1,1.5-0.3,1.9-0.8
			c0.4-0.4,0.8-0.9,1.2-1.5c0.3-0.5,0.7-1.1,1-1.6s0.9-0.8,1.6-1h0.2c0.5,0,1,0.1,1.4,0.2c0.4,0.2,0.8,0.4,1.2,0.7
			c0.3,0.3,0.6,0.6,0.8,1c0.2,0.4,0.3,0.8,0.3,1.3c0,0.4-0.1,0.8-0.3,1.3c-0.2,0.4-0.4,0.8-0.8,1.1C192.5,59,192,59.6,191.5,60.1z"
			/>
		<path fill="#FFFFFF" d="M210.6,61.5c-0.4,0.5-1,0.8-1.6,1c-0.7,0.2-1.4,0.4-2.2,0.4c-0.8,0.1-1.6,0.1-2.3,0.1h-2.1
			c-0.6,0-1.2,0-2-0.1s-1.4-0.1-2-0.3c-0.6-0.1-1.2-0.4-1.6-0.7c-0.4-0.3-0.6-0.7-0.6-1.3c0-0.4,0-0.7,0.1-1.1c0-0.3,0.1-0.7,0.1-1
			c0.1-0.9,0.2-1.7,0.2-2.6c0-0.8,0-1.7,0-2.6v-1.3c0-0.6,0-1.1,0-1.7c0-0.6,0-1.2,0.1-1.7c0-0.4,0.1-0.9,0.2-1.5s0.3-1.2,0.6-1.7
			s0.7-1,1.1-1.4c0.5-0.4,1.1-0.6,1.8-0.6c0.4,0,0.8,0.1,1.1,0.3s0.4,0.5,0.4,0.9l-0.1,0.4v0c-0.3,1.7-0.5,3.4-0.8,5
			c-0.2,1.6-0.3,3.3-0.3,4.9c0,0.5,0,0.9,0,1.4c0,0.5,0.1,0.9,0.1,1.4c0.2,0.1,0.4,0.1,0.7,0.1c0.3,0,0.6,0,0.9-0.1
			c0.3-0.1,0.6-0.1,1-0.2h0.3c0.2,0,0.5,0,0.8,0.1s0.4,0.1,0.5,0.1c0.3,0,0.6,0,0.9-0.1s0.7-0.2,1-0.3c0.3-0.1,0.7-0.2,1-0.3
			c0.3-0.1,0.6-0.1,0.9-0.1c0.7,0,1.2,0.2,1.7,0.7c0.4,0.4,0.7,1,0.7,1.5c0,0,0,0.1,0,0.1c0,0.1,0,0.1,0,0.1
			C211.2,60.4,211,61,210.6,61.5z"/>
		<path fill="#FFFFFF" d="M224.3,43.7c0,0.5-0.2,0.9-0.5,1.1c-0.3,0.3-0.7,0.5-1.1,0.7c-0.4,0.2-0.8,0.4-1.2,0.6
			c-0.4,0.2-0.6,0.4-0.7,0.7v0.7c-0.1,1.2-0.2,2.3-0.5,3.5s-0.4,2.2-0.5,3.3v0.4c0,0.3,0,0.5,0,0.8c0,0.3,0.1,0.5,0.2,0.7
			c0.1,0.2,0.2,0.4,0.4,0.6c0.2,0.2,0.5,0.3,0.8,0.4l0.1,0l0,0c0.2,0.1,0.5,0.1,0.8,0.2s0.5,0.2,0.7,0.3s0.4,0.3,0.5,0.5
			c0.1,0.2,0.2,0.5,0.2,0.7v0.2c-0.1,0.4-0.2,0.8-0.5,1.2c-0.2,0.4-0.6,0.7-0.9,1c-0.4,0.3-0.8,0.5-1.2,0.6
			c-0.4,0.2-0.9,0.3-1.4,0.3h-0.2c-0.5,0-0.9,0-1.4-0.1c-0.4-0.1-0.9-0.1-1.2-0.2c-0.3,0-0.7,0-1,0.1c-0.4,0.1-0.8,0.1-1.2,0.1h-0.2
			c-0.1,0-0.2,0-0.3-0.1v0.2l-0.4-0.3c-0.1-0.1-0.2-0.1-0.2-0.2h0c-0.3-0.3-0.5-0.7-0.7-1c-0.1-0.3-0.2-0.6-0.2-0.9v-0.1
			c0-0.5,0.2-0.9,0.6-1.2c0.4-0.3,0.8-0.6,1.2-0.7h0c0.2-0.1,0.5-0.2,0.8-0.4c0.3-0.2,0.5-0.4,0.5-0.7c0-0.3,0-0.7,0-1.1
			c0-0.4-0.1-0.7-0.1-1.1c0-0.8,0.1-1.6,0.2-2.4s0.2-1.6,0.3-2.4v-0.6c0-0.5,0-1-0.1-1.5c-0.2,0-0.4-0.1-0.7-0.2
			c-0.2-0.1-0.5-0.2-0.7-0.3c-0.2-0.1-0.4-0.3-0.5-0.4c-0.1-0.2-0.2-0.4-0.2-0.7c0-0.5,0.2-1,0.5-1.4c0.3-0.4,0.6-0.9,1-1.2
			c0.4-0.4,0.8-0.7,1.2-0.9c0.4-0.2,0.9-0.4,1.3-0.5c0.5-0.1,0.9-0.2,1.2-0.3c0.3-0.1,0.7-0.2,1-0.3c0.3-0.1,0.6-0.2,0.9-0.2
			c0.3-0.1,0.6-0.1,0.9-0.2l-0.1,0c0.1,0,0.2-0.1,0.2-0.1c0,0,0.1,0,0.1,0c0.3,0,0.6,0.1,0.9,0.2c0.2,0.1,0.4,0.3,0.6,0.5
			c0.2,0.2,0.3,0.4,0.4,0.7c0.1,0.3,0.2,0.5,0.2,0.8V43.7z"/>
		<path fill="#FFFFFF" d="M239.8,60.1c-0.6,0.6-1.2,1-1.8,1.5c-0.6,0.4-1.3,0.8-2,1c-0.7,0.3-1.4,0.4-2.2,0.4h-0.3
			c-0.8,0-1.6-0.1-2.3-0.3c-0.8-0.2-1.5-0.5-2.1-0.9s-1.2-0.8-1.7-1.4c-0.5-0.5-0.8-1.1-1.1-1.8c-0.2-0.7-0.4-1.3-0.5-2
			c-0.1-0.7-0.1-1.4-0.1-2.2v-0.7c0.1-1,0.3-2,0.6-3.1s0.7-2.1,1.3-3.1c0.4-0.7,1-1.5,1.6-2.2c0.7-0.7,1.4-1.4,2.2-2
			s1.7-1.1,2.6-1.4s1.8-0.6,2.7-0.6c0.5,0,1,0.1,1.4,0.3l0,0c0.2,0.1,0.4,0.1,0.6,0.1c0.2,0,0.4,0,0.7,0h0.4c0.4,0,0.8,0,1.2,0.1
			s0.7,0.3,0.9,0.7l0,0c0.3,0.4,0.6,0.8,0.8,1.2c0.3,0.4,0.4,0.9,0.4,1.4v0.2c-0.1,0.5-0.3,1.1-0.6,1.6c-0.3,0.5-0.7,1-1.1,1.4
			c-0.4,0.4-1,0.7-1.5,1s-1.1,0.4-1.7,0.4c-0.5,0-0.9-0.1-1.2-0.3c-0.3-0.2-0.6-0.4-0.9-0.7c-0.3-0.2-0.5-0.5-0.8-0.7
			c-0.3-0.2-0.6-0.3-1.1-0.3c-0.2,0-0.4,0-0.6,0.1l0,0c-0.6,0.3-1.2,0.6-1.6,1.2c-0.4,0.5-0.7,1.1-0.9,1.7c-0.2,0.6-0.4,1.2-0.5,1.8
			c-0.1,0.6-0.1,1.1-0.1,1.6c0,0.4,0,0.8,0.1,1.3s0.2,0.8,0.3,1.2s0.4,0.7,0.7,0.9c0.3,0.2,0.7,0.4,1.1,0.4c0.9-0.1,1.5-0.3,1.9-0.8
			c0.4-0.4,0.8-0.9,1.2-1.5c0.3-0.5,0.7-1.1,1-1.6s0.9-0.8,1.6-1h0.2c0.5,0,1,0.1,1.4,0.2c0.4,0.2,0.8,0.4,1.2,0.7
			c0.3,0.3,0.6,0.6,0.8,1c0.2,0.4,0.3,0.8,0.3,1.3c0,0.4-0.1,0.8-0.3,1.3c-0.2,0.4-0.4,0.8-0.8,1.1C240.9,59,240.4,59.6,239.8,60.1z
			"/>
		<path fill="#FFFFFF" d="M257.6,56.2c0.5,0.6,0.9,1.2,1.1,2c0.1,0.2,0.2,0.3,0.2,0.5s0.1,0.3,0.1,0.4c0,0.4-0.1,0.8-0.2,1.2
			c-0.1,0.4-0.4,0.8-0.6,1.2c-0.3,0.4-0.6,0.7-1,0.9c-0.4,0.3-0.8,0.4-1.3,0.5h-0.2c-0.3,0-0.5-0.1-0.8-0.2
			c-0.2-0.1-0.4-0.2-0.6-0.4s-0.3-0.3-0.4-0.5c-0.1-0.2-0.2-0.4-0.3-0.6c-0.3-0.7-0.6-1.3-0.9-2c-0.3-0.7-0.6-1.3-1-1.9
			c-0.3-0.6-0.7-1.1-1.2-1.6c-0.4-0.5-0.9-0.9-1.4-1.3c-0.4,0.5-0.7,1-0.8,1.6c-0.1,0.6-0.1,1.2-0.1,1.7v1.3c0,0.3,0,0.6-0.1,0.9
			c-0.1,0.3-0.2,0.6-0.4,0.9c-0.2,0.3-0.4,0.5-0.6,0.7c-0.2,0.2-0.5,0.3-0.9,0.3h-0.2c-0.3-0.1-0.6-0.2-0.8-0.3s-0.4-0.4-0.6-0.6
			s-0.3-0.5-0.4-0.8c-0.1-0.3-0.1-0.6-0.1-0.8c0-1.6,0.1-3.1,0.2-4.7c0.1-1.5,0.2-3.1,0.4-4.7v-1.1c0-0.3,0-0.6,0-1s0-0.7,0.1-1
			v-0.1c0-0.3,0.1-0.6,0.2-0.9s0.3-0.7,0.5-1s0.4-0.6,0.7-0.8s0.6-0.4,0.9-0.6l0.2-0.1h0c0.2-0.1,0.5-0.2,0.8-0.2
			c0.4,0,0.8,0.2,1,0.5c0.2,0.3,0.4,0.7,0.4,1.2c0,0.7-0.1,1.4-0.3,2.1s-0.3,1.3-0.4,1.8c0,0.1,0,0.2,0,0.3c0,0.1,0,0.2,0,0.2
			c0.3-0.4,0.6-0.8,0.9-1.2c0.3-0.4,0.6-0.8,0.9-1.3c0.4-0.6,0.9-1.3,1.6-2.1c0.6-0.8,1.3-1.6,2-2.3s1.4-1.3,2.1-1.8
			c0.7-0.5,1.4-0.8,2-0.8c0.5,0,0.9,0.2,1.2,0.5s0.5,0.7,0.5,1.1v0.1c0,0.3-0.1,0.5-0.2,0.8c-0.1,0.2-0.2,0.5-0.3,0.8h0
			c-0.2,0.8-0.7,1.4-1.3,2c-0.6,0.6-1.2,1.1-1.8,1.6c-0.6,0.5-1.2,1-1.8,1.5c-0.6,0.5-1,1.1-1.2,1.8c0.1,0.9,0.4,1.6,0.9,2.3
			c0.5,0.7,1.1,1.3,1.7,2C256.7,55,257.2,55.6,257.6,56.2z"/>
		<path fill="#FFFFFF" d="M275.6,62.3c-0.7,0.4-1.5,0.6-2.2,0.6h-1.8c-0.5,0-1,0.1-1.5,0.1c-0.5,0-0.9,0.1-1.4,0.1
			c-1,0-1.9-0.1-2.8-0.3c-0.9-0.2-1.7-0.3-2.3-0.4h-0.7c-0.4-0.1-0.8-0.3-1.1-0.6c-0.3-0.4-0.4-0.8-0.4-1.2v-0.1
			c0.1-2.2,0.2-4.5,0.4-6.7c0.2-2.2,0.5-4.5,0.9-6.9c0.1-0.5,0.3-0.9,0.5-1.4c0.2-0.5,0.6-0.8,1-1.1l0.2-0.1
			c0.4-0.1,0.9-0.2,1.3-0.3c0.4-0.1,0.8-0.3,1.2-0.4c0.8-0.3,1.6-0.7,2.5-1c0.9-0.3,1.8-0.7,2.7-1c0.9-0.3,1.9-0.6,2.8-0.8
			c1-0.2,1.9-0.4,2.9-0.5h0.1c0.6,0,1,0.2,1.2,0.5s0.4,0.7,0.4,1.2v0.2c0,0.6-0.2,1.1-0.5,1.6c-0.4,0.5-0.8,0.9-1.3,1.3
			c-0.5,0.4-1.1,0.7-1.7,0.9s-1.2,0.4-1.7,0.5l0,0c-0.6,0.1-1,0.3-1.4,0.4c-0.4,0.1-0.8,0.2-1.2,0.2c-0.3,0.1-0.7,0.1-1.1,0.2
			c-0.4,0.1-0.8,0.1-1.1,0.2c-0.4,0.1-0.7,0.2-1,0.4s-0.6,0.4-0.8,0.6l0,0c-0.2,0.4-0.4,0.9-0.4,1.3v0.1c0,0.1,0,0.2,0,0.3
			c0,0.1,0.1,0.2,0.2,0.2c0.1,0,0.2,0,0.4-0.1l0.4-0.1l0,0c0.5-0.1,1-0.3,1.6-0.5c0.5-0.2,1.1-0.3,1.7-0.5h0
			c0.4-0.1,0.8-0.2,1.2-0.2c0.6,0,1.2,0.2,1.7,0.5c0.5,0.3,0.7,0.8,0.7,1.4c0,0.2,0,0.3,0,0.4v0c-0.1,0.4-0.2,0.9-0.5,1.3
			c-0.2,0.4-0.6,0.8-0.9,1.1c-0.4,0.3-0.8,0.6-1.2,0.8c-0.4,0.2-0.9,0.3-1.4,0.3c-0.1,0-0.1,0-0.2,0s-0.1,0-0.2,0h-0.5
			c-0.4,0-1,0.1-1.5,0.2s-1.1,0.3-1.6,0.4c-0.3,0.1-0.5,0.4-0.6,0.7c-0.1,0.3-0.2,0.6-0.2,0.9v0.1c0,0,0,0,0,0.1
			c0,0.1,0,0.2,0.1,0.3c0.1,0.1,0.1,0.2,0.3,0.3c0.1,0.1,0.3,0.2,0.6,0.2c0.4,0,0.9-0.1,1.4-0.2c0.5-0.1,1-0.2,1.4-0.2h0.4
			c0.3,0,0.6,0,0.9,0c0.3,0,0.6,0,0.8,0c0.4,0,0.8,0,1.1-0.1c0.3-0.1,0.6-0.1,0.9-0.2c0.3-0.1,0.5-0.1,0.8-0.2
			c0.2-0.1,0.5-0.1,0.7-0.1c0.6,0,1.1,0.2,1.6,0.5c0.5,0.3,0.7,0.7,0.7,1.3c0,0.3-0.1,0.6-0.2,0.9c-0.1,0.3-0.3,0.6-0.4,0.9
			C276.9,61.4,276.3,61.9,275.6,62.3z"/>
		<path fill="#FFFFFF" d="M298,43.2c0.2,0.3,0.5,0.7,0.6,1c0.2,0.4,0.3,0.9,0.3,1.4c0,0.8-0.3,1.5-0.7,2.2c-0.4,0.7-0.8,1.5-1.3,2.2
			c-0.2,0.3-0.4,0.6-0.7,0.9c-0.3,0.3-0.5,0.6-0.8,0.9c-0.3,0.3-0.5,0.6-0.8,1c-0.2,0.3-0.4,0.7-0.5,1c0.2,0.4,0.4,0.8,0.6,1.2
			c0.3,0.4,0.5,0.7,0.8,1.1c0.2,0.4,0.4,0.8,0.6,1.2c0.2,0.4,0.3,0.9,0.3,1.3c0,0.4-0.1,0.9-0.4,1.3c-0.2,0.4-0.5,0.8-0.9,1.1
			c-0.4,0.3-0.8,0.6-1.3,0.8c-0.5,0.2-1,0.3-1.5,0.3c-0.4,0-0.8-0.1-1.1-0.4c-0.3-0.3-0.6-0.6-0.8-1c-0.2-0.4-0.4-0.8-0.6-1.2
			c-0.2-0.4-0.3-0.7-0.4-1c-0.1-0.2-0.2-0.5-0.3-0.9c-0.1-0.4-0.3-0.7-0.5-1.1c-0.2-0.3-0.4-0.6-0.7-0.9c-0.3-0.2-0.6-0.4-1-0.4
			c-0.3,0-0.5,0.1-0.8,0.2c-0.2,0.1-0.4,0.3-0.5,0.5c-0.1,0.2-0.3,0.4-0.3,0.5c-0.1,0.2-0.1,0.3-0.1,0.4c0,0.5,0,1,0.1,1.5
			c0.1,0.5,0.1,1.2,0.1,1.9c0,0.6-0.3,1.1-0.8,1.5c-0.5,0.4-1.1,0.6-1.8,0.6c-0.3,0-0.6-0.1-0.8-0.2c-0.2-0.1-0.4-0.3-0.6-0.6
			s-0.3-0.5-0.4-0.9s-0.1-0.7-0.1-1c0-0.1,0-0.2,0-0.3s0-0.2,0-0.3c0-0.7,0-1.4,0-2.1c0-0.7,0-1.5,0-2.2c0-1.2,0.1-2.4,0.3-3.5
			c0.2-1.1,0.3-2.3,0.3-3.5c0-0.3,0-0.6,0.1-1c0.1-0.3,0.2-0.7,0.4-1s0.4-0.6,0.6-0.8s0.5-0.4,0.8-0.6c0.4-0.2,0.9-0.4,1.3-0.6
			c0.4-0.2,0.8-0.4,1.3-0.6s0.9-0.4,1.4-0.6c0.5-0.2,1-0.4,1.6-0.6c0.7-0.3,1.4-0.5,2.1-0.7c0.7-0.1,1.5-0.2,2.2-0.2
			c1,0,1.9,0.2,2.7,0.5C296.8,41.9,297.5,42.5,298,43.2L298,43.2z M291.6,47.7c0-0.3-0.1-0.5-0.2-0.6c-0.1-0.2-0.3-0.2-0.6-0.2
			c-0.2,0-0.3,0-0.4,0.1c-0.7,0.2-1.3,0.4-2,0.7c-0.6,0.3-1.4,0.5-2.1,0.6c-0.2,0.2-0.4,0.5-0.5,0.9s-0.2,0.7-0.2,1.1
			c0.6,0.2,1.1,0.4,1.5,0.4c0.2,0,0.6,0,1-0.1s0.9-0.2,1.4-0.4c0.5-0.2,0.9-0.5,1.3-0.8c0.4-0.3,0.6-0.7,0.7-1.2V47.7z"/>
	</g>
</g>
</svg>
