<?xml version="1.0" encoding="utf-8"?>
<!-- Generator: Adobe Illustrator 17.0.0, SVG Export Plug-In . SVG Version: 6.00 Build 0)  -->
<!DOCTYPE svg PUBLIC "-//W3C//DTD SVG 1.1//EN" "http://www.w3.org/Graphics/SVG/1.1/DTD/svg11.dtd">
<svg version="1.1" id="Calque_1" xmlns="http://www.w3.org/2000/svg" xmlns:xlink="http://www.w3.org/1999/xlink" x="0px" y="0px"
	 width="105.4px" height="106.3px" viewBox="0 0 105.4 106.3" enable-background="new 0 0 105.4 106.3" xml:space="preserve">
<g>
	<path fill="#F5CB9F" d="M88.4,92.7c-0.5,0.8-1.3,1.2-2,1.8c-3,2.5-6.3,4.5-9.7,6.3c-4.3,2.2-8.9,3.6-13.6,4.6
		c-4.2,0.8-8.4,1.1-12.7,0.9c-2.3-0.1-4.5-0.4-6.7-0.8c-3.6-0.6-7.1-1.6-10.5-3c-5-2-9.5-4.7-13.6-8.1c-4.5-3.7-8.3-8-11.4-12.9
		c-2.1-3.4-3.9-7-5.2-10.8c-1-3-1.8-6.1-2.3-9.2c-0.3-1.5-0.4-3.1-0.5-4.6C0,55.3,0,53.7,0,52.1c0-3.8,0.5-7.5,1.4-11.1
		c1.1-4.6,2.8-9,5-13.2c1.8-3.4,4-6.5,6.5-9.4c0.7-0.8,1.5-1.6,2.2-2.4c3.6-4,8-7.1,12.7-9.7c3.6-2,7.5-3.5,11.5-4.6
		c2.3-0.6,4.7-1,7.1-1.3C48.9,0.1,51.3,0,53.8,0c3.8,0,7.5,0.5,11.1,1.3c1.3,0.3,2.6,0.7,3.8,1c0.5,0.1,0.6,0.3,0.5,0.8
		c-0.4,1.5-1,2.9-1.5,4.4c-0.8,2.4-1.4,4.7-1.8,7.2c-0.2,1.7-0.4,3.3-0.1,5c0.2,1.5,0.9,2.6,2.2,3.4c3,2.1,5.2,4.8,7,7.9
		c1.6,2.8,2.8,5.8,4,8.8c0.8,2.2,1.6,4.4,2.5,6.6c-1.7,0-2.8,0.9-3.7,2.2c-0.4,0.6-0.8,1.2-1,1.9c-0.7,2.1-1,4.2-0.2,6.3
		c0.5,1.5,1.7,2.4,3.4,2.4c0.8,0,1.5-0.2,2.2-0.5c2.1-0.8,3.6-2.2,3.9-4.6c0.2-1.3,0-2.6-0.4-3.9c2.4,0.6,4.8,0.9,7.2,1.2
		c2.9,0.4,5.7,0.8,8.4,1.9c0.2,0.1,0.4,0.2,0.6,0.2c0.5,0.2,0.8,0.4,0.8,1c0.1,0.9,0.5,1.2,1.4,1.2c0.3,0,0.3,0.1,0.3,0.3
		c-0.3,2,0.1,3.8,0.9,5.5c0.3,0.7,0.1,1.3-0.1,1.9c-0.7,3.5-1.7,6.9-3.1,10.1c-1,2.2-2.1,4.4-3.3,6.5c-0.1,0.1-0.2,0.2-0.2,0.3
		c-0.2-0.4-0.3-0.9-0.9-0.9c-0.5,0-0.9,0-1.4,0.1c-1.7,0.3-3.3,1.1-4.9,1.9c-1.9,1-3.8,2.1-5.2,3.8c-0.5,0.5-1,1.1-1,1.8
		c0,0.9,0.1,1.9,0.4,2.7C86.1,91.4,86.8,92.6,88.4,92.7z M13.8,61.7c2.4,0,4.1-0.3,5.4-0.8c0.4-0.2,0.5-0.3,0.4-0.7
		c-0.3-0.7-0.5-1.4-0.8-2.1c-1.2-2.8-2.5-5.5-4.8-7.6c-1.1-1.1-2.5-1.9-4.1-1.9c-0.2,0-0.4,0-0.6,0.2c-1.7,2-3.2,4.1-3.8,6.7
		c-0.6,2.4,0.1,4.1,2.5,5C10.1,61.3,12.2,61.7,13.8,61.7z M42.9,88.3c0-1.9-0.1-3.7-0.7-5.4C42,82.2,41.7,81.4,41,81
		c-0.8-0.5-1.6-0.8-2.4-1c-2.1-0.6-3.8,0.4-4.2,2.6c-0.3,1.7-0.2,3.3,0,5c0.3,2.7,1.1,5.3,2.9,7.5c0.7,0.9,1.6,1.7,2.8,2
		c0.7,0.2,1,0.1,1.4-0.6c0.3-0.5,0.5-1,0.6-1.6C42.6,92.7,42.8,90.5,42.9,88.3z M62.7,18.1c0-1.8-0.6-3.5-1.7-5
		c-0.6-0.8-1.3-1.5-2.3-1.7c-1.7-0.4-3,0.3-4,1.5c-1.8,2.1-2.3,4.7-2,7.4c0.3,2.9,2.1,4.4,5.1,3.7C60.8,23.2,62.7,20.9,62.7,18.1z
		 M47.6,49.4c0-2.3-0.6-3.9-1.6-5.4c-0.6-0.9-1.4-1.6-2.5-1.8c-1.6-0.3-2.8,0.4-3.7,1.6c-1.8,2.2-2.4,4.8-2,7.7
		c0.4,2.7,2.2,4,4.8,3.4C45.5,54.2,47.7,52.1,47.6,49.4z M66.8,70.1c-2.3,0-3.2,1.1-2.9,3.2c0.2,1.5,0.7,2.9,1.5,4.2
		c0.7,1.2,1.6,2.3,3,2.8c2.2,0.8,4.1,0.1,5.7-1.3c0.9-0.8,1.1-1.8,0.7-3c-0.3-0.8-0.7-1.5-1.2-2.2C71.9,71.6,69.6,70.3,66.8,70.1z
		 M29,32.8c1.4,0,2.8-0.5,3.8-1.3c1.2-1,1.6-2.2,1-3.6c-0.7-1.8-2-3.1-3.5-4.2c-1.3-0.9-2.8-1.4-4.4-1.5c-1.6-0.1-3.2,0.5-2.9,2.7
		c0.3,2.5,1.1,4.8,3,6.5C26.8,32.4,27.8,32.9,29,32.8z"/>
	<path fill="#93665C" d="M88.4,92.7c-1.6-0.2-2.3-1.3-2.8-2.7c-0.3-0.9-0.4-1.8-0.4-2.7c0-0.7,0.5-1.3,1-1.8
		c1.5-1.7,3.3-2.8,5.2-3.8c1.6-0.8,3.1-1.5,4.9-1.9c0.5-0.1,0.9-0.1,1.4-0.1c0.5,0,0.7,0.5,0.9,0.9c0.5,2.8-0.6,5-2.2,7.1
		c-1.4,1.7-3.1,3.1-5.1,4.2C90.4,92.4,89.4,92.7,88.4,92.7z"/>
	<path fill="#93665C" d="M85.6,50.4c0.4,1.3,0.6,2.6,0.4,3.9c-0.4,2.3-1.8,3.7-3.9,4.6c-0.7,0.3-1.5,0.5-2.2,0.5
		c-1.6,0-2.8-0.9-3.4-2.4c-0.7-2.1-0.5-4.2,0.2-6.3c0.2-0.7,0.6-1.3,1-1.9c0.9-1.3,2.1-2.2,3.7-2.2c1.3,0.1,2.2,0.9,3,1.9
		C84.9,48.9,85.3,49.6,85.6,50.4z"/>
	<path fill="#93665C" d="M13.8,61.7c-1.6,0-3.8-0.5-5.8-1.2c-2.4-0.9-3.1-2.6-2.5-5c0.7-2.6,2.2-4.7,3.8-6.7
		c0.2-0.2,0.3-0.2,0.6-0.2c1.7,0,3,0.8,4.1,1.9c2.2,2.1,3.6,4.8,4.8,7.6c0.3,0.7,0.5,1.4,0.8,2.1c0.2,0.4,0,0.6-0.4,0.7
		C17.9,61.4,16.2,61.7,13.8,61.7z"/>
	<path fill="#93665C" d="M42.9,88.3c-0.1,2.1-0.2,4.3-0.8,6.5c-0.1,0.6-0.3,1.1-0.6,1.6C41,97.1,40.8,97.2,40,97
		c-1.2-0.3-2-1.1-2.8-2c-1.8-2.2-2.6-4.8-2.9-7.5c-0.2-1.6-0.4-3.3,0-5c0.5-2.2,2.1-3.2,4.2-2.6c0.8,0.3,1.7,0.6,2.4,1
		c0.7,0.4,1,1.1,1.2,1.9C42.7,84.7,42.8,86.5,42.9,88.3z"/>
	<path fill="#93665C" d="M62.7,18.1c0,2.8-1.9,5.1-4.9,5.8c-3,0.7-4.8-0.8-5.1-3.7c-0.3-2.7,0.2-5.2,2-7.4c1-1.2,2.3-1.9,4-1.5
		c1,0.2,1.7,1,2.3,1.7C62.2,14.6,62.7,16.3,62.7,18.1z"/>
	<path fill="#93665C" d="M47.6,49.4c0.1,2.8-2.1,4.8-5.1,5.5c-2.6,0.6-4.4-0.7-4.8-3.4c-0.4-2.8,0.2-5.4,2-7.7
		c0.9-1.2,2.2-1.8,3.7-1.6c1.1,0.2,1.8,0.9,2.5,1.8C47,45.5,47.6,47.1,47.6,49.4z"/>
	<path fill="#93665C" d="M66.8,70.1c2.7,0.2,5,1.4,6.8,3.7c0.5,0.7,1,1.4,1.2,2.2c0.4,1.1,0.2,2.2-0.7,3c-1.7,1.4-3.5,2.2-5.7,1.3
		c-1.4-0.5-2.3-1.6-3-2.8c-0.7-1.3-1.2-2.7-1.5-4.2C63.6,71.2,64.6,70.1,66.8,70.1z"/>
	<path fill="#93665C" d="M29,32.8c-1.2,0.1-2.2-0.4-3.1-1.3c-1.9-1.8-2.7-4.1-3-6.5c-0.2-2.2,1.3-2.8,2.9-2.7
		c1.6,0.1,3.1,0.5,4.4,1.5c1.5,1.1,2.8,2.4,3.5,4.2c0.6,1.4,0.2,2.5-1,3.6C31.8,32.3,30.4,32.8,29,32.8z"/>
</g>
</svg>
