<?xml version="1.0" encoding="utf-8"?>
<!-- Generator: Adobe Illustrator 17.0.0, SVG Export Plug-In . SVG Version: 6.00 Build 0)  -->
<!DOCTYPE svg PUBLIC "-//W3C//DTD SVG 1.1//EN" "http://www.w3.org/Graphics/SVG/1.1/DTD/svg11.dtd">
<svg version="1.1" id="Calque_1" xmlns="http://www.w3.org/2000/svg" xmlns:xlink="http://www.w3.org/1999/xlink" x="0px" y="0px"
	 width="356.9px" height="331.1px" viewBox="0 0 356.9 331.1" enable-background="new 0 0 356.9 331.1" xml:space="preserve">
<g>
	<path fill="#FFFFFF" stroke="#000102" stroke-width="3" stroke-miterlimit="10" d="M176.7,47.9c0,25.6,19.4,46.4,45.9,46.4
		s48.1-20.8,48.1-46.4S249.2,1.5,222.6,1.5S176.7,22.3,176.7,47.9z"/>
	<path fill="#297AA9" stroke="#000102" stroke-width="2" stroke-miterlimit="10" d="M300.3,269c-0.7,3.8-1.4,7.6-2.7,11.3
		c-1.4,3.9-3.7,7.1-7,9.7c-5.1,4-10.5,7.4-16,10.6c-0.4,0.3-0.9,0.9-1.5,0.4c-0.5-0.4-0.1-1.1,0.1-1.6c0.6-3,1.3-6.1,2.1-9.7
		c-4.3,3.3-7.5,6.7-9.9,10.8c-1.3,2.3-2.5,4.6-4,6.9c-3.9,6.2-9.7,8.8-16.7,9.5c-3.5,0.3-6.9,0.6-10.4,0.8c-1.9,0.1-3.4,0.8-4.5,2.3
		c-3.6,5.2-8.9,7.5-14.9,8.2c-5.3,0.7-10.5,1.2-15.9,0.9c-4.7-0.3-4.8-0.5-2.7-4.6c-0.2-0.3-0.4-0.2-0.7-0.1
		c-7.3,4.7-15.4,5.9-23.8,5.6c-8.2-0.3-16.4-1.2-24.4-3c-5-1.1-9.3-3.6-13.7-5.9c-2.2-1.2-4.5-2.4-6.8-3.6c-0.2,0.8,0.2,1.1,0.5,1.4
		c0.5,0.6,1.1,1.4,0.6,2.2c-0.7,0.9-1.7,1-2.9,0.7c-2.5-0.7-4.8-1.8-7-3c-4.8-2.5-9.1-5.6-13.2-9.1c-3.8-3.2-7.9-6.1-11.8-9.1
		c-0.3-0.2-0.6-0.3-1.1-0.1c0.8,2.8,1.6,5.5,3.7,7.6c0.9,0.9,0.5,1.4-0.3,1.9c-2.1,1.4-5.2,0.6-8-1.5c-8.2-6.1-14.9-13.6-22.1-20.7
		c-0.3-0.3-0.6-0.6-1.1-0.5c-0.7,0.1-0.5,0.7-0.5,1.2c0.1,1.9-0.7,3.6-0.9,5.5c-0.1,1-0.8,1.3-1.6,0.5c-5-5.3-10.4-10.2-12.7-17.5
		c-1.6-5.3-3.8-10.5-5.8-15.7c-1.1,0.7-1.2,1.8-1.6,2.7c-0.5,0.9-0.8,1.6-1.6,0.3c-1.9-2.9-4.2-5.5-5.5-8.7
		c-0.5-1.2-1.5-2.2-2.1-3.3c-3.3-5.7-4.1-12.1-5.2-18.4c-0.9-5.5-1.6-11-2.5-16.9c-2.6,2.7-5,5.2-7.9,7.1c-2.8,1.9-5.8,3.6-9.6,4.8
		c0.7-1.6,1.2-2.7,1.7-3.8c3.2-7.2,5.7-14.6,3.5-22.7c-0.9-3.2-1.4-6.4-2.3-9.5c-1.9-6.5-1.9-13-1.2-19.7c0.4-3.7,0.4-7.4,0.6-11.4
		c-3,1.9-5.2,4.3-7.8,6.7c-0.1-2.9,0.5-5.4,0.7-7.8c0.6-5.2,1.5-10.3,2.3-15.5c0.9-5.6,4-9.9,7.4-14.1c2.2-2.8,4.5-5.5,6.8-8.2
		c0.6-0.7,0.4-1-0.4-1.3c-1.8-0.8-3.6-1.8-5.4-2.7c-3.6-1.9-5.1-5.2-5.8-9c-0.3-1.5,0.7-1.4,1.6-1.3c5.1,0.6,10.2,0.4,15.2-0.6
		c8.2-1.6,15.5-5.1,21.4-11c1.6-1.6,1.3-2.6-0.9-3.1c-2.8-0.6-5.7-0.4-8.5-0.5c-1.1,0-2.6,0.4-3-0.7c-0.4-0.9,0.9-1.8,1.7-2.4
		c8.3-7.3,17.9-11.5,29.1-11.2c2.5,0.1,5,0.1,8,0.2c-1.5-1.6-3.1-2.3-4.6-3.2c-1.3-0.9-2.8-1.6-4.1-2.5c-2.4-1.6-2.1-7.1,0.5-8.4
		c0.4-0.2,0.6-0.1,0.9,0.2C69,69,75,69.7,80.8,70.7c3,0.5,6.1,0.8,9.2,0.6c1.2-0.1,1.7,0.6,2.3,1.5c6.9,10.1,16.2,17.1,28.1,20.2
		c23.6,6.3,47-4.4,58-26.2c0.3-0.5,0.2-3.1,1-1.5c0.7,0.5,0.8,1.3,1.1,2c8.7,16.9,22.4,26.9,41.5,27.6c18.9,0.7,33.2-7.9,43-24
		c1.1-1.8,1.8-2.3,3.7-1.1c9.9,5.9,20.6,6.4,31.6,4.4c2.7-0.5,5.5-1,8.2-1.6c1.6-0.4,2.1,0.3,2.3,1.7c0.2,2.1,0,4-1.2,5.8
		c-1.6,2.2-3.1,4.4-4.9,6.8c1.5,0.7,3,0.5,4.5,0.7c3.1,0.4,6.2,0.9,9.3,1.4c2.7,0.5,4.8,1.8,6.6,3.8c2.5,2.9,4.5,6.1,6.2,9.4
		c0.5,1.1,0.5,1.5-0.9,1.4c-1.8-0.2-3.6-0.2-5.8-0.3c1.8,2.8,3.4,5.3,4.9,7.7c0.8,1.2,1.7,2.4,2.2,3.8c2,6.2,6.7,9.2,12.3,11.3
		c1.2,0.5,2.5,1,3.7,1.4c1.7,0.5,1.3,1.3,0.4,2.1c-1.1,1-2.4,1.6-3.9,1.8c-1.9,0.3-3.9,0.3-5.8,0.2c-0.6,0-1.4-0.5-1.7,0.2
		c-0.3,0.6,0.3,1.2,0.7,1.6c6,8.6,9,18.3,11,28.5c0.3,1.4,1.5,3.4,0.5,4.1c-1.2,1-2.7-0.8-4.1-1.3c-2.6-0.9-4.5-3-6.4-4.9
		c2,6.7,4.1,13.3,7.7,19.3c1,1.7,2.3,2.9,4.2,3.6c1.4,0.6,2.8,1.3,4.1,2.1c2.3,1.2,2.3,1.5,1,3.6c-1.6,2.6-4.1,3.2-6.9,2.8
		c-3-0.3-5.9-1.3-8.7-2.2c-2.3-0.8-2.3-0.8-2.3,1.8c0,6.3,0.1,12.5,0,18.8c0,2.1-0.4,4.2-0.7,6.2c-0.7,6.9-5.3,10.8-10.7,14.1
		c-0.8,0.5-1.1,0.2-1.2-0.6c-0.2-1.8-0.5-3.5-0.8-5.6c-1,0.9-1.3,1.9-1.7,2.8c-0.5,1.1-1,2.2-1.3,3.3c-1.6,6.9-4.2,13.3-7.6,19.6
		c-2.4,4.4-2.2,9.7-2.8,14.7c-0.5,3.9-0.8,7.9-1.2,11.9c-0.1,1,0.3,2.4-1.5,2.5c-1.6,0.1-3.1-0.2-3.7-2.1c-0.7-2.3-1.5-4.5-2.8-6.5
		C301,269.6,300.9,269.1,300.3,269z"/>
	<path fill="#FFFFFF" stroke="#000102" stroke-width="3" stroke-miterlimit="10" d="M180.3,50.7c0,25.6-19.4,46.4-45.9,46.4
		S86.3,76.3,86.3,50.7s21.5-46.4,48.1-46.4S180.3,25.1,180.3,50.7z"/>
	<path fill="#000001" d="M208.1,42.9c9.7-0.7,18.2,6.7,18.9,16.4s-6.7,18.2-16.4,19c-9.7,0.7-18.2-6.7-18.9-16.4
		C191,52.1,198.4,43.6,208.1,42.9z"/>
	<path fill="#000001" d="M164,50.2c0.7,9.8-6.7,18.2-16.4,18.9s-18.2-6.7-18.9-16.4c-0.7-9.8,6.7-18.2,16.4-18.9
		C154.9,33,163.3,40.4,164,50.2z"/>
</g>
<path fill="#000001" d="M33.1,148.7c-0.8-1-1.2-1.3-2,0.1c-0.7,1.3-1.9,2.4-3.4,2.9c-0.8,0.3-1.7,0.6-2.6-0.1
	c-0.8-0.7-0.6-1.4-0.4-2.2c0.5-2.5,1.1-4.9,2-7.3c0.8-2.2,2.3-3.2,4.4-3.6c0.9-0.2,1.8-0.2,2.7-0.4c1.8-0.3,2.4,0.1,2.2,2.1
	c-0.4,4.3,1.1,7.7,4.8,10.1c4.6,3,9.2,6,14.5,7.8c6.8,2.3,13.3,1.1,19.8-1.3c6.8-2.5,13.3-5.6,19.7-9c0.6-0.3,1.3-1.1,2.1-0.5
	c0.6,0.6,0,1.3-0.2,1.9c-1.1,3.1-1.9,6.3-3.8,9c-0.7,1.1-0.6,1.7,0.9,1.8c5.5,0.3,10.8-0.3,15.8-3.1c3.6-2,6.9-4.5,10.1-7
	c1.4-1.1,2.1-1,2.5,0.8c0.4,1.8,0.4,3.4-0.2,5.1c-0.3,0.8-0.6,1.7-0.8,2.6c-0.4,1.3,0,1.9,1.5,1.8c12-0.1,22.9-3.4,32.4-11.1
	c2.9-2.4,5.9-4.7,8.9-7c0.5-0.4,0.9-1,1.6-0.7c0.7,0.3,0.5,1.1,0.6,1.7c0.2,1.8-0.4,3.3-1.6,4.6c-1.5,1.6-3,3.1-4.5,4.7
	c-1.3,1.4-1.2,1.9,0.7,2.6c2.1,0.7,4.1,0.4,6.2-0.1c5.5-1.4,9.9-4.7,14.3-8c2.6-1.9,5.2-4,7.7-6.1c1.2-1,1.9-0.9,2.9,0.3
	c7.1,9,17.4,11.6,27.9,13.5c1.9,0.3,2.4-0.3,1.9-2.3c-0.7-2.6-2.1-4.8-3.4-7.1c-0.3-0.6-1.2-1.2-0.6-1.8c0.7-0.7,1.4,0.2,1.9,0.6
	c10.5,7.6,21.6,13.7,34.1,17.3c2.7,0.8,5.3,1.7,8.2,1.6c2.1-0.1,2.6-0.7,2.1-2.7c-0.7-2.8-2.1-5.3-3.5-7.8c-0.4-0.7-1.2-1.3-0.6-2.3
	c0.3,0.1,0.6,0.1,0.7,0.3c6.7,6.2,15.1,8.2,23.8,9c9.7,0.9,19.2-0.6,27.9-5.4c3.6-2,6.6-4.6,9.4-7.5c0.9-0.9,1.1-1.7,0.5-2.9
	c-1.3-2.6-1-4.3,0.7-5.1c2.1-1,4.2-0.2,5.4,2.4c1.7,3.5,2,7.4,2,11.2c0,1.2-0.5,1.3-1.4,0.7c-1.2-0.8-2.1-2.9-3.5-2.5
	c-1.2,0.4-0.5,2-2.8,3.5c-6.7,4.4-10,7.8-19.8,11.5c-30.5,11.2-52.3,28.1-117,28.1C118,193.3,46.7,171.4,33.1,148.7z"/>
</svg>
