<svg xmlns="http://www.w3.org/2000/svg" viewBox="0 0 1189.9 1102.32"><defs><style>.a{fill:#fff;stroke-width:4px;}.a,.b{stroke:#000102;stroke-miterlimit:10;}.b{fill:#297aa9;stroke-width:3px;}.c{fill:#000001;}.d{font-size:142px;fill:#f4f4f4;font-family:Komikandy;letter-spacing:0.06em;}</style></defs><title>TeteClickFichier 1</title><path class="a" d="M589.1,157.23c0,85.74,64.77,155.24,153.61,155.24S903.56,243,903.56,157.23,831.55,2,742.71,2,589.1,71.5,589.1,157.23Z"/><path class="b" d="M1002.31,896.7c-2.25,12.71-4.6,25.41-8.91,37.67a69.74,69.74,0,0,1-23.25,32.49c-16.9,13.33-35.09,24.66-53.56,35.59-1.48.87-3.16,2.85-4.93,1.35s-.2-3.52.17-5.26c2.13-10.17,4.35-20.33,7-32.6-14.5,10.9-25.1,22.3-33.19,36.08-4.46,7.61-8.43,15.45-13.22,22.93-13.2,20.59-32.47,29.53-55.82,31.67-11.61,1.07-23.24,2-34.87,2.83-6.19.44-11.43,2.75-15,7.8-12.19,17.29-29.67,25-49.88,27.49-17.59,2.17-35.22,4.13-53,3-15.73-1-16.19-1.8-9-15.43-.62-1.09-1.43-.81-2.24-.28-24.32,15.79-51.4,19.76-79.68,18.67-27.52-1.05-54.82-3.94-81.75-10-16.57-3.7-31.05-12.14-45.87-19.83-7.5-3.9-15-7.89-22.84-12-.6,2.61.61,3.65,1.52,4.82,1.69,2.15,3.79,4.79,1.94,7.21-2.22,2.91-5.85,3.42-9.55,2.42-8.32-2.25-16-6.17-23.51-10.11-15.92-8.3-30.39-18.72-44.17-30.29-12.72-10.69-26.38-20.26-39.61-30.33-1-.77-2.08-1-3.81-.34,2.63,9.21,5.39,18.36,12.39,25.44,2.93,3,1.78,4.52-1.12,6.39-7.11,4.59-17.27,1.9-26.75-5.13-27.32-20.26-49.79-45.57-73.77-69.32-1.05-1-2.11-1.93-3.59-1.68-2.42.41-1.75,2.46-1.67,3.91.36,6.32-2.47,12.08-3.07,18.26-.31,3.31-2.73,4.34-5.34,1.59C185.6,964,167.45,947.66,160,923c-5.35-17.78-12.72-35-19.25-52.55-3.53,2.39-3.85,6.16-5.41,9.19s-2.52,5.22-5.42,1c-6.48-9.54-13.94-18.39-18.51-29.19-1.67-4-4.86-7.26-7-11-10.94-19.06-13.64-40.5-17.28-61.59C84,760.43,81.6,742,78.71,722.36c-8.57,9.06-16.65,17.25-26.37,23.62-9.53,6.25-19.23,12-32.09,16.13,2.4-5.28,4.11-8.94,5.73-12.63C36.63,725.27,45,700.76,37.62,673.71c-2.9-10.56-4.59-21.45-7.73-31.92-6.5-21.67-6.2-43.58-4-65.75,1.19-12.25,1.29-24.59,1.94-38.13-9.94,6.51-17.34,14.38-26.25,22.46C1.2,550.6,3.06,542.47,4,534.28c2-17.37,5.18-34.56,7.85-51.83,2.9-18.8,13.29-33.08,24.78-47.26q11.18-13.8,22.7-27.31c2-2.32,1.38-3.29-1.22-4.5C52,400.53,46,397.42,40,394.27,28,387.93,23,377,20.72,364.27c-.92-5.06,2.33-4.65,5.49-4.29a165.91,165.91,0,0,0,50.8-2.1c27.49-5.35,51.67-17.06,71.65-36.92,5.39-5.36,4.46-8.77-3-10.41-9.4-2-19-1.48-28.56-1.83-3.51-.12-8.66,1.33-10-2.37-1.18-3.11,3.15-5.89,5.7-8.12,27.9-24.34,59.72-38.58,97.43-37.46,8.38.25,16.75.39,26.59.61-4.93-5.28-10.39-7.69-15.24-10.85-4.49-2.93-9.32-5.34-13.76-8.34-8.13-5.49-6.86-23.64,1.79-28,1.31-.66,2.15-.21,3.1.55C229,227.66,248.87,230,268.33,233.4c10.1,1.78,20.36,2.83,30.63,2.06,4.15-.32,5.71,2.11,7.6,4.87,23.14,33.83,54.2,57,93.86,67.64,78.86,21.08,157.29-14.64,193.83-87.63.89-1.78.7-10.49,3.46-5,2.25,1.64,2.56,4.37,3.7,6.6,29.19,56.57,74.79,89.86,138.94,92.36,63.28,2.47,111.08-26.34,143.73-80.25,3.62-6,5.95-7.58,12.47-3.71,33.05,19.66,68.82,21.49,105.66,14.81,9.17-1.66,18.37-3.27,27.42-5.44,5.47-1.31,7,.84,7.58,5.73.74,7-.07,13.53-4.16,19.38-5.18,7.43-10.5,14.77-16.23,22.79,4.89,2.23,10,1.65,14.89,2.29,10.4,1.38,20.77,2.85,31.1,4.72a37,37,0,0,1,21.91,12.72c8.31,9.56,14.92,20.25,20.68,31.51,1.8,3.51,1.71,5.07-3,4.6-5.91-.61-11.88-.67-19.34-1,6.07,9.5,11.37,17.65,16.52,25.89,2.59,4.15,5.77,8.19,7.21,12.74,6.52,20.58,22.32,30.76,41.06,37.92,4.14,1.58,8.23,3.35,12.48,4.55,5.8,1.63,4.47,4.24,1.28,7.14a23.91,23.91,0,0,1-13.09,6.16,92.64,92.64,0,0,1-19.55.64c-2-.14-4.53-1.71-5.73.54-1.08,2,1.17,3.85,2.32,5.48,20.21,28.66,30.14,61.27,36.63,95.19.9,4.73,4.92,11.21,1.71,13.83-4,3.21-9-2.75-13.65-4.42-8.78-3.15-14.91-10-21.45-16.44,6.75,22.35,13.64,44.51,25.62,64.64a28.08,28.08,0,0,0,14,12.15,129.79,129.79,0,0,1,13.72,7c7.53,4.14,7.69,4.91,3.29,12.1-5.37,8.77-13.68,10.58-23.07,9.51-10-1.13-19.58-4.19-29.09-7.42-7.75-2.63-7.65-2.62-7.61,5.91.09,21,.27,41.95,0,62.92-.09,7-1.5,13.88-2.25,20.82-2.48,22.91-17.79,36-35.85,47-2.8,1.72-3.61.78-4-2-.8-5.94-1.76-11.87-2.82-18.88-3.46,3-4.24,6.43-5.63,9.39a59.24,59.24,0,0,0-4.32,11.06,259,259,0,0,1-25.4,65.5c-8.15,14.8-7.39,32.53-9.5,49.14-1.66,13.17-2.69,26.42-4,39.63-.35,3.49.9,8.11-4.85,8.3-5.37.17-10.49-.7-12.31-6.86a89.36,89.36,0,0,0-9.28-21.81C1004.77,898.59,1004.52,897,1002.31,896.7Z"/><path class="a" d="M601.18,166.57c0,85.74-64.76,155.24-153.6,155.24s-160.86-69.5-160.86-155.24,72-155.23,160.86-155.23S601.18,80.84,601.18,166.57Z"/><path class="c" d="M694.08,140.55a59.27,59.27,0,0,1,8.51,118.24c-32.46,2.38-61-22.32-63.34-54.9A59.31,59.31,0,0,1,694.08,140.55Z"/><path class="c" d="M546.67,164.73a59.16,59.16,0,1,1-63.13-55A59.2,59.2,0,0,1,546.67,164.73Z"/><path class="c" d="M866.91,501.06a7.32,7.32,0,0,1,2.47.95C891.89,522.73,920,529.6,949,532.19c32.56,2.9,64.2-1.91,93.36-18,12-6.58,22.23-15.31,31.61-25.17,2.91-3.06,3.76-5.61,1.59-9.79-4.49-8.64-3.37-14.27,2.31-17,7.08-3.43,14-.59,18.13,8,5.64,11.84,6.66,24.62,6.75,37.51,0,3.88-1.6,4.46-4.76,2.36-4.15-2.76-7.18-9.76-11.84-8.27-4,1.27-6.46,7.49-9.5,11.61-14.59,19.77-36.26,27.31-58.65,32.55-10.45,2.45-15.61,7.31-19.92,17-18.33,41.3-31.29,84.27-43,127.79C943.28,735,919.91,773.88,897.1,813c-38.39,65.8-97.82,102.54-169.21,122.5-43.32,12.12-87.83,13.18-132.45,12.62A615.87,615.87,0,0,1,509.15,941c-60.52-9.35-109.18-38.82-149.84-84.12-30.48-34-56.21-71-79.42-110C265.15,722,256.09,695,246.5,668c-6.5-18.22-12.95-36.48-20.4-54.32-5.68-13.59-16.17-24.43-23.7-37-10-16.74-22.52-29.71-41.21-37.62-21.42-9.07-38.77-24.47-53-43-2.59-3.36-4-4.4-6.67.3a22.46,22.46,0,0,1-11.37,9.85c-2.73,1.06-5.72,1.92-8.56-.37s-1.85-4.63-1.28-7.51a148.4,148.4,0,0,1,6.63-24.43c2.79-7.31,7.62-10.83,14.71-12.21,3-.58,6-.68,9-1.23,6-1.1,8.13.23,7.42,7.19-1.46,14.24,3.72,25.73,16.23,34,15.41,10.16,30.73,20.18,48.45,26.13,22.79,7.65,44.54,3.66,66.21-4.43A554.06,554.06,0,0,0,315,493.08c2.12-1.12,4.43-3.8,6.88-1.69,2.16,1.86,0,4.38-.75,6.41-3.74,10.28-6.48,21-12.57,30.28-2.5,3.82-2,5.85,3,6.15,18.49,1.1,36.3-1.16,52.74-10.37,12.05-6.74,23.1-15,33.94-23.42,4.83-3.76,6.92-3.28,8.4,2.8,1.44,5.9,1.46,11.47-.75,17.12-1.1,2.81-1.92,5.74-2.8,8.64-1.37,4.49,0,6.23,5,6.19,40.24-.35,76.77-11.27,108.32-37,9.75-8,19.74-15.63,29.66-23.38,1.57-1.23,3.08-3.38,5.43-2.22s1.8,3.59,2,5.6a19.22,19.22,0,0,1-5.43,15.36c-4.91,5.3-10.12,10.31-15,15.62-4.36,4.71-3.86,6.48,2.31,8.69,6.91,2.48,13.83,1.3,20.66-.41,18.37-4.58,33.1-15.82,48-26.67,8.85-6.46,17.38-13.36,25.77-20.41,3.93-3.31,6.51-3.18,9.72.88,23.83,30,58.1,38.74,93.36,45.13,6.41,1.16,8-1.12,6.26-7.65-2.33-8.64-7.16-16.15-11.41-23.92-1-1.9-3.93-4.09-2-6,2.43-2.45,4.59.72,6.49,2.09,35,25.33,72.37,46,114.21,57.86,9,2.53,17.82,5.69,27.32,5.43,7.08-.2,8.82-2.27,7.18-9.2-2.23-9.41-7.06-17.71-11.83-26C867.75,506.63,865.15,504.59,866.91,501.06Z"/><path class="c" d="M106,495.76c-2.6-3.37-4-4.41-6.68.3A22.56,22.56,0,0,1,88,505.93c-2.74,1.06-5.74,1.93-8.59-.37s-1.85-4.64-1.28-7.53a149.25,149.25,0,0,1,6.65-24.5c2.79-7.33,7.64-10.85,14.74-12.24,3-.57,6-.68,9-1.23,6-1.1,8.15.23,7.44,7.21-1.46,14.28,3.73,25.8,16.27,34.07,15.45,10.18,30.81,20.24,48.57,26.2,22.86,7.67,44.67,3.67,66.39-4.44a557.78,557.78,0,0,0,66.25-30.34c2.12-1.13,4.44-3.82,6.9-1.7,2.16,1.87,0,4.39-.76,6.43-3.75,10.31-6.49,21-12.6,30.36-2.5,3.82-2,5.87,3,6.17,18.54,1.1,36.4-1.17,52.88-10.4,12.08-6.76,23.16-15,34-23.48,4.84-3.77,6.94-3.29,8.42,2.8,1.44,5.92,1.46,11.5-.75,17.17-1.11,2.82-1.93,5.76-2.81,8.66-1.37,4.5,0,6.25,5,6.2,40.35-.34,77-11.29,108.6-37.13,9.78-8,19.79-15.67,29.74-23.44,1.58-1.23,3.08-3.39,5.45-2.23s1.8,3.61,2,5.62a19.31,19.31,0,0,1-5.44,15.4c-4.92,5.31-10.15,10.34-15.07,15.66-4.37,4.73-3.86,6.5,2.33,8.71,6.92,2.49,13.85,1.3,20.7-.41,18.42-4.59,33.19-15.86,48.09-26.74C612,483.94,620.57,477,629,470c3.95-3.32,6.53-3.19,9.75.88C662.61,501,697,509.68,732.33,516.08c6.42,1.16,8-1.12,6.27-7.67-2.34-8.66-7.17-16.19-11.44-24-1-1.9-3.94-4.1-2-6.07,2.44-2.46,4.6.73,6.5,2.1,35.11,25.39,72.56,46.14,114.51,58,9,2.54,17.87,5.71,27.38,5.45,7.11-.2,8.85-2.27,7.21-9.23-2.23-9.43-7.08-17.75-11.86-26.07-1.3-2.27-3.9-4.31-2.13-7.85a7.49,7.49,0,0,1,2.47.95C891.8,522.49,920,529.37,949.09,532c32.65,2.9,64.37-1.92,93.61-18,12-6.59,22.28-15.34,31.69-25.23,2.91-3.07,3.77-5.62,1.59-9.82-4.49-8.66-3.38-14.3,2.32-17.06,7.1-3.44,14.08-.59,18.18,8,5.65,11.87,6.67,24.69,6.76,37.62,0,3.88-1.6,4.47-4.76,2.37-4.17-2.77-7.21-9.79-11.87-8.3-4,1.27-1.76,6.56-9.54,11.64-22.48,14.69-33.41,26.27-66.57,38.51-102.25,37.75-261.14,66.14-402.4,68.69C381.17,624.47,151.39,572.22,106,495.76Z"/><text class="d" transform="translate(351.29 742.91)">CLICK!</text></svg>