<?xml version="1.0" encoding="utf-8"?>
<!-- Generator: Adobe Illustrator 17.0.0, SVG Export Plug-In . SVG Version: 6.00 Build 0)  -->
<!DOCTYPE svg PUBLIC "-//W3C//DTD SVG 1.1//EN" "http://www.w3.org/Graphics/SVG/1.1/DTD/svg11.dtd">
<svg version="1.1" id="Calque_1" xmlns="http://www.w3.org/2000/svg" xmlns:xlink="http://www.w3.org/1999/xlink" x="0px" y="0px"
	 width="103px" height="152px" viewBox="0 0 103 152" enable-background="new 0 0 103 152" xml:space="preserve">
<path fill="#E4F1F4" stroke="#0F6B87" stroke-width="3" stroke-miterlimit="10" d="M101.5,138.5c0,6.6-5.4,12-12,12h-76
	c-6.6,0-12-5.4-12-12v-125c0-6.6,5.4-12,12-12h76c6.6,0,12,5.4,12,12V138.5z"/>
<g>
	<path fill="#673F38" d="M18.7,25.2c0.8-1.4,1.8-2.7,2.8-3.9c1.3-1.5,2.8-2.9,4.5-4c2.8-1.9,5.4-3.9,8.4-5.4
		c1.8-0.9,3.7-1.5,5.6-2.3c1.3-0.5,2.7-0.6,4.1-0.9c1.7-0.4,3.4-0.6,5.1-0.6c1.4-0.1,2.9-0.1,4.3,0c1.3,0.1,2.5,0.2,3.8,0.4
		c2.9,0.5,5.8,1.3,8.5,2.4c2.4,1,4.6,2.2,6.7,3.6c2.3,1.6,4.5,3.4,6.4,5.5c3.7,4,6.5,8.6,8.2,13.7c0.8,2.4,1.4,4.9,1.7,7.4
		c0.3,2.2,0.3,4.4,0.2,6.5c-0.1,1.8-0.3,3.6-0.7,5.3c0,0.1,0,0.3-0.1,0.4c-0.1-0.5-0.2-1-0.6-1.5c-0.8-0.9-2.9-0.9-3.8,0
		c-1.6,1.5-2.5,3.4-3,5.6c-0.3,1.5-0.1,3,0.9,4.2c0.5,0.6,1.1,1,1.9,1.1c0.4,0.1,0.8-0.1,1.3-0.1c-0.3,0.8-0.7,1.6-1.2,2.3
		c-1.8,3.2-4.1,6-6.7,8.5c-2.2,2.1-4.7,3.9-7.3,5.4c-3.1,1.8-6.4,3.1-9.9,3.9c-1.7,0.4-3.5,0.7-5.3,0.9c-1.9,0.2-3.7,0.2-5.6,0.1
		c-4.2-0.2-8.2-1.1-12.1-2.7c-3.3-1.3-6.5-3.2-9.5-5.7c-3.6-3-6.6-6.5-8.9-10.5c-1.8-3.2-3.2-6.6-4-10.2c-0.4-1.6-0.6-3.1-0.8-4.7
		c-0.2-1.7-0.3-3.3-0.2-5c0.1-2,0.3-4.1,0.6-6.1c0.3-1.8,0.7-3.5,1.2-5.3c0.1-0.2,0.1-0.4,0.2-0.6c0,0.1,0.1,0.3,0.1,0.4
		c0.1,0.6,0.2,1.1,0.5,1.7c0.3,0.5,0.8,0.6,1.3,0.2c0.2-0.2,0.4-0.4,0.6-0.7c0.6-0.9,1-1.8,1.4-2.8c0.6-1.4,1.1-2.9,1.1-4.5
		C20.3,26.1,19.7,25.4,18.7,25.2z M32.7,57.7c0-0.4,0-0.8-0.1-1.3c-0.5-2.2-1.9-3.8-3.7-5.1c-0.4-0.3-0.8-0.5-1.3-0.5
		c-1,0-1.5,0.6-1.9,1.4c-0.2,0.3-0.2,0.7-0.5,1.1c-0.4,0.7-0.9,1.3-1.3,2c-0.7,1.4-1.3,2.8-1.3,4.3c0,1,0.5,1.8,1.4,2.4
		c1.2,0.7,2.5,0.9,3.9,0.8C30.6,62.7,32.7,60.5,32.7,57.7z M41.4,33.6c0-0.2,0-0.4,0-0.6s-0.1-0.4-0.1-0.7c-0.5-2.2-1.9-3.8-3.6-5.1
		c-0.4-0.3-0.9-0.5-1.4-0.5c-0.8,0-1.4,0.4-1.8,1.1c-0.3,0.6-0.5,1.2-0.9,1.8c-1,1.5-1.9,3.1-2.2,5c-0.2,1.5,0.3,2.8,1.7,3.5
		c1.1,0.6,2.4,0.8,3.6,0.6C39.5,38.5,41.5,36.3,41.4,33.6z M65.5,32.7c0.4,0,0.7-0.1,1.1-0.1c2.3-0.2,4.3-2.4,4.4-4.7
		c0-1.3-0.3-2.5-0.9-3.5c-0.8-1.4-1.9-2.6-3.4-3.4c-0.8-0.5-1.7-0.3-2.3,0.3c-0.3,0.3-0.5,0.6-0.6,0.9c-0.2,0.8-0.8,1.5-1.2,2.2
		c-0.8,1.4-1.6,2.8-1.7,4.5C60.8,30,61.1,31,62,31.7C63.1,32.4,64.3,32.7,65.5,32.7z M57.2,56.9c0.4,0,0.7,0,1.1-0.1
		c1.2-0.2,2.2-0.7,3-1.6c1.4-1.5,1.6-3.3,1-5.3c-0.6-1.9-1.8-3.4-3.4-4.5c-1.4-1-2.6-0.7-3.4,0.9c-0.1,0.2-0.2,0.4-0.2,0.6
		c-0.1,0.2-0.2,0.4-0.3,0.6c-1.2,1.7-2.2,3.5-2.4,5.7c-0.1,1,0.2,1.9,1,2.6C54.7,56.6,55.9,56.8,57.2,56.9z M38.2,79
		c0,1.1,0.4,1.7,1.2,2c0.9,0.4,1.9,0.5,2.8,0.2c1.6-0.4,2.5-1.7,2.5-3.1c-0.1-1.9-1.2-3.1-2.7-4c-0.7-0.4-1.5-0.2-1.8,0.6
		c-0.3,0.6-0.7,1.2-1,1.7C38.6,77.3,38.2,78.2,38.2,79z M67.5,78.5c0.2,0,0.4-0.1,0.6-0.1c1.7-0.2,3-1.8,2.8-3.4
		c-0.2-1.8-1.3-3-2.8-3.8c-0.7-0.4-1.4,0-1.8,0.8c-0.1,0.3-0.3,0.6-0.5,0.9c-0.6,0.9-1.2,1.9-1.4,3.1c-0.2,0.9,0.3,1.8,1.1,2.2
		C66.2,78.4,66.8,78.5,67.5,78.5z M82.8,29.6c0-0.1,0-0.3,0-0.4c0-0.1,0-0.1,0-0.2c-0.3-1.4-1.2-2.5-2.3-3.3c-1-0.7-1.9-0.4-2.3,0.7
		c-0.1,0.3-0.3,0.6-0.5,0.8c-0.6,0.8-1.1,1.7-1.3,2.6c-0.3,1.2,0.2,2.3,1.4,2.6c0.8,0.2,1.6,0.4,2.4,0.2
		C81.7,32.4,82.8,31.1,82.8,29.6z M39.8,16c1.2-0.1,2.5-0.2,3.7-0.6c1.1-0.3,2.3-0.7,3.3-1.3c1.1-0.6,1.1-1.8,0.2-2.5
		c-0.8-0.5-1.6-0.8-2.5-0.5c-1.5,0.5-2.9,1-4.4,1.4c-1,0.3-1.6,1.1-2,2c-0.3,0.5,0,1,0.6,1.2C39,16,39.4,16,39.8,16z"/>
	<path fill="#2E1C19" d="M85.1,62.7c-0.4,0.1-0.8,0.2-1.2,0.1c-0.8-0.1-1.4-0.5-1.9-1.1c-1-1.2-1.3-2.7-0.9-4.2c0.5-2.1,1.4-4,3-5.6
		c0.9-0.9,3-0.9,3.8,0c0.4,0.4,0.5,0.9,0.6,1.5c0.1,1.6-0.3,3.2-0.8,4.7c-0.2,0.8-0.5,1.7-0.7,2.5C86.6,61.6,86,62.2,85.1,62.7z"/>
	<path fill="#2E1C19" d="M18.7,25.2c1,0.2,1.6,0.9,1.6,1.9c0.1,1.6-0.4,3.1-1.1,4.5c-0.4,1-0.8,1.9-1.4,2.8
		c-0.2,0.3-0.4,0.5-0.6,0.7c-0.5,0.4-0.9,0.3-1.3-0.2c-0.3-0.5-0.4-1.1-0.5-1.7c0-0.1-0.1-0.3-0.1-0.4c-0.2-1.2-0.2-2.3,0.1-3.5
		C15.9,27.5,17,26.1,18.7,25.2z"/>
	<path fill="#2E1C19" d="M32.7,57.7c0,2.8-2,4.9-4.8,5.1c-1.4,0.1-2.7-0.1-3.9-0.8c-0.9-0.5-1.3-1.3-1.4-2.4c-0.1-1.6,0.5-3,1.3-4.3
		c0.4-0.7,0.8-1.4,1.3-2c0.2-0.3,0.3-0.7,0.5-1.1c0.4-0.8,1-1.4,1.9-1.4c0.5,0,0.9,0.2,1.3,0.5c1.8,1.3,3.1,2.9,3.7,5.1
		C32.6,56.9,32.7,57.3,32.7,57.7z"/>
	<path fill="#2E1C19" d="M41.4,33.6c0,2.7-2,4.8-4.7,5.1c-1.3,0.1-2.5-0.1-3.6-0.6c-1.4-0.7-1.9-1.9-1.7-3.5c0.3-1.8,1.1-3.5,2.2-5
		c0.4-0.6,0.6-1.2,0.9-1.8c0.4-0.7,1-1.2,1.8-1.1c0.5,0,1,0.2,1.4,0.5c1.8,1.3,3.1,2.9,3.6,5.1c0.1,0.2,0.1,0.4,0.1,0.7
		C41.5,33.2,41.4,33.4,41.4,33.6z"/>
	<path fill="#2E1C19" d="M65.5,32.7c-1.3,0-2.5-0.3-3.5-1.1c-0.9-0.7-1.2-1.7-1.1-2.8c0.1-1.7,0.9-3.1,1.7-4.5
		c0.4-0.7,1-1.4,1.2-2.2c0.1-0.4,0.4-0.7,0.6-0.9c0.6-0.6,1.4-0.8,2.3-0.3c1.5,0.8,2.5,2,3.4,3.4c0.6,1.1,0.9,2.3,0.9,3.5
		c-0.1,2.3-2.1,4.5-4.4,4.7C66.3,32.7,65.9,32.7,65.5,32.7z"/>
	<path fill="#2E1C19" d="M57.2,56.9c-1.3-0.1-2.6-0.3-3.6-1.2c-0.8-0.7-1.1-1.6-1-2.6c0.2-2.2,1.2-3.9,2.4-5.7
		c0.1-0.2,0.2-0.4,0.3-0.6c0.1-0.2,0.1-0.4,0.2-0.6c0.8-1.6,2-1.9,3.4-0.9c1.6,1.2,2.8,2.6,3.4,4.5s0.3,3.7-1,5.3
		c-0.8,0.9-1.8,1.4-3,1.6C57.9,56.8,57.6,56.9,57.2,56.9z"/>
	<path fill="#2E1C19" d="M38.2,79c0-0.8,0.5-1.7,1-2.5c0.3-0.6,0.7-1.1,1-1.7c0.3-0.8,1.1-1,1.8-0.6c1.5,0.9,2.6,2.2,2.7,4
		c0.1,1.4-0.8,2.7-2.5,3.1c-1,0.3-1.9,0.2-2.8-0.2C38.6,80.7,38.2,80,38.2,79z"/>
	<path fill="#2E1C19" d="M67.5,78.5c-0.7,0-1.4-0.2-2-0.4c-0.9-0.4-1.3-1.2-1.1-2.2c0.2-1.1,0.8-2.1,1.4-3.1
		c0.2-0.3,0.3-0.6,0.5-0.9c0.4-0.8,1.1-1.2,1.8-0.8c1.5,0.8,2.6,2.1,2.8,3.8c0.2,1.6-1.1,3.2-2.8,3.4C67.9,78.5,67.7,78.6,67.5,78.5
		z"/>
	<path fill="#2E1C19" d="M82.8,29.6c0,1.5-1.1,2.8-2.6,3.1c-0.8,0.2-1.6,0-2.4-0.2c-1.1-0.4-1.7-1.4-1.4-2.6c0.2-1,0.7-1.8,1.3-2.6
		c0.2-0.3,0.4-0.5,0.5-0.8c0.4-1.2,1.3-1.4,2.3-0.7c1.2,0.8,2,1.9,2.3,3.3c0,0.1,0,0.1,0,0.2C82.8,29.3,82.8,29.5,82.8,29.6z"/>
	<path fill="#2E1C19" d="M39.8,16c-0.4,0-0.8,0-1.2-0.2c-0.6-0.2-0.8-0.7-0.6-1.2c0.4-0.9,1-1.6,2-2c1.5-0.5,2.9-1,4.4-1.4
		c0.9-0.3,1.8-0.1,2.5,0.5c1,0.7,0.9,1.9-0.2,2.5c-1,0.6-2.2,1-3.3,1.3C42.2,15.7,41,15.9,39.8,16z"/>
	<path fill="#673F38" d="M75,74.4c-0.3,0.5-0.9,0.9-1.4,1.2c-2.1,1.7-4.4,3.2-6.8,4.4c-3,1.5-6.2,2.5-9.5,3.2
		c-2.9,0.6-5.9,0.7-8.8,0.6c-1.6-0.1-3.1-0.3-4.7-0.5c-2.5-0.4-4.9-1.1-7.3-2.1c-3.5-1.4-6.6-3.3-9.5-5.6c-3.1-2.6-5.8-5.5-8-9
		c-1.5-2.4-2.7-4.9-3.6-7.5c-0.7-2.1-1.3-4.2-1.6-6.4c-0.2-1.1-0.3-2.1-0.4-3.2c-0.1-1.1-0.1-2.2-0.1-3.3c0-2.6,0.4-5.2,1-7.7
		c0.8-3.2,1.9-6.3,3.5-9.2c1.3-2.3,2.8-4.5,4.5-6.5c0.5-0.6,1-1.1,1.5-1.6c2.5-2.8,5.6-5,8.9-6.8c2.5-1.4,5.2-2.4,8-3.2
		c1.6-0.4,3.3-0.7,5-0.9c1.7-0.2,3.4-0.3,5.1-0.3c2.6,0,5.2,0.3,7.7,0.9c0.9,0.2,1.8,0.5,2.7,0.7c0.3,0.1,0.4,0.2,0.3,0.6
		c-0.3,1-0.7,2-1.1,3.1c-0.5,1.6-1,3.3-1.3,5c-0.2,1.2-0.2,2.3-0.1,3.5c0.2,1,0.7,1.8,1.5,2.4c2.1,1.4,3.6,3.3,4.9,5.5
		c1.1,1.9,2,4,2.8,6.1c0.6,1.5,1.1,3.1,1.7,4.6c-1.2,0-2,0.6-2.6,1.5c-0.3,0.4-0.5,0.9-0.7,1.3c-0.5,1.4-0.7,2.9-0.2,4.4
		c0.4,1.1,1.2,1.7,2.3,1.7c0.5,0,1.1-0.1,1.6-0.3c1.5-0.6,2.5-1.6,2.7-3.2c0.1-0.9,0-1.8-0.3-2.7c1.6,0.4,3.3,0.6,5,0.9
		c2,0.3,4,0.6,5.9,1.3c0.1,0.1,0.3,0.1,0.4,0.2c0.3,0.1,0.5,0.3,0.6,0.7c0.1,0.7,0.4,0.9,1,0.8c0.2,0,0.2,0.1,0.2,0.2
		c-0.2,1.4,0.1,2.6,0.7,3.8c0.2,0.5,0,0.9,0,1.3c-0.5,2.4-1.2,4.8-2.2,7c-0.7,1.6-1.4,3.1-2.3,4.5c0,0.1-0.1,0.1-0.2,0.2
		c-0.1-0.3-0.2-0.6-0.6-0.6c-0.3,0-0.6,0-1,0c-1.2,0.2-2.3,0.7-3.4,1.3c-1.3,0.7-2.6,1.5-3.6,2.6c-0.3,0.4-0.7,0.8-0.7,1.3
		c0,0.6,0.1,1.3,0.3,1.9C73.3,73.5,73.8,74.3,75,74.4z M23,52.8c1.6,0,2.8-0.2,3.7-0.6c0.3-0.1,0.4-0.2,0.2-0.5
		c-0.2-0.5-0.4-1-0.6-1.5c-0.8-1.9-1.8-3.8-3.3-5.3c-0.8-0.8-1.7-1.3-2.9-1.3c-0.2,0-0.3,0-0.4,0.2c-1.2,1.4-2.2,2.9-2.7,4.7
		c-0.4,1.6,0.1,2.9,1.8,3.5C20.4,52.5,21.9,52.8,23,52.8z M43.3,71.3c0-1.3-0.1-2.6-0.5-3.8c-0.2-0.5-0.4-1-0.8-1.3
		c-0.5-0.3-1.1-0.6-1.7-0.7c-1.5-0.4-2.6,0.2-2.9,1.8c-0.2,1.2-0.1,2.3,0,3.4c0.2,1.9,0.8,3.7,2,5.2c0.5,0.6,1.1,1.2,1.9,1.4
		c0.5,0.1,0.7,0.1,1-0.4c0.2-0.3,0.3-0.7,0.4-1.1C43.1,74.4,43.2,72.8,43.3,71.3z M57.1,22.5c0-1.3-0.4-2.5-1.2-3.5
		c-0.4-0.5-0.9-1-1.6-1.2c-1.2-0.3-2.1,0.2-2.8,1.1c-1.2,1.5-1.6,3.3-1.4,5.1c0.2,2,1.5,3.1,3.5,2.6C55.7,26,57.1,24.4,57.1,22.5z
		 M46.5,44.2c0-1.6-0.4-2.7-1.1-3.7c-0.4-0.6-1-1.1-1.7-1.3c-1.1-0.2-1.9,0.3-2.6,1.1c-1.3,1.6-1.7,3.4-1.4,5.3
		c0.3,1.9,1.5,2.8,3.3,2.4C45.1,47.6,46.6,46.1,46.5,44.2z M59.9,58.7c-1.6,0-2.2,0.8-2,2.2c0.2,1,0.5,2,1,2.9s1.1,1.6,2.1,2
		c1.5,0.6,2.8,0.1,4-0.9c0.6-0.5,0.8-1.3,0.5-2.1c-0.2-0.6-0.5-1-0.9-1.5C63.4,59.7,61.8,58.8,59.9,58.7z M33.6,32.7
		c0.9,0,1.9-0.4,2.6-0.9c0.9-0.7,1.1-1.5,0.7-2.5c-0.5-1.2-1.4-2.2-2.5-2.9c-0.9-0.6-2-1-3.1-1c-1.1-0.1-2.2,0.4-2,1.9
		c0.2,1.7,0.8,3.3,2.1,4.5C32.1,32.4,32.8,32.7,33.6,32.7z"/>
	<path fill="#2E1C19" d="M73,70.8c-1-0.1-1.5-0.8-1.8-1.7c-0.2-0.6-0.3-1.2-0.3-1.7s0.3-0.8,0.6-1.2c0.9-1,2.1-1.8,3.3-2.4
		c1-0.5,2-1,3.1-1.2c0.3-0.1,0.6-0.1,0.9,0c0.3,0,0.4,0.3,0.5,0.6c0.3,1.7-0.4,3.2-1.4,4.5c-0.9,1.1-2,1.9-3.2,2.6
		C74.3,70.6,73.7,70.8,73,70.8z"/>
	<path fill="#2E1C19" d="M71.3,44.1c0.3,0.8,0.4,1.6,0.3,2.4c-0.2,1.5-1.1,2.4-2.5,2.9c-0.5,0.2-0.9,0.3-1.4,0.3
		c-1,0-1.8-0.6-2.1-1.5c-0.5-1.3-0.3-2.7,0.1-4c0.1-0.4,0.4-0.8,0.6-1.2c0.6-0.8,1.3-1.4,2.4-1.4c0.8,0.1,1.4,0.6,1.9,1.2
		C70.8,43.2,71.1,43.6,71.3,44.1z"/>
	<path fill="#2E1C19" d="M26,51.3c-1,0-2.4-0.3-3.7-0.8c-1.5-0.5-2-1.7-1.6-3.2c0.4-1.6,1.4-3,2.4-4.2c0.1-0.1,0.2-0.2,0.4-0.2
		c1,0,1.9,0.5,2.6,1.2c1.4,1.3,2.3,3,3,4.8c0.2,0.4,0.3,0.9,0.5,1.3c0.1,0.3,0,0.4-0.2,0.5C28.5,51.1,27.4,51.3,26,51.3z"/>
	<path fill="#2E1C19" d="M44.3,68.1c0,1.4-0.1,2.7-0.5,4.1c-0.1,0.4-0.2,0.7-0.4,1c-0.3,0.4-0.4,0.5-0.9,0.4
		c-0.7-0.2-1.3-0.7-1.8-1.2c-1.1-1.4-1.6-3-1.8-4.7c-0.1-1-0.2-2.1,0-3.1c0.3-1.4,1.4-2,2.7-1.6c0.5,0.2,1,0.4,1.5,0.7
		c0.4,0.3,0.6,0.7,0.8,1.2C44.2,65.7,44.3,66.9,44.3,68.1z"/>
	<path fill="#2E1C19" d="M56.8,23.7c0,1.8-1.2,3.2-3.1,3.7s-3-0.5-3.2-2.3c-0.2-1.7,0.2-3.3,1.3-4.6c0.6-0.8,1.5-1.2,2.5-1
		c0.6,0.2,1.1,0.6,1.4,1.1C56.5,21.5,56.8,22.6,56.8,23.7z"/>
	<path fill="#2E1C19" d="M47.3,43.5c0,1.7-1.3,3.1-3.2,3.5c-1.7,0.4-2.8-0.5-3-2.2c-0.2-1.8,0.1-3.4,1.3-4.8c0.6-0.7,1.4-1.2,2.4-1
		c0.7,0.1,1.2,0.6,1.6,1.1C46.9,41,47.3,42,47.3,43.5z"/>
	<path fill="#2E1C19" d="M59.4,56.6c1.7,0.1,3.2,0.9,4.3,2.4c0.3,0.4,0.6,0.9,0.8,1.4c0.2,0.7,0.1,1.4-0.5,1.9
		c-1,0.9-2.2,1.4-3.6,0.9c-0.9-0.3-1.4-1-1.9-1.8s-0.8-1.7-0.9-2.7C57.4,57.3,58,56.6,59.4,56.6z"/>
	<path fill="#2E1C19" d="M35.6,33c-0.7,0-1.4-0.3-2-0.8c-1.2-1.1-1.7-2.6-1.9-4.1c-0.2-1.4,0.8-1.8,1.8-1.7s2,0.3,2.8,0.9
		c1,0.7,1.8,1.5,2.2,2.6c0.4,0.9,0.2,1.6-0.6,2.3C37.3,32.7,36.4,33,35.6,33z"/>
</g>
<g>
	<path fill="#0F6B87" d="M36.1,93.7c0,0.5-0.1,1-0.2,1.6s-0.4,1-0.7,1.5c0.3,0.5,0.5,1.1,0.7,1.6c0.2,0.6,0.3,1.2,0.3,1.8
		c0,0.8-0.2,1.4-0.5,2.1c-0.3,0.6-0.7,1.2-1.3,1.6l0,0c-0.7,0.5-1.4,0.9-2.2,1.1c-0.8,0.2-1.5,0.3-2.2,0.3c-0.4,0-0.8,0-1.2-0.1
		s-0.8-0.1-1.2-0.2c-0.1,0-0.3-0.1-0.4-0.3c-0.1-0.2-0.1-0.3-0.1-0.5l0,0c0-1.6,0.1-3.1,0.2-4.6c0.1-1.5,0.2-3.1,0.4-4.6
		c0-0.4,0.1-0.7,0.3-1.1s0.4-0.7,0.7-1c0.3-0.2,0.5-0.4,0.8-0.6c0.3-0.1,0.6-0.3,0.8-0.4l0.2-0.1c0.2-0.1,0.5-0.2,0.8-0.3
		c0.3-0.1,0.5-0.2,0.8-0.3c0.3-0.1,0.6-0.2,0.8-0.2s0.5-0.1,0.8-0.1s0.5,0.1,0.8,0.1c0.2,0.1,0.4,0.2,0.6,0.4s0.4,0.4,0.5,0.6
		s0.3,0.5,0.4,0.7C36,93,36.1,93.4,36.1,93.7z M32.1,99.7c-0.3-0.1-0.6-0.2-0.9-0.2c-0.4,0-0.7,0-1,0.1s-0.5,0.1-0.6,0.3
		c-0.2,0.1-0.3,0.3-0.3,0.5c-0.1,0.2-0.1,0.4-0.1,0.7l0,0c0,0.1,0,0.1,0,0.2s0,0.1,0,0.2c0,0.3,0.1,0.5,0.2,0.7s0.3,0.3,0.6,0.3
		c0.1,0,0.1,0,0.2,0c0.2,0,0.5-0.1,0.8-0.2s0.5-0.1,0.8-0.3c0.3-0.2,0.5-0.3,0.7-0.5s0.4-0.5,0.5-0.8v-0.1c0-0.1,0-0.2-0.1-0.3
		C32.6,100.1,32.4,99.8,32.1,99.7z M32.7,94.8c0-0.1,0-0.1,0-0.2c-0.3-0.1-0.5-0.1-0.8-0.2c-0.3-0.1-0.5-0.1-0.8-0.1
		c-0.4,0-0.8,0.1-1,0.3c-0.2,0.2-0.4,0.4-0.5,0.6c-0.1,0.3-0.2,0.5-0.2,0.8s-0.1,0.6-0.1,0.9l0,0c0,0.1,0.1,0.1,0.2,0.1h0.1h0.1
		c0.3-0.1,0.6-0.2,0.9-0.3s0.6-0.2,0.9-0.2l0,0c0,0,0,0,0.1,0c0.3-0.1,0.5-0.3,0.7-0.6c0.2-0.3,0.3-0.6,0.4-0.9
		C32.8,95,32.8,94.9,32.7,94.8z"/>
	<path fill="#0F6B87" d="M45.1,101.9c-0.4,0.7-0.8,1.3-1.3,1.8s-1,0.9-1.6,1.2c-0.6,0.3-1.2,0.4-1.9,0.4c-0.6,0-1.2-0.2-1.6-0.5
		c-0.5-0.3-0.8-0.7-1.1-1.2s-0.5-1.1-0.6-1.7s-0.2-1.3-0.2-2s0.1-1.4,0.2-2.1c0.1-0.7,0.3-1.4,0.5-2.1c0.2-0.6,0.5-1.3,0.9-1.8
		c0.4-0.6,0.8-1.1,1.4-1.5s1.1-0.8,1.7-1c0.6-0.3,1.2-0.4,1.9-0.4h0.2c0.5,0,1,0.2,1.4,0.4c0.4,0.2,0.7,0.6,1,1s0.4,0.9,0.6,1.4
		c0.1,0.5,0.2,1.1,0.2,1.7s-0.1,1.4-0.2,2.1s-0.3,1.5-0.4,2.2C45.7,100.5,45.4,101.2,45.1,101.9z M42.5,94.9
		c-0.3-0.3-0.7-0.4-1.1-0.4c-0.2,0-0.4,0-0.6,0.1c-0.3,0.1-0.6,0.3-0.8,0.6c-0.2,0.3-0.4,0.5-0.6,0.9c-0.2,0.3-0.3,0.7-0.4,1
		c-0.1,0.4-0.1,0.7-0.2,1.1c0,0.3-0.1,0.7-0.1,1s0,0.5,0,0.7s0,0.5,0.1,0.7s0.2,0.4,0.3,0.6s0.3,0.3,0.4,0.5s0.3,0.2,0.5,0.3h0.5
		c0.3,0,0.5-0.1,0.8-0.2s0.5-0.3,0.7-0.6l0,0c0.4-0.6,0.7-1.3,0.8-2s0.2-1.4,0.2-2.1c0-0.1,0-0.3,0-0.4s0-0.3,0-0.5
		C43,95.6,42.8,95.2,42.5,94.9z"/>
	<path fill="#0F6B87" d="M55.5,101.9c-0.4,0.7-0.8,1.3-1.3,1.8s-1,0.9-1.6,1.2c-0.6,0.3-1.2,0.4-1.9,0.4c-0.6,0-1.2-0.2-1.6-0.5
		c-0.5-0.3-0.8-0.7-1.1-1.2s-0.5-1.1-0.6-1.7s-0.2-1.3-0.2-2s0.1-1.4,0.2-2.1c0.1-0.7,0.3-1.4,0.5-2.1c0.2-0.6,0.5-1.3,0.9-1.8
		c0.4-0.6,0.8-1.1,1.4-1.5s1.1-0.8,1.7-1c0.6-0.3,1.2-0.4,1.9-0.4H54c0.5,0,1,0.2,1.4,0.4c0.4,0.2,0.7,0.6,1,1s0.4,0.9,0.6,1.4
		c0.1,0.5,0.2,1.1,0.2,1.7s-0.1,1.4-0.2,2.1s-0.3,1.5-0.4,2.2C56.2,100.5,55.9,101.2,55.5,101.9z M53,94.9c-0.3-0.3-0.7-0.4-1.1-0.4
		c-0.2,0-0.4,0-0.6,0.1c-0.3,0.1-0.6,0.3-0.8,0.6c-0.2,0.3-0.4,0.5-0.6,0.9c-0.2,0.3-0.3,0.7-0.4,1c-0.1,0.4-0.1,0.7-0.2,1.1
		c0,0.3-0.1,0.7-0.1,1s0,0.5,0,0.7s0,0.5,0.1,0.7s0.2,0.4,0.3,0.6s0.3,0.3,0.4,0.5s0.3,0.2,0.5,0.3H51c0.3,0,0.5-0.1,0.8-0.2
		s0.5-0.3,0.7-0.6l0,0c0.4-0.6,0.7-1.3,0.8-2s0.2-1.4,0.2-2.1c0-0.1,0-0.3,0-0.4s0-0.3,0-0.5C53.5,95.6,53.3,95.2,53,94.9z"/>
	<path fill="#0F6B87" d="M66.1,94.6c-0.1,0.2-0.3,0.3-0.5,0.5s-0.4,0.2-0.5,0.3c-0.2,0.1-0.4,0.1-0.5,0.1s-0.3,0-0.4-0.1
		s-0.2-0.1-0.3-0.3l0,0c-0.2-0.3-0.5-0.5-0.8-0.7s-0.6-0.3-1-0.3c-0.1,0-0.3,0-0.4,0.1c-0.2,0-0.3,0.1-0.5,0.2s-0.3,0.2-0.4,0.3
		c-0.1,0.1-0.2,0.3-0.3,0.5l0,0c0,0.2,0,0.3,0.1,0.4c0,0.1,0.1,0.2,0.2,0.2c0.1,0.1,0.2,0.1,0.3,0.1s0.2,0,0.3,0c0.3,0,0.6,0,1-0.1
		c0.3,0,0.7-0.1,1-0.1c0.2,0,0.5,0,0.7,0.1c0.2,0.1,0.4,0.1,0.6,0.2s0.4,0.2,0.5,0.4s0.3,0.4,0.4,0.6c0.2,0.4,0.4,0.9,0.5,1.3
		c0.2,0.5,0.2,1,0.2,1.5c0,0.1,0,0.1,0,0.1v0.1c-0.1,0.7-0.4,1.4-0.8,1.9c-0.4,0.6-0.8,1-1.3,1.4c-0.5,0.4-1,0.7-1.6,0.9
		c-0.6,0.2-1.1,0.3-1.6,0.4c-0.3,0-0.7-0.1-1.1-0.2s-0.8-0.3-1.1-0.5c-0.4-0.2-0.7-0.5-0.9-0.8c-0.3-0.3-0.4-0.8-0.4-1.3v0.2
		c0-0.2,0-0.3,0.1-0.5c0-0.2,0.1-0.3,0.2-0.5s0.2-0.3,0.3-0.3c0.1-0.1,0.2-0.1,0.4-0.2h0.2c0.2,0,0.4,0.1,0.6,0.3s0.4,0.3,0.6,0.5
		s0.4,0.3,0.6,0.4s0.5,0.2,0.8,0.2h0.1c0.1,0,0.3,0,0.4-0.1s0.3-0.2,0.4-0.3c0.1-0.1,0.2-0.2,0.3-0.4c0.1-0.1,0.1-0.3,0.1-0.5
		s-0.1-0.4-0.1-0.6l0,0c0-0.2-0.1-0.3-0.2-0.4c-0.2-0.1-0.4-0.1-0.6-0.1c-0.3,0-0.5,0-0.9,0s-0.7,0-1-0.1s-0.7-0.2-1-0.4
		s-0.6-0.5-0.9-0.9c0-0.2-0.1-0.4-0.1-0.6s-0.1-0.4-0.1-0.6v-0.1v-0.1c0.1-0.8,0.3-1.6,0.7-2.3c0.4-0.7,0.9-1.4,1.5-1.9
		s1.2-1,1.9-1.4s1.4-0.5,2.1-0.5c0.3,0,0.6,0,1,0.1c0.3,0.1,0.6,0.2,0.8,0.4c0.2,0.2,0.4,0.4,0.6,0.7s0.2,0.7,0.2,1.1
		c0,0.2,0,0.3-0.1,0.5s-0.1,0.4-0.1,0.5C66.4,94.3,66.2,94.4,66.1,94.6z"/>
	<path fill="#0F6B87" d="M77.5,90.5c0,0.1,0.1,0.3,0.1,0.4V91c0,0.3-0.1,0.5-0.2,0.8s-0.2,0.5-0.4,0.8c-0.2,0.2-0.4,0.4-0.6,0.6
		s-0.4,0.3-0.7,0.4c-0.3,0.1-0.5,0.2-0.8,0.3c-0.3,0.1-0.5,0.2-0.8,0.3c-0.3,0.1-0.5,0.2-0.7,0.4c-0.2,0.2-0.4,0.4-0.6,0.7
		c-0.1,0.3-0.2,0.5-0.3,0.8c0,0.3-0.1,0.6-0.1,0.8c0,1-0.1,2-0.1,3s0,2-0.1,3c0,0.2,0,0.5-0.1,0.8s-0.1,0.5-0.2,0.8
		c-0.1,0.2-0.2,0.4-0.4,0.6c-0.2,0.2-0.4,0.2-0.6,0.2c0,0,0,0-0.1,0c0,0,0,0-0.1,0h-0.1c-0.3,0-0.5-0.1-0.6-0.2
		c-0.2-0.2-0.3-0.4-0.4-0.6s-0.1-0.5-0.1-0.8s0-0.5,0-0.8c0-1,0-1.9,0.1-2.9c0.1-0.9,0.1-1.9,0.1-2.9c0-0.1,0-0.3,0-0.5
		c0-0.1,0-0.3-0.1-0.4c0-0.1-0.1-0.2-0.2-0.3c-0.1-0.1-0.2-0.1-0.3-0.1c-0.2,0-0.4,0-0.5,0.1c-0.2,0-0.3,0.1-0.5,0.1
		s-0.4-0.1-0.6-0.2s-0.3-0.3-0.3-0.6c0-0.3,0.1-0.5,0.2-0.8s0.3-0.6,0.4-0.8c0.2-0.3,0.4-0.5,0.6-0.7s0.4-0.3,0.6-0.4
		c0.3-0.1,0.5-0.2,0.8-0.3c0.3-0.1,0.6-0.2,0.9-0.3c0.4-0.2,0.8-0.4,1.3-0.6s0.9-0.5,1.4-0.7s1-0.4,1.4-0.5s0.9-0.2,1.4-0.2
		c0.2,0,0.4,0,0.6,0.1s0.3,0.2,0.5,0.3C77.4,90.3,77.4,90.4,77.5,90.5z"/>
</g>
</svg>
