<?xml version="1.0" encoding="utf-8"?>
<!-- Generator: Adobe Illustrator 17.0.0, SVG Export Plug-In . SVG Version: 6.00 Build 0)  -->
<!DOCTYPE svg PUBLIC "-//W3C//DTD SVG 1.1//EN" "http://www.w3.org/Graphics/SVG/1.1/DTD/svg11.dtd">
<svg version="1.1" id="Calque_1" xmlns="http://www.w3.org/2000/svg" xmlns:xlink="http://www.w3.org/1999/xlink" x="0px" y="0px"
	 width="103px" height="152px" viewBox="0 0 103 152" enable-background="new 0 0 103 152" xml:space="preserve">
<path fill="#E4F1F4" stroke="#0F6B87" stroke-width="3" stroke-miterlimit="10" d="M101.5,138.6c0,6.6-5.4,12-12,12h-76
	c-6.6,0-12-5.4-12-12v-125c0-6.6,5.4-12,12-12h76c6.6,0,12,5.4,12,12V138.6z"/>
<g>
	<g>
		<path fill="#F5CBA0" d="M18.4,27.5c0.8-1.4,1.8-2.7,2.8-3.9c1.3-1.5,2.8-2.9,4.5-4c2.8-1.9,5.4-3.9,8.4-5.4
			c1.8-0.9,3.7-1.5,5.6-2.3c1.3-0.5,2.7-0.6,4.1-0.9c1.7-0.4,3.4-0.6,5.1-0.6c1.4-0.1,2.9-0.1,4.3,0c1.3,0.1,2.5,0.2,3.8,0.4
			c2.9,0.5,5.8,1.3,8.5,2.4c2.4,1,4.6,2.2,6.7,3.6c2.3,1.6,4.5,3.4,6.4,5.5c3.7,4,6.5,8.6,8.2,13.7c0.8,2.4,1.4,4.9,1.7,7.4
			c0.3,2.2,0.3,4.4,0.2,6.5c-0.1,1.8-0.3,3.6-0.7,5.3c0,0.1,0,0.3-0.1,0.4c-0.1-0.5-0.2-1-0.6-1.5c-0.8-0.9-2.9-0.9-3.8,0
			c-1.6,1.5-2.5,3.4-3,5.6c-0.3,1.5-0.1,3,0.9,4.2c0.5,0.6,1.1,1,1.9,1.1c0.4,0.1,0.8-0.1,1.3-0.1c-0.3,0.8-0.7,1.6-1.2,2.3
			c-1.8,3.2-4.1,6-6.7,8.5c-2.2,2.1-4.7,3.9-7.3,5.4c-3.1,1.8-6.4,3.1-9.9,3.9c-1.7,0.4-3.5,0.7-5.3,0.9c-1.9,0.2-3.7,0.2-5.6,0.1
			c-4.2-0.2-8.2-1.1-12.1-2.7C33.2,82,30,80.1,27,77.6c-3.6-3-6.6-6.5-8.9-10.5c-1.8-3.2-3.2-6.6-4-10.2c-0.4-1.6-0.6-3.1-0.8-4.7
			c-0.2-1.7-0.3-3.3-0.2-5c0.1-2,0.3-4.1,0.6-6.1c0.3-1.8,0.7-3.5,1.2-5.3c0.1-0.2,0.1-0.4,0.2-0.6c0,0.1,0.1,0.3,0.1,0.4
			c0.1,0.6,0.2,1.1,0.5,1.7c0.3,0.5,0.8,0.6,1.3,0.2c0.2-0.2,0.4-0.4,0.6-0.7c0.6-0.9,1-1.8,1.4-2.8c0.6-1.4,1.1-2.9,1.1-4.5
			C20,28.4,19.4,27.7,18.4,27.5z M32.4,60c0-0.4,0-0.8-0.1-1.3c-0.5-2.2-1.9-3.8-3.7-5.1c-0.4-0.3-0.8-0.5-1.3-0.5
			c-1,0-1.5,0.6-1.9,1.4c-0.2,0.3-0.2,0.7-0.5,1.1c-0.4,0.7-0.9,1.3-1.3,2c-0.7,1.4-1.3,2.8-1.3,4.3c0,1,0.5,1.8,1.4,2.4
			c1.2,0.7,2.5,0.9,3.9,0.8C30.3,65,32.4,62.8,32.4,60z M41.1,35.9c0-0.2,0-0.4,0-0.6c0-0.2-0.1-0.4-0.1-0.7
			c-0.5-2.2-1.9-3.8-3.6-5.1C37,29.2,36.5,29,36,29c-0.8,0-1.4,0.4-1.8,1.1c-0.3,0.6-0.5,1.2-0.9,1.8c-1,1.5-1.9,3.1-2.2,5
			c-0.2,1.5,0.3,2.8,1.7,3.5c1.1,0.6,2.4,0.8,3.6,0.6C39.2,40.8,41.2,38.6,41.1,35.9z M65.2,35c0.4,0,0.7-0.1,1.1-0.1
			c2.3-0.2,4.3-2.4,4.4-4.7c0-1.3-0.3-2.5-0.9-3.5c-0.8-1.4-1.9-2.6-3.4-3.4c-0.8-0.5-1.7-0.3-2.3,0.3c-0.3,0.3-0.5,0.6-0.6,0.9
			c-0.2,0.8-0.8,1.5-1.2,2.2c-0.8,1.4-1.6,2.8-1.7,4.5c-0.1,1.1,0.2,2.1,1.1,2.8C62.8,34.7,64,35,65.2,35z M56.9,59.2
			c0.4,0,0.7,0,1.1-0.1c1.2-0.2,2.2-0.7,3-1.6c1.4-1.5,1.6-3.3,1-5.3c-0.6-1.9-1.8-3.4-3.4-4.5c-1.4-1-2.6-0.7-3.4,0.9
			C55.1,48.8,55,49,55,49.2c-0.1,0.2-0.2,0.4-0.3,0.6c-1.2,1.7-2.2,3.5-2.4,5.7c-0.1,1,0.2,1.9,1,2.6C54.4,58.9,55.6,59.1,56.9,59.2
			z M37.9,81.3c0,1.1,0.4,1.7,1.2,2c0.9,0.4,1.9,0.5,2.8,0.2c1.6-0.4,2.5-1.7,2.5-3.1c-0.1-1.9-1.2-3.1-2.7-4
			C41,76,40.2,76.2,39.9,77c-0.3,0.6-0.7,1.2-1,1.7C38.3,79.6,37.9,80.5,37.9,81.3z M67.2,80.8c0.2,0,0.4-0.1,0.6-0.1
			c1.7-0.2,3-1.8,2.8-3.4c-0.2-1.8-1.3-3-2.8-3.8c-0.7-0.4-1.4,0-1.8,0.8c-0.1,0.3-0.3,0.6-0.5,0.9c-0.6,0.9-1.2,1.9-1.4,3.1
			c-0.2,0.9,0.3,1.8,1.1,2.2C65.9,80.7,66.5,80.8,67.2,80.8z M82.5,31.9c0-0.1,0-0.3,0-0.4c0-0.1,0-0.1,0-0.2
			c-0.3-1.4-1.2-2.5-2.3-3.3c-1-0.7-1.9-0.4-2.3,0.7c-0.1,0.3-0.3,0.6-0.5,0.8c-0.6,0.8-1.1,1.7-1.3,2.6c-0.3,1.2,0.2,2.3,1.4,2.6
			c0.8,0.2,1.6,0.4,2.4,0.2C81.4,34.7,82.5,33.4,82.5,31.9z M39.5,18.3c1.2-0.1,2.5-0.2,3.7-0.6c1.1-0.3,2.3-0.7,3.3-1.3
			c1.1-0.6,1.1-1.8,0.2-2.5c-0.8-0.5-1.6-0.8-2.5-0.5c-1.5,0.5-2.9,1-4.4,1.4c-1,0.3-1.6,1.1-2,2c-0.3,0.5,0,1,0.6,1.2
			C38.7,18.3,39.1,18.3,39.5,18.3z"/>
		<path fill="#93665C" d="M84.8,65c-0.4,0.1-0.8,0.2-1.2,0.1c-0.8-0.1-1.4-0.5-1.9-1.1c-1-1.2-1.3-2.7-0.9-4.2c0.5-2.1,1.4-4,3-5.6
			c0.9-0.9,3-0.9,3.8,0c0.4,0.4,0.5,0.9,0.6,1.5c0.1,1.6-0.3,3.2-0.8,4.7c-0.2,0.8-0.5,1.7-0.7,2.5C86.3,63.9,85.7,64.5,84.8,65z"/>
		<path fill="#93665C" d="M18.4,27.5c1,0.2,1.6,0.9,1.6,1.9c0.1,1.6-0.4,3.1-1.1,4.5c-0.4,1-0.8,1.9-1.4,2.8
			c-0.2,0.3-0.4,0.5-0.6,0.7c-0.5,0.4-0.9,0.3-1.3-0.2c-0.3-0.5-0.4-1.1-0.5-1.7c0-0.1-0.1-0.3-0.1-0.4c-0.2-1.2-0.2-2.3,0.1-3.5
			C15.6,29.8,16.7,28.4,18.4,27.5z"/>
		<path fill="#93665C" d="M32.4,60c0,2.8-2,4.9-4.8,5.1c-1.4,0.1-2.7-0.1-3.9-0.8c-0.9-0.5-1.3-1.3-1.4-2.4c-0.1-1.6,0.5-3,1.3-4.3
			c0.4-0.7,0.8-1.4,1.3-2c0.2-0.3,0.3-0.7,0.5-1.1c0.4-0.8,1-1.4,1.9-1.4c0.5,0,0.9,0.2,1.3,0.5c1.8,1.3,3.1,2.9,3.7,5.1
			C32.3,59.2,32.4,59.6,32.4,60z"/>
		<path fill="#93665C" d="M41.1,35.9c0,2.7-2,4.8-4.7,5.1c-1.3,0.1-2.5-0.1-3.6-0.6c-1.4-0.7-1.9-1.9-1.7-3.5c0.3-1.8,1.1-3.5,2.2-5
			c0.4-0.6,0.6-1.2,0.9-1.8c0.4-0.7,1-1.2,1.8-1.1c0.5,0,1,0.2,1.4,0.5c1.8,1.3,3.1,2.9,3.6,5.1c0.1,0.2,0.1,0.4,0.1,0.7
			C41.2,35.5,41.1,35.7,41.1,35.9z"/>
		<path fill="#93665C" d="M65.2,35c-1.3,0-2.5-0.3-3.5-1.1c-0.9-0.7-1.2-1.7-1.1-2.8c0.1-1.7,0.9-3.1,1.7-4.5c0.4-0.7,1-1.4,1.2-2.2
			c0.1-0.4,0.4-0.7,0.6-0.9c0.6-0.6,1.4-0.8,2.3-0.3c1.5,0.8,2.5,2,3.4,3.4c0.6,1.1,0.9,2.3,0.9,3.5c-0.1,2.3-2.1,4.5-4.4,4.7
			C66,35,65.6,35,65.2,35z"/>
		<path fill="#93665C" d="M56.9,59.2c-1.3-0.1-2.6-0.3-3.6-1.2c-0.8-0.7-1.1-1.6-1-2.6c0.2-2.2,1.2-3.9,2.4-5.7
			c0.1-0.2,0.2-0.4,0.3-0.6c0.1-0.2,0.1-0.4,0.2-0.6c0.8-1.6,2-1.9,3.4-0.9c1.6,1.2,2.8,2.6,3.4,4.5c0.6,1.9,0.3,3.7-1,5.3
			c-0.8,0.9-1.8,1.4-3,1.6C57.6,59.1,57.3,59.2,56.9,59.2z"/>
		<path fill="#93665C" d="M37.9,81.3c0-0.8,0.5-1.7,1-2.5c0.3-0.6,0.7-1.1,1-1.7c0.3-0.8,1.1-1,1.8-0.6c1.5,0.9,2.6,2.2,2.7,4
			c0.1,1.4-0.8,2.7-2.5,3.1c-1,0.3-1.9,0.2-2.8-0.2C38.3,83,37.9,82.3,37.9,81.3z"/>
		<path fill="#93665C" d="M67.2,80.8c-0.7,0-1.4-0.2-2-0.4c-0.9-0.4-1.3-1.2-1.1-2.2c0.2-1.1,0.8-2.1,1.4-3.1
			c0.2-0.3,0.3-0.6,0.5-0.9c0.4-0.8,1.1-1.2,1.8-0.8c1.5,0.8,2.6,2.1,2.8,3.8c0.2,1.6-1.1,3.2-2.8,3.4
			C67.6,80.8,67.4,80.9,67.2,80.8z"/>
		<path fill="#93665C" d="M82.5,31.9c0,1.5-1.1,2.8-2.6,3.1c-0.8,0.2-1.6,0-2.4-0.2c-1.1-0.4-1.7-1.4-1.4-2.6c0.2-1,0.7-1.8,1.3-2.6
			c0.2-0.3,0.4-0.5,0.5-0.8c0.4-1.2,1.3-1.4,2.3-0.7c1.2,0.8,2,1.9,2.3,3.3c0,0.1,0,0.1,0,0.2C82.5,31.6,82.5,31.8,82.5,31.9z"/>
		<path fill="#93665C" d="M39.5,18.3c-0.4,0-0.8,0-1.2-0.2c-0.6-0.2-0.8-0.7-0.6-1.2c0.4-0.9,1-1.6,2-2c1.5-0.5,2.9-1,4.4-1.4
			c0.9-0.3,1.8-0.1,2.5,0.5c1,0.7,0.9,1.9-0.2,2.5c-1,0.6-2.2,1-3.3,1.3C41.9,18,40.7,18.2,39.5,18.3z"/>
	</g>
	<path fill="#F5CB9F" d="M75.1,75.7c-0.3,0.5-0.9,0.9-1.4,1.2c-2.1,1.7-4.4,3.2-6.8,4.4c-3,1.5-6.2,2.5-9.5,3.2
		c-2.9,0.6-5.9,0.7-8.8,0.6c-1.6-0.1-3.1-0.3-4.7-0.5c-2.5-0.4-4.9-1.1-7.3-2.1c-3.5-1.4-6.6-3.3-9.5-5.6c-3.1-2.6-5.8-5.5-8-9
		c-1.5-2.4-2.7-4.9-3.6-7.5c-0.7-2.1-1.3-4.2-1.6-6.4c-0.2-1.1-0.3-2.1-0.4-3.2c-0.1-1.1-0.1-2.2-0.1-3.3c0-2.6,0.4-5.2,1-7.7
		c0.8-3.2,1.9-6.3,3.5-9.2c1.3-2.3,2.8-4.5,4.5-6.5c0.5-0.6,1-1.1,1.5-1.6c2.5-2.8,5.6-5,8.9-6.8c2.5-1.4,5.2-2.4,8-3.2
		c1.6-0.4,3.3-0.7,5-0.9c1.7-0.2,3.4-0.3,5.1-0.3c2.6,0,5.2,0.3,7.7,0.9c0.9,0.2,1.8,0.5,2.7,0.7c0.3,0.1,0.4,0.2,0.3,0.6
		c-0.3,1-0.7,2-1.1,3.1c-0.5,1.6-1,3.3-1.3,5c-0.2,1.2-0.2,2.3-0.1,3.5c0.2,1,0.7,1.8,1.5,2.4c2.1,1.4,3.6,3.3,4.9,5.5
		c1.1,1.9,2,4,2.8,6.1c0.6,1.5,1.1,3.1,1.7,4.6c-1.2,0-2,0.6-2.6,1.5c-0.3,0.4-0.5,0.9-0.7,1.3c-0.5,1.4-0.7,2.9-0.2,4.4
		c0.4,1.1,1.2,1.7,2.3,1.7c0.5,0,1.1-0.1,1.6-0.3c1.5-0.6,2.5-1.6,2.7-3.2c0.1-0.9,0-1.8-0.3-2.7c1.6,0.4,3.3,0.6,5,0.9
		c2,0.3,4,0.6,5.9,1.3c0.1,0.1,0.3,0.1,0.4,0.2c0.3,0.1,0.5,0.3,0.6,0.7c0.1,0.7,0.4,0.9,1,0.8c0.2,0,0.2,0.1,0.2,0.2
		c-0.2,1.4,0.1,2.6,0.7,3.8c0.2,0.5,0,0.9,0,1.3c-0.5,2.4-1.2,4.8-2.2,7c-0.7,1.6-1.4,3.1-2.3,4.5c0,0.1-0.1,0.1-0.2,0.2
		c-0.1-0.3-0.2-0.6-0.6-0.6c-0.3,0-0.6,0-1,0c-1.2,0.2-2.3,0.7-3.4,1.3c-1.3,0.7-2.6,1.5-3.6,2.6c-0.3,0.4-0.7,0.8-0.7,1.3
		c0,0.6,0.1,1.3,0.3,1.9C73.4,74.8,73.9,75.6,75.1,75.7z M23.1,54.1c1.6,0,2.8-0.2,3.7-0.6c0.3-0.1,0.4-0.2,0.2-0.5
		c-0.2-0.5-0.4-1-0.6-1.5c-0.8-1.9-1.8-3.8-3.3-5.3c-0.8-0.8-1.7-1.3-2.9-1.3c-0.2,0-0.3,0-0.4,0.2c-1.2,1.4-2.2,2.9-2.7,4.7
		c-0.4,1.6,0.1,2.9,1.8,3.5C20.5,53.8,22,54.1,23.1,54.1z M43.4,72.6c0-1.3-0.1-2.6-0.5-3.8c-0.2-0.5-0.4-1-0.8-1.3
		c-0.5-0.3-1.1-0.6-1.7-0.7c-1.5-0.4-2.6,0.2-2.9,1.8c-0.2,1.2-0.1,2.3,0,3.4c0.2,1.9,0.8,3.7,2,5.2c0.5,0.6,1.1,1.2,1.9,1.4
		c0.5,0.1,0.7,0.1,1-0.4c0.2-0.3,0.3-0.7,0.4-1.1C43.2,75.7,43.3,74.1,43.4,72.6z M57.2,23.8c0-1.3-0.4-2.5-1.2-3.5
		c-0.4-0.5-0.9-1-1.6-1.2c-1.2-0.3-2.1,0.2-2.8,1.1c-1.2,1.5-1.6,3.3-1.4,5.1c0.2,2,1.5,3.1,3.5,2.6C55.8,27.3,57.2,25.7,57.2,23.8z
		 M46.6,45.5c0-1.6-0.4-2.7-1.1-3.7c-0.4-0.6-1-1.1-1.7-1.3c-1.1-0.2-1.9,0.3-2.6,1.1c-1.3,1.6-1.7,3.4-1.4,5.3
		c0.3,1.9,1.5,2.8,3.3,2.4C45.2,48.9,46.7,47.4,46.6,45.5z M60,60c-1.6,0-2.2,0.8-2,2.2c0.2,1,0.5,2,1,2.9s1.1,1.6,2.1,2
		c1.5,0.6,2.8,0.1,4-0.9c0.6-0.5,0.8-1.3,0.5-2.1c-0.2-0.6-0.5-1-0.9-1.5C63.5,61,61.9,60.1,60,60z M33.7,34c0.9,0,1.9-0.4,2.6-0.9
		c0.9-0.7,1.1-1.5,0.7-2.5c-0.5-1.2-1.4-2.2-2.5-2.9c-0.9-0.6-2-1-3.1-1c-1.1-0.1-2.2,0.4-2,1.9c0.2,1.7,0.8,3.3,2.1,4.5
		C32.2,33.7,32.9,34,33.7,34z"/>
	<path fill="#93665C" d="M72.7,73.1c-1-0.1-1.5-0.8-1.8-1.7c-0.2-0.6-0.3-1.2-0.3-1.7s0.3-0.8,0.6-1.2c0.9-1,2.1-1.8,3.3-2.4
		c1-0.5,2-1,3.1-1.2c0.3-0.1,0.6-0.1,0.9,0c0.3,0,0.4,0.3,0.5,0.6c0.3,1.7-0.4,3.2-1.4,4.5c-0.9,1.1-2,1.9-3.2,2.6
		C74,72.9,73.4,73.1,72.7,73.1z"/>
	<path fill="#93665C" d="M71,46.4c0.3,0.8,0.4,1.6,0.3,2.4c-0.2,1.5-1.1,2.4-2.5,2.9c-0.5,0.2-0.9,0.3-1.4,0.3c-1,0-1.8-0.6-2.1-1.5
		c-0.5-1.3-0.3-2.7,0.1-4c0.1-0.4,0.4-0.8,0.6-1.2c0.6-0.8,1.3-1.4,2.4-1.4c0.8,0.1,1.4,0.6,1.9,1.2C70.5,45.5,70.8,45.9,71,46.4z"
		/>
	<path fill="#93665C" d="M25.7,53.6c-1,0-2.4-0.3-3.7-0.8c-1.5-0.5-2-1.7-1.6-3.2c0.4-1.6,1.4-3,2.4-4.2c0.1-0.1,0.2-0.2,0.4-0.2
		c1,0,1.9,0.5,2.6,1.2c1.4,1.3,2.3,3,3,4.8c0.2,0.4,0.3,0.9,0.5,1.3c0.1,0.3,0,0.4-0.2,0.5C28.2,53.4,27.1,53.6,25.7,53.6z"/>
	<path fill="#93665C" d="M44,70.4c0,1.4-0.1,2.7-0.5,4.1c-0.1,0.4-0.2,0.7-0.4,1c-0.3,0.4-0.4,0.5-0.9,0.4c-0.7-0.2-1.3-0.7-1.8-1.2
		c-1.1-1.4-1.6-3-1.8-4.7c-0.1-1-0.2-2.1,0-3.1c0.3-1.4,1.4-2,2.7-1.6c0.5,0.2,1,0.4,1.5,0.7c0.4,0.3,0.6,0.7,0.8,1.2
		C43.9,68,44,69.2,44,70.4z"/>
	<path fill="#93665C" d="M56.5,26c0,1.8-1.2,3.2-3.1,3.7s-3-0.5-3.2-2.3c-0.2-1.7,0.2-3.3,1.3-4.6c0.6-0.8,1.5-1.2,2.5-1
		c0.6,0.2,1.1,0.6,1.4,1.1C56.2,23.8,56.5,24.9,56.5,26z"/>
	<path fill="#93665C" d="M47,45.8c0,1.7-1.3,3.1-3.2,3.5c-1.7,0.4-2.8-0.5-3-2.2c-0.2-1.8,0.1-3.4,1.3-4.8c0.6-0.7,1.4-1.2,2.4-1
		c0.7,0.1,1.2,0.6,1.6,1.1C46.6,43.3,47,44.3,47,45.8z"/>
	<path fill="#93665C" d="M59.1,58.9c1.7,0.1,3.2,0.9,4.3,2.4c0.3,0.4,0.6,0.9,0.8,1.4c0.2,0.7,0.1,1.4-0.5,1.9
		c-1,0.9-2.2,1.4-3.6,0.9c-0.9-0.3-1.4-1-1.9-1.8S57.4,62,57.3,61C57.1,59.6,57.7,58.9,59.1,58.9z"/>
	<path fill="#93665C" d="M35.3,35.3c-0.7,0-1.4-0.3-2-0.8c-1.2-1.1-1.7-2.6-1.9-4.1c-0.2-1.4,0.8-1.8,1.8-1.7s2,0.3,2.8,0.9
		c1,0.7,1.8,1.5,2.2,2.6c0.4,0.9,0.2,1.6-0.6,2.3C37,35,36.1,35.3,35.3,35.3z"/>
</g>
<g>
	<path fill="#0F6B87" d="M15.6,99.9c-0.1,0.3-0.2,0.5-0.3,0.7c-0.2,0.2-0.4,0.4-0.6,0.5c-0.2,0.1-0.5,0.2-0.7,0.3
		c-0.3,0.1-0.5,0.1-0.7,0.1c-0.3,0-0.6-0.1-0.8-0.3c-0.3-0.2-0.4-0.4-0.5-0.7c-0.1-0.2-0.3-0.4-0.5-0.6c-0.2-0.1-0.4-0.3-0.6-0.3
		c-0.2-0.1-0.4-0.1-0.7-0.2c-0.2,0-0.5,0-0.7,0H9.2c-0.2,0-0.5,0.1-0.7,0.2c-0.2,0.1-0.4,0.3-0.5,0.6l0,0v0c0,0-0.1,0.1-0.1,0.1
		s0,0.1,0,0.2c0,0.1-0.1,0.3-0.2,0.4c-0.1,0.1-0.1,0.3-0.2,0.4c-0.1,0.1-0.2,0.2-0.3,0.3s-0.2,0.1-0.4,0.1c-0.1,0-0.3,0-0.4-0.1
		c-0.1-0.1-0.2-0.2-0.3-0.4c-0.1-0.2-0.1-0.3-0.2-0.5S6,100.3,6,100.2v-0.1c0,0,0-0.1,0-0.1c0,0,0-0.1,0-0.1
		c0.3-1.6,0.7-3.2,1.3-4.9c0.5-1.7,1.1-3.4,1.8-5.1v0c0.1-0.3,0.3-0.6,0.4-0.8c0.2-0.3,0.4-0.5,0.6-0.7c0.2-0.2,0.5-0.4,0.7-0.5
		c0.3-0.1,0.5-0.2,0.8-0.2c0.4,0,0.8,0.1,1.1,0.4c0.3,0.3,0.5,0.7,0.6,1.2c0.1,0.8,0.3,1.6,0.5,2.4c0.3,0.8,0.5,1.5,0.8,2.3
		c0.3,0.8,0.5,1.6,0.7,2.4s0.3,1.6,0.3,2.5c0,0.2,0,0.4,0,0.6C15.7,99.5,15.7,99.7,15.6,99.9L15.6,99.9z M11.2,95.3
		c0-0.2,0-0.3,0-0.5c0-0.2-0.1-0.4-0.1-0.5s-0.2-0.3-0.3-0.4s-0.2-0.2-0.4-0.2l-0.1,0.1c-0.1,0.2-0.2,0.4-0.3,0.6
		c-0.1,0.2-0.2,0.4-0.3,0.5c-0.1,0.2-0.2,0.4-0.3,0.6c-0.1,0.2-0.1,0.4-0.2,0.6V96c0,0.2,0,0.3,0.1,0.4c0.1,0.1,0.2,0.2,0.3,0.2h0.1
		c0.1,0,0.2-0.1,0.4-0.1c0.1,0,0.2-0.1,0.3-0.2l0.2-0.1c0.1,0,0.3-0.2,0.4-0.3c0.1-0.2,0.2-0.3,0.2-0.5V95.3z"/>
	<path fill="#0F6B87" d="M23.9,90.8c-0.1,0.3-0.1,0.6-0.1,1c0,0.3,0,0.6-0.1,0.9v0c0,0.7,0,1.3,0,2c0,0.7,0,1.3-0.1,2v0
		c0,0.5-0.1,1.1-0.2,1.6c-0.1,0.5-0.3,1-0.6,1.5s-0.6,0.9-0.9,1.2c-0.4,0.4-0.8,0.6-1.3,0.7l0,0c-0.3,0.1-0.6,0.2-0.9,0.3
		s-0.6,0.1-0.9,0.1c-0.4,0-0.8-0.1-1.1-0.4c-0.3-0.2-0.6-0.5-0.8-0.9c-0.2-0.3-0.4-0.7-0.5-1.2c-0.1-0.4-0.2-0.9-0.2-1.3
		c0-0.6,0.1-1.2,0.2-1.8c0.1-0.6,0.2-1.2,0.2-1.8l0-0.2c0-0.1,0-0.1,0-0.2s0-0.1,0-0.2v0c0-0.2,0-0.4,0-0.6v-0.2
		c0-0.4,0.1-0.7,0.4-1.1s0.5-0.6,0.8-0.7v0c0.1-0.1,0.3-0.1,0.4-0.1c0.1,0,0.2,0,0.3,0.1c0.1,0.1,0.2,0.2,0.2,0.3s0.1,0.3,0.1,0.4
		c0,0.2,0,0.3,0,0.5c0,0.4,0,0.8-0.1,1.2c-0.1,0.4-0.1,0.8-0.2,1.1c-0.1,0.4-0.1,0.7-0.2,1.1c-0.1,0.4-0.1,0.7-0.1,1.1
		c0,0.2,0,0.3,0,0.5c0,0.2,0.1,0.3,0.1,0.5c0,0.2,0.1,0.3,0.2,0.4c0.1,0.1,0.2,0.2,0.3,0.3l0.1,0h0l0.2,0c0.2,0,0.4-0.1,0.5-0.2
		s0.3-0.3,0.4-0.5c0.1-0.2,0.2-0.4,0.3-0.6c0.1-0.2,0.1-0.4,0.2-0.6c0.1-0.8,0.2-1.6,0.3-2.4c0.1-0.8,0.1-1.6,0.1-2.4
		c0-0.2,0-0.5,0-0.7c0-0.2,0-0.5,0-0.7l0-0.1v0c0-0.2,0.1-0.4,0.2-0.6s0.3-0.4,0.4-0.5s0.4-0.3,0.6-0.3s0.4-0.1,0.6-0.1
		c0.1,0,0.2,0,0.3,0l0.1,0c0.1,0,0.2,0,0.3,0.1c0.1,0,0.2,0.1,0.3,0.1c0.1,0,0.1,0.1,0.2,0.2c0,0.1,0.1,0.2,0.1,0.3L23.9,90.8
		L23.9,90.8z"/>
	<path fill="#0F6B87" d="M32.9,89.8c0.1,0.1,0.1,0.2,0.2,0.3c0,0.1,0.1,0.2,0.1,0.4c0,0.3-0.1,0.6-0.2,0.9c-0.1,0.3-0.3,0.5-0.5,0.7
		s-0.4,0.4-0.7,0.5c-0.3,0.1-0.5,0.3-0.8,0.3c-0.1,0.1-0.3,0.1-0.4,0.2s-0.3,0.1-0.4,0.2c-0.1,0.1-0.3,0.1-0.4,0.2
		c-0.1,0.1-0.2,0.2-0.3,0.4l0,0c-0.1,0.2-0.2,0.4-0.2,0.6c0,0.2-0.1,0.4-0.1,0.7c0,0.8-0.1,1.6-0.1,2.4c0,0.8,0,1.6-0.1,2.4
		c0,0.2,0,0.4-0.1,0.7c0,0.2-0.1,0.5-0.2,0.7c-0.1,0.2-0.2,0.4-0.4,0.5s-0.3,0.2-0.6,0.2h-0.2c-0.3,0-0.5-0.1-0.6-0.2
		c-0.1-0.1-0.3-0.3-0.3-0.5c-0.1-0.2-0.1-0.4-0.1-0.7c0-0.3,0-0.5,0-0.7c0-0.7,0-1.3,0.1-2s0.1-1.3,0.1-2c0-0.2,0-0.4,0-0.6
		c0-0.2,0-0.4,0-0.6c0-0.1-0.1-0.1-0.3-0.1s-0.3,0-0.4,0.1c-0.1,0-0.3,0.1-0.4,0.1c-0.2,0-0.4-0.1-0.6-0.2c-0.2-0.1-0.3-0.3-0.3-0.6
		c0-0.2,0-0.5,0.1-0.7s0.2-0.5,0.4-0.7c0.1-0.2,0.3-0.4,0.5-0.6s0.4-0.3,0.5-0.4c0.1-0.1,0.2-0.1,0.4-0.2c0.1,0,0.2-0.1,0.4-0.1
		c0.2-0.1,0.5-0.2,0.9-0.3c0.3-0.1,0.7-0.3,1-0.5c0.4-0.2,0.7-0.3,1.1-0.5c0.4-0.2,0.7-0.3,1-0.4c0.2-0.1,0.4-0.1,0.6-0.1
		s0.4-0.1,0.5-0.1c0.2,0,0.3,0,0.5,0.1C32.6,89.6,32.8,89.6,32.9,89.8L32.9,89.8z"/>
	<path fill="#0F6B87" d="M39.1,99.4c-0.3,0.6-0.7,1-1.1,1.4c-0.4,0.4-0.9,0.7-1.4,1c-0.5,0.2-1,0.4-1.6,0.4c-0.5,0-1-0.1-1.4-0.4
		s-0.7-0.6-0.9-1c-0.2-0.4-0.4-0.9-0.5-1.4c-0.1-0.5-0.2-1.1-0.2-1.6c0-0.5,0.1-1.1,0.2-1.7c0.1-0.6,0.2-1.1,0.4-1.7
		c0.2-0.5,0.5-1,0.8-1.5c0.3-0.5,0.7-0.9,1.1-1.2c0.4-0.4,0.9-0.6,1.4-0.8c0.5-0.2,1-0.3,1.5-0.3h0.2c0.4,0,0.8,0.1,1.2,0.3
		c0.3,0.2,0.6,0.5,0.8,0.8c0.2,0.3,0.4,0.7,0.5,1.2c0.1,0.4,0.2,0.9,0.2,1.4c0,0.6,0,1.2-0.1,1.8s-0.2,1.2-0.4,1.7
		C39.6,98.2,39.4,98.8,39.1,99.4z M36.8,93.8c-0.2-0.2-0.5-0.3-0.8-0.3c-0.3,0-0.6,0.1-0.8,0.2c-0.2,0.2-0.4,0.4-0.6,0.6
		c-0.2,0.3-0.3,0.5-0.3,0.8c-0.1,0.3-0.1,0.6-0.2,0.9c0,0.3-0.1,0.6-0.1,0.9c0,0.3,0,0.5,0,0.6c0,0.3,0.1,0.7,0.3,0.9
		c0.2,0.3,0.4,0.5,0.7,0.5h0.4c0.4,0,0.7-0.2,0.9-0.5s0.4-0.6,0.6-0.9c0.1-0.4,0.2-0.8,0.3-1.2c0.1-0.4,0.1-0.8,0.1-1.2
		c0-0.1,0-0.2,0-0.4c0-0.1,0-0.2,0-0.4C37.1,94.3,37,94,36.8,93.8z"/>
	<path fill="#0F6B87" d="M48.5,100c-0.3,0.4-0.6,0.7-1,1c-0.3,0.3-0.7,0.5-1.1,0.7s-0.8,0.3-1.2,0.3c-0.4,0-0.9-0.1-1.3-0.2
		s-0.8-0.3-1.2-0.6c-0.4-0.2-0.7-0.5-0.9-0.9c-0.3-0.4-0.5-0.8-0.6-1.2c-0.3-0.8-0.4-1.7-0.4-2.7c0-0.8,0.1-1.5,0.2-2.3
		c0.2-0.8,0.4-1.6,0.8-2.4c0.2-0.5,0.5-1,0.9-1.5c0.4-0.5,0.7-0.9,1.2-1.3c0.4-0.4,0.9-0.7,1.4-1s1-0.4,1.5-0.4
		c0.3,0,0.5,0.1,0.7,0.2c0.1,0.1,0.3,0.1,0.5,0.1s0.4,0,0.6,0c0.2,0,0.4,0,0.5,0.1c0.2,0.1,0.3,0.2,0.4,0.4c0.2,0.2,0.3,0.5,0.4,0.8
		c0.1,0.3,0.2,0.6,0.2,1c0,0.3-0.1,0.7-0.3,1c-0.2,0.3-0.4,0.6-0.6,0.9c-0.2,0.3-0.5,0.5-0.8,0.6s-0.6,0.2-0.9,0.2
		c-0.2,0-0.4-0.1-0.6-0.2c-0.2-0.1-0.3-0.3-0.5-0.5c-0.2-0.2-0.3-0.3-0.5-0.5c-0.2-0.1-0.4-0.2-0.6-0.2c-0.2,0-0.3,0-0.4,0.1
		c-0.3,0.1-0.5,0.3-0.7,0.5c-0.2,0.2-0.4,0.5-0.5,0.7c-0.1,0.3-0.2,0.6-0.3,0.9s-0.1,0.6-0.2,0.9s-0.1,0.6-0.1,0.8
		c0,0.3,0,0.5,0,0.6c0,0.3,0,0.6,0.1,0.9c0,0.3,0.1,0.6,0.2,0.9c0.1,0.3,0.3,0.5,0.4,0.6c0.2,0.2,0.4,0.2,0.7,0.2
		c0.2,0,0.4,0,0.6-0.1s0.4-0.2,0.5-0.3c0.2-0.1,0.3-0.3,0.4-0.5c0.1-0.2,0.2-0.4,0.3-0.6c0.1-0.2,0.2-0.3,0.3-0.5s0.2-0.4,0.3-0.5
		c0.1-0.2,0.2-0.3,0.4-0.4c0.2-0.1,0.3-0.2,0.5-0.3c0.3,0,0.5,0.1,0.7,0.2c0.2,0.1,0.4,0.2,0.6,0.4s0.3,0.4,0.4,0.6s0.1,0.5,0.1,0.8
		c0,0.3,0,0.5-0.1,0.8c-0.1,0.3-0.2,0.5-0.4,0.7C49.1,99.2,48.8,99.6,48.5,100z"/>
	<path fill="#0F6B87" d="M57.2,101.1c-0.2,0.3-0.4,0.4-0.7,0.6s-0.6,0.2-1,0.2c-0.4,0-0.7,0-1,0h-1c-0.3,0-0.6,0-0.9,0
		c-0.3,0-0.6-0.1-0.9-0.2c-0.3-0.1-0.5-0.2-0.7-0.4c-0.2-0.2-0.3-0.4-0.3-0.7c0-0.2,0-0.4,0-0.6c0-0.2,0-0.4,0.1-0.6
		c0-0.5,0.1-1,0.1-1.4c0-0.5,0-0.9,0-1.4V96c0-0.3,0-0.6,0-0.9c0-0.3,0-0.6,0.1-0.9c0-0.2,0-0.5,0.1-0.8s0.1-0.6,0.3-0.9
		c0.1-0.3,0.3-0.5,0.5-0.8c0.2-0.2,0.5-0.3,0.8-0.3c0.2,0,0.3,0.1,0.5,0.2c0.1,0.1,0.2,0.3,0.2,0.5l0,0.2v0
		c-0.1,0.9-0.2,1.8-0.3,2.7c-0.1,0.9-0.1,1.8-0.1,2.7c0,0.3,0,0.5,0,0.8c0,0.3,0,0.5,0,0.8c0.1,0,0.2,0.1,0.3,0.1
		c0.1,0,0.3,0,0.4-0.1c0.1,0,0.3-0.1,0.5-0.1h0.1c0.1,0,0.2,0,0.3,0c0.1,0,0.2,0,0.2,0c0.1,0,0.3,0,0.4-0.1c0.1,0,0.3-0.1,0.5-0.1
		s0.3-0.1,0.5-0.1c0.1,0,0.3-0.1,0.4-0.1c0.3,0,0.5,0.1,0.8,0.4s0.3,0.5,0.3,0.8c0,0,0,0,0,0.1s0,0.1,0,0.1
		C57.5,100.6,57.4,100.9,57.2,101.1z"/>
	<path fill="#0F6B87" d="M63.3,91.4c0,0.3-0.1,0.5-0.2,0.6c-0.1,0.1-0.3,0.3-0.5,0.4c-0.2,0.1-0.4,0.2-0.5,0.3
		c-0.2,0.1-0.3,0.2-0.3,0.4v0.4c0,0.7-0.1,1.3-0.2,1.9c-0.1,0.6-0.2,1.2-0.2,1.8v0.2c0,0.1,0,0.3,0,0.4c0,0.1,0,0.3,0.1,0.4
		c0,0.1,0.1,0.2,0.2,0.3c0.1,0.1,0.2,0.2,0.4,0.2l0,0l0,0c0.1,0,0.2,0.1,0.3,0.1c0.1,0.1,0.2,0.1,0.3,0.2c0.1,0.1,0.2,0.2,0.2,0.3
		c0.1,0.1,0.1,0.2,0.1,0.4v0.1c0,0.2-0.1,0.5-0.2,0.7c-0.1,0.2-0.3,0.4-0.4,0.5c-0.2,0.1-0.4,0.3-0.6,0.4s-0.4,0.1-0.6,0.2h-0.1
		c-0.2,0-0.4,0-0.6-0.1s-0.4-0.1-0.6-0.1c-0.2,0-0.3,0-0.5,0.1c-0.2,0.1-0.3,0.1-0.5,0.1h-0.1c0,0-0.1,0-0.1,0v0.1l-0.2-0.2
		c0,0-0.1-0.1-0.1-0.1h0c-0.1-0.2-0.2-0.4-0.3-0.5c-0.1-0.2-0.1-0.3-0.1-0.5v0c0-0.3,0.1-0.5,0.2-0.7c0.2-0.2,0.3-0.3,0.5-0.4h0
		c0.1-0.1,0.2-0.1,0.4-0.2s0.2-0.2,0.2-0.4c0-0.2,0-0.4,0-0.6c0-0.2,0-0.4,0-0.6c0-0.5,0-0.9,0.1-1.3c0-0.4,0.1-0.9,0.1-1.3v-0.3
		c0-0.3,0-0.6,0-0.8c-0.1,0-0.2,0-0.3-0.1c-0.1,0-0.2-0.1-0.3-0.1c-0.1-0.1-0.2-0.1-0.2-0.2c-0.1-0.1-0.1-0.2-0.1-0.4
		c0-0.3,0.1-0.5,0.2-0.8c0.1-0.2,0.3-0.5,0.4-0.7s0.4-0.4,0.6-0.5c0.2-0.1,0.4-0.2,0.6-0.3c0.2,0,0.4-0.1,0.5-0.2
		c0.2-0.1,0.3-0.1,0.4-0.2c0.1,0,0.3-0.1,0.4-0.1c0.1,0,0.3-0.1,0.4-0.1l0,0c0,0,0.1,0,0.1,0c0,0,0,0,0.1,0c0.2,0,0.3,0,0.4,0.1
		c0.1,0.1,0.2,0.2,0.3,0.3c0.1,0.1,0.1,0.2,0.2,0.4c0,0.1,0.1,0.3,0.1,0.4V91.4z"/>
	<path fill="#0F6B87" d="M70.3,100.4c-0.3,0.3-0.5,0.6-0.8,0.8c-0.3,0.2-0.6,0.4-0.9,0.6c-0.3,0.1-0.6,0.2-1,0.2h-0.2
		c-0.4,0-0.7-0.1-1-0.2c-0.3-0.1-0.7-0.3-0.9-0.5s-0.5-0.5-0.8-0.8s-0.4-0.6-0.5-1c-0.1-0.4-0.2-0.7-0.2-1.1c0-0.4-0.1-0.8-0.1-1.2
		v-0.4c0-0.5,0.1-1.1,0.3-1.7s0.3-1.1,0.6-1.7c0.2-0.4,0.4-0.8,0.7-1.2c0.3-0.4,0.6-0.8,1-1.1s0.7-0.6,1.1-0.8
		c0.4-0.2,0.8-0.3,1.2-0.3c0.2,0,0.4,0.1,0.6,0.2l0,0c0.1,0,0.2,0.1,0.3,0.1c0.1,0,0.2,0,0.3,0h0.2c0.2,0,0.4,0,0.5,0.1
		s0.3,0.2,0.4,0.4l0,0c0.1,0.2,0.3,0.4,0.4,0.6c0.1,0.2,0.2,0.5,0.2,0.8v0.1c0,0.3-0.1,0.6-0.2,0.8c-0.1,0.3-0.3,0.5-0.5,0.7
		c-0.2,0.2-0.4,0.4-0.7,0.5c-0.3,0.1-0.5,0.2-0.8,0.2c-0.2,0-0.4-0.1-0.5-0.2c-0.1-0.1-0.3-0.2-0.4-0.4s-0.2-0.3-0.4-0.4
		s-0.3-0.2-0.5-0.2c-0.1,0-0.2,0-0.3,0l0,0c-0.3,0.1-0.5,0.4-0.7,0.6c-0.2,0.3-0.3,0.6-0.4,0.9c-0.1,0.3-0.2,0.7-0.2,1
		c0,0.3-0.1,0.6-0.1,0.9c0,0.2,0,0.5,0,0.7c0,0.2,0.1,0.4,0.1,0.6c0.1,0.2,0.2,0.4,0.3,0.5s0.3,0.2,0.5,0.2c0.4,0,0.7-0.2,0.9-0.4
		c0.2-0.2,0.4-0.5,0.5-0.8c0.1-0.3,0.3-0.6,0.5-0.8c0.2-0.3,0.4-0.5,0.7-0.5h0.1c0.2,0,0.4,0,0.6,0.1c0.2,0.1,0.4,0.2,0.5,0.4
		c0.1,0.2,0.3,0.3,0.4,0.6c0.1,0.2,0.1,0.4,0.1,0.7c0,0.2,0,0.5-0.1,0.7c-0.1,0.2-0.2,0.4-0.4,0.6C70.8,99.8,70.5,100.1,70.3,100.4z
		"/>
	<path fill="#0F6B87" d="M78.2,98.3c0.2,0.3,0.4,0.7,0.5,1.1c0,0.1,0.1,0.2,0.1,0.2c0,0.1,0,0.2,0,0.2c0,0.2,0,0.4-0.1,0.7
		c-0.1,0.2-0.2,0.4-0.3,0.6c-0.1,0.2-0.3,0.4-0.4,0.5c-0.2,0.1-0.4,0.2-0.6,0.3h-0.1c-0.1,0-0.2,0-0.3-0.1c-0.1-0.1-0.2-0.1-0.3-0.2
		c-0.1-0.1-0.1-0.2-0.2-0.3c-0.1-0.1-0.1-0.2-0.1-0.3c-0.1-0.4-0.2-0.7-0.4-1.1c-0.1-0.4-0.3-0.7-0.4-1c-0.2-0.3-0.3-0.6-0.5-0.9
		c-0.2-0.3-0.4-0.5-0.6-0.7c-0.2,0.3-0.3,0.5-0.3,0.9c0,0.3-0.1,0.7-0.1,1v0.7c0,0.2,0,0.3-0.1,0.5c0,0.2-0.1,0.3-0.2,0.5
		c-0.1,0.2-0.2,0.3-0.3,0.4s-0.2,0.1-0.4,0.1h-0.1c-0.1,0-0.3-0.1-0.4-0.2c-0.1-0.1-0.2-0.2-0.2-0.3c-0.1-0.1-0.1-0.3-0.2-0.4
		c0-0.2-0.1-0.3-0.1-0.5c0-0.9,0-1.7,0.1-2.6s0.1-1.7,0.2-2.5v-0.6c0-0.2,0-0.3,0-0.5c0-0.2,0-0.4,0-0.5v-0.1c0-0.2,0-0.3,0.1-0.5
		c0-0.2,0.1-0.4,0.2-0.5s0.2-0.3,0.3-0.5c0.1-0.1,0.3-0.2,0.4-0.3l0.1,0h0c0.1-0.1,0.2-0.1,0.3-0.1c0.2,0,0.4,0.1,0.5,0.3
		c0.1,0.2,0.2,0.4,0.2,0.6c0,0.4,0,0.8-0.1,1.1c-0.1,0.4-0.2,0.7-0.2,1c0,0.1,0,0.1,0,0.2c0,0,0,0.1,0,0.1c0.1-0.2,0.3-0.4,0.4-0.6
		c0.1-0.2,0.3-0.5,0.4-0.7c0.2-0.3,0.4-0.7,0.7-1.1c0.3-0.4,0.6-0.8,0.9-1.2c0.3-0.4,0.6-0.7,1-1c0.3-0.3,0.6-0.4,0.9-0.4
		c0.2,0,0.4,0.1,0.6,0.2c0.1,0.2,0.2,0.4,0.2,0.6v0c0,0.2,0,0.3-0.1,0.4s-0.1,0.3-0.1,0.4h0c-0.1,0.4-0.3,0.8-0.6,1.1
		c-0.3,0.3-0.5,0.6-0.8,0.9c-0.3,0.3-0.6,0.5-0.8,0.8c-0.3,0.3-0.4,0.6-0.5,1c0,0.5,0.2,0.9,0.4,1.3c0.2,0.4,0.5,0.7,0.7,1.1
		C77.8,97.6,78,97.9,78.2,98.3z"/>
	<path fill="#0F6B87" d="M86.3,101.6c-0.3,0.2-0.7,0.3-1,0.3h-0.8c-0.2,0-0.4,0-0.7,0.1c-0.2,0-0.4,0-0.6,0c-0.4,0-0.9,0-1.2-0.1
		c-0.4-0.1-0.7-0.2-1-0.2h-0.3c-0.2,0-0.4-0.1-0.5-0.3s-0.2-0.4-0.2-0.6v0c0-1.2,0.1-2.4,0.2-3.7s0.2-2.5,0.4-3.8
		c0-0.3,0.1-0.5,0.2-0.8c0.1-0.3,0.3-0.5,0.5-0.6l0.1-0.1c0.2,0,0.4-0.1,0.6-0.2c0.2-0.1,0.3-0.1,0.5-0.2c0.3-0.2,0.7-0.4,1.1-0.6
		c0.4-0.2,0.8-0.4,1.2-0.5s0.8-0.3,1.3-0.5c0.4-0.1,0.9-0.2,1.3-0.3h0c0.3,0,0.4,0.1,0.6,0.3c0.1,0.2,0.2,0.4,0.2,0.6v0.1
		c0,0.3-0.1,0.6-0.2,0.9c-0.2,0.3-0.4,0.5-0.6,0.7s-0.5,0.4-0.8,0.5c-0.3,0.1-0.5,0.2-0.8,0.3l0,0c-0.3,0.1-0.5,0.1-0.6,0.2
		c-0.2,0-0.3,0.1-0.5,0.1c-0.2,0-0.3,0.1-0.5,0.1c-0.2,0-0.3,0.1-0.5,0.1s-0.3,0.1-0.5,0.2c-0.1,0.1-0.3,0.2-0.3,0.4l0,0
		c-0.1,0.2-0.2,0.5-0.2,0.7v0.1c0,0.1,0,0.1,0,0.2c0,0.1,0,0.1,0.1,0.1c0,0,0.1,0,0.2,0L83,95l0,0c0.2-0.1,0.5-0.2,0.7-0.2
		c0.2-0.1,0.5-0.2,0.7-0.3h0c0.2-0.1,0.3-0.1,0.5-0.1c0.3,0,0.5,0.1,0.7,0.2c0.2,0.2,0.3,0.4,0.3,0.7c0,0.1,0,0.2,0,0.2v0
		c0,0.2-0.1,0.5-0.2,0.7c-0.1,0.2-0.2,0.4-0.4,0.6c-0.2,0.2-0.3,0.3-0.5,0.4c-0.2,0.1-0.4,0.2-0.6,0.2c0,0-0.1,0-0.1,0s-0.1,0-0.1,0
		h-0.2c-0.2,0-0.4,0-0.7,0.1c-0.3,0.1-0.5,0.2-0.7,0.2c-0.1,0.1-0.2,0.2-0.3,0.4c0,0.2-0.1,0.3-0.1,0.5v0c0,0,0,0,0,0.1
		c0,0.1,0,0.1,0,0.2c0,0.1,0.1,0.1,0.1,0.2c0.1,0.1,0.1,0.1,0.2,0.1c0.2,0,0.4,0,0.6-0.1c0.2-0.1,0.4-0.1,0.6-0.1h0.2
		c0.1,0,0.3,0,0.4,0c0.1,0,0.3,0,0.4,0c0.2,0,0.4,0,0.5-0.1s0.3-0.1,0.4-0.1s0.2-0.1,0.3-0.1c0.1,0,0.2-0.1,0.3-0.1
		c0.3,0,0.5,0.1,0.7,0.3c0.2,0.2,0.3,0.4,0.3,0.7c0,0.2,0,0.3-0.1,0.5c-0.1,0.2-0.1,0.3-0.2,0.5C86.8,101.1,86.6,101.4,86.3,101.6z"
		/>
	<path fill="#0F6B87" d="M96.3,91.2c0.1,0.2,0.2,0.4,0.3,0.6c0.1,0.2,0.1,0.5,0.1,0.8c0,0.4-0.1,0.8-0.3,1.2
		c-0.2,0.4-0.4,0.8-0.6,1.2c-0.1,0.2-0.2,0.3-0.3,0.5s-0.2,0.3-0.4,0.5c-0.1,0.2-0.2,0.4-0.3,0.5c-0.1,0.2-0.2,0.4-0.2,0.5
		c0.1,0.2,0.2,0.4,0.3,0.7s0.2,0.4,0.3,0.6c0.1,0.2,0.2,0.4,0.3,0.6s0.1,0.5,0.1,0.7c0,0.2-0.1,0.5-0.2,0.7
		c-0.1,0.2-0.2,0.4-0.4,0.6c-0.2,0.2-0.4,0.3-0.6,0.4c-0.2,0.1-0.5,0.2-0.7,0.2c-0.2,0-0.4-0.1-0.5-0.2s-0.3-0.3-0.4-0.5
		c-0.1-0.2-0.2-0.4-0.3-0.6c-0.1-0.2-0.1-0.4-0.2-0.5c0-0.1-0.1-0.3-0.1-0.5c-0.1-0.2-0.1-0.4-0.2-0.6c-0.1-0.2-0.2-0.4-0.3-0.5
		c-0.1-0.1-0.3-0.2-0.4-0.2c-0.1,0-0.2,0-0.3,0.1c-0.1,0.1-0.2,0.2-0.2,0.3c-0.1,0.1-0.1,0.2-0.2,0.3c0,0.1-0.1,0.2-0.1,0.2
		c0,0.3,0,0.5,0.1,0.8s0.1,0.6,0.1,1c0,0.3-0.1,0.6-0.3,0.8c-0.2,0.2-0.5,0.3-0.8,0.3c-0.1,0-0.3,0-0.4-0.1s-0.2-0.2-0.3-0.3
		c-0.1-0.1-0.1-0.3-0.2-0.5s-0.1-0.4-0.1-0.5c0,0,0-0.1,0-0.1s0-0.1,0-0.2c0-0.4,0-0.8,0-1.2c0-0.4,0-0.8,0-1.2c0-0.7,0-1.3,0.1-1.9
		s0.1-1.3,0.2-1.9c0-0.2,0-0.3,0.1-0.5c0-0.2,0.1-0.4,0.2-0.5s0.2-0.3,0.3-0.5c0.1-0.1,0.2-0.2,0.4-0.3c0.2-0.1,0.4-0.2,0.6-0.3
		c0.2-0.1,0.4-0.2,0.6-0.4c0.2-0.1,0.4-0.2,0.6-0.4s0.5-0.2,0.7-0.4c0.3-0.2,0.6-0.3,0.9-0.4s0.7-0.1,1-0.1c0.4,0,0.8,0.1,1.2,0.3
		C95.7,90.5,96,90.8,96.3,91.2L96.3,91.2z M93.4,93.6c0-0.1,0-0.3-0.1-0.3c-0.1-0.1-0.1-0.1-0.3-0.1c-0.1,0-0.1,0-0.2,0
		c-0.3,0.1-0.6,0.2-0.9,0.4s-0.6,0.3-0.9,0.3c-0.1,0.1-0.2,0.3-0.2,0.5s-0.1,0.4-0.1,0.6c0.3,0.1,0.5,0.2,0.7,0.2
		c0.1,0,0.3,0,0.5-0.1s0.4-0.1,0.6-0.2c0.2-0.1,0.4-0.3,0.6-0.4c0.2-0.2,0.3-0.4,0.3-0.7V93.6z"/>
</g>
</svg>
