<?xml version="1.0" encoding="utf-8"?>
<!-- Generator: Adobe Illustrator 17.0.0, SVG Export Plug-In . SVG Version: 6.00 Build 0)  -->
<!DOCTYPE svg PUBLIC "-//W3C//DTD SVG 1.1//EN" "http://www.w3.org/Graphics/SVG/1.1/DTD/svg11.dtd">
<svg version="1.1" id="Calque_1" xmlns="http://www.w3.org/2000/svg" xmlns:xlink="http://www.w3.org/1999/xlink" x="0px" y="0px"
	 width="103px" height="152px" viewBox="0 0 103 152" enable-background="new 0 0 103 152" xml:space="preserve">
<g>
	<path fill="#E4F1F4" stroke="#0F6B87" stroke-width="3" stroke-miterlimit="10" d="M101.5,138.5c0,6.6-5.4,12-12,12h-76
		c-6.6,0-12-5.4-12-12v-125c0-6.6,5.4-12,12-12h76c6.6,0,12,5.4,12,12V138.5z"/>
	<g>
		<path fill="#F5CBA0" d="M14.2,39.1c0.2-1.1,0.6-2.2,1-3.3c1.1-3,2.5-5.8,4.3-8.4c1.2-1.8,2.5-3.4,4-5c3-3.2,6.4-5.7,10.3-7.8
			c3-1.6,6.2-2.7,9.5-3.4c0,0,0.1,0,0.1,0c0.9,0.9,1.5,2,2.2,3.1c0.1,0.1,0.1,0.3,0.3,0.3c0.1,0.2,0.2,0.4,0.3,0.7
			c0,0.2,0.1,0.3,0.2,0.5c0.4,0.8,0.8,1.6,1,2.5c0.4,1.4,0.5,2.8,0.1,4.2c-0.2,0.7-0.4,1.4-0.6,2.1c-0.1,0.3,0,0.7-0.3,1
			c-0.3-0.8-0.7-1.5-1.3-2.1c-1.2-1.1-2.6-1.6-4.2-1.6c-1.5,0-2.9,0.3-4.2,0.9c-0.6,0.3-1.2,0.6-1.5,1.2c-0.4,0.7-0.2,1.7,0.4,2.4
			c0.4,0.4,0.7,0.8,1,1.4c0.8,1.6,1.8,3,3.2,4.1c0.9,0.7,1.8,1.1,2.9,0.8c0.9-0.2,1.6-0.8,2.2-1.5c0.9-1.1,1.5-2.2,1.7-3.6
			c0.7,0.6,1.4,0.4,2,0c0.7-0.4,1.4-0.8,2.2-1.2c2.7-1.4,5.5-2.8,8.3-4c1.4-0.6,2.8-1.2,4.3-1.6c0.4-0.1,0.8-0.2,1.2,0.1
			c1.6,1.1,3.2,2.2,4.5,3.8c0.4,0.6,0.8,1.2,0.5,1.9c-0.2,0.5-0.4,1-0.7,1.5c-0.4,0.7-0.9,1.4-1.2,2.1c-0.3,0.8-0.2,1.5,0.4,2
			c0.5,0.4,1,0.7,1.6,0.9c2.2,0.9,4.6,1.5,6.8,2.5c1.6,0.7,3.1,1.6,4.4,2.9c1.1,1.2,1.1,3,0,4.1c-0.6,0.6-1.2,1.1-1.7,1.7
			c-0.7,0.7-0.7,1.2-0.2,2c0.9,1.2,2.1,2,3.7,2.2c0.1,0.2,0.2,0.3,0.3,0.5c0.5,0.8,1.1,1.6,1.9,2.2c0.7,0.5,1.5,0.5,2.2,0
			c1.3-1,2-2.3,1.8-4c0.4-0.1,0.8-0.2,1-0.6c0.1,0.1,0.1,0.1,0.1,0.2c0.1,1.5,0.1,2.9,0,4.4c-0.3,4.4-1.2,8.6-2.9,12.6
			c-1.5,3.5-3.4,6.7-5.8,9.7c-2.6,3.1-5.6,5.8-9,8c-4.2,2.7-8.7,4.5-13.5,5.4c-1.9,0.4-3.7,0.6-5.6,0.7c-2.9,0.2-5.7-0.1-8.6-0.6
			c-2.8-0.5-5.5-1.3-8.1-2.4c-0.1-0.1-0.3-0.1-0.5-0.1c0-0.1,0-0.2-0.1-0.4c-0.3-0.6-0.6-1.1-1-1.7c-1-1.5-2.3-2.4-4.2-2.2
			c-0.6,0-1.1-0.1-1.6-0.4c-1.4-0.8-2.3-2.1-3-3.5c-0.2-0.4-0.3-0.9-0.5-1.3c0-0.1,0-0.3,0-0.4c0.1-0.1,0.1-0.1,0.1-0.2
			c0.1-0.7,0.1-1.5,0.2-2.2c0.1-1.6,0.1-3.2-0.3-4.7c-0.2-0.7-0.5-1.4-1.2-1.9c-2.3-1.5-3.2-4.5-2.7-6.9c0.3-1.3,0.8-2.5,1.1-3.8
			c0.4-1.6,1.1-3.1,1.3-4.8c0.1-0.8,0-1.5-0.6-2c-0.5-0.4-1-0.6-1.6-0.7c-0.9-0.2-1.8-0.2-2.6-0.6c-0.4-0.1-0.7-0.3-0.9-0.7
			c0.2-0.3,0.3-0.5,0.5-0.8c0.4-0.8,0.7-1.7,1-2.6c0.4-1.5,0.7-3,0.7-4.6c0-0.9-0.9-1.8-1.9-1.4c-0.5,0.2-0.9,0.5-1.3,0.8
			c-0.3-0.4-0.8-0.6-1.2-0.8c-0.3-0.1-0.5,0.1-0.5,0.3c-0.1,0.2-0.2,0.4-0.1,0.7c0,0.1,0,0.2,0,0.3C15.2,38.3,14.8,38.8,14.2,39.1z
			 M48.1,79.4c0.5,0.5,1,1,1.6,1.4c1.6,1,2.4,1,4,0.1c0.6-0.3,1-0.9,1.4-1.4c1.4-1.8,1.6-4.4,0.6-6.2c-0.7-1.2-1.8-2-3.1-2.4
			c0.1,0,0.1-0.1,0.2-0.1c1.3-0.6,2.6-1.1,3.9-1.8c1.2-0.6,2.1-1.5,2.6-2.8c0.1-0.2,0.1-0.3-0.1-0.4c-0.3-0.2-0.4-0.5-0.5-0.8
			c-0.2-0.7-0.2-1.4-0.2-2.1c0-0.6,0-1.1-0.1-1.7c-0.1-1.1,0-2.1,0.7-2.9c0.6-0.8,1.2-1.7,1.5-2.6c0.3-0.8,0.5-1.7,0.7-2.6
			c0.1-0.6,0.3-1.2,0.2-1.8c0.2-0.1,0.5-0.3,0.7-0.4c1.2-1,2.1-2.3,2.5-3.8c0.3-1.3,0.2-2.5-0.5-3.6c-1.2-2.1-3.1-2.9-5.5-2.8
			c-0.8,0-1.7,0.2-2.5,0.4c-1,0.3-1.9,0.6-2.7,1.4c-0.4,0.5-0.7,1-0.5,1.6c0.2,0.5,0.4,1,0.8,1.4c0,0.1-0.1,0.2-0.2,0.3
			c-0.4,0.3-0.8,0.7-1,1.2c-0.2,0.4-0.1,0.8,0.2,1.1c0.3,0.3,0.7,0.5,1.1,0.7c0.7,0.3,1.4,0.5,1.9,0.9c0.2,0.1,0.4,0.3,0.5,0.6
			c0.1,0.5-0.1,1-0.3,1.4c-0.7,1.2-1.8,2.2-2.9,3c-1.6,1.3-3.4,2.3-5.2,3.3c-1.6,0.9-3.3,1.7-4.9,2.6c-1,0.6-2,1.3-2.6,2.3
			c-0.4,0.6-0.5,1.2-0.3,1.9c0.3,1.1,1.1,1.7,2,2.2c0.1,0,0.2,0,0.2,0c0.6-0.1,1.1-0.2,1.7-0.3c0.5-0.1,0.9,0,1.2,0.5
			c0.5,0.8,0.7,1.7,0.7,2.6c0,0.7,0,1.5-0.1,2.2c-0.1,0.1-0.1,0.1-0.2,0.2c-1,0.7-1.2,1.3-0.9,2.4c-0.2,0.2-0.4,0.4-0.6,0.6
			c-0.4,0.5-0.7,1-0.7,1.6c0,0.8,0.2,1.7,0.4,2.5c0.2,0.9,0.4,1.8,0.7,2.7c0.2,0.6,0.7,0.8,1.2,0.5c0.4-0.3,0.8-0.6,1-1
			C47.2,80.6,47.7,80,48.1,79.4z M32.6,51.4c-0.5,0-1.1,0.1-1.7,0.2c-1.2,0.2-2.3,0.5-3.2,1.3c-0.6,0.4-0.9,1-0.8,1.7
			c0.1,0.5,0.3,0.9,0.7,1.3c0.4,0.5,0.8,1,1.1,1.5c0.8,1.5,1.8,2.9,3.2,4c1.4,1,2.9,1.3,4.3,0.1c1.7-1.4,2.6-3.2,2.4-5.5
			c-0.1-1.2-0.6-2.2-1.5-3C35.9,51.8,34.4,51.3,32.6,51.4z M75.2,69.5c-0.7,0.1-1.7,0.3-2.5,0.8c-0.8,0.5-1,1.3-0.4,2.1
			c0.4,0.5,0.7,1,1,1.6c0.5,0.8,1.1,1.6,1.9,2.1c0.8,0.5,1.6,0.4,2.3-0.1c0.5-0.4,0.8-0.8,1.1-1.4c0.8-1.3,0.7-2.8-0.1-3.9
			C77.8,69.7,76.7,69.4,75.2,69.5z"/>
		<path fill="#E7B895" d="M45.9,14.7c-0.2,0-0.2-0.2-0.3-0.3c-0.7-1.1-1.3-2.1-2.2-3.1c1-0.3,2.1-0.4,3.1-0.6c2-0.2,3.9-0.4,5.9-0.3
			c3.6,0.1,7.2,0.7,10.7,1.7c4.5,1.4,8.5,3.6,12.1,6.4c0.1,0.1,0.2,0.1,0.2,0.2c-0.4,0-0.8-0.2-1.2-0.1c-1.4,0.1-2.5,2.6-1.9,3.9
			c0.7,1.7,1.7,3.2,3.1,4.5c1.1,1,2.3,1.7,3.9,1.6c1.2,0,2.7-0.8,3.1-2.1c0.1,0,0.2,0.1,0.3,0.2c1.6,2.2,2.9,4.5,3.9,6.9
			c1.2,2.7,2.1,5.5,2.7,8.4c0.1,0.3,0,0.7,0.3,0.9c0,0.1,0,0.2,0,0.2c-0.1,0.3-0.1,0.5,0.1,0.7c0,0.1,0,0.1,0,0.2c0,0,0,0,0,0
			c0,0,0,0,0,0.1c0,0.1,0,0.1,0,0.2c-0.1,0.1-0.1,0.1,0,0.2c0,0.1,0,0.2,0,0.2c0,0,0,0,0,0c0,0,0,0,0,0.1c0,0.2,0.1,0.5,0.1,0.7
			c0,0,0,0,0,0c0,0,0,0,0,0.1c0,0.3,0,0.6,0,0.9c-0.2,0.4-0.6,0.5-1,0.6c-0.2-0.9-0.6-1.6-1.4-2.1c-0.9-0.5-1.8-0.6-2.8-0.5
			c-0.8,0.1-1.6,0.3-2.3,0.8c-0.9,0.6-1,1.3-0.4,2.1c0.2,0.4,0.6,0.6,0.7,1.1c-1.5-0.2-2.8-0.9-3.7-2.2c-0.6-0.8-0.5-1.3,0.2-2
			c0.6-0.6,1.2-1.1,1.7-1.7c1.1-1.1,1.1-3,0-4.1c-1.2-1.3-2.8-2.1-4.4-2.9c-2.2-1-4.5-1.6-6.8-2.5c-0.6-0.2-1.1-0.5-1.6-0.9
			c-0.6-0.5-0.8-1.2-0.4-2c0.3-0.8,0.8-1.4,1.2-2.1c0.3-0.5,0.5-1,0.7-1.5c0.3-0.7,0-1.4-0.5-1.9c-1.2-1.6-2.8-2.7-4.5-3.8
			c-0.4-0.3-0.8-0.2-1.2-0.1c-1.5,0.4-2.9,1-4.3,1.6c-2.8,1.2-5.5,2.6-8.3,4c-0.7,0.4-1.4,0.8-2.2,1.2c-0.7,0.4-1.4,0.6-2,0
			c0.1-0.7,0-1.4-0.2-2c0.3-0.3,0.2-0.7,0.3-1c0.2-0.7,0.4-1.4,0.6-2.1c0.4-1.4,0.3-2.8-0.1-4.2c-0.3-0.9-0.6-1.7-1-2.5
			c-0.1-0.2-0.2-0.3-0.2-0.5c0.2,0.2,0.5,0.5,0.6,0.8c0.5,0.9,1,1.8,1.8,2.5c0.9,0.8,1.9,1,2.7,0.4c0.7-0.5,1.2-1.1,1.5-1.9
			c0.9-2,0-4.1-2.1-4.6c-1.3-0.3-2.6,0-3.8,0.5C46.2,13.3,45.8,13.8,45.9,14.7z"/>
		<path fill="#E7B896" d="M14.2,39.1c0.5-0.3,0.9-0.8,1.4-1.2c0.1-0.1,0.1-0.2,0-0.3c-0.1-0.2,0-0.5,0.1-0.7
			c0.1-0.2,0.3-0.4,0.5-0.3c0.5,0.1,0.9,0.4,1.2,0.8c-0.2,0.4-0.4,0.6-0.5,1c-0.3,1.5-0.5,3.1-0.8,4.6c-0.1,0.4-0.2,0.7-0.1,1.1
			c0.1,0.5,0.3,1.1,0.6,1.5c0.6,1,1,1,1.9,0.3c0.2,0.4,0.5,0.5,0.9,0.7c0.8,0.3,1.8,0.4,2.6,0.6c0.6,0.1,1.2,0.3,1.6,0.7
			c0.6,0.6,0.7,1.3,0.6,2c-0.2,1.6-0.8,3.2-1.3,4.8c-0.3,1.3-0.8,2.5-1.1,3.8c-0.5,2.4,0.3,5.4,2.7,6.9c0.7,0.4,1,1.1,1.2,1.9
			c0.4,1.5,0.4,3.1,0.3,4.7c-0.1,0.7-0.1,1.5-0.2,2.2c0,0.1,0,0.2-0.1,0.2c-0.2-0.3-0.3-0.7-0.5-1c-1-1.7-2.2-3.2-3.7-4.5
			c-0.5-0.4-1-0.8-1.6-1c-0.9-0.4-1.8-0.3-2.4,0.4c0,0-0.1,0.1-0.2,0.1c-0.6-0.7-1-1.6-1.4-2.4c-0.9-2-1.6-4.1-2-6.3
			c-0.2-1-0.3-2.1-0.4-3.1c0-0.4-0.1-0.7-0.1-1.1c0.1-0.1,0.1-0.3,0.1-0.4c0-1.4-0.1-2.9-0.2-4.3c0-0.8,0-1.6-0.1-2.3
			c0-1.4-0.1-2.9,0-4.3c0-0.3,0.1-0.5-0.1-0.8c0.1-0.8,0.2-1.6,0.3-2.4C13.8,40.3,14,39.7,14.2,39.1z"/>
		<path fill="#89BF6F" d="M82.4,26.5c-0.3,1.4-1.9,2.1-3.1,2.1c-1.6,0-2.8-0.7-3.9-1.6c-1.4-1.2-2.4-2.8-3.1-4.5
			c-0.5-1.3,0.5-3.8,1.9-3.9c0.4,0,0.8,0.1,1.2,0.1c1.7,0.7,2.9,1.9,4.2,3.1c0.5,0.5,1.1,1.1,1.6,1.6c0.7,0.7,1.2,1.5,1.2,2.5
			C82.4,26.1,82.4,26.3,82.4,26.5z"/>
		<path fill="#D7595D" d="M17.5,68.5c0.1,0,0.1-0.1,0.2-0.1c0.7-0.6,1.6-0.7,2.4-0.4c0.6,0.3,1.1,0.6,1.6,1c1.4,1.3,2.7,2.8,3.7,4.5
			c0.2,0.3,0.3,0.7,0.5,1c0,0.1,0,0.3,0,0.4c-0.1,0.5-0.5,0.7-1,0.7c-0.7,0-1.3-0.3-1.9-0.4c0,0,0,0,0,0c0,0-0.1,0-0.1-0.1
			c-0.6-0.3-1.2-0.5-1.7-0.8c-1.7-1-2.9-2.4-3.4-4.3C17.5,69.5,17.3,69,17.5,68.5z"/>
		<path fill="#E7B896" d="M22.9,75.2c0.6,0.1,1.2,0.3,1.9,0.4c0.6,0,0.9-0.2,1-0.7c0.3,0.4,0.4,0.8,0.5,1.3c0.7,1.4,1.6,2.7,3,3.5
			c0.5,0.3,1,0.5,1.6,0.4c1.9-0.2,3.2,0.8,4.2,2.2c0.4,0.5,0.7,1.1,1,1.7c0,0.1,0.1,0.2,0.1,0.4c-1.4-0.6-2.8-1.3-4.1-2.1
			c-3.2-1.9-6.2-4.1-8.9-6.7C23,75.4,22.9,75.4,22.9,75.2z"/>
		<path fill="#F5CCA4" d="M82.4,26.5c0-0.2,0.1-0.3,0.1-0.5c0.8,1,1.5,2.1,2.2,3.2c2,3.4,3.5,7.1,4.4,10.9c0.2,0.9,0.4,1.8,0.5,2.8
			c-0.3-0.2-0.2-0.6-0.3-0.9c-0.6-2.9-1.5-5.7-2.7-8.4c-1.1-2.4-2.4-4.8-3.9-6.9C82.6,26.6,82.5,26.5,82.4,26.5z"/>
		<path fill="#F5CCA4" d="M13.4,43.3c0.1,0.3,0.1,0.5,0.1,0.8c-0.2,1.4-0.1,2.9,0,4.3c0,0.8,0,1.6,0.1,2.3c0.1,1.4,0.1,2.9,0.2,4.3
			c0,0.1,0,0.3-0.1,0.4c-0.2-0.9-0.3-1.9-0.4-2.8c-0.2-1.6-0.2-3.3-0.2-4.9C13,46.3,13.1,44.8,13.4,43.3z"/>
		<path fill="#F5CCA4" d="M89.7,43.9c-0.2-0.2-0.2-0.5-0.1-0.7C89.7,43.4,89.7,43.7,89.7,43.9z"/>
		<path fill="#F5CCA4" d="M89.8,44.5c-0.1,0-0.1-0.1,0-0.2C89.8,44.3,89.8,44.4,89.8,44.5z"/>
		<path fill="#F5CCA4" d="M89.8,44.1C89.7,44.1,89.7,44.1,89.8,44.1C89.7,44.1,89.7,44.1,89.8,44.1C89.7,44.1,89.7,44.1,89.8,44.1z"
			/>
		<path fill="#F5CCA4" d="M89.8,44.8C89.8,44.8,89.8,44.8,89.8,44.8C89.8,44.7,89.8,44.7,89.8,44.8C89.8,44.7,89.8,44.8,89.8,44.8z"
			/>
		<path fill="#F5CCA4" d="M89.9,45.6C89.9,45.6,89.9,45.6,89.9,45.6C89.9,45.5,89.9,45.5,89.9,45.6C89.9,45.5,89.9,45.6,89.9,45.6z"
			/>
		<path fill="#E7B896" d="M22.8,75.2C22.8,75.2,22.8,75.2,22.8,75.2C22.8,75.2,22.8,75.2,22.8,75.2z"/>
		<path fill="#E7B895" d="M61.5,51.4c0,0.6-0.1,1.2-0.2,1.8c-0.2,0.9-0.4,1.7-0.7,2.6c-0.3,1-0.9,1.8-1.5,2.6
			c-0.7,0.9-0.8,1.9-0.7,2.9c0.1,0.5,0.1,1.1,0.1,1.7c0.1,0.7,0.1,1.4,0.2,2.1c0.1,0.3,0.2,0.6,0.5,0.8c0.2,0.1,0.2,0.2,0.1,0.4
			c-0.5,1.3-1.4,2.2-2.6,2.8c-1.3,0.6-2.6,1.2-3.9,1.8c-0.1,0-0.1,0.1-0.2,0.1c-0.9-0.2-1.8-0.3-2.7-0.2c-1.4,0.1-2.7,0.4-4,1.1
			C46,71,46,70.3,46,69.5c-0.1-0.9-0.2-1.8-0.7-2.6c-0.3-0.5-0.7-0.6-1.2-0.5c-0.6,0.1-1.1,0.2-1.7,0.3c-0.1,0-0.2,0-0.2,0
			c-0.9-0.6-1.7-1.1-2-2.2c-0.2-0.7,0-1.3,0.3-1.9c0.7-1,1.6-1.7,2.6-2.3c1.6-0.9,3.3-1.7,4.9-2.6c1.8-1,3.6-2.1,5.2-3.3
			c1.1-0.8,2.1-1.8,2.9-3c0.3-0.4,0.4-0.9,0.3-1.4c0-0.3-0.3-0.4-0.5-0.6c-0.6-0.4-1.3-0.6-1.9-0.9c-0.4-0.2-0.8-0.4-1.1-0.7
			c-0.3-0.3-0.4-0.7-0.2-1.1c0.2-0.5,0.6-0.8,1-1.2c0.1-0.1,0.2-0.1,0.2-0.3c0.2,0.2,0.5,0.5,0.7,0.8c0.8,1.5,1.6,2.8,2.9,4
			C58.6,51.3,59.9,51.9,61.5,51.4z"/>
		<path fill="#D7595D" d="M32.6,51.4c1.8,0,3.2,0.4,4.5,1.6c0.9,0.8,1.4,1.9,1.5,3c0.2,2.3-0.7,4.1-2.4,5.5c-1.4,1.2-2.9,1-4.3-0.1
			c-1.4-1-2.4-2.4-3.2-4c-0.3-0.6-0.7-1.1-1.1-1.5c-0.3-0.4-0.6-0.8-0.7-1.3c-0.2-0.7,0.2-1.3,0.8-1.7c1-0.8,2.1-1.1,3.2-1.3
			C31.5,51.4,32.1,51.3,32.6,51.4z"/>
		<path fill="#89BF6F" d="M46.7,25.6c0.2,0.7,0.3,1.3,0.2,2c-0.1,1.4-0.8,2.6-1.7,3.6c-0.6,0.7-1.3,1.3-2.2,1.5
			c-1.1,0.2-2-0.2-2.9-0.8c-1.4-1.1-2.4-2.5-3.2-4.1c-0.3-0.5-0.7-0.9-1-1.4c-0.6-0.8-0.8-1.7-0.4-2.4c0.3-0.6,0.9-0.9,1.5-1.2
			c1.3-0.6,2.7-0.9,4.2-0.9c1.6,0,3,0.5,4.2,1.6C46,24,46.5,24.8,46.7,25.6z"/>
		<path fill="#398AC7" d="M61.5,51.4c-1.6,0.6-2.9-0.1-4-1.2c-1.2-1.1-2.1-2.5-2.9-4c-0.2-0.3-0.4-0.6-0.7-0.8
			c-0.3-0.4-0.6-0.9-0.8-1.4c-0.2-0.6,0-1.2,0.5-1.6c0.7-0.8,1.7-1.1,2.7-1.4c0.8-0.2,1.6-0.4,2.5-0.4c2.3,0,4.3,0.7,5.5,2.8
			c0.6,1.1,0.8,2.3,0.5,3.6c-0.4,1.6-1.2,2.8-2.5,3.8C62,51.1,61.8,51.2,61.5,51.4z"/>
		<path fill="#398AC7" d="M45.9,71.7c1.3-0.6,2.6-1,4-1.1c0.9-0.1,1.8,0,2.7,0.2c1.3,0.4,2.4,1.2,3.1,2.4c1,1.8,0.8,4.4-0.6,6.2
			c-0.4,0.5-0.8,1.1-1.4,1.4c-1.5,0.9-2.4,1-4-0.1c-0.6-0.4-1.1-0.9-1.6-1.4c-0.8-1.1-1.6-2.2-2.2-3.4c0-0.1-0.1-0.1-0.1-0.2
			c-0.5-0.4-0.8-0.9-1.1-1.5c-0.3-1.1-0.1-1.8,0.9-2.4C45.7,71.8,45.8,71.8,45.9,71.7z"/>
		<path fill="#D7595D" d="M75.2,69.5c1.5-0.1,2.6,0.2,3.4,1.2c0.9,1.1,0.9,2.6,0.1,3.9c-0.3,0.5-0.7,1-1.1,1.4
			c-0.7,0.6-1.5,0.6-2.3,0.1c-0.9-0.5-1.4-1.3-1.9-2.1c-0.3-0.5-0.6-1.1-1-1.6c-0.6-0.8-0.5-1.5,0.4-2.1
			C73.5,69.8,74.5,69.6,75.2,69.5z"/>
		<path fill="#D7595D" d="M45.9,14.7c-0.1-0.9,0.4-1.4,1.1-1.7c1.2-0.5,2.5-0.9,3.8-0.5c2.1,0.5,3,2.6,2.1,4.6
			c-0.3,0.8-0.8,1.4-1.5,1.9c-0.8,0.6-1.8,0.4-2.7-0.4c-0.8-0.7-1.3-1.5-1.8-2.5c-0.2-0.3-0.4-0.6-0.6-0.8
			C46.1,15.1,46,14.9,45.9,14.7z"/>
		<path fill="#F9DE55" d="M82.8,48.4c-0.1-0.4-0.5-0.7-0.7-1.1c-0.6-0.8-0.4-1.5,0.4-2.1c0.7-0.5,1.5-0.7,2.3-0.8
			c1-0.1,1.9-0.1,2.8,0.5c0.8,0.5,1.2,1.2,1.4,2.1c0.2,1.7-0.5,3-1.8,4c-0.7,0.5-1.5,0.5-2.2,0c-0.8-0.5-1.4-1.3-1.9-2.2
			C82.9,48.8,82.9,48.6,82.8,48.4z"/>
		<path fill="#F9DE55" d="M18.5,46.1c-0.9,0.7-1.3,0.7-1.9-0.3c-0.3-0.5-0.5-1-0.6-1.5c-0.1-0.3,0.1-0.7,0.1-1.1
			c0.3-1.6,0.5-3.1,0.8-4.6c0.1-0.4,0.4-0.7,0.5-1c0.4-0.3,0.8-0.6,1.3-0.8c1-0.4,1.9,0.5,1.9,1.4c0.1,1.6-0.2,3.1-0.7,4.6
			c-0.3,0.9-0.5,1.8-1,2.6C18.9,45.5,18.7,45.8,18.5,46.1z"/>
		<path fill="#E7B896" d="M44.7,74.3c0.3,0.5,0.6,1,1.1,1.5c0.1,0.1,0.1,0.1,0.1,0.2c0.6,1.2,1.3,2.3,2.2,3.4
			c-0.4,0.6-0.9,1.3-1.3,1.9c-0.3,0.4-0.6,0.7-1,1c-0.5,0.3-1,0.1-1.2-0.5c-0.3-0.9-0.4-1.8-0.7-2.7c-0.2-0.8-0.4-1.6-0.4-2.5
			c0-0.6,0.3-1.2,0.7-1.6C44.3,74.7,44.5,74.5,44.7,74.3z"/>
	</g>
	<g>
		<path fill="#0F6B87" d="M35.9,93.6c0,0.5-0.1,1-0.2,1.6s-0.4,1-0.7,1.5c0.3,0.5,0.5,1.1,0.7,1.6c0.2,0.6,0.3,1.2,0.3,1.8
			c0,0.8-0.2,1.4-0.5,2.1s-0.7,1.2-1.3,1.6v0c-0.7,0.5-1.4,0.9-2.2,1.1c-0.8,0.2-1.5,0.3-2.2,0.3c-0.4,0-0.8,0-1.2-0.1
			c-0.4-0.1-0.8-0.1-1.2-0.2c-0.1,0-0.3-0.1-0.4-0.3s-0.1-0.3-0.1-0.5v0c0-1.6,0.1-3.1,0.2-4.6c0.1-1.5,0.2-3.1,0.4-4.6
			c0-0.4,0.1-0.7,0.3-1.1c0.2-0.4,0.4-0.7,0.7-1c0.3-0.2,0.5-0.4,0.8-0.6c0.3-0.1,0.6-0.3,0.8-0.4l0.2-0.1c0.2-0.1,0.5-0.2,0.8-0.3
			c0.3-0.1,0.5-0.2,0.8-0.3c0.3-0.1,0.6-0.2,0.8-0.2c0.3-0.1,0.5-0.1,0.8-0.1c0.3,0,0.5,0.1,0.8,0.2c0.2,0.1,0.4,0.2,0.6,0.4
			c0.2,0.2,0.4,0.4,0.5,0.6c0.1,0.2,0.3,0.5,0.4,0.7C35.8,93,35.9,93.3,35.9,93.6z M31.9,99.7c-0.3-0.1-0.6-0.2-0.9-0.2
			c-0.4,0-0.7,0-1,0.1c-0.3,0.1-0.5,0.1-0.6,0.3c-0.2,0.1-0.3,0.3-0.3,0.5c-0.1,0.2-0.1,0.4-0.1,0.7v0c0,0.1,0,0.1,0,0.2
			c0,0.1,0,0.1,0,0.2c0,0.3,0.1,0.5,0.2,0.7c0.1,0.2,0.3,0.3,0.6,0.3c0.1,0,0.1,0,0.2,0c0.2,0,0.5-0.1,0.8-0.2
			c0.3-0.1,0.5-0.1,0.8-0.3s0.5-0.3,0.7-0.5s0.4-0.5,0.5-0.8c0,0,0,0,0-0.1c0-0.1,0-0.2-0.1-0.3C32.4,100,32.2,99.8,31.9,99.7z
			 M32.6,94.8c0-0.1,0-0.1,0-0.2c-0.3-0.1-0.5-0.1-0.8-0.2c-0.3-0.1-0.5-0.1-0.8-0.1c-0.4,0-0.8,0.1-1,0.3c-0.2,0.2-0.4,0.4-0.5,0.6
			s-0.2,0.5-0.2,0.8c0,0.3-0.1,0.6-0.1,0.9v0c0,0.1,0.1,0.1,0.2,0.1c0,0,0.1,0,0.1,0s0.1,0,0.1,0c0.3-0.1,0.6-0.2,0.9-0.3
			c0.3-0.1,0.6-0.2,0.9-0.2l0,0c0,0,0,0,0.1,0c0.3-0.1,0.5-0.3,0.7-0.6c0.2-0.3,0.3-0.6,0.4-0.9C32.6,94.9,32.6,94.8,32.6,94.8z"/>
		<path fill="#0F6B87" d="M44.9,101.9c-0.4,0.7-0.8,1.3-1.3,1.8c-0.5,0.5-1,0.9-1.6,1.2s-1.2,0.4-1.9,0.4c-0.6,0-1.2-0.2-1.6-0.5
			c-0.5-0.3-0.8-0.7-1.1-1.2c-0.3-0.5-0.5-1.1-0.6-1.7c-0.1-0.6-0.2-1.3-0.2-2c0-0.7,0.1-1.4,0.2-2.1c0.1-0.7,0.3-1.4,0.5-2.1
			c0.2-0.7,0.5-1.3,0.9-1.8c0.4-0.6,0.8-1.1,1.4-1.5c0.5-0.4,1.1-0.8,1.7-1c0.6-0.2,1.2-0.4,1.9-0.4h0.2c0.5,0,1,0.2,1.4,0.4
			c0.4,0.2,0.7,0.6,1,1s0.4,0.9,0.6,1.4c0.1,0.5,0.2,1.1,0.2,1.7c0,0.7-0.1,1.4-0.2,2.1c-0.1,0.8-0.3,1.5-0.4,2.2
			C45.6,100.5,45.3,101.2,44.9,101.9z M42.3,94.9c-0.3-0.3-0.7-0.4-1.1-0.4c-0.2,0-0.4,0-0.6,0.1c-0.3,0.1-0.6,0.3-0.8,0.6
			s-0.4,0.5-0.6,0.9c-0.2,0.3-0.3,0.7-0.4,1c-0.1,0.4-0.1,0.7-0.2,1.1s-0.1,0.7-0.1,1c0,0.3,0,0.5,0,0.7c0,0.2,0,0.5,0.1,0.7
			c0.1,0.2,0.2,0.4,0.3,0.6c0.1,0.2,0.3,0.3,0.4,0.5s0.3,0.2,0.5,0.3h0.5c0.3,0,0.5-0.1,0.8-0.2s0.5-0.3,0.7-0.6v0
			c0.4-0.6,0.7-1.3,0.8-2c0.1-0.7,0.2-1.4,0.2-2.1c0-0.2,0-0.3,0-0.5c0-0.2,0-0.3,0-0.5C42.8,95.5,42.7,95.2,42.3,94.9z"/>
		<path fill="#0F6B87" d="M56.2,94.4c0,1.1-0.1,2.1-0.2,3.2c-0.1,1.1-0.2,2.1-0.4,3.2c-0.2,1-0.4,2.1-0.8,3.1
			c-0.1,0.3-0.3,0.6-0.6,0.8c-0.3,0.2-0.6,0.3-1,0.3c-0.3,0-0.6-0.1-0.8-0.2c-0.2-0.1-0.5-0.3-0.6-0.6c-0.2-0.2-0.3-0.5-0.5-0.8
			c-0.1-0.3-0.3-0.6-0.4-0.9c-0.1-0.3-0.2-0.6-0.3-1c-0.1-0.3-0.2-0.6-0.3-0.8c-0.1-0.1-0.1-0.2-0.2-0.3s-0.1-0.2-0.2-0.3
			c-0.1-0.1-0.1-0.2-0.2-0.3c-0.1-0.1-0.2-0.1-0.3-0.1c-0.1,0.1-0.1,0.2-0.1,0.4s0,0.4,0,0.6c0,0.4,0,0.7,0.1,1s0.1,0.7,0.1,1.2
			c0,0.3-0.1,0.5-0.1,0.8c-0.1,0.3-0.2,0.5-0.4,0.7c-0.1,0.1-0.2,0.2-0.4,0.3c-0.1,0.1-0.3,0.1-0.4,0.1c-0.2,0-0.4-0.1-0.5-0.2
			c-0.1-0.1-0.2-0.3-0.3-0.6c-0.1-0.2-0.1-0.5-0.1-0.9c0-0.3,0-0.7,0-1.1c0-1.2,0.1-2.4,0.2-3.5s0.2-2.4,0.4-3.6
			c0-0.3,0.1-0.5,0.2-0.7c0.1-0.2,0.2-0.4,0.4-0.6c0.1-0.2,0.3-0.3,0.5-0.4c0.2-0.1,0.4-0.2,0.6-0.2c0.3,0,0.6,0.1,0.8,0.3
			c0.2,0.2,0.4,0.5,0.4,0.9c0.1,0.5,0.2,1,0.4,1.4c0.2,0.4,0.4,0.9,0.6,1.3c0.1,0.1,0.1,0.3,0.2,0.4c0.1,0.2,0.1,0.3,0.2,0.4
			c0.1,0.1,0.2,0.3,0.3,0.4c0.1,0.1,0.3,0.2,0.4,0.2c0.1-0.1,0.2-0.3,0.2-0.4c0.1-0.2,0.1-0.3,0.1-0.5s0-0.4,0.1-0.5
			c0-0.2,0-0.4,0.1-0.6c0-0.5,0-1.1-0.1-1.6c-0.1-0.5-0.1-1-0.1-1.6c0-0.3,0.1-0.7,0.2-1s0.4-0.6,0.6-0.9c0.3-0.2,0.5-0.4,0.9-0.6
			s0.6-0.2,0.9-0.2c0.3,0,0.5,0.1,0.6,0.2s0.3,0.3,0.3,0.6v0.1C56.3,92.3,56.3,93.3,56.2,94.4z"/>
		<path fill="#0F6B87" d="M66.2,91.1c-0.2,0.7-0.3,1.5-0.3,2.2c0,0.7,0,1.5,0,2.2l-0.1,3c0,0.6-0.1,1.3-0.3,1.9
			c-0.2,0.7-0.4,1.3-0.7,1.8c-0.3,0.6-0.7,1.1-1.1,1.5c-0.4,0.4-1,0.7-1.5,0.9c-0.4,0.1-0.7,0.2-1,0.3c-0.3,0.1-0.7,0.2-1,0.2
			c-0.5,0-1-0.2-1.3-0.5c-0.4-0.3-0.7-0.6-1-1.1c-0.3-0.4-0.5-0.9-0.6-1.4c-0.1-0.5-0.2-1.1-0.2-1.6c0-0.7,0.1-1.5,0.2-2.2
			s0.2-1.6,0.3-2.4c0-0.2,0-0.4-0.1-0.6c0-0.2,0-0.4,0-0.6c0-0.2,0-0.5,0.1-0.8c0.1-0.3,0.2-0.5,0.4-0.8c0.2-0.2,0.3-0.5,0.5-0.6
			c0.2-0.2,0.4-0.2,0.6-0.2c0.1,0,0.3,0,0.4,0.1c0.1,0.1,0.2,0.2,0.2,0.4c0.1,0.1,0.1,0.3,0.1,0.5c0,0.2,0,0.4,0,0.6
			c0,0.5,0,0.9-0.1,1.4c-0.1,0.5-0.1,1-0.2,1.4c-0.1,0.5-0.1,0.9-0.2,1.4c-0.1,0.5-0.1,0.9-0.1,1.4c0,0.2,0,0.5,0,0.7
			c0,0.2,0.1,0.5,0.2,0.7c0.1,0.2,0.2,0.4,0.4,0.6c0.2,0.2,0.4,0.3,0.7,0.5c0.3,0,0.5-0.1,0.7-0.3c0.2-0.2,0.4-0.4,0.5-0.6
			s0.3-0.5,0.4-0.8c0.1-0.3,0.2-0.6,0.2-0.8c0.3-2,0.5-4,0.5-6c0-0.3,0-0.6,0-0.9c0-0.3,0-0.6,0-0.9c0-0.3,0.1-0.5,0.2-0.7
			c0.1-0.2,0.3-0.4,0.5-0.6c0.2-0.2,0.4-0.3,0.6-0.4C64.5,90,64.7,90,65,90c0.1,0,0.1,0,0.1,0c0,0,0.1,0,0.1,0
			c0.1,0,0.2,0.1,0.3,0.1c0.1,0,0.2,0.1,0.3,0.1c0.1,0.1,0.2,0.2,0.2,0.3C66.2,90.7,66.2,90.9,66.2,91.1L66.2,91.1z"/>
		<path fill="#0F6B87" d="M75.1,94.6c-0.1,0.2-0.3,0.3-0.5,0.5c-0.2,0.1-0.4,0.2-0.5,0.3s-0.4,0.1-0.5,0.1c-0.1,0-0.3,0-0.4-0.1
			s-0.2-0.1-0.3-0.3l0,0c-0.2-0.3-0.5-0.5-0.8-0.7c-0.3-0.2-0.6-0.3-1-0.3c-0.1,0-0.3,0-0.4,0.1s-0.3,0.1-0.5,0.2
			c-0.2,0.1-0.3,0.2-0.4,0.3c-0.1,0.1-0.2,0.3-0.3,0.5v0c0,0.2,0,0.3,0.1,0.4c0,0.1,0.1,0.2,0.2,0.2c0.1,0.1,0.2,0.1,0.3,0.1
			c0.1,0,0.2,0,0.3,0c0.3,0,0.6,0,1-0.1c0.3,0,0.7-0.1,1-0.1c0.2,0,0.5,0,0.7,0.1s0.4,0.1,0.6,0.2c0.2,0.1,0.4,0.2,0.5,0.4
			s0.3,0.4,0.4,0.6c0.2,0.4,0.4,0.9,0.5,1.3c0.2,0.5,0.2,1,0.2,1.5c0,0,0,0.1,0,0.1c0,0,0,0.1,0,0.1c-0.1,0.7-0.4,1.4-0.8,1.9
			c-0.4,0.6-0.8,1-1.3,1.4c-0.5,0.4-1,0.7-1.6,0.9c-0.6,0.2-1.1,0.3-1.6,0.4c-0.3,0-0.7-0.1-1.1-0.2c-0.4-0.1-0.8-0.3-1.1-0.5
			s-0.7-0.5-0.9-0.8c-0.3-0.3-0.4-0.8-0.4-1.3v-0.2c0-0.2,0-0.3,0.1-0.5c0-0.2,0.1-0.3,0.2-0.5s0.2-0.3,0.3-0.3
			c0.1-0.1,0.2-0.1,0.4-0.2l0.2,0c0.2,0.1,0.4,0.2,0.6,0.3c0.2,0.1,0.4,0.3,0.6,0.5c0.2,0.2,0.4,0.3,0.6,0.4
			c0.2,0.1,0.5,0.2,0.8,0.2h0.1c0.1,0,0.3,0,0.4-0.1c0.1-0.1,0.3-0.2,0.4-0.3c0.1-0.1,0.2-0.2,0.3-0.4c0.1-0.1,0.1-0.3,0.1-0.5
			c0-0.2-0.1-0.4-0.1-0.6V100c0-0.2-0.1-0.3-0.2-0.4c-0.2-0.1-0.4-0.1-0.6-0.1s-0.5,0-0.9,0s-0.7,0-1-0.1c-0.3-0.1-0.7-0.2-1-0.4
			s-0.6-0.5-0.9-0.9c0-0.2-0.1-0.4-0.1-0.6c0-0.2-0.1-0.4-0.1-0.6c0,0,0-0.1,0-0.1c0,0,0-0.1,0-0.1c0.1-0.8,0.3-1.6,0.7-2.3
			c0.4-0.7,0.9-1.4,1.5-2c0.6-0.6,1.2-1,1.9-1.3s1.4-0.5,2.1-0.5c0.3,0,0.6,0,1,0.1c0.3,0.1,0.6,0.2,0.8,0.4
			c0.2,0.2,0.4,0.4,0.6,0.7s0.2,0.7,0.2,1.1c0,0.2,0,0.3-0.1,0.5c0,0.2-0.1,0.4-0.1,0.5C75.4,94.2,75.3,94.4,75.1,94.6z"/>
	</g>
</g>
</svg>
